<svg width="253" height="267" viewBox="0 0 253 267" fill="none" xmlns="http://www.w3.org/2000/svg">
<path d="M30.0605 30L41.5 41.5605" stroke="#FFC700" stroke-width="3"/>
<path d="M41.5 30L30.0605 41.5605" stroke="#FFC700" stroke-width="3"/>
<path d="M2.06055 30L13.5 41.5605" stroke="#FFC700" stroke-width="3"/>
<path d="M13.5 30L2.06055 41.5605" stroke="#FFC700" stroke-width="3"/>
<path d="M240.061 30L251.5 41.5605" stroke="#FFC700" stroke-width="3"/>
<path d="M251.5 30L240.061 41.5605" stroke="#FFC700" stroke-width="3"/>
<path d="M2.06055 2L13.5 13.5605" stroke="#FFC700" stroke-width="3"/>
<path d="M13.5 2L2.06055 13.5605" stroke="#FFC700" stroke-width="3"/>
<path d="M226.061 2L237.5 13.5605" stroke="#FFC700" stroke-width="3"/>
<path d="M237.5 2L226.061 13.5605" stroke="#FFC700" stroke-width="3"/>
<path d="M240.061 2L251.5 13.5605" stroke="#FFC700" stroke-width="3"/>
<path d="M251.5 2L240.061 13.5605" stroke="#FFC700" stroke-width="3"/>
<path d="M16.0605 2L27.5 13.5605" stroke="#FFC700" stroke-width="3"/>
<path d="M27.5 2L16.0605 13.5605" stroke="#FFC700" stroke-width="3"/>
<path d="M30.0605 44L41.5 55.5605" stroke="#FFC700" stroke-width="3"/>
<path d="M41.5 44L30.0605 55.5605" stroke="#FFC700" stroke-width="3"/>
<path d="M2.06055 44L13.5 55.5605" stroke="#FFC700" stroke-width="3"/>
<path d="M13.5 44L2.06055 55.5605" stroke="#FFC700" stroke-width="3"/>
<path d="M240.061 44L251.5 55.5605" stroke="#FFC700" stroke-width="3"/>
<path d="M251.5 44L240.061 55.5605" stroke="#FFC700" stroke-width="3"/>
<path d="M2.06055 16L13.5 27.5605" stroke="#FFC700" stroke-width="3"/>
<path d="M13.5 16L2.06055 27.5605" stroke="#FFC700" stroke-width="3"/>
<path d="M240.061 16L251.5 27.5605" stroke="#FFC700" stroke-width="3"/>
<path d="M251.5 16L240.061 27.5605" stroke="#FFC700" stroke-width="3"/>
<path d="M30.0605 58L41.5 69.5605" stroke="#FFC700" stroke-width="3"/>
<path d="M41.5 58L30.0605 69.5605" stroke="#FFC700" stroke-width="3"/>
<path d="M2.06055 58L13.5 69.5605" stroke="#FFC700" stroke-width="3"/>
<path d="M13.5 58L2.06055 69.5605" stroke="#FFC700" stroke-width="3"/>
<path d="M240.061 58L251.5 69.5605" stroke="#FFC700" stroke-width="3"/>
<path d="M251.5 58L240.061 69.5605" stroke="#FFC700" stroke-width="3"/>
<path d="M30.0605 72L41.5 83.5605" stroke="#FFC700" stroke-width="3"/>
<path d="M41.5 72L30.0605 83.5605" stroke="#FFC700" stroke-width="3"/>
<path d="M2.06055 72L13.5 83.5605" stroke="#FFC700" stroke-width="3"/>
<path d="M13.5 72L2.06055 83.5605" stroke="#FFC700" stroke-width="3"/>
<path d="M240.061 72L251.5 83.5605" stroke="#FFC700" stroke-width="3"/>
<path d="M251.5 72L240.061 83.5605" stroke="#FFC700" stroke-width="3"/>
<path d="M2.06055 114L13.5 125.561" stroke="#FFC700" stroke-width="3"/>
<path d="M13.5 114L2.06055 125.561" stroke="#FFC700" stroke-width="3"/>
<path d="M240.061 114L251.5 125.561" stroke="#FFC700" stroke-width="3"/>
<path d="M251.5 114L240.061 125.561" stroke="#FFC700" stroke-width="3"/>
<path d="M30.0605 86L41.5 97.5605" stroke="#FFC700" stroke-width="3"/>
<path d="M41.5 86L30.0605 97.5605" stroke="#FFC700" stroke-width="3"/>
<path d="M2.06055 86L13.5 97.5605" stroke="#FFC700" stroke-width="3"/>
<path d="M13.5 86L2.06055 97.5605" stroke="#FFC700" stroke-width="3"/>
<path d="M240.061 86L251.5 97.5605" stroke="#FFC700" stroke-width="3"/>
<path d="M251.5 86L240.061 97.5605" stroke="#FFC700" stroke-width="3"/>
<path d="M2.06055 128L13.5 139.561" stroke="#FFC700" stroke-width="3"/>
<path d="M13.5 128L2.06055 139.561" stroke="#FFC700" stroke-width="3"/>
<path d="M226.061 128L237.5 139.561" stroke="#FFC700" stroke-width="3"/>
<path d="M237.5 128L226.061 139.561" stroke="#FFC700" stroke-width="3"/>
<path d="M240.061 128L251.5 139.561" stroke="#FFC700" stroke-width="3"/>
<path d="M251.5 128L240.061 139.561" stroke="#FFC700" stroke-width="3"/>
<path d="M30.0605 100L41.5 111.561" stroke="#FFC700" stroke-width="3"/>
<path d="M41.5 100L30.0605 111.561" stroke="#FFC700" stroke-width="3"/>
<path d="M2.06055 100L13.5 111.561" stroke="#FFC700" stroke-width="3"/>
<path d="M13.5 100L2.06055 111.561" stroke="#FFC700" stroke-width="3"/>
<path d="M240.061 100L251.5 111.561" stroke="#FFC700" stroke-width="3"/>
<path d="M251.5 100L240.061 111.561" stroke="#FFC700" stroke-width="3"/>
<path d="M30.0605 128L41.5 139.561" stroke="#FFC700" stroke-width="3"/>
<path d="M41.5 128L30.0605 139.561" stroke="#FFC700" stroke-width="3"/>
<path d="M30.0605 2L41.5 13.5605" stroke="#FFC700" stroke-width="3"/>
<path d="M41.5 2L30.0605 13.5605" stroke="#FFC700" stroke-width="3"/>
<path d="M2.06055 142L13.5 153.561" stroke="#FFC700" stroke-width="3"/>
<path d="M13.5 142L2.06055 153.561" stroke="#FFC700" stroke-width="3"/>
<path d="M30.0605 142L41.5 153.561" stroke="#FFC700" stroke-width="3"/>
<path d="M41.5 142L30.0605 153.561" stroke="#FFC700" stroke-width="3"/>
<path d="M240.061 142L251.5 153.561" stroke="#FFC700" stroke-width="3"/>
<path d="M251.5 142L240.061 153.561" stroke="#FFC700" stroke-width="3"/>
<path d="M212.061 142L223.5 153.561" stroke="#FFC700" stroke-width="3"/>
<path d="M223.5 142L212.061 153.561" stroke="#FFC700" stroke-width="3"/>
<path d="M2.06055 184L13.5 195.561" stroke="#FFC700" stroke-width="3"/>
<path d="M13.5 184L2.06055 195.561" stroke="#FFC700" stroke-width="3"/>
<path d="M30.0605 184L41.5 195.561" stroke="#FFC700" stroke-width="3"/>
<path d="M41.5 184L30.0605 195.561" stroke="#FFC700" stroke-width="3"/>
<path d="M240.061 184L251.5 195.561" stroke="#FFC700" stroke-width="3"/>
<path d="M251.5 184L240.061 195.561" stroke="#FFC700" stroke-width="3"/>
<path d="M212.061 184L223.5 195.561" stroke="#FFC700" stroke-width="3"/>
<path d="M223.5 184L212.061 195.561" stroke="#FFC700" stroke-width="3"/>
<path d="M2.06055 226L13.5 237.561" stroke="#FFC700" stroke-width="3"/>
<path d="M13.5 226L2.06055 237.561" stroke="#FFC700" stroke-width="3"/>
<path d="M30.0605 226L41.5 237.561" stroke="#FFC700" stroke-width="3"/>
<path d="M41.5 226L30.0605 237.561" stroke="#FFC700" stroke-width="3"/>
<path d="M240.061 226L251.5 237.561" stroke="#FFC700" stroke-width="3"/>
<path d="M251.5 226L240.061 237.561" stroke="#FFC700" stroke-width="3"/>
<path d="M212.061 226L223.5 237.561" stroke="#FFC700" stroke-width="3"/>
<path d="M223.5 226L212.061 237.561" stroke="#FFC700" stroke-width="3"/>
<path d="M2.06055 156L13.5 167.561" stroke="#FFC700" stroke-width="3"/>
<path d="M13.5 156L2.06055 167.561" stroke="#FFC700" stroke-width="3"/>
<path d="M30.0605 156L41.5 167.561" stroke="#FFC700" stroke-width="3"/>
<path d="M41.5 156L30.0605 167.561" stroke="#FFC700" stroke-width="3"/>
<path d="M240.061 156L251.5 167.561" stroke="#FFC700" stroke-width="3"/>
<path d="M251.5 156L240.061 167.561" stroke="#FFC700" stroke-width="3"/>
<path d="M212.061 156L223.5 167.561" stroke="#FFC700" stroke-width="3"/>
<path d="M223.5 156L212.061 167.561" stroke="#FFC700" stroke-width="3"/>
<path d="M2.06055 198L13.5 209.561" stroke="#FFC700" stroke-width="3"/>
<path d="M13.5 198L2.06055 209.561" stroke="#FFC700" stroke-width="3"/>
<path d="M30.0605 198L41.5 209.561" stroke="#FFC700" stroke-width="3"/>
<path d="M41.5 198L30.0605 209.561" stroke="#FFC700" stroke-width="3"/>
<path d="M240.061 198L251.5 209.561" stroke="#FFC700" stroke-width="3"/>
<path d="M251.5 198L240.061 209.561" stroke="#FFC700" stroke-width="3"/>
<path d="M212.061 198L223.5 209.561" stroke="#FFC700" stroke-width="3"/>
<path d="M223.5 198L212.061 209.561" stroke="#FFC700" stroke-width="3"/>
<path d="M2.06055 240L13.5 251.561" stroke="#FFC700" stroke-width="3"/>
<path d="M13.5 240L2.06055 251.561" stroke="#FFC700" stroke-width="3"/>
<path d="M30.0605 240L41.5 251.561" stroke="#FFC700" stroke-width="3"/>
<path d="M41.5 240L30.0605 251.561" stroke="#FFC700" stroke-width="3"/>
<path d="M240.061 240L251.5 251.561" stroke="#FFC700" stroke-width="3"/>
<path d="M251.5 240L240.061 251.561" stroke="#FFC700" stroke-width="3"/>
<path d="M212.061 240L223.5 251.561" stroke="#FFC700" stroke-width="3"/>
<path d="M223.5 240L212.061 251.561" stroke="#FFC700" stroke-width="3"/>
<path d="M2.06055 170L13.5 181.561" stroke="#FFC700" stroke-width="3"/>
<path d="M13.5 170L2.06055 181.561" stroke="#FFC700" stroke-width="3"/>
<path d="M30.0605 170L41.5 181.561" stroke="#FFC700" stroke-width="3"/>
<path d="M41.5 170L30.0605 181.561" stroke="#FFC700" stroke-width="3"/>
<path d="M240.061 170L251.5 181.561" stroke="#FFC700" stroke-width="3"/>
<path d="M251.5 170L240.061 181.561" stroke="#FFC700" stroke-width="3"/>
<path d="M212.061 170L223.5 181.561" stroke="#FFC700" stroke-width="3"/>
<path d="M223.5 170L212.061 181.561" stroke="#FFC700" stroke-width="3"/>
<path d="M2.06055 212L13.5 223.561" stroke="#FFC700" stroke-width="3"/>
<path d="M13.5 212L2.06055 223.561" stroke="#FFC700" stroke-width="3"/>
<path d="M30.0605 212L41.5 223.561" stroke="#FFC700" stroke-width="3"/>
<path d="M41.5 212L30.0605 223.561" stroke="#FFC700" stroke-width="3"/>
<path d="M240.061 212L251.5 223.561" stroke="#FFC700" stroke-width="3"/>
<path d="M251.5 212L240.061 223.561" stroke="#FFC700" stroke-width="3"/>
<path d="M212.061 212L223.5 223.561" stroke="#FFC700" stroke-width="3"/>
<path d="M223.5 212L212.061 223.561" stroke="#FFC700" stroke-width="3"/>
<path d="M2.06055 254L13.5 265.561" stroke="#FFC700" stroke-width="3"/>
<path d="M13.5 254L2.06055 265.561" stroke="#FFC700" stroke-width="3"/>
<path d="M30.0605 254L41.5 265.561" stroke="#FFC700" stroke-width="3"/>
<path d="M41.5 254L30.0605 265.561" stroke="#FFC700" stroke-width="3"/>
<path d="M240.061 254L251.5 265.561" stroke="#FFC700" stroke-width="3"/>
<path d="M251.5 254L240.061 265.561" stroke="#FFC700" stroke-width="3"/>
<path d="M212.061 254L223.5 265.561" stroke="#FFC700" stroke-width="3"/>
<path d="M223.5 254L212.061 265.561" stroke="#FFC700" stroke-width="3"/>
<path d="M44.0605 30L55.5 41.5605" stroke="#FFC700" stroke-width="3"/>
<path d="M55.5 30L44.0605 41.5605" stroke="#FFC700" stroke-width="3"/>
<path d="M44.0605 100L55.5 111.561" stroke="#FFC700" stroke-width="3"/>
<path d="M55.5 100L44.0605 111.561" stroke="#FFC700" stroke-width="3"/>
<path d="M58.0605 30L69.5 41.5605" stroke="#FFC700" stroke-width="3"/>
<path d="M69.5 30L58.0605 41.5605" stroke="#FFC700" stroke-width="3"/>
<path d="M44.0605 128L55.5 139.561" stroke="#FFC700" stroke-width="3"/>
<path d="M55.5 128L44.0605 139.561" stroke="#FFC700" stroke-width="3"/>
<path d="M44.0605 2L55.5 13.5605" stroke="#FFC700" stroke-width="3"/>
<path d="M55.5 2L44.0605 13.5605" stroke="#FFC700" stroke-width="3"/>
<path d="M58.0605 100L69.5 111.561" stroke="#FFC700" stroke-width="3"/>
<path d="M69.5 100L58.0605 111.561" stroke="#FFC700" stroke-width="3"/>
<path d="M72.0605 30L83.5 41.5605" stroke="#FFC700" stroke-width="3"/>
<path d="M83.5 30L72.0605 41.5605" stroke="#FFC700" stroke-width="3"/>
<path d="M58.0605 128L69.5 139.561" stroke="#FFC700" stroke-width="3"/>
<path d="M69.5 128L58.0605 139.561" stroke="#FFC700" stroke-width="3"/>
<path d="M58.0605 2L69.5 13.5605" stroke="#FFC700" stroke-width="3"/>
<path d="M69.5 2L58.0605 13.5605" stroke="#FFC700" stroke-width="3"/>
<path d="M114.061 100L125.5 111.561" stroke="#FFC700" stroke-width="3"/>
<path d="M125.5 100L114.061 111.561" stroke="#FFC700" stroke-width="3"/>
<path d="M128.061 30L139.5 41.5605" stroke="#FFC700" stroke-width="3"/>
<path d="M139.5 30L128.061 41.5605" stroke="#FFC700" stroke-width="3"/>
<path d="M114.061 128L125.5 139.561" stroke="#FFC700" stroke-width="3"/>
<path d="M125.5 128L114.061 139.561" stroke="#FFC700" stroke-width="3"/>
<path d="M114.061 2L125.5 13.5605" stroke="#FFC700" stroke-width="3"/>
<path d="M125.5 2L114.061 13.5605" stroke="#FFC700" stroke-width="3"/>
<path d="M170.061 100L181.5 111.561" stroke="#FFC700" stroke-width="3"/>
<path d="M181.5 100L170.061 111.561" stroke="#FFC700" stroke-width="3"/>
<path d="M72.0605 100L83.5 111.561" stroke="#FFC700" stroke-width="3"/>
<path d="M83.5 100L72.0605 111.561" stroke="#FFC700" stroke-width="3"/>
<path d="M170.061 128L181.5 139.561" stroke="#FFC700" stroke-width="3"/>
<path d="M181.5 128L170.061 139.561" stroke="#FFC700" stroke-width="3"/>
<path d="M72.0605 128L83.5 139.561" stroke="#FFC700" stroke-width="3"/>
<path d="M83.5 128L72.0605 139.561" stroke="#FFC700" stroke-width="3"/>
<path d="M170.061 2L181.5 13.5605" stroke="#FFC700" stroke-width="3"/>
<path d="M181.5 2L170.061 13.5605" stroke="#FFC700" stroke-width="3"/>
<path d="M86.0605 30L97.5 41.5605" stroke="#FFC700" stroke-width="3"/>
<path d="M97.5 30L86.0605 41.5605" stroke="#FFC700" stroke-width="3"/>
<path d="M72.0605 2L83.5 13.5605" stroke="#FFC700" stroke-width="3"/>
<path d="M83.5 2L72.0605 13.5605" stroke="#FFC700" stroke-width="3"/>
<path d="M128.061 100L139.5 111.561" stroke="#FFC700" stroke-width="3"/>
<path d="M139.5 100L128.061 111.561" stroke="#FFC700" stroke-width="3"/>
<path d="M142.061 30L153.5 41.5605" stroke="#FFC700" stroke-width="3"/>
<path d="M153.5 30L142.061 41.5605" stroke="#FFC700" stroke-width="3"/>
<path d="M128.061 128L139.5 139.561" stroke="#FFC700" stroke-width="3"/>
<path d="M139.5 128L128.061 139.561" stroke="#FFC700" stroke-width="3"/>
<path d="M128.061 2L139.5 13.5605" stroke="#FFC700" stroke-width="3"/>
<path d="M139.5 2L128.061 13.5605" stroke="#FFC700" stroke-width="3"/>
<path d="M184.061 100L195.5 111.561" stroke="#FFC700" stroke-width="3"/>
<path d="M195.5 100L184.061 111.561" stroke="#FFC700" stroke-width="3"/>
<path d="M86.0605 100L97.5 111.561" stroke="#FFC700" stroke-width="3"/>
<path d="M97.5 100L86.0605 111.561" stroke="#FFC700" stroke-width="3"/>
<path d="M184.061 128L195.5 139.561" stroke="#FFC700" stroke-width="3"/>
<path d="M195.5 128L184.061 139.561" stroke="#FFC700" stroke-width="3"/>
<path d="M184.061 2L195.5 13.5605" stroke="#FFC700" stroke-width="3"/>
<path d="M195.5 2L184.061 13.5605" stroke="#FFC700" stroke-width="3"/>
<path d="M86.0605 128L97.5 139.561" stroke="#FFC700" stroke-width="3"/>
<path d="M97.5 128L86.0605 139.561" stroke="#FFC700" stroke-width="3"/>
<path d="M100.061 30L111.5 41.5605" stroke="#FFC700" stroke-width="3"/>
<path d="M111.5 30L100.061 41.5605" stroke="#FFC700" stroke-width="3"/>
<path d="M86.0605 2L97.5 13.5605" stroke="#FFC700" stroke-width="3"/>
<path d="M97.5 2L86.0605 13.5605" stroke="#FFC700" stroke-width="3"/>
<path d="M142.061 100L153.5 111.561" stroke="#FFC700" stroke-width="3"/>
<path d="M153.5 100L142.061 111.561" stroke="#FFC700" stroke-width="3"/>
<path d="M156.061 30L167.5 41.5605" stroke="#FFC700" stroke-width="3"/>
<path d="M167.5 30L156.061 41.5605" stroke="#FFC700" stroke-width="3"/>
<path d="M142.061 128L153.5 139.561" stroke="#FFC700" stroke-width="3"/>
<path d="M153.5 128L142.061 139.561" stroke="#FFC700" stroke-width="3"/>
<path d="M142.061 2L153.5 13.5605" stroke="#FFC700" stroke-width="3"/>
<path d="M153.5 2L142.061 13.5605" stroke="#FFC700" stroke-width="3"/>
<path d="M198.061 100L209.5 111.561" stroke="#FFC700" stroke-width="3"/>
<path d="M209.5 100L198.061 111.561" stroke="#FFC700" stroke-width="3"/>
<path d="M100.061 100L111.5 111.561" stroke="#FFC700" stroke-width="3"/>
<path d="M111.5 100L100.061 111.561" stroke="#FFC700" stroke-width="3"/>
<path d="M198.061 128L209.5 139.561" stroke="#FFC700" stroke-width="3"/>
<path d="M209.5 128L198.061 139.561" stroke="#FFC700" stroke-width="3"/>
<path d="M100.061 128L111.5 139.561" stroke="#FFC700" stroke-width="3"/>
<path d="M111.5 128L100.061 139.561" stroke="#FFC700" stroke-width="3"/>
<path d="M198.061 2L209.5 13.5605" stroke="#FFC700" stroke-width="3"/>
<path d="M209.5 2L198.061 13.5605" stroke="#FFC700" stroke-width="3"/>
<path d="M100.061 2L111.5 13.5605" stroke="#FFC700" stroke-width="3"/>
<path d="M111.5 2L100.061 13.5605" stroke="#FFC700" stroke-width="3"/>
<path d="M114.061 30L125.5 41.5605" stroke="#FFC700" stroke-width="3"/>
<path d="M125.5 30L114.061 41.5605" stroke="#FFC700" stroke-width="3"/>
<path d="M156.061 100L167.5 111.561" stroke="#FFC700" stroke-width="3"/>
<path d="M167.5 100L156.061 111.561" stroke="#FFC700" stroke-width="3"/>
<path d="M170.061 30L181.5 41.5605" stroke="#FFC700" stroke-width="3"/>
<path d="M181.5 30L170.061 41.5605" stroke="#FFC700" stroke-width="3"/>
<path d="M156.061 128L167.5 139.561" stroke="#FFC700" stroke-width="3"/>
<path d="M167.5 128L156.061 139.561" stroke="#FFC700" stroke-width="3"/>
<path d="M156.061 2L167.5 13.5605" stroke="#FFC700" stroke-width="3"/>
<path d="M167.5 2L156.061 13.5605" stroke="#FFC700" stroke-width="3"/>
<path d="M212.061 100L223.5 111.561" stroke="#FFC700" stroke-width="3"/>
<path d="M223.5 100L212.061 111.561" stroke="#FFC700" stroke-width="3"/>
<path d="M212.061 128L223.5 139.561" stroke="#FFC700" stroke-width="3"/>
<path d="M223.5 128L212.061 139.561" stroke="#FFC700" stroke-width="3"/>
<path d="M212.061 86L223.5 97.5605" stroke="#FFC700" stroke-width="3"/>
<path d="M223.5 86L212.061 97.5605" stroke="#FFC700" stroke-width="3"/>
<path d="M212.061 2L223.5 13.5605" stroke="#FFC700" stroke-width="3"/>
<path d="M223.5 2L212.061 13.5605" stroke="#FFC700" stroke-width="3"/>
<path d="M212.061 72L223.5 83.5605" stroke="#FFC700" stroke-width="3"/>
<path d="M223.5 72L212.061 83.5605" stroke="#FFC700" stroke-width="3"/>
<path d="M212.061 58L223.5 69.5605" stroke="#FFC700" stroke-width="3"/>
<path d="M223.5 58L212.061 69.5605" stroke="#FFC700" stroke-width="3"/>
<path d="M212.061 44L223.5 55.5605" stroke="#FFC700" stroke-width="3"/>
<path d="M223.5 44L212.061 55.5605" stroke="#FFC700" stroke-width="3"/>
<path d="M212.061 30L223.5 41.5605" stroke="#FFC700" stroke-width="3"/>
<path d="M223.5 30L212.061 41.5605" stroke="#FFC700" stroke-width="3"/>
<path d="M198.061 30L209.5 41.5605" stroke="#FFC700" stroke-width="3"/>
<path d="M209.5 30L198.061 41.5605" stroke="#FFC700" stroke-width="3"/>
<path d="M184.061 30L195.5 41.5605" stroke="#FFC700" stroke-width="3"/>
<path d="M195.5 30L184.061 41.5605" stroke="#FFC700" stroke-width="3"/>
<path d="M66 76.875V63.375H69.375V76.875H66ZM86.25 76.875V63.375H89.625V76.875H86.25ZM76.125 87V80.25H69.375V76.875H76.125V63.375H69.375V60H76.125V53.25H79.5V60H86.25V63.375H79.5V76.875H86.25V80.25H79.5V87H76.125ZM103.26 73.5V66.75H106.635V73.5H103.26ZM96.51 87V53.25H99.885V73.5H103.26V80.25H99.885V87H96.51ZM110.01 87V66.75H106.635V60H110.01V53.25H113.385V87H110.01ZM120.27 87V53.25H123.645V66.75H133.77V53.25H137.145V87H133.77V70.125H123.645V87H120.27ZM150.78 73.5V66.75H154.155V73.5H150.78ZM144.03 87V53.25H147.405V73.5H150.78V80.25H147.405V87H144.03ZM157.53 87V66.75H154.155V60H157.53V53.25H160.905V87H157.53ZM167.79 87V53.25H171.165V83.625H174.54V53.25H177.915V83.625H181.29V53.25H184.665V87H167.79Z" fill="#FFC700"/>
</svg>
