<svg width="476" height="197" viewBox="0 0 476 197" fill="none" xmlns="http://www.w3.org/2000/svg">
<path d="M16.0605 128L27.5 139.561" stroke="#FFC700" stroke-width="3"/>
<path d="M27.5 128L16.0605 139.561" stroke="#FFC700" stroke-width="3"/>
<path d="M449.061 128L460.5 139.561" stroke="#FFC700" stroke-width="3"/>
<path d="M460.5 128L449.061 139.561" stroke="#FFC700" stroke-width="3"/>
<path d="M463.061 128L474.5 139.561" stroke="#FFC700" stroke-width="3"/>
<path d="M474.5 128L463.061 139.561" stroke="#FFC700" stroke-width="3"/>
<path d="M2.06055 128L13.5 139.561" stroke="#FFC700" stroke-width="3"/>
<path d="M13.5 128L2.06055 139.561" stroke="#FFC700" stroke-width="3"/>
<path d="M16.0605 86L27.5 97.5605" stroke="#FFC700" stroke-width="3"/>
<path d="M27.5 86L16.0605 97.5605" stroke="#FFC700" stroke-width="3"/>
<path d="M449.061 86L460.5 97.5605" stroke="#FFC700" stroke-width="3"/>
<path d="M460.5 86L449.061 97.5605" stroke="#FFC700" stroke-width="3"/>
<path d="M463.061 86L474.5 97.5605" stroke="#FFC700" stroke-width="3"/>
<path d="M474.5 86L463.061 97.5605" stroke="#FFC700" stroke-width="3"/>
<path d="M2.06055 86L13.5 97.5605" stroke="#FFC700" stroke-width="3"/>
<path d="M13.5 86L2.06055 97.5605" stroke="#FFC700" stroke-width="3"/>
<path d="M16.0605 44L27.5 55.5605" stroke="#FFC700" stroke-width="3"/>
<path d="M27.5 44L16.0605 55.5605" stroke="#FFC700" stroke-width="3"/>
<path d="M449.061 44L460.5 55.5605" stroke="#FFC700" stroke-width="3"/>
<path d="M460.5 44L449.061 55.5605" stroke="#FFC700" stroke-width="3"/>
<path d="M449.061 44L460.5 55.5605" stroke="#FFC700" stroke-width="3"/>
<path d="M460.5 44L449.061 55.5605" stroke="#FFC700" stroke-width="3"/>
<path d="M463.061 44L474.5 55.5605" stroke="#FFC700" stroke-width="3"/>
<path d="M474.5 44L463.061 55.5605" stroke="#FFC700" stroke-width="3"/>
<path d="M2.06055 44L13.5 55.5605" stroke="#FFC700" stroke-width="3"/>
<path d="M13.5 44L2.06055 55.5605" stroke="#FFC700" stroke-width="3"/>
<path d="M16.0605 156L27.5 167.561" stroke="#FFC700" stroke-width="3"/>
<path d="M27.5 156L16.0605 167.561" stroke="#FFC700" stroke-width="3"/>
<path d="M2.06055 156L13.5 167.561" stroke="#FFC700" stroke-width="3"/>
<path d="M13.5 156L2.06055 167.561" stroke="#FFC700" stroke-width="3"/>
<path d="M30.0605 184L41.5 195.561" stroke="#FFC700" stroke-width="3"/>
<path d="M41.5 184L30.0605 195.561" stroke="#FFC700" stroke-width="3"/>
<path d="M449.061 156L460.5 167.561" stroke="#FFC700" stroke-width="3"/>
<path d="M460.5 156L449.061 167.561" stroke="#FFC700" stroke-width="3"/>
<path d="M16.0605 114L27.5 125.561" stroke="#FFC700" stroke-width="3"/>
<path d="M27.5 114L16.0605 125.561" stroke="#FFC700" stroke-width="3"/>
<path d="M449.061 114L460.5 125.561" stroke="#FFC700" stroke-width="3"/>
<path d="M460.5 114L449.061 125.561" stroke="#FFC700" stroke-width="3"/>
<path d="M463.061 114L474.5 125.561" stroke="#FFC700" stroke-width="3"/>
<path d="M474.5 114L463.061 125.561" stroke="#FFC700" stroke-width="3"/>
<path d="M2.06055 114L13.5 125.561" stroke="#FFC700" stroke-width="3"/>
<path d="M13.5 114L2.06055 125.561" stroke="#FFC700" stroke-width="3"/>
<path d="M16.0605 72L27.5 83.5605" stroke="#FFC700" stroke-width="3"/>
<path d="M27.5 72L16.0605 83.5605" stroke="#FFC700" stroke-width="3"/>
<path d="M449.061 72L460.5 83.5605" stroke="#FFC700" stroke-width="3"/>
<path d="M460.5 72L449.061 83.5605" stroke="#FFC700" stroke-width="3"/>
<path d="M463.061 72L474.5 83.5605" stroke="#FFC700" stroke-width="3"/>
<path d="M474.5 72L463.061 83.5605" stroke="#FFC700" stroke-width="3"/>
<path d="M2.06055 72L13.5 83.5605" stroke="#FFC700" stroke-width="3"/>
<path d="M13.5 72L2.06055 83.5605" stroke="#FFC700" stroke-width="3"/>
<path d="M16.0605 30L27.5 41.5605" stroke="#FFC700" stroke-width="3"/>
<path d="M27.5 30L16.0605 41.5605" stroke="#FFC700" stroke-width="3"/>
<path d="M16.0605 16L27.5 27.5605" stroke="#FFC700" stroke-width="3"/>
<path d="M27.5 16L16.0605 27.5605" stroke="#FFC700" stroke-width="3"/>
<path d="M16.0605 2L27.5 13.5605" stroke="#FFC700" stroke-width="3"/>
<path d="M27.5 2L16.0605 13.5605" stroke="#FFC700" stroke-width="3"/>
<path d="M2.06055 16L13.5 27.5605" stroke="#FFC700" stroke-width="3"/>
<path d="M13.5 16L2.06055 27.5605" stroke="#FFC700" stroke-width="3"/>
<path d="M2.06055 2L13.5 13.5605" stroke="#FFC700" stroke-width="3"/>
<path d="M13.5 2L2.06055 13.5605" stroke="#FFC700" stroke-width="3"/>
<path d="M30.0605 2L41.5 13.5605" stroke="#FFC700" stroke-width="3"/>
<path d="M41.5 2L30.0605 13.5605" stroke="#FFC700" stroke-width="3"/>
<path d="M2.06055 30L13.5 41.5605" stroke="#FFC700" stroke-width="3"/>
<path d="M13.5 30L2.06055 41.5605" stroke="#FFC700" stroke-width="3"/>
<path d="M449.061 30L460.5 41.5605" stroke="#FFC700" stroke-width="3"/>
<path d="M460.5 30L449.061 41.5605" stroke="#FFC700" stroke-width="3"/>
<path d="M463.061 30L474.5 41.5605" stroke="#FFC700" stroke-width="3"/>
<path d="M474.5 30L463.061 41.5605" stroke="#FFC700" stroke-width="3"/>
<path d="M16.0605 142L27.5 153.561" stroke="#FFC700" stroke-width="3"/>
<path d="M27.5 142L16.0605 153.561" stroke="#FFC700" stroke-width="3"/>
<path d="M449.061 142L460.5 153.561" stroke="#FFC700" stroke-width="3"/>
<path d="M460.5 142L449.061 153.561" stroke="#FFC700" stroke-width="3"/>
<path d="M463.061 142L474.5 153.561" stroke="#FFC700" stroke-width="3"/>
<path d="M474.5 142L463.061 153.561" stroke="#FFC700" stroke-width="3"/>
<path d="M2.06055 142L13.5 153.561" stroke="#FFC700" stroke-width="3"/>
<path d="M13.5 142L2.06055 153.561" stroke="#FFC700" stroke-width="3"/>
<path d="M16.0605 100L27.5 111.561" stroke="#FFC700" stroke-width="3"/>
<path d="M27.5 100L16.0605 111.561" stroke="#FFC700" stroke-width="3"/>
<path d="M449.061 100L460.5 111.561" stroke="#FFC700" stroke-width="3"/>
<path d="M460.5 100L449.061 111.561" stroke="#FFC700" stroke-width="3"/>
<path d="M463.061 100L474.5 111.561" stroke="#FFC700" stroke-width="3"/>
<path d="M474.5 100L463.061 111.561" stroke="#FFC700" stroke-width="3"/>
<path d="M2.06055 100L13.5 111.561" stroke="#FFC700" stroke-width="3"/>
<path d="M13.5 100L2.06055 111.561" stroke="#FFC700" stroke-width="3"/>
<path d="M16.0605 58L27.5 69.5605" stroke="#FFC700" stroke-width="3"/>
<path d="M27.5 58L16.0605 69.5605" stroke="#FFC700" stroke-width="3"/>
<path d="M449.061 58L460.5 69.5605" stroke="#FFC700" stroke-width="3"/>
<path d="M460.5 58L449.061 69.5605" stroke="#FFC700" stroke-width="3"/>
<path d="M463.061 58L474.5 69.5605" stroke="#FFC700" stroke-width="3"/>
<path d="M474.5 58L463.061 69.5605" stroke="#FFC700" stroke-width="3"/>
<path d="M2.06055 58L13.5 69.5605" stroke="#FFC700" stroke-width="3"/>
<path d="M13.5 58L2.06055 69.5605" stroke="#FFC700" stroke-width="3"/>
<path d="M71.0605 170L82.5 181.561" stroke="#FFC700" stroke-width="3"/>
<path d="M82.5 170L71.0605 181.561" stroke="#FFC700" stroke-width="3"/>
<path d="M71.0605 16L82.5 27.5605" stroke="#FFC700" stroke-width="3"/>
<path d="M82.5 16L71.0605 27.5605" stroke="#FFC700" stroke-width="3"/>
<path d="M71.0605 2L82.5 13.5605" stroke="#FFC700" stroke-width="3"/>
<path d="M82.5 2L71.0605 13.5605" stroke="#FFC700" stroke-width="3"/>
<path d="M71.0605 184L82.5 195.561" stroke="#FFC700" stroke-width="3"/>
<path d="M82.5 184L71.0605 195.561" stroke="#FFC700" stroke-width="3"/>
<path d="M113.061 170L124.5 181.561" stroke="#FFC700" stroke-width="3"/>
<path d="M124.5 170L113.061 181.561" stroke="#FFC700" stroke-width="3"/>
<path d="M113.061 16L124.5 27.5605" stroke="#FFC700" stroke-width="3"/>
<path d="M124.5 16L113.061 27.5605" stroke="#FFC700" stroke-width="3"/>
<path d="M113.061 2L124.5 13.5605" stroke="#FFC700" stroke-width="3"/>
<path d="M124.5 2L113.061 13.5605" stroke="#FFC700" stroke-width="3"/>
<path d="M113.061 184L124.5 195.561" stroke="#FFC700" stroke-width="3"/>
<path d="M124.5 184L113.061 195.561" stroke="#FFC700" stroke-width="3"/>
<path d="M155.061 170L166.5 181.561" stroke="#FFC700" stroke-width="3"/>
<path d="M166.5 170L155.061 181.561" stroke="#FFC700" stroke-width="3"/>
<path d="M155.061 16L166.5 27.5605" stroke="#FFC700" stroke-width="3"/>
<path d="M166.5 16L155.061 27.5605" stroke="#FFC700" stroke-width="3"/>
<path d="M155.061 2L166.5 13.5605" stroke="#FFC700" stroke-width="3"/>
<path d="M166.5 2L155.061 13.5605" stroke="#FFC700" stroke-width="3"/>
<path d="M155.061 184L166.5 195.561" stroke="#FFC700" stroke-width="3"/>
<path d="M166.5 184L155.061 195.561" stroke="#FFC700" stroke-width="3"/>
<path d="M197.061 170L208.5 181.561" stroke="#FFC700" stroke-width="3"/>
<path d="M208.5 170L197.061 181.561" stroke="#FFC700" stroke-width="3"/>
<path d="M197.061 16L208.5 27.5605" stroke="#FFC700" stroke-width="3"/>
<path d="M208.5 16L197.061 27.5605" stroke="#FFC700" stroke-width="3"/>
<path d="M197.061 2L208.5 13.5605" stroke="#FFC700" stroke-width="3"/>
<path d="M208.5 2L197.061 13.5605" stroke="#FFC700" stroke-width="3"/>
<path d="M197.061 184L208.5 195.561" stroke="#FFC700" stroke-width="3"/>
<path d="M208.5 184L197.061 195.561" stroke="#FFC700" stroke-width="3"/>
<path d="M239.061 170L250.5 181.561" stroke="#FFC700" stroke-width="3"/>
<path d="M250.5 170L239.061 181.561" stroke="#FFC700" stroke-width="3"/>
<path d="M239.061 16L250.5 27.5605" stroke="#FFC700" stroke-width="3"/>
<path d="M250.5 16L239.061 27.5605" stroke="#FFC700" stroke-width="3"/>
<path d="M239.061 2L250.5 13.5605" stroke="#FFC700" stroke-width="3"/>
<path d="M250.5 2L239.061 13.5605" stroke="#FFC700" stroke-width="3"/>
<path d="M239.061 184L250.5 195.561" stroke="#FFC700" stroke-width="3"/>
<path d="M250.5 184L239.061 195.561" stroke="#FFC700" stroke-width="3"/>
<path d="M281.061 170L292.5 181.561" stroke="#FFC700" stroke-width="3"/>
<path d="M292.5 170L281.061 181.561" stroke="#FFC700" stroke-width="3"/>
<path d="M281.061 16L292.5 27.5605" stroke="#FFC700" stroke-width="3"/>
<path d="M292.5 16L281.061 27.5605" stroke="#FFC700" stroke-width="3"/>
<path d="M281.061 2L292.5 13.5605" stroke="#FFC700" stroke-width="3"/>
<path d="M292.5 2L281.061 13.5605" stroke="#FFC700" stroke-width="3"/>
<path d="M281.061 184L292.5 195.561" stroke="#FFC700" stroke-width="3"/>
<path d="M292.5 184L281.061 195.561" stroke="#FFC700" stroke-width="3"/>
<path d="M323.061 170L334.5 181.561" stroke="#FFC700" stroke-width="3"/>
<path d="M334.5 170L323.061 181.561" stroke="#FFC700" stroke-width="3"/>
<path d="M323.061 16L334.5 27.5605" stroke="#FFC700" stroke-width="3"/>
<path d="M334.5 16L323.061 27.5605" stroke="#FFC700" stroke-width="3"/>
<path d="M323.061 2L334.5 13.5605" stroke="#FFC700" stroke-width="3"/>
<path d="M334.5 2L323.061 13.5605" stroke="#FFC700" stroke-width="3"/>
<path d="M323.061 184L334.5 195.561" stroke="#FFC700" stroke-width="3"/>
<path d="M334.5 184L323.061 195.561" stroke="#FFC700" stroke-width="3"/>
<path d="M365.061 170L376.5 181.561" stroke="#FFC700" stroke-width="3"/>
<path d="M376.5 170L365.061 181.561" stroke="#FFC700" stroke-width="3"/>
<path d="M365.061 16L376.5 27.5605" stroke="#FFC700" stroke-width="3"/>
<path d="M376.5 16L365.061 27.5605" stroke="#FFC700" stroke-width="3"/>
<path d="M365.061 2L376.5 13.5605" stroke="#FFC700" stroke-width="3"/>
<path d="M376.5 2L365.061 13.5605" stroke="#FFC700" stroke-width="3"/>
<path d="M365.061 184L376.5 195.561" stroke="#FFC700" stroke-width="3"/>
<path d="M376.5 184L365.061 195.561" stroke="#FFC700" stroke-width="3"/>
<path d="M407.061 170L418.5 181.561" stroke="#FFC700" stroke-width="3"/>
<path d="M418.5 170L407.061 181.561" stroke="#FFC700" stroke-width="3"/>
<path d="M407.061 16L418.5 27.5605" stroke="#FFC700" stroke-width="3"/>
<path d="M418.5 16L407.061 27.5605" stroke="#FFC700" stroke-width="3"/>
<path d="M407.061 2L418.5 13.5605" stroke="#FFC700" stroke-width="3"/>
<path d="M418.5 2L407.061 13.5605" stroke="#FFC700" stroke-width="3"/>
<path d="M407.061 184L418.5 195.561" stroke="#FFC700" stroke-width="3"/>
<path d="M418.5 184L407.061 195.561" stroke="#FFC700" stroke-width="3"/>
<path d="M85.0605 170L96.5 181.561" stroke="#FFC700" stroke-width="3"/>
<path d="M96.5 170L85.0605 181.561" stroke="#FFC700" stroke-width="3"/>
<path d="M85.0605 16L96.5 27.5605" stroke="#FFC700" stroke-width="3"/>
<path d="M96.5 16L85.0605 27.5605" stroke="#FFC700" stroke-width="3"/>
<path d="M85.0605 2L96.5 13.5605" stroke="#FFC700" stroke-width="3"/>
<path d="M96.5 2L85.0605 13.5605" stroke="#FFC700" stroke-width="3"/>
<path d="M85.0605 184L96.5 195.561" stroke="#FFC700" stroke-width="3"/>
<path d="M96.5 184L85.0605 195.561" stroke="#FFC700" stroke-width="3"/>
<path d="M30.0605 170L41.5 181.561" stroke="#FFC700" stroke-width="3"/>
<path d="M41.5 170L30.0605 181.561" stroke="#FFC700" stroke-width="3"/>
<path d="M16.0605 170L27.5 181.561" stroke="#FFC700" stroke-width="3"/>
<path d="M27.5 170L16.0605 181.561" stroke="#FFC700" stroke-width="3"/>
<path d="M16.0605 184L27.5 195.561" stroke="#FFC700" stroke-width="3"/>
<path d="M27.5 184L16.0605 195.561" stroke="#FFC700" stroke-width="3"/>
<path d="M2.06055 184L13.5 195.561" stroke="#FFC700" stroke-width="3"/>
<path d="M13.5 184L2.06055 195.561" stroke="#FFC700" stroke-width="3"/>
<path d="M2.06055 170L13.5 181.561" stroke="#FFC700" stroke-width="3"/>
<path d="M13.5 170L2.06055 181.561" stroke="#FFC700" stroke-width="3"/>
<path d="M30.0605 16L41.5 27.5605" stroke="#FFC700" stroke-width="3"/>
<path d="M41.5 16L30.0605 27.5605" stroke="#FFC700" stroke-width="3"/>
<path d="M30.0605 2L41.5 13.5605" stroke="#FFC700" stroke-width="3"/>
<path d="M41.5 2L30.0605 13.5605" stroke="#FFC700" stroke-width="3"/>
<path d="M30.0605 184L41.5 195.561" stroke="#FFC700" stroke-width="3"/>
<path d="M41.5 184L30.0605 195.561" stroke="#FFC700" stroke-width="3"/>
<path d="M99.0605 170L110.5 181.561" stroke="#FFC700" stroke-width="3"/>
<path d="M110.5 170L99.0605 181.561" stroke="#FFC700" stroke-width="3"/>
<path d="M99.0605 16L110.5 27.5605" stroke="#FFC700" stroke-width="3"/>
<path d="M110.5 16L99.0605 27.5605" stroke="#FFC700" stroke-width="3"/>
<path d="M99.0605 2L110.5 13.5605" stroke="#FFC700" stroke-width="3"/>
<path d="M110.5 2L99.0605 13.5605" stroke="#FFC700" stroke-width="3"/>
<path d="M99.0605 184L110.5 195.561" stroke="#FFC700" stroke-width="3"/>
<path d="M110.5 184L99.0605 195.561" stroke="#FFC700" stroke-width="3"/>
<path d="M127.061 170L138.5 181.561" stroke="#FFC700" stroke-width="3"/>
<path d="M138.5 170L127.061 181.561" stroke="#FFC700" stroke-width="3"/>
<path d="M127.061 16L138.5 27.5605" stroke="#FFC700" stroke-width="3"/>
<path d="M138.5 16L127.061 27.5605" stroke="#FFC700" stroke-width="3"/>
<path d="M127.061 2L138.5 13.5605" stroke="#FFC700" stroke-width="3"/>
<path d="M138.5 2L127.061 13.5605" stroke="#FFC700" stroke-width="3"/>
<path d="M127.061 184L138.5 195.561" stroke="#FFC700" stroke-width="3"/>
<path d="M138.5 184L127.061 195.561" stroke="#FFC700" stroke-width="3"/>
<path d="M169.061 170L180.5 181.561" stroke="#FFC700" stroke-width="3"/>
<path d="M180.5 170L169.061 181.561" stroke="#FFC700" stroke-width="3"/>
<path d="M169.061 16L180.5 27.5605" stroke="#FFC700" stroke-width="3"/>
<path d="M180.5 16L169.061 27.5605" stroke="#FFC700" stroke-width="3"/>
<path d="M169.061 2L180.5 13.5605" stroke="#FFC700" stroke-width="3"/>
<path d="M180.5 2L169.061 13.5605" stroke="#FFC700" stroke-width="3"/>
<path d="M169.061 184L180.5 195.561" stroke="#FFC700" stroke-width="3"/>
<path d="M180.5 184L169.061 195.561" stroke="#FFC700" stroke-width="3"/>
<path d="M211.061 170L222.5 181.561" stroke="#FFC700" stroke-width="3"/>
<path d="M222.5 170L211.061 181.561" stroke="#FFC700" stroke-width="3"/>
<path d="M211.061 16L222.5 27.5605" stroke="#FFC700" stroke-width="3"/>
<path d="M222.5 16L211.061 27.5605" stroke="#FFC700" stroke-width="3"/>
<path d="M211.061 2L222.5 13.5605" stroke="#FFC700" stroke-width="3"/>
<path d="M222.5 2L211.061 13.5605" stroke="#FFC700" stroke-width="3"/>
<path d="M211.061 184L222.5 195.561" stroke="#FFC700" stroke-width="3"/>
<path d="M222.5 184L211.061 195.561" stroke="#FFC700" stroke-width="3"/>
<path d="M253.061 170L264.5 181.561" stroke="#FFC700" stroke-width="3"/>
<path d="M264.5 170L253.061 181.561" stroke="#FFC700" stroke-width="3"/>
<path d="M253.061 16L264.5 27.5605" stroke="#FFC700" stroke-width="3"/>
<path d="M264.5 16L253.061 27.5605" stroke="#FFC700" stroke-width="3"/>
<path d="M253.061 2L264.5 13.5605" stroke="#FFC700" stroke-width="3"/>
<path d="M264.5 2L253.061 13.5605" stroke="#FFC700" stroke-width="3"/>
<path d="M253.061 184L264.5 195.561" stroke="#FFC700" stroke-width="3"/>
<path d="M264.5 184L253.061 195.561" stroke="#FFC700" stroke-width="3"/>
<path d="M295.061 170L306.5 181.561" stroke="#FFC700" stroke-width="3"/>
<path d="M306.5 170L295.061 181.561" stroke="#FFC700" stroke-width="3"/>
<path d="M295.061 16L306.5 27.5605" stroke="#FFC700" stroke-width="3"/>
<path d="M306.5 16L295.061 27.5605" stroke="#FFC700" stroke-width="3"/>
<path d="M295.061 2L306.5 13.5605" stroke="#FFC700" stroke-width="3"/>
<path d="M306.5 2L295.061 13.5605" stroke="#FFC700" stroke-width="3"/>
<path d="M295.061 184L306.5 195.561" stroke="#FFC700" stroke-width="3"/>
<path d="M306.5 184L295.061 195.561" stroke="#FFC700" stroke-width="3"/>
<path d="M337.061 170L348.5 181.561" stroke="#FFC700" stroke-width="3"/>
<path d="M348.5 170L337.061 181.561" stroke="#FFC700" stroke-width="3"/>
<path d="M337.061 16L348.5 27.5605" stroke="#FFC700" stroke-width="3"/>
<path d="M348.5 16L337.061 27.5605" stroke="#FFC700" stroke-width="3"/>
<path d="M337.061 2L348.5 13.5605" stroke="#FFC700" stroke-width="3"/>
<path d="M348.5 2L337.061 13.5605" stroke="#FFC700" stroke-width="3"/>
<path d="M337.061 184L348.5 195.561" stroke="#FFC700" stroke-width="3"/>
<path d="M348.5 184L337.061 195.561" stroke="#FFC700" stroke-width="3"/>
<path d="M379.061 170L390.5 181.561" stroke="#FFC700" stroke-width="3"/>
<path d="M390.5 170L379.061 181.561" stroke="#FFC700" stroke-width="3"/>
<path d="M379.061 16L390.5 27.5605" stroke="#FFC700" stroke-width="3"/>
<path d="M390.5 16L379.061 27.5605" stroke="#FFC700" stroke-width="3"/>
<path d="M379.061 2L390.5 13.5605" stroke="#FFC700" stroke-width="3"/>
<path d="M390.5 2L379.061 13.5605" stroke="#FFC700" stroke-width="3"/>
<path d="M379.061 184L390.5 195.561" stroke="#FFC700" stroke-width="3"/>
<path d="M390.5 184L379.061 195.561" stroke="#FFC700" stroke-width="3"/>
<path d="M421.061 170L432.5 181.561" stroke="#FFC700" stroke-width="3"/>
<path d="M432.5 170L421.061 181.561" stroke="#FFC700" stroke-width="3"/>
<path d="M421.061 16L432.5 27.5605" stroke="#FFC700" stroke-width="3"/>
<path d="M432.5 16L421.061 27.5605" stroke="#FFC700" stroke-width="3"/>
<path d="M421.061 2L432.5 13.5605" stroke="#FFC700" stroke-width="3"/>
<path d="M432.5 2L421.061 13.5605" stroke="#FFC700" stroke-width="3"/>
<path d="M421.061 184L432.5 195.561" stroke="#FFC700" stroke-width="3"/>
<path d="M432.5 184L421.061 195.561" stroke="#FFC700" stroke-width="3"/>
<path d="M44.0605 170L55.5 181.561" stroke="#FFC700" stroke-width="3"/>
<path d="M55.5 170L44.0605 181.561" stroke="#FFC700" stroke-width="3"/>
<path d="M44.0605 16L55.5 27.5605" stroke="#FFC700" stroke-width="3"/>
<path d="M55.5 16L44.0605 27.5605" stroke="#FFC700" stroke-width="3"/>
<path d="M44.0605 2L55.5 13.5605" stroke="#FFC700" stroke-width="3"/>
<path d="M55.5 2L44.0605 13.5605" stroke="#FFC700" stroke-width="3"/>
<path d="M44.0605 184L55.5 195.561" stroke="#FFC700" stroke-width="3"/>
<path d="M55.5 184L44.0605 195.561" stroke="#FFC700" stroke-width="3"/>
<path d="M141.061 170L152.5 181.561" stroke="#FFC700" stroke-width="3"/>
<path d="M152.5 170L141.061 181.561" stroke="#FFC700" stroke-width="3"/>
<path d="M141.061 16L152.5 27.5605" stroke="#FFC700" stroke-width="3"/>
<path d="M152.5 16L141.061 27.5605" stroke="#FFC700" stroke-width="3"/>
<path d="M141.061 2L152.5 13.5605" stroke="#FFC700" stroke-width="3"/>
<path d="M152.5 2L141.061 13.5605" stroke="#FFC700" stroke-width="3"/>
<path d="M141.061 184L152.5 195.561" stroke="#FFC700" stroke-width="3"/>
<path d="M152.5 184L141.061 195.561" stroke="#FFC700" stroke-width="3"/>
<path d="M183.061 170L194.5 181.561" stroke="#FFC700" stroke-width="3"/>
<path d="M194.5 170L183.061 181.561" stroke="#FFC700" stroke-width="3"/>
<path d="M183.061 16L194.5 27.5605" stroke="#FFC700" stroke-width="3"/>
<path d="M194.5 16L183.061 27.5605" stroke="#FFC700" stroke-width="3"/>
<path d="M183.061 2L194.5 13.5605" stroke="#FFC700" stroke-width="3"/>
<path d="M194.5 2L183.061 13.5605" stroke="#FFC700" stroke-width="3"/>
<path d="M183.061 184L194.5 195.561" stroke="#FFC700" stroke-width="3"/>
<path d="M194.5 184L183.061 195.561" stroke="#FFC700" stroke-width="3"/>
<path d="M225.061 170L236.5 181.561" stroke="#FFC700" stroke-width="3"/>
<path d="M236.5 170L225.061 181.561" stroke="#FFC700" stroke-width="3"/>
<path d="M225.061 16L236.5 27.5605" stroke="#FFC700" stroke-width="3"/>
<path d="M236.5 16L225.061 27.5605" stroke="#FFC700" stroke-width="3"/>
<path d="M225.061 2L236.5 13.5605" stroke="#FFC700" stroke-width="3"/>
<path d="M236.5 2L225.061 13.5605" stroke="#FFC700" stroke-width="3"/>
<path d="M225.061 184L236.5 195.561" stroke="#FFC700" stroke-width="3"/>
<path d="M236.5 184L225.061 195.561" stroke="#FFC700" stroke-width="3"/>
<path d="M267.061 170L278.5 181.561" stroke="#FFC700" stroke-width="3"/>
<path d="M278.5 170L267.061 181.561" stroke="#FFC700" stroke-width="3"/>
<path d="M267.061 16L278.5 27.5605" stroke="#FFC700" stroke-width="3"/>
<path d="M278.5 16L267.061 27.5605" stroke="#FFC700" stroke-width="3"/>
<path d="M267.061 2L278.5 13.5605" stroke="#FFC700" stroke-width="3"/>
<path d="M278.5 2L267.061 13.5605" stroke="#FFC700" stroke-width="3"/>
<path d="M267.061 184L278.5 195.561" stroke="#FFC700" stroke-width="3"/>
<path d="M278.5 184L267.061 195.561" stroke="#FFC700" stroke-width="3"/>
<path d="M309.061 170L320.5 181.561" stroke="#FFC700" stroke-width="3"/>
<path d="M320.5 170L309.061 181.561" stroke="#FFC700" stroke-width="3"/>
<path d="M309.061 16L320.5 27.5605" stroke="#FFC700" stroke-width="3"/>
<path d="M320.5 16L309.061 27.5605" stroke="#FFC700" stroke-width="3"/>
<path d="M309.061 2L320.5 13.5605" stroke="#FFC700" stroke-width="3"/>
<path d="M320.5 2L309.061 13.5605" stroke="#FFC700" stroke-width="3"/>
<path d="M309.061 184L320.5 195.561" stroke="#FFC700" stroke-width="3"/>
<path d="M320.5 184L309.061 195.561" stroke="#FFC700" stroke-width="3"/>
<path d="M351.061 170L362.5 181.561" stroke="#FFC700" stroke-width="3"/>
<path d="M362.5 170L351.061 181.561" stroke="#FFC700" stroke-width="3"/>
<path d="M351.061 16L362.5 27.5605" stroke="#FFC700" stroke-width="3"/>
<path d="M362.5 16L351.061 27.5605" stroke="#FFC700" stroke-width="3"/>
<path d="M351.061 2L362.5 13.5605" stroke="#FFC700" stroke-width="3"/>
<path d="M362.5 2L351.061 13.5605" stroke="#FFC700" stroke-width="3"/>
<path d="M351.061 184L362.5 195.561" stroke="#FFC700" stroke-width="3"/>
<path d="M362.5 184L351.061 195.561" stroke="#FFC700" stroke-width="3"/>
<path d="M393.061 170L404.5 181.561" stroke="#FFC700" stroke-width="3"/>
<path d="M404.5 170L393.061 181.561" stroke="#FFC700" stroke-width="3"/>
<path d="M393.061 16L404.5 27.5605" stroke="#FFC700" stroke-width="3"/>
<path d="M404.5 16L393.061 27.5605" stroke="#FFC700" stroke-width="3"/>
<path d="M393.061 2L404.5 13.5605" stroke="#FFC700" stroke-width="3"/>
<path d="M404.5 2L393.061 13.5605" stroke="#FFC700" stroke-width="3"/>
<path d="M393.061 184L404.5 195.561" stroke="#FFC700" stroke-width="3"/>
<path d="M404.5 184L393.061 195.561" stroke="#FFC700" stroke-width="3"/>
<path d="M435.061 170L446.5 181.561" stroke="#FFC700" stroke-width="3"/>
<path d="M446.5 170L435.061 181.561" stroke="#FFC700" stroke-width="3"/>
<path d="M449.061 170L460.5 181.561" stroke="#FFC700" stroke-width="3"/>
<path d="M460.5 170L449.061 181.561" stroke="#FFC700" stroke-width="3"/>
<path d="M449.061 184L460.5 195.561" stroke="#FFC700" stroke-width="3"/>
<path d="M460.5 184L449.061 195.561" stroke="#FFC700" stroke-width="3"/>
<path d="M435.061 184L446.5 195.561" stroke="#FFC700" stroke-width="3"/>
<path d="M446.5 184L435.061 195.561" stroke="#FFC700" stroke-width="3"/>
<path d="M463.061 156L474.5 167.561" stroke="#FFC700" stroke-width="3"/>
<path d="M474.5 156L463.061 167.561" stroke="#FFC700" stroke-width="3"/>
<path d="M435.061 16L446.5 27.5605" stroke="#FFC700" stroke-width="3"/>
<path d="M446.5 16L435.061 27.5605" stroke="#FFC700" stroke-width="3"/>
<path d="M449.061 16L460.5 27.5605" stroke="#FFC700" stroke-width="3"/>
<path d="M460.5 16L449.061 27.5605" stroke="#FFC700" stroke-width="3"/>
<path d="M449.061 2L460.5 13.5605" stroke="#FFC700" stroke-width="3"/>
<path d="M460.5 2L449.061 13.5605" stroke="#FFC700" stroke-width="3"/>
<path d="M463.061 16L474.5 27.5605" stroke="#FFC700" stroke-width="3"/>
<path d="M474.5 16L463.061 27.5605" stroke="#FFC700" stroke-width="3"/>
<path d="M463.061 2L474.5 13.5605" stroke="#FFC700" stroke-width="3"/>
<path d="M474.5 2L463.061 13.5605" stroke="#FFC700" stroke-width="3"/>
<path d="M463.061 170L474.5 181.561" stroke="#FFC700" stroke-width="3"/>
<path d="M474.5 170L463.061 181.561" stroke="#FFC700" stroke-width="3"/>
<path d="M463.061 184L474.5 195.561" stroke="#FFC700" stroke-width="3"/>
<path d="M474.5 184L463.061 195.561" stroke="#FFC700" stroke-width="3"/>
<path d="M435.061 2L446.5 13.5605" stroke="#FFC700" stroke-width="3"/>
<path d="M446.5 2L435.061 13.5605" stroke="#FFC700" stroke-width="3"/>
<path d="M58.0605 170L69.5 181.561" stroke="#FFC700" stroke-width="3"/>
<path d="M69.5 170L58.0605 181.561" stroke="#FFC700" stroke-width="3"/>
<path d="M58.0605 16L69.5 27.5605" stroke="#FFC700" stroke-width="3"/>
<path d="M69.5 16L58.0605 27.5605" stroke="#FFC700" stroke-width="3"/>
<path d="M58.0605 2L69.5 13.5605" stroke="#FFC700" stroke-width="3"/>
<path d="M69.5 2L58.0605 13.5605" stroke="#FFC700" stroke-width="3"/>
<path d="M58.0605 184L69.5 195.561" stroke="#FFC700" stroke-width="3"/>
<path d="M69.5 184L58.0605 195.561" stroke="#FFC700" stroke-width="3"/>
<path d="M72.875 111.25V92.375H82.3125V111.25H72.875ZM54 149V54.625H63.4375V111.25H72.875V130.125H63.4375V149H54ZM91.75 149V92.375H82.3125V73.5H91.75V54.625H101.188V149H91.75ZM119.685 149V54.625H166.872V64.0625H129.122V149H119.685ZM223.12 92.375V64.0625H232.557V92.375H223.12ZM185.37 149V54.625H223.12V64.0625H194.807V92.375H223.12V101.812H194.807V149H185.37ZM251.055 149V64.0625H260.493V92.375H288.805V64.0625H298.243V149H288.805V101.812H260.493V149H251.055ZM260.493 64.0625V54.625H288.805V64.0625H260.493ZM335.615 149V64.0625H316.74V54.625H363.927V64.0625H345.052V149H335.615ZM410.737 139.562V101.812H420.175V139.562H410.737ZM382.425 149V54.625H391.862V92.375H410.737V101.812H391.862V139.562H410.737V149H382.425Z" fill="#FFC700"/>
</svg>
