<svg width="4159" height="29" viewBox="0 0 4159 29" fill="none" xmlns="http://www.w3.org/2000/svg">
<path d="M2.06055 2L13.5 13.5605" stroke="#BF7E4F" stroke-width="3"/>
<path d="M13.5 2L2.06055 13.5605" stroke="#BF7E4F" stroke-width="3"/>
<path d="M1010.06 2L1021.5 13.5605" stroke="#BF7E4F" stroke-width="3"/>
<path d="M1021.5 2L1010.06 13.5605" stroke="#BF7E4F" stroke-width="3"/>
<path d="M506.061 2L517.5 13.5605" stroke="#BF7E4F" stroke-width="3"/>
<path d="M517.5 2L506.061 13.5605" stroke="#BF7E4F" stroke-width="3"/>
<path d="M1514.06 2L1525.5 13.5605" stroke="#BF7E4F" stroke-width="3"/>
<path d="M1525.5 2L1514.06 13.5605" stroke="#BF7E4F" stroke-width="3"/>
<path d="M254.061 2L265.5 13.5605" stroke="#BF7E4F" stroke-width="3"/>
<path d="M265.5 2L254.061 13.5605" stroke="#BF7E4F" stroke-width="3"/>
<path d="M1262.06 2L1273.5 13.5605" stroke="#BF7E4F" stroke-width="3"/>
<path d="M1273.5 2L1262.06 13.5605" stroke="#BF7E4F" stroke-width="3"/>
<path d="M758.061 2L769.5 13.5605" stroke="#BF7E4F" stroke-width="3"/>
<path d="M769.5 2L758.061 13.5605" stroke="#BF7E4F" stroke-width="3"/>
<path d="M1766.06 2L1777.5 13.5605" stroke="#BF7E4F" stroke-width="3"/>
<path d="M1777.5 2L1766.06 13.5605" stroke="#BF7E4F" stroke-width="3"/>
<path d="M170.061 2L181.5 13.5605" stroke="#BF7E4F" stroke-width="3"/>
<path d="M181.5 2L170.061 13.5605" stroke="#BF7E4F" stroke-width="3"/>
<path d="M1178.06 2L1189.5 13.5605" stroke="#BF7E4F" stroke-width="3"/>
<path d="M1189.5 2L1178.06 13.5605" stroke="#BF7E4F" stroke-width="3"/>
<path d="M674.061 2L685.5 13.5605" stroke="#BF7E4F" stroke-width="3"/>
<path d="M685.5 2L674.061 13.5605" stroke="#BF7E4F" stroke-width="3"/>
<path d="M1682.06 2L1693.5 13.5605" stroke="#BF7E4F" stroke-width="3"/>
<path d="M1693.5 2L1682.06 13.5605" stroke="#BF7E4F" stroke-width="3"/>
<path d="M422.061 2L433.5 13.5605" stroke="#BF7E4F" stroke-width="3"/>
<path d="M433.5 2L422.061 13.5605" stroke="#BF7E4F" stroke-width="3"/>
<path d="M1430.06 2L1441.5 13.5605" stroke="#BF7E4F" stroke-width="3"/>
<path d="M1441.5 2L1430.06 13.5605" stroke="#BF7E4F" stroke-width="3"/>
<path d="M926.061 2L937.5 13.5605" stroke="#BF7E4F" stroke-width="3"/>
<path d="M937.5 2L926.061 13.5605" stroke="#BF7E4F" stroke-width="3"/>
<path d="M86.0605 2L97.5 13.5605" stroke="#BF7E4F" stroke-width="3"/>
<path d="M97.5 2L86.0605 13.5605" stroke="#BF7E4F" stroke-width="3"/>
<path d="M1094.06 2L1105.5 13.5605" stroke="#BF7E4F" stroke-width="3"/>
<path d="M1105.5 2L1094.06 13.5605" stroke="#BF7E4F" stroke-width="3"/>
<path d="M590.061 2L601.5 13.5605" stroke="#BF7E4F" stroke-width="3"/>
<path d="M601.5 2L590.061 13.5605" stroke="#BF7E4F" stroke-width="3"/>
<path d="M1598.06 2L1609.5 13.5605" stroke="#BF7E4F" stroke-width="3"/>
<path d="M1609.5 2L1598.06 13.5605" stroke="#BF7E4F" stroke-width="3"/>
<path d="M338.061 2L349.5 13.5605" stroke="#BF7E4F" stroke-width="3"/>
<path d="M349.5 2L338.061 13.5605" stroke="#BF7E4F" stroke-width="3"/>
<path d="M1346.06 2L1357.5 13.5605" stroke="#BF7E4F" stroke-width="3"/>
<path d="M1357.5 2L1346.06 13.5605" stroke="#BF7E4F" stroke-width="3"/>
<path d="M842.061 2L853.5 13.5605" stroke="#BF7E4F" stroke-width="3"/>
<path d="M853.5 2L842.061 13.5605" stroke="#BF7E4F" stroke-width="3"/>
<path d="M142.061 2L153.5 13.5605" stroke="#BF7E4F" stroke-width="3"/>
<path d="M153.5 2L142.061 13.5605" stroke="#BF7E4F" stroke-width="3"/>
<path d="M1150.06 2L1161.5 13.5605" stroke="#BF7E4F" stroke-width="3"/>
<path d="M1161.5 2L1150.06 13.5605" stroke="#BF7E4F" stroke-width="3"/>
<path d="M646.061 2L657.5 13.5605" stroke="#BF7E4F" stroke-width="3"/>
<path d="M657.5 2L646.061 13.5605" stroke="#BF7E4F" stroke-width="3"/>
<path d="M1654.06 2L1665.5 13.5605" stroke="#BF7E4F" stroke-width="3"/>
<path d="M1665.5 2L1654.06 13.5605" stroke="#BF7E4F" stroke-width="3"/>
<path d="M394.061 2L405.5 13.5605" stroke="#BF7E4F" stroke-width="3"/>
<path d="M405.5 2L394.061 13.5605" stroke="#BF7E4F" stroke-width="3"/>
<path d="M1402.06 2L1413.5 13.5605" stroke="#BF7E4F" stroke-width="3"/>
<path d="M1413.5 2L1402.06 13.5605" stroke="#BF7E4F" stroke-width="3"/>
<path d="M898.061 2L909.5 13.5605" stroke="#BF7E4F" stroke-width="3"/>
<path d="M909.5 2L898.061 13.5605" stroke="#BF7E4F" stroke-width="3"/>
<path d="M58.0605 2L69.5 13.5605" stroke="#BF7E4F" stroke-width="3"/>
<path d="M69.5 2L58.0605 13.5605" stroke="#BF7E4F" stroke-width="3"/>
<path d="M1066.06 2L1077.5 13.5605" stroke="#BF7E4F" stroke-width="3"/>
<path d="M1077.5 2L1066.06 13.5605" stroke="#BF7E4F" stroke-width="3"/>
<path d="M562.061 2L573.5 13.5605" stroke="#BF7E4F" stroke-width="3"/>
<path d="M573.5 2L562.061 13.5605" stroke="#BF7E4F" stroke-width="3"/>
<path d="M1570.06 2L1581.5 13.5605" stroke="#BF7E4F" stroke-width="3"/>
<path d="M1581.5 2L1570.06 13.5605" stroke="#BF7E4F" stroke-width="3"/>
<path d="M310.061 2L321.5 13.5605" stroke="#BF7E4F" stroke-width="3"/>
<path d="M321.5 2L310.061 13.5605" stroke="#BF7E4F" stroke-width="3"/>
<path d="M1318.06 2L1329.5 13.5605" stroke="#BF7E4F" stroke-width="3"/>
<path d="M1329.5 2L1318.06 13.5605" stroke="#BF7E4F" stroke-width="3"/>
<path d="M814.061 2L825.5 13.5605" stroke="#BF7E4F" stroke-width="3"/>
<path d="M825.5 2L814.061 13.5605" stroke="#BF7E4F" stroke-width="3"/>
<path d="M226.061 2L237.5 13.5605" stroke="#BF7E4F" stroke-width="3"/>
<path d="M237.5 2L226.061 13.5605" stroke="#BF7E4F" stroke-width="3"/>
<path d="M1234.06 2L1245.5 13.5605" stroke="#BF7E4F" stroke-width="3"/>
<path d="M1245.5 2L1234.06 13.5605" stroke="#BF7E4F" stroke-width="3"/>
<path d="M730.061 2L741.5 13.5605" stroke="#BF7E4F" stroke-width="3"/>
<path d="M741.5 2L730.061 13.5605" stroke="#BF7E4F" stroke-width="3"/>
<path d="M1738.06 2L1749.5 13.5605" stroke="#BF7E4F" stroke-width="3"/>
<path d="M1749.5 2L1738.06 13.5605" stroke="#BF7E4F" stroke-width="3"/>
<path d="M478.061 2L489.5 13.5605" stroke="#BF7E4F" stroke-width="3"/>
<path d="M489.5 2L478.061 13.5605" stroke="#BF7E4F" stroke-width="3"/>
<path d="M1486.06 2L1497.5 13.5605" stroke="#BF7E4F" stroke-width="3"/>
<path d="M1497.5 2L1486.06 13.5605" stroke="#BF7E4F" stroke-width="3"/>
<path d="M982.061 2L993.5 13.5605" stroke="#BF7E4F" stroke-width="3"/>
<path d="M993.5 2L982.061 13.5605" stroke="#BF7E4F" stroke-width="3"/>
<path d="M30.0605 2L41.5 13.5605" stroke="#BF7E4F" stroke-width="3"/>
<path d="M41.5 2L30.0605 13.5605" stroke="#BF7E4F" stroke-width="3"/>
<path d="M1038.06 2L1049.5 13.5605" stroke="#BF7E4F" stroke-width="3"/>
<path d="M1049.5 2L1038.06 13.5605" stroke="#BF7E4F" stroke-width="3"/>
<path d="M534.061 2L545.5 13.5605" stroke="#BF7E4F" stroke-width="3"/>
<path d="M545.5 2L534.061 13.5605" stroke="#BF7E4F" stroke-width="3"/>
<path d="M1542.06 2L1553.5 13.5605" stroke="#BF7E4F" stroke-width="3"/>
<path d="M1553.5 2L1542.06 13.5605" stroke="#BF7E4F" stroke-width="3"/>
<path d="M282.061 2L293.5 13.5605" stroke="#BF7E4F" stroke-width="3"/>
<path d="M293.5 2L282.061 13.5605" stroke="#BF7E4F" stroke-width="3"/>
<path d="M1290.06 2L1301.5 13.5605" stroke="#BF7E4F" stroke-width="3"/>
<path d="M1301.5 2L1290.06 13.5605" stroke="#BF7E4F" stroke-width="3"/>
<path d="M786.061 2L797.5 13.5605" stroke="#BF7E4F" stroke-width="3"/>
<path d="M797.5 2L786.061 13.5605" stroke="#BF7E4F" stroke-width="3"/>
<path d="M198.061 2L209.5 13.5605" stroke="#BF7E4F" stroke-width="3"/>
<path d="M209.5 2L198.061 13.5605" stroke="#BF7E4F" stroke-width="3"/>
<path d="M1206.06 2L1217.5 13.5605" stroke="#BF7E4F" stroke-width="3"/>
<path d="M1217.5 2L1206.06 13.5605" stroke="#BF7E4F" stroke-width="3"/>
<path d="M702.061 2L713.5 13.5605" stroke="#BF7E4F" stroke-width="3"/>
<path d="M713.5 2L702.061 13.5605" stroke="#BF7E4F" stroke-width="3"/>
<path d="M1710.06 2L1721.5 13.5605" stroke="#BF7E4F" stroke-width="3"/>
<path d="M1721.5 2L1710.06 13.5605" stroke="#BF7E4F" stroke-width="3"/>
<path d="M450.061 2L461.5 13.5605" stroke="#BF7E4F" stroke-width="3"/>
<path d="M461.5 2L450.061 13.5605" stroke="#BF7E4F" stroke-width="3"/>
<path d="M1458.06 2L1469.5 13.5605" stroke="#BF7E4F" stroke-width="3"/>
<path d="M1469.5 2L1458.06 13.5605" stroke="#BF7E4F" stroke-width="3"/>
<path d="M954.061 2L965.5 13.5605" stroke="#BF7E4F" stroke-width="3"/>
<path d="M965.5 2L954.061 13.5605" stroke="#BF7E4F" stroke-width="3"/>
<path d="M114.061 2L125.5 13.5605" stroke="#BF7E4F" stroke-width="3"/>
<path d="M125.5 2L114.061 13.5605" stroke="#BF7E4F" stroke-width="3"/>
<path d="M1122.06 2L1133.5 13.5605" stroke="#BF7E4F" stroke-width="3"/>
<path d="M1133.5 2L1122.06 13.5605" stroke="#BF7E4F" stroke-width="3"/>
<path d="M618.061 2L629.5 13.5605" stroke="#BF7E4F" stroke-width="3"/>
<path d="M629.5 2L618.061 13.5605" stroke="#BF7E4F" stroke-width="3"/>
<path d="M1626.06 2L1637.5 13.5605" stroke="#BF7E4F" stroke-width="3"/>
<path d="M1637.5 2L1626.06 13.5605" stroke="#BF7E4F" stroke-width="3"/>
<path d="M366.061 2L377.5 13.5605" stroke="#BF7E4F" stroke-width="3"/>
<path d="M377.5 2L366.061 13.5605" stroke="#BF7E4F" stroke-width="3"/>
<path d="M1374.06 2L1385.5 13.5605" stroke="#BF7E4F" stroke-width="3"/>
<path d="M1385.5 2L1374.06 13.5605" stroke="#BF7E4F" stroke-width="3"/>
<path d="M870.061 2L881.5 13.5605" stroke="#BF7E4F" stroke-width="3"/>
<path d="M881.5 2L870.061 13.5605" stroke="#BF7E4F" stroke-width="3"/>
<path d="M1794.06 2L1805.5 13.5605" stroke="#BF7E4F" stroke-width="3"/>
<path d="M1805.5 2L1794.06 13.5605" stroke="#BF7E4F" stroke-width="3"/>
<path d="M1822.06 2L1833.5 13.5605" stroke="#BF7E4F" stroke-width="3"/>
<path d="M1833.5 2L1822.06 13.5605" stroke="#BF7E4F" stroke-width="3"/>
<path d="M1850.06 2L1861.5 13.5605" stroke="#BF7E4F" stroke-width="3"/>
<path d="M1861.5 2L1850.06 13.5605" stroke="#BF7E4F" stroke-width="3"/>
<path d="M1878.06 2L1889.5 13.5605" stroke="#BF7E4F" stroke-width="3"/>
<path d="M1889.5 2L1878.06 13.5605" stroke="#BF7E4F" stroke-width="3"/>
<path d="M1906.06 2L1917.5 13.5605" stroke="#BF7E4F" stroke-width="3"/>
<path d="M1917.5 2L1906.06 13.5605" stroke="#BF7E4F" stroke-width="3"/>
<path d="M128.061 16L139.5 27.5605" stroke="#BF7E4F" stroke-width="3"/>
<path d="M139.5 16L128.061 27.5605" stroke="#BF7E4F" stroke-width="3"/>
<path d="M1136.06 16L1147.5 27.5605" stroke="#BF7E4F" stroke-width="3"/>
<path d="M1147.5 16L1136.06 27.5605" stroke="#BF7E4F" stroke-width="3"/>
<path d="M632.061 16L643.5 27.5605" stroke="#BF7E4F" stroke-width="3"/>
<path d="M643.5 16L632.061 27.5605" stroke="#BF7E4F" stroke-width="3"/>
<path d="M1640.06 16L1651.5 27.5605" stroke="#BF7E4F" stroke-width="3"/>
<path d="M1651.5 16L1640.06 27.5605" stroke="#BF7E4F" stroke-width="3"/>
<path d="M380.061 16L391.5 27.5605" stroke="#BF7E4F" stroke-width="3"/>
<path d="M391.5 16L380.061 27.5605" stroke="#BF7E4F" stroke-width="3"/>
<path d="M1388.06 16L1399.5 27.5605" stroke="#BF7E4F" stroke-width="3"/>
<path d="M1399.5 16L1388.06 27.5605" stroke="#BF7E4F" stroke-width="3"/>
<path d="M884.061 16L895.5 27.5605" stroke="#BF7E4F" stroke-width="3"/>
<path d="M895.5 16L884.061 27.5605" stroke="#BF7E4F" stroke-width="3"/>
<path d="M44.0605 16L55.5 27.5605" stroke="#BF7E4F" stroke-width="3"/>
<path d="M55.5 16L44.0605 27.5605" stroke="#BF7E4F" stroke-width="3"/>
<path d="M1052.06 16L1063.5 27.5605" stroke="#BF7E4F" stroke-width="3"/>
<path d="M1063.5 16L1052.06 27.5605" stroke="#BF7E4F" stroke-width="3"/>
<path d="M548.061 16L559.5 27.5605" stroke="#BF7E4F" stroke-width="3"/>
<path d="M559.5 16L548.061 27.5605" stroke="#BF7E4F" stroke-width="3"/>
<path d="M1556.06 16L1567.5 27.5605" stroke="#BF7E4F" stroke-width="3"/>
<path d="M1567.5 16L1556.06 27.5605" stroke="#BF7E4F" stroke-width="3"/>
<path d="M296.061 16L307.5 27.5605" stroke="#BF7E4F" stroke-width="3"/>
<path d="M307.5 16L296.061 27.5605" stroke="#BF7E4F" stroke-width="3"/>
<path d="M1304.06 16L1315.5 27.5605" stroke="#BF7E4F" stroke-width="3"/>
<path d="M1315.5 16L1304.06 27.5605" stroke="#BF7E4F" stroke-width="3"/>
<path d="M800.061 16L811.5 27.5605" stroke="#BF7E4F" stroke-width="3"/>
<path d="M811.5 16L800.061 27.5605" stroke="#BF7E4F" stroke-width="3"/>
<path d="M212.061 16L223.5 27.5605" stroke="#BF7E4F" stroke-width="3"/>
<path d="M223.5 16L212.061 27.5605" stroke="#BF7E4F" stroke-width="3"/>
<path d="M1220.06 16L1231.5 27.5605" stroke="#BF7E4F" stroke-width="3"/>
<path d="M1231.5 16L1220.06 27.5605" stroke="#BF7E4F" stroke-width="3"/>
<path d="M716.061 16L727.5 27.5605" stroke="#BF7E4F" stroke-width="3"/>
<path d="M727.5 16L716.061 27.5605" stroke="#BF7E4F" stroke-width="3"/>
<path d="M1724.06 16L1735.5 27.5605" stroke="#BF7E4F" stroke-width="3"/>
<path d="M1735.5 16L1724.06 27.5605" stroke="#BF7E4F" stroke-width="3"/>
<path d="M464.061 16L475.5 27.5605" stroke="#BF7E4F" stroke-width="3"/>
<path d="M475.5 16L464.061 27.5605" stroke="#BF7E4F" stroke-width="3"/>
<path d="M1472.06 16L1483.5 27.5605" stroke="#BF7E4F" stroke-width="3"/>
<path d="M1483.5 16L1472.06 27.5605" stroke="#BF7E4F" stroke-width="3"/>
<path d="M968.061 16L979.5 27.5605" stroke="#BF7E4F" stroke-width="3"/>
<path d="M979.5 16L968.061 27.5605" stroke="#BF7E4F" stroke-width="3"/>
<path d="M16.0605 16L27.5 27.5605" stroke="#BF7E4F" stroke-width="3"/>
<path d="M27.5 16L16.0605 27.5605" stroke="#BF7E4F" stroke-width="3"/>
<path d="M1024.06 16L1035.5 27.5605" stroke="#BF7E4F" stroke-width="3"/>
<path d="M1035.5 16L1024.06 27.5605" stroke="#BF7E4F" stroke-width="3"/>
<path d="M520.061 16L531.5 27.5605" stroke="#BF7E4F" stroke-width="3"/>
<path d="M531.5 16L520.061 27.5605" stroke="#BF7E4F" stroke-width="3"/>
<path d="M1528.06 16L1539.5 27.5605" stroke="#BF7E4F" stroke-width="3"/>
<path d="M1539.5 16L1528.06 27.5605" stroke="#BF7E4F" stroke-width="3"/>
<path d="M268.061 16L279.5 27.5605" stroke="#BF7E4F" stroke-width="3"/>
<path d="M279.5 16L268.061 27.5605" stroke="#BF7E4F" stroke-width="3"/>
<path d="M1276.06 16L1287.5 27.5605" stroke="#BF7E4F" stroke-width="3"/>
<path d="M1287.5 16L1276.06 27.5605" stroke="#BF7E4F" stroke-width="3"/>
<path d="M772.061 16L783.5 27.5605" stroke="#BF7E4F" stroke-width="3"/>
<path d="M783.5 16L772.061 27.5605" stroke="#BF7E4F" stroke-width="3"/>
<path d="M1780.06 16L1791.5 27.5605" stroke="#BF7E4F" stroke-width="3"/>
<path d="M1791.5 16L1780.06 27.5605" stroke="#BF7E4F" stroke-width="3"/>
<path d="M184.061 16L195.5 27.5605" stroke="#BF7E4F" stroke-width="3"/>
<path d="M195.5 16L184.061 27.5605" stroke="#BF7E4F" stroke-width="3"/>
<path d="M1192.06 16L1203.5 27.5605" stroke="#BF7E4F" stroke-width="3"/>
<path d="M1203.5 16L1192.06 27.5605" stroke="#BF7E4F" stroke-width="3"/>
<path d="M688.061 16L699.5 27.5605" stroke="#BF7E4F" stroke-width="3"/>
<path d="M699.5 16L688.061 27.5605" stroke="#BF7E4F" stroke-width="3"/>
<path d="M1696.06 16L1707.5 27.5605" stroke="#BF7E4F" stroke-width="3"/>
<path d="M1707.5 16L1696.06 27.5605" stroke="#BF7E4F" stroke-width="3"/>
<path d="M436.061 16L447.5 27.5605" stroke="#BF7E4F" stroke-width="3"/>
<path d="M447.5 16L436.061 27.5605" stroke="#BF7E4F" stroke-width="3"/>
<path d="M1444.06 16L1455.5 27.5605" stroke="#BF7E4F" stroke-width="3"/>
<path d="M1455.5 16L1444.06 27.5605" stroke="#BF7E4F" stroke-width="3"/>
<path d="M940.061 16L951.5 27.5605" stroke="#BF7E4F" stroke-width="3"/>
<path d="M951.5 16L940.061 27.5605" stroke="#BF7E4F" stroke-width="3"/>
<path d="M100.061 16L111.5 27.5605" stroke="#BF7E4F" stroke-width="3"/>
<path d="M111.5 16L100.061 27.5605" stroke="#BF7E4F" stroke-width="3"/>
<path d="M1108.06 16L1119.5 27.5605" stroke="#BF7E4F" stroke-width="3"/>
<path d="M1119.5 16L1108.06 27.5605" stroke="#BF7E4F" stroke-width="3"/>
<path d="M604.061 16L615.5 27.5605" stroke="#BF7E4F" stroke-width="3"/>
<path d="M615.5 16L604.061 27.5605" stroke="#BF7E4F" stroke-width="3"/>
<path d="M1612.06 16L1623.5 27.5605" stroke="#BF7E4F" stroke-width="3"/>
<path d="M1623.5 16L1612.06 27.5605" stroke="#BF7E4F" stroke-width="3"/>
<path d="M352.061 16L363.5 27.5605" stroke="#BF7E4F" stroke-width="3"/>
<path d="M363.5 16L352.061 27.5605" stroke="#BF7E4F" stroke-width="3"/>
<path d="M1360.06 16L1371.5 27.5605" stroke="#BF7E4F" stroke-width="3"/>
<path d="M1371.5 16L1360.06 27.5605" stroke="#BF7E4F" stroke-width="3"/>
<path d="M856.061 16L867.5 27.5605" stroke="#BF7E4F" stroke-width="3"/>
<path d="M867.5 16L856.061 27.5605" stroke="#BF7E4F" stroke-width="3"/>
<path d="M156.061 16L167.5 27.5605" stroke="#BF7E4F" stroke-width="3"/>
<path d="M167.5 16L156.061 27.5605" stroke="#BF7E4F" stroke-width="3"/>
<path d="M1164.06 16L1175.5 27.5605" stroke="#BF7E4F" stroke-width="3"/>
<path d="M1175.5 16L1164.06 27.5605" stroke="#BF7E4F" stroke-width="3"/>
<path d="M660.061 16L671.5 27.5605" stroke="#BF7E4F" stroke-width="3"/>
<path d="M671.5 16L660.061 27.5605" stroke="#BF7E4F" stroke-width="3"/>
<path d="M1668.06 16L1679.5 27.5605" stroke="#BF7E4F" stroke-width="3"/>
<path d="M1679.5 16L1668.06 27.5605" stroke="#BF7E4F" stroke-width="3"/>
<path d="M408.061 16L419.5 27.5605" stroke="#BF7E4F" stroke-width="3"/>
<path d="M419.5 16L408.061 27.5605" stroke="#BF7E4F" stroke-width="3"/>
<path d="M1416.06 16L1427.5 27.5605" stroke="#BF7E4F" stroke-width="3"/>
<path d="M1427.5 16L1416.06 27.5605" stroke="#BF7E4F" stroke-width="3"/>
<path d="M912.061 16L923.5 27.5605" stroke="#BF7E4F" stroke-width="3"/>
<path d="M923.5 16L912.061 27.5605" stroke="#BF7E4F" stroke-width="3"/>
<path d="M72.0605 16L83.5 27.5605" stroke="#BF7E4F" stroke-width="3"/>
<path d="M83.5 16L72.0605 27.5605" stroke="#BF7E4F" stroke-width="3"/>
<path d="M1080.06 16L1091.5 27.5605" stroke="#BF7E4F" stroke-width="3"/>
<path d="M1091.5 16L1080.06 27.5605" stroke="#BF7E4F" stroke-width="3"/>
<path d="M576.061 16L587.5 27.5605" stroke="#BF7E4F" stroke-width="3"/>
<path d="M587.5 16L576.061 27.5605" stroke="#BF7E4F" stroke-width="3"/>
<path d="M1584.06 16L1595.5 27.5605" stroke="#BF7E4F" stroke-width="3"/>
<path d="M1595.5 16L1584.06 27.5605" stroke="#BF7E4F" stroke-width="3"/>
<path d="M324.061 16L335.5 27.5605" stroke="#BF7E4F" stroke-width="3"/>
<path d="M335.5 16L324.061 27.5605" stroke="#BF7E4F" stroke-width="3"/>
<path d="M1332.06 16L1343.5 27.5605" stroke="#BF7E4F" stroke-width="3"/>
<path d="M1343.5 16L1332.06 27.5605" stroke="#BF7E4F" stroke-width="3"/>
<path d="M828.061 16L839.5 27.5605" stroke="#BF7E4F" stroke-width="3"/>
<path d="M839.5 16L828.061 27.5605" stroke="#BF7E4F" stroke-width="3"/>
<path d="M240.061 16L251.5 27.5605" stroke="#BF7E4F" stroke-width="3"/>
<path d="M251.5 16L240.061 27.5605" stroke="#BF7E4F" stroke-width="3"/>
<path d="M1248.06 16L1259.5 27.5605" stroke="#BF7E4F" stroke-width="3"/>
<path d="M1259.5 16L1248.06 27.5605" stroke="#BF7E4F" stroke-width="3"/>
<path d="M744.061 16L755.5 27.5605" stroke="#BF7E4F" stroke-width="3"/>
<path d="M755.5 16L744.061 27.5605" stroke="#BF7E4F" stroke-width="3"/>
<path d="M1752.06 16L1763.5 27.5605" stroke="#BF7E4F" stroke-width="3"/>
<path d="M1763.5 16L1752.06 27.5605" stroke="#BF7E4F" stroke-width="3"/>
<path d="M492.061 16L503.5 27.5605" stroke="#BF7E4F" stroke-width="3"/>
<path d="M503.5 16L492.061 27.5605" stroke="#BF7E4F" stroke-width="3"/>
<path d="M1500.06 16L1511.5 27.5605" stroke="#BF7E4F" stroke-width="3"/>
<path d="M1511.5 16L1500.06 27.5605" stroke="#BF7E4F" stroke-width="3"/>
<path d="M996.061 16L1007.5 27.5605" stroke="#BF7E4F" stroke-width="3"/>
<path d="M1007.5 16L996.061 27.5605" stroke="#BF7E4F" stroke-width="3"/>
<path d="M1808.06 16L1819.5 27.5605" stroke="#BF7E4F" stroke-width="3"/>
<path d="M1819.5 16L1808.06 27.5605" stroke="#BF7E4F" stroke-width="3"/>
<path d="M1836.06 16L1847.5 27.5605" stroke="#BF7E4F" stroke-width="3"/>
<path d="M1847.5 16L1836.06 27.5605" stroke="#BF7E4F" stroke-width="3"/>
<path d="M1864.06 16L1875.5 27.5605" stroke="#BF7E4F" stroke-width="3"/>
<path d="M1875.5 16L1864.06 27.5605" stroke="#BF7E4F" stroke-width="3"/>
<path d="M1892.06 16L1903.5 27.5605" stroke="#BF7E4F" stroke-width="3"/>
<path d="M1903.5 16L1892.06 27.5605" stroke="#BF7E4F" stroke-width="3"/>
<path d="M1920.06 16L1931.5 27.5605" stroke="#BF7E4F" stroke-width="3"/>
<path d="M1931.5 16L1920.06 27.5605" stroke="#BF7E4F" stroke-width="3"/>
<path d="M1934.06 2L1945.5 13.5605" stroke="#BF7E4F" stroke-width="3"/>
<path d="M1945.5 2L1934.06 13.5605" stroke="#BF7E4F" stroke-width="3"/>
<path d="M2942.06 2L2953.5 13.5605" stroke="#BF7E4F" stroke-width="3"/>
<path d="M2953.5 2L2942.06 13.5605" stroke="#BF7E4F" stroke-width="3"/>
<path d="M2438.06 2L2449.5 13.5605" stroke="#BF7E4F" stroke-width="3"/>
<path d="M2449.5 2L2438.06 13.5605" stroke="#BF7E4F" stroke-width="3"/>
<path d="M3446.06 2L3457.5 13.5605" stroke="#BF7E4F" stroke-width="3"/>
<path d="M3457.5 2L3446.06 13.5605" stroke="#BF7E4F" stroke-width="3"/>
<path d="M2186.06 2L2197.5 13.5605" stroke="#BF7E4F" stroke-width="3"/>
<path d="M2197.5 2L2186.06 13.5605" stroke="#BF7E4F" stroke-width="3"/>
<path d="M3194.06 2L3205.5 13.5605" stroke="#BF7E4F" stroke-width="3"/>
<path d="M3205.5 2L3194.06 13.5605" stroke="#BF7E4F" stroke-width="3"/>
<path d="M2690.06 2L2701.5 13.5605" stroke="#BF7E4F" stroke-width="3"/>
<path d="M2701.5 2L2690.06 13.5605" stroke="#BF7E4F" stroke-width="3"/>
<path d="M3698.06 2L3709.5 13.5605" stroke="#BF7E4F" stroke-width="3"/>
<path d="M3709.5 2L3698.06 13.5605" stroke="#BF7E4F" stroke-width="3"/>
<path d="M2102.06 2L2113.5 13.5605" stroke="#BF7E4F" stroke-width="3"/>
<path d="M2113.5 2L2102.06 13.5605" stroke="#BF7E4F" stroke-width="3"/>
<path d="M3110.06 2L3121.5 13.5605" stroke="#BF7E4F" stroke-width="3"/>
<path d="M3121.5 2L3110.06 13.5605" stroke="#BF7E4F" stroke-width="3"/>
<path d="M2606.06 2L2617.5 13.5605" stroke="#BF7E4F" stroke-width="3"/>
<path d="M2617.5 2L2606.06 13.5605" stroke="#BF7E4F" stroke-width="3"/>
<path d="M3614.06 2L3625.5 13.5605" stroke="#BF7E4F" stroke-width="3"/>
<path d="M3625.5 2L3614.06 13.5605" stroke="#BF7E4F" stroke-width="3"/>
<path d="M2354.06 2L2365.5 13.5605" stroke="#BF7E4F" stroke-width="3"/>
<path d="M2365.5 2L2354.06 13.5605" stroke="#BF7E4F" stroke-width="3"/>
<path d="M3362.06 2L3373.5 13.5605" stroke="#BF7E4F" stroke-width="3"/>
<path d="M3373.5 2L3362.06 13.5605" stroke="#BF7E4F" stroke-width="3"/>
<path d="M2858.06 2L2869.5 13.5605" stroke="#BF7E4F" stroke-width="3"/>
<path d="M2869.5 2L2858.06 13.5605" stroke="#BF7E4F" stroke-width="3"/>
<path d="M2018.06 2L2029.5 13.5605" stroke="#BF7E4F" stroke-width="3"/>
<path d="M2029.5 2L2018.06 13.5605" stroke="#BF7E4F" stroke-width="3"/>
<path d="M3026.06 2L3037.5 13.5605" stroke="#BF7E4F" stroke-width="3"/>
<path d="M3037.5 2L3026.06 13.5605" stroke="#BF7E4F" stroke-width="3"/>
<path d="M2522.06 2L2533.5 13.5605" stroke="#BF7E4F" stroke-width="3"/>
<path d="M2533.5 2L2522.06 13.5605" stroke="#BF7E4F" stroke-width="3"/>
<path d="M3530.06 2L3541.5 13.5605" stroke="#BF7E4F" stroke-width="3"/>
<path d="M3541.5 2L3530.06 13.5605" stroke="#BF7E4F" stroke-width="3"/>
<path d="M2270.06 2L2281.5 13.5605" stroke="#BF7E4F" stroke-width="3"/>
<path d="M2281.5 2L2270.06 13.5605" stroke="#BF7E4F" stroke-width="3"/>
<path d="M3278.06 2L3289.5 13.5605" stroke="#BF7E4F" stroke-width="3"/>
<path d="M3289.5 2L3278.06 13.5605" stroke="#BF7E4F" stroke-width="3"/>
<path d="M2774.06 2L2785.5 13.5605" stroke="#BF7E4F" stroke-width="3"/>
<path d="M2785.5 2L2774.06 13.5605" stroke="#BF7E4F" stroke-width="3"/>
<path d="M2074.06 2L2085.5 13.5605" stroke="#BF7E4F" stroke-width="3"/>
<path d="M2085.5 2L2074.06 13.5605" stroke="#BF7E4F" stroke-width="3"/>
<path d="M3082.06 2L3093.5 13.5605" stroke="#BF7E4F" stroke-width="3"/>
<path d="M3093.5 2L3082.06 13.5605" stroke="#BF7E4F" stroke-width="3"/>
<path d="M2578.06 2L2589.5 13.5605" stroke="#BF7E4F" stroke-width="3"/>
<path d="M2589.5 2L2578.06 13.5605" stroke="#BF7E4F" stroke-width="3"/>
<path d="M3586.06 2L3597.5 13.5605" stroke="#BF7E4F" stroke-width="3"/>
<path d="M3597.5 2L3586.06 13.5605" stroke="#BF7E4F" stroke-width="3"/>
<path d="M2326.06 2L2337.5 13.5605" stroke="#BF7E4F" stroke-width="3"/>
<path d="M2337.5 2L2326.06 13.5605" stroke="#BF7E4F" stroke-width="3"/>
<path d="M3334.06 2L3345.5 13.5605" stroke="#BF7E4F" stroke-width="3"/>
<path d="M3345.5 2L3334.06 13.5605" stroke="#BF7E4F" stroke-width="3"/>
<path d="M2830.06 2L2841.5 13.5605" stroke="#BF7E4F" stroke-width="3"/>
<path d="M2841.5 2L2830.06 13.5605" stroke="#BF7E4F" stroke-width="3"/>
<path d="M1990.06 2L2001.5 13.5605" stroke="#BF7E4F" stroke-width="3"/>
<path d="M2001.5 2L1990.06 13.5605" stroke="#BF7E4F" stroke-width="3"/>
<path d="M2998.06 2L3009.5 13.5605" stroke="#BF7E4F" stroke-width="3"/>
<path d="M3009.5 2L2998.06 13.5605" stroke="#BF7E4F" stroke-width="3"/>
<path d="M2494.06 2L2505.5 13.5605" stroke="#BF7E4F" stroke-width="3"/>
<path d="M2505.5 2L2494.06 13.5605" stroke="#BF7E4F" stroke-width="3"/>
<path d="M3502.06 2L3513.5 13.5605" stroke="#BF7E4F" stroke-width="3"/>
<path d="M3513.5 2L3502.06 13.5605" stroke="#BF7E4F" stroke-width="3"/>
<path d="M2242.06 2L2253.5 13.5605" stroke="#BF7E4F" stroke-width="3"/>
<path d="M2253.5 2L2242.06 13.5605" stroke="#BF7E4F" stroke-width="3"/>
<path d="M3250.06 2L3261.5 13.5605" stroke="#BF7E4F" stroke-width="3"/>
<path d="M3261.5 2L3250.06 13.5605" stroke="#BF7E4F" stroke-width="3"/>
<path d="M2746.06 2L2757.5 13.5605" stroke="#BF7E4F" stroke-width="3"/>
<path d="M2757.5 2L2746.06 13.5605" stroke="#BF7E4F" stroke-width="3"/>
<path d="M2158.06 2L2169.5 13.5605" stroke="#BF7E4F" stroke-width="3"/>
<path d="M2169.5 2L2158.06 13.5605" stroke="#BF7E4F" stroke-width="3"/>
<path d="M3166.06 2L3177.5 13.5605" stroke="#BF7E4F" stroke-width="3"/>
<path d="M3177.5 2L3166.06 13.5605" stroke="#BF7E4F" stroke-width="3"/>
<path d="M2662.06 2L2673.5 13.5605" stroke="#BF7E4F" stroke-width="3"/>
<path d="M2673.5 2L2662.06 13.5605" stroke="#BF7E4F" stroke-width="3"/>
<path d="M3670.06 2L3681.5 13.5605" stroke="#BF7E4F" stroke-width="3"/>
<path d="M3681.5 2L3670.06 13.5605" stroke="#BF7E4F" stroke-width="3"/>
<path d="M2410.06 2L2421.5 13.5605" stroke="#BF7E4F" stroke-width="3"/>
<path d="M2421.5 2L2410.06 13.5605" stroke="#BF7E4F" stroke-width="3"/>
<path d="M3418.06 2L3429.5 13.5605" stroke="#BF7E4F" stroke-width="3"/>
<path d="M3429.5 2L3418.06 13.5605" stroke="#BF7E4F" stroke-width="3"/>
<path d="M2914.06 2L2925.5 13.5605" stroke="#BF7E4F" stroke-width="3"/>
<path d="M2925.5 2L2914.06 13.5605" stroke="#BF7E4F" stroke-width="3"/>
<path d="M1962.06 2L1973.5 13.5605" stroke="#BF7E4F" stroke-width="3"/>
<path d="M1973.5 2L1962.06 13.5605" stroke="#BF7E4F" stroke-width="3"/>
<path d="M2970.06 2L2981.5 13.5605" stroke="#BF7E4F" stroke-width="3"/>
<path d="M2981.5 2L2970.06 13.5605" stroke="#BF7E4F" stroke-width="3"/>
<path d="M2466.06 2L2477.5 13.5605" stroke="#BF7E4F" stroke-width="3"/>
<path d="M2477.5 2L2466.06 13.5605" stroke="#BF7E4F" stroke-width="3"/>
<path d="M3474.06 2L3485.5 13.5605" stroke="#BF7E4F" stroke-width="3"/>
<path d="M3485.5 2L3474.06 13.5605" stroke="#BF7E4F" stroke-width="3"/>
<path d="M2214.06 2L2225.5 13.5605" stroke="#BF7E4F" stroke-width="3"/>
<path d="M2225.5 2L2214.06 13.5605" stroke="#BF7E4F" stroke-width="3"/>
<path d="M3222.06 2L3233.5 13.5605" stroke="#BF7E4F" stroke-width="3"/>
<path d="M3233.5 2L3222.06 13.5605" stroke="#BF7E4F" stroke-width="3"/>
<path d="M2718.06 2L2729.5 13.5605" stroke="#BF7E4F" stroke-width="3"/>
<path d="M2729.5 2L2718.06 13.5605" stroke="#BF7E4F" stroke-width="3"/>
<path d="M2130.06 2L2141.5 13.5605" stroke="#BF7E4F" stroke-width="3"/>
<path d="M2141.5 2L2130.06 13.5605" stroke="#BF7E4F" stroke-width="3"/>
<path d="M3138.06 2L3149.5 13.5605" stroke="#BF7E4F" stroke-width="3"/>
<path d="M3149.5 2L3138.06 13.5605" stroke="#BF7E4F" stroke-width="3"/>
<path d="M2634.06 2L2645.5 13.5605" stroke="#BF7E4F" stroke-width="3"/>
<path d="M2645.5 2L2634.06 13.5605" stroke="#BF7E4F" stroke-width="3"/>
<path d="M3642.06 2L3653.5 13.5605" stroke="#BF7E4F" stroke-width="3"/>
<path d="M3653.5 2L3642.06 13.5605" stroke="#BF7E4F" stroke-width="3"/>
<path d="M2382.06 2L2393.5 13.5605" stroke="#BF7E4F" stroke-width="3"/>
<path d="M2393.5 2L2382.06 13.5605" stroke="#BF7E4F" stroke-width="3"/>
<path d="M3390.06 2L3401.5 13.5605" stroke="#BF7E4F" stroke-width="3"/>
<path d="M3401.5 2L3390.06 13.5605" stroke="#BF7E4F" stroke-width="3"/>
<path d="M2886.06 2L2897.5 13.5605" stroke="#BF7E4F" stroke-width="3"/>
<path d="M2897.5 2L2886.06 13.5605" stroke="#BF7E4F" stroke-width="3"/>
<path d="M2046.06 2L2057.5 13.5605" stroke="#BF7E4F" stroke-width="3"/>
<path d="M2057.5 2L2046.06 13.5605" stroke="#BF7E4F" stroke-width="3"/>
<path d="M3054.06 2L3065.5 13.5605" stroke="#BF7E4F" stroke-width="3"/>
<path d="M3065.5 2L3054.06 13.5605" stroke="#BF7E4F" stroke-width="3"/>
<path d="M2550.06 2L2561.5 13.5605" stroke="#BF7E4F" stroke-width="3"/>
<path d="M2561.5 2L2550.06 13.5605" stroke="#BF7E4F" stroke-width="3"/>
<path d="M3558.06 2L3569.5 13.5605" stroke="#BF7E4F" stroke-width="3"/>
<path d="M3569.5 2L3558.06 13.5605" stroke="#BF7E4F" stroke-width="3"/>
<path d="M2298.06 2L2309.5 13.5605" stroke="#BF7E4F" stroke-width="3"/>
<path d="M2309.5 2L2298.06 13.5605" stroke="#BF7E4F" stroke-width="3"/>
<path d="M3306.06 2L3317.5 13.5605" stroke="#BF7E4F" stroke-width="3"/>
<path d="M3317.5 2L3306.06 13.5605" stroke="#BF7E4F" stroke-width="3"/>
<path d="M2802.06 2L2813.5 13.5605" stroke="#BF7E4F" stroke-width="3"/>
<path d="M2813.5 2L2802.06 13.5605" stroke="#BF7E4F" stroke-width="3"/>
<path d="M3726.06 2L3737.5 13.5605" stroke="#BF7E4F" stroke-width="3"/>
<path d="M3737.5 2L3726.06 13.5605" stroke="#BF7E4F" stroke-width="3"/>
<path d="M3754.06 2L3765.5 13.5605" stroke="#BF7E4F" stroke-width="3"/>
<path d="M3765.5 2L3754.06 13.5605" stroke="#BF7E4F" stroke-width="3"/>
<path d="M3782.06 2L3793.5 13.5605" stroke="#BF7E4F" stroke-width="3"/>
<path d="M3793.5 2L3782.06 13.5605" stroke="#BF7E4F" stroke-width="3"/>
<path d="M3810.06 2L3821.5 13.5605" stroke="#BF7E4F" stroke-width="3"/>
<path d="M3821.5 2L3810.06 13.5605" stroke="#BF7E4F" stroke-width="3"/>
<path d="M3838.06 2L3849.5 13.5605" stroke="#BF7E4F" stroke-width="3"/>
<path d="M3849.5 2L3838.06 13.5605" stroke="#BF7E4F" stroke-width="3"/>
<path d="M4006.06 2L4017.5 13.5605" stroke="#BF7E4F" stroke-width="3"/>
<path d="M4017.5 2L4006.06 13.5605" stroke="#BF7E4F" stroke-width="3"/>
<path d="M3922.06 2L3933.5 13.5605" stroke="#BF7E4F" stroke-width="3"/>
<path d="M3933.5 2L3922.06 13.5605" stroke="#BF7E4F" stroke-width="3"/>
<path d="M3894.06 2L3905.5 13.5605" stroke="#BF7E4F" stroke-width="3"/>
<path d="M3905.5 2L3894.06 13.5605" stroke="#BF7E4F" stroke-width="3"/>
<path d="M3978.06 2L3989.5 13.5605" stroke="#BF7E4F" stroke-width="3"/>
<path d="M3989.5 2L3978.06 13.5605" stroke="#BF7E4F" stroke-width="3"/>
<path d="M3950.06 2L3961.5 13.5605" stroke="#BF7E4F" stroke-width="3"/>
<path d="M3961.5 2L3950.06 13.5605" stroke="#BF7E4F" stroke-width="3"/>
<path d="M3866.06 2L3877.5 13.5605" stroke="#BF7E4F" stroke-width="3"/>
<path d="M3877.5 2L3866.06 13.5605" stroke="#BF7E4F" stroke-width="3"/>
<path d="M4034.06 2L4045.5 13.5605" stroke="#BF7E4F" stroke-width="3"/>
<path d="M4045.5 2L4034.06 13.5605" stroke="#BF7E4F" stroke-width="3"/>
<path d="M4062.06 2L4073.5 13.5605" stroke="#BF7E4F" stroke-width="3"/>
<path d="M4073.5 2L4062.06 13.5605" stroke="#BF7E4F" stroke-width="3"/>
<path d="M4090.06 2L4101.5 13.5605" stroke="#BF7E4F" stroke-width="3"/>
<path d="M4101.5 2L4090.06 13.5605" stroke="#BF7E4F" stroke-width="3"/>
<path d="M4118.06 2L4129.5 13.5605" stroke="#BF7E4F" stroke-width="3"/>
<path d="M4129.5 2L4118.06 13.5605" stroke="#BF7E4F" stroke-width="3"/>
<path d="M4146.06 2L4157.5 13.5605" stroke="#BF7E4F" stroke-width="3"/>
<path d="M4157.5 2L4146.06 13.5605" stroke="#BF7E4F" stroke-width="3"/>
<path d="M3880.06 16L3891.5 27.5605" stroke="#BF7E4F" stroke-width="3"/>
<path d="M3891.5 16L3880.06 27.5605" stroke="#BF7E4F" stroke-width="3"/>
<path d="M3964.06 16L3975.5 27.5605" stroke="#BF7E4F" stroke-width="3"/>
<path d="M3975.5 16L3964.06 27.5605" stroke="#BF7E4F" stroke-width="3"/>
<path d="M4020.06 16L4031.5 27.5605" stroke="#BF7E4F" stroke-width="3"/>
<path d="M4031.5 16L4020.06 27.5605" stroke="#BF7E4F" stroke-width="3"/>
<path d="M3936.06 16L3947.5 27.5605" stroke="#BF7E4F" stroke-width="3"/>
<path d="M3947.5 16L3936.06 27.5605" stroke="#BF7E4F" stroke-width="3"/>
<path d="M3852.06 16L3863.5 27.5605" stroke="#BF7E4F" stroke-width="3"/>
<path d="M3863.5 16L3852.06 27.5605" stroke="#BF7E4F" stroke-width="3"/>
<path d="M3908.06 16L3919.5 27.5605" stroke="#BF7E4F" stroke-width="3"/>
<path d="M3919.5 16L3908.06 27.5605" stroke="#BF7E4F" stroke-width="3"/>
<path d="M3992.06 16L4003.5 27.5605" stroke="#BF7E4F" stroke-width="3"/>
<path d="M4003.5 16L3992.06 27.5605" stroke="#BF7E4F" stroke-width="3"/>
<path d="M4048.06 16L4059.5 27.5605" stroke="#BF7E4F" stroke-width="3"/>
<path d="M4059.5 16L4048.06 27.5605" stroke="#BF7E4F" stroke-width="3"/>
<path d="M4076.06 16L4087.5 27.5605" stroke="#BF7E4F" stroke-width="3"/>
<path d="M4087.5 16L4076.06 27.5605" stroke="#BF7E4F" stroke-width="3"/>
<path d="M4104.06 16L4115.5 27.5605" stroke="#BF7E4F" stroke-width="3"/>
<path d="M4115.5 16L4104.06 27.5605" stroke="#BF7E4F" stroke-width="3"/>
<path d="M4132.06 16L4143.5 27.5605" stroke="#BF7E4F" stroke-width="3"/>
<path d="M4143.5 16L4132.06 27.5605" stroke="#BF7E4F" stroke-width="3"/>
<path d="M2060.06 16L2071.5 27.5605" stroke="#BF7E4F" stroke-width="3"/>
<path d="M2071.5 16L2060.06 27.5605" stroke="#BF7E4F" stroke-width="3"/>
<path d="M3068.06 16L3079.5 27.5605" stroke="#BF7E4F" stroke-width="3"/>
<path d="M3079.5 16L3068.06 27.5605" stroke="#BF7E4F" stroke-width="3"/>
<path d="M2564.06 16L2575.5 27.5605" stroke="#BF7E4F" stroke-width="3"/>
<path d="M2575.5 16L2564.06 27.5605" stroke="#BF7E4F" stroke-width="3"/>
<path d="M3572.06 16L3583.5 27.5605" stroke="#BF7E4F" stroke-width="3"/>
<path d="M3583.5 16L3572.06 27.5605" stroke="#BF7E4F" stroke-width="3"/>
<path d="M2312.06 16L2323.5 27.5605" stroke="#BF7E4F" stroke-width="3"/>
<path d="M2323.5 16L2312.06 27.5605" stroke="#BF7E4F" stroke-width="3"/>
<path d="M3320.06 16L3331.5 27.5605" stroke="#BF7E4F" stroke-width="3"/>
<path d="M3331.5 16L3320.06 27.5605" stroke="#BF7E4F" stroke-width="3"/>
<path d="M2816.06 16L2827.5 27.5605" stroke="#BF7E4F" stroke-width="3"/>
<path d="M2827.5 16L2816.06 27.5605" stroke="#BF7E4F" stroke-width="3"/>
<path d="M1976.06 16L1987.5 27.5605" stroke="#BF7E4F" stroke-width="3"/>
<path d="M1987.5 16L1976.06 27.5605" stroke="#BF7E4F" stroke-width="3"/>
<path d="M2984.06 16L2995.5 27.5605" stroke="#BF7E4F" stroke-width="3"/>
<path d="M2995.5 16L2984.06 27.5605" stroke="#BF7E4F" stroke-width="3"/>
<path d="M2480.06 16L2491.5 27.5605" stroke="#BF7E4F" stroke-width="3"/>
<path d="M2491.5 16L2480.06 27.5605" stroke="#BF7E4F" stroke-width="3"/>
<path d="M3488.06 16L3499.5 27.5605" stroke="#BF7E4F" stroke-width="3"/>
<path d="M3499.5 16L3488.06 27.5605" stroke="#BF7E4F" stroke-width="3"/>
<path d="M2228.06 16L2239.5 27.5605" stroke="#BF7E4F" stroke-width="3"/>
<path d="M2239.5 16L2228.06 27.5605" stroke="#BF7E4F" stroke-width="3"/>
<path d="M3236.06 16L3247.5 27.5605" stroke="#BF7E4F" stroke-width="3"/>
<path d="M3247.5 16L3236.06 27.5605" stroke="#BF7E4F" stroke-width="3"/>
<path d="M2732.06 16L2743.5 27.5605" stroke="#BF7E4F" stroke-width="3"/>
<path d="M2743.5 16L2732.06 27.5605" stroke="#BF7E4F" stroke-width="3"/>
<path d="M2144.06 16L2155.5 27.5605" stroke="#BF7E4F" stroke-width="3"/>
<path d="M2155.5 16L2144.06 27.5605" stroke="#BF7E4F" stroke-width="3"/>
<path d="M3152.06 16L3163.5 27.5605" stroke="#BF7E4F" stroke-width="3"/>
<path d="M3163.5 16L3152.06 27.5605" stroke="#BF7E4F" stroke-width="3"/>
<path d="M2648.06 16L2659.5 27.5605" stroke="#BF7E4F" stroke-width="3"/>
<path d="M2659.5 16L2648.06 27.5605" stroke="#BF7E4F" stroke-width="3"/>
<path d="M3656.06 16L3667.5 27.5605" stroke="#BF7E4F" stroke-width="3"/>
<path d="M3667.5 16L3656.06 27.5605" stroke="#BF7E4F" stroke-width="3"/>
<path d="M2396.06 16L2407.5 27.5605" stroke="#BF7E4F" stroke-width="3"/>
<path d="M2407.5 16L2396.06 27.5605" stroke="#BF7E4F" stroke-width="3"/>
<path d="M3404.06 16L3415.5 27.5605" stroke="#BF7E4F" stroke-width="3"/>
<path d="M3415.5 16L3404.06 27.5605" stroke="#BF7E4F" stroke-width="3"/>
<path d="M2900.06 16L2911.5 27.5605" stroke="#BF7E4F" stroke-width="3"/>
<path d="M2911.5 16L2900.06 27.5605" stroke="#BF7E4F" stroke-width="3"/>
<path d="M1948.06 16L1959.5 27.5605" stroke="#BF7E4F" stroke-width="3"/>
<path d="M1959.5 16L1948.06 27.5605" stroke="#BF7E4F" stroke-width="3"/>
<path d="M2956.06 16L2967.5 27.5605" stroke="#BF7E4F" stroke-width="3"/>
<path d="M2967.5 16L2956.06 27.5605" stroke="#BF7E4F" stroke-width="3"/>
<path d="M2452.06 16L2463.5 27.5605" stroke="#BF7E4F" stroke-width="3"/>
<path d="M2463.5 16L2452.06 27.5605" stroke="#BF7E4F" stroke-width="3"/>
<path d="M3460.06 16L3471.5 27.5605" stroke="#BF7E4F" stroke-width="3"/>
<path d="M3471.5 16L3460.06 27.5605" stroke="#BF7E4F" stroke-width="3"/>
<path d="M2200.06 16L2211.5 27.5605" stroke="#BF7E4F" stroke-width="3"/>
<path d="M2211.5 16L2200.06 27.5605" stroke="#BF7E4F" stroke-width="3"/>
<path d="M3208.06 16L3219.5 27.5605" stroke="#BF7E4F" stroke-width="3"/>
<path d="M3219.5 16L3208.06 27.5605" stroke="#BF7E4F" stroke-width="3"/>
<path d="M2704.06 16L2715.5 27.5605" stroke="#BF7E4F" stroke-width="3"/>
<path d="M2715.5 16L2704.06 27.5605" stroke="#BF7E4F" stroke-width="3"/>
<path d="M3712.06 16L3723.5 27.5605" stroke="#BF7E4F" stroke-width="3"/>
<path d="M3723.5 16L3712.06 27.5605" stroke="#BF7E4F" stroke-width="3"/>
<path d="M2116.06 16L2127.5 27.5605" stroke="#BF7E4F" stroke-width="3"/>
<path d="M2127.5 16L2116.06 27.5605" stroke="#BF7E4F" stroke-width="3"/>
<path d="M3124.06 16L3135.5 27.5605" stroke="#BF7E4F" stroke-width="3"/>
<path d="M3135.5 16L3124.06 27.5605" stroke="#BF7E4F" stroke-width="3"/>
<path d="M2620.06 16L2631.5 27.5605" stroke="#BF7E4F" stroke-width="3"/>
<path d="M2631.5 16L2620.06 27.5605" stroke="#BF7E4F" stroke-width="3"/>
<path d="M3628.06 16L3639.5 27.5605" stroke="#BF7E4F" stroke-width="3"/>
<path d="M3639.5 16L3628.06 27.5605" stroke="#BF7E4F" stroke-width="3"/>
<path d="M2368.06 16L2379.5 27.5605" stroke="#BF7E4F" stroke-width="3"/>
<path d="M2379.5 16L2368.06 27.5605" stroke="#BF7E4F" stroke-width="3"/>
<path d="M3376.06 16L3387.5 27.5605" stroke="#BF7E4F" stroke-width="3"/>
<path d="M3387.5 16L3376.06 27.5605" stroke="#BF7E4F" stroke-width="3"/>
<path d="M2872.06 16L2883.5 27.5605" stroke="#BF7E4F" stroke-width="3"/>
<path d="M2883.5 16L2872.06 27.5605" stroke="#BF7E4F" stroke-width="3"/>
<path d="M2032.06 16L2043.5 27.5605" stroke="#BF7E4F" stroke-width="3"/>
<path d="M2043.5 16L2032.06 27.5605" stroke="#BF7E4F" stroke-width="3"/>
<path d="M3040.06 16L3051.5 27.5605" stroke="#BF7E4F" stroke-width="3"/>
<path d="M3051.5 16L3040.06 27.5605" stroke="#BF7E4F" stroke-width="3"/>
<path d="M2536.06 16L2547.5 27.5605" stroke="#BF7E4F" stroke-width="3"/>
<path d="M2547.5 16L2536.06 27.5605" stroke="#BF7E4F" stroke-width="3"/>
<path d="M3544.06 16L3555.5 27.5605" stroke="#BF7E4F" stroke-width="3"/>
<path d="M3555.5 16L3544.06 27.5605" stroke="#BF7E4F" stroke-width="3"/>
<path d="M2284.06 16L2295.5 27.5605" stroke="#BF7E4F" stroke-width="3"/>
<path d="M2295.5 16L2284.06 27.5605" stroke="#BF7E4F" stroke-width="3"/>
<path d="M3292.06 16L3303.5 27.5605" stroke="#BF7E4F" stroke-width="3"/>
<path d="M3303.5 16L3292.06 27.5605" stroke="#BF7E4F" stroke-width="3"/>
<path d="M2788.06 16L2799.5 27.5605" stroke="#BF7E4F" stroke-width="3"/>
<path d="M2799.5 16L2788.06 27.5605" stroke="#BF7E4F" stroke-width="3"/>
<path d="M2088.06 16L2099.5 27.5605" stroke="#BF7E4F" stroke-width="3"/>
<path d="M2099.5 16L2088.06 27.5605" stroke="#BF7E4F" stroke-width="3"/>
<path d="M3096.06 16L3107.5 27.5605" stroke="#BF7E4F" stroke-width="3"/>
<path d="M3107.5 16L3096.06 27.5605" stroke="#BF7E4F" stroke-width="3"/>
<path d="M2592.06 16L2603.5 27.5605" stroke="#BF7E4F" stroke-width="3"/>
<path d="M2603.5 16L2592.06 27.5605" stroke="#BF7E4F" stroke-width="3"/>
<path d="M3600.06 16L3611.5 27.5605" stroke="#BF7E4F" stroke-width="3"/>
<path d="M3611.5 16L3600.06 27.5605" stroke="#BF7E4F" stroke-width="3"/>
<path d="M2340.06 16L2351.5 27.5605" stroke="#BF7E4F" stroke-width="3"/>
<path d="M2351.5 16L2340.06 27.5605" stroke="#BF7E4F" stroke-width="3"/>
<path d="M3348.06 16L3359.5 27.5605" stroke="#BF7E4F" stroke-width="3"/>
<path d="M3359.5 16L3348.06 27.5605" stroke="#BF7E4F" stroke-width="3"/>
<path d="M2844.06 16L2855.5 27.5605" stroke="#BF7E4F" stroke-width="3"/>
<path d="M2855.5 16L2844.06 27.5605" stroke="#BF7E4F" stroke-width="3"/>
<path d="M2004.06 16L2015.5 27.5605" stroke="#BF7E4F" stroke-width="3"/>
<path d="M2015.5 16L2004.06 27.5605" stroke="#BF7E4F" stroke-width="3"/>
<path d="M3012.06 16L3023.5 27.5605" stroke="#BF7E4F" stroke-width="3"/>
<path d="M3023.5 16L3012.06 27.5605" stroke="#BF7E4F" stroke-width="3"/>
<path d="M2508.06 16L2519.5 27.5605" stroke="#BF7E4F" stroke-width="3"/>
<path d="M2519.5 16L2508.06 27.5605" stroke="#BF7E4F" stroke-width="3"/>
<path d="M3516.06 16L3527.5 27.5605" stroke="#BF7E4F" stroke-width="3"/>
<path d="M3527.5 16L3516.06 27.5605" stroke="#BF7E4F" stroke-width="3"/>
<path d="M2256.06 16L2267.5 27.5605" stroke="#BF7E4F" stroke-width="3"/>
<path d="M2267.5 16L2256.06 27.5605" stroke="#BF7E4F" stroke-width="3"/>
<path d="M3264.06 16L3275.5 27.5605" stroke="#BF7E4F" stroke-width="3"/>
<path d="M3275.5 16L3264.06 27.5605" stroke="#BF7E4F" stroke-width="3"/>
<path d="M2760.06 16L2771.5 27.5605" stroke="#BF7E4F" stroke-width="3"/>
<path d="M2771.5 16L2760.06 27.5605" stroke="#BF7E4F" stroke-width="3"/>
<path d="M2172.06 16L2183.5 27.5605" stroke="#BF7E4F" stroke-width="3"/>
<path d="M2183.5 16L2172.06 27.5605" stroke="#BF7E4F" stroke-width="3"/>
<path d="M3180.06 16L3191.5 27.5605" stroke="#BF7E4F" stroke-width="3"/>
<path d="M3191.5 16L3180.06 27.5605" stroke="#BF7E4F" stroke-width="3"/>
<path d="M2676.06 16L2687.5 27.5605" stroke="#BF7E4F" stroke-width="3"/>
<path d="M2687.5 16L2676.06 27.5605" stroke="#BF7E4F" stroke-width="3"/>
<path d="M3684.06 16L3695.5 27.5605" stroke="#BF7E4F" stroke-width="3"/>
<path d="M3695.5 16L3684.06 27.5605" stroke="#BF7E4F" stroke-width="3"/>
<path d="M2424.06 16L2435.5 27.5605" stroke="#BF7E4F" stroke-width="3"/>
<path d="M2435.5 16L2424.06 27.5605" stroke="#BF7E4F" stroke-width="3"/>
<path d="M3432.06 16L3443.5 27.5605" stroke="#BF7E4F" stroke-width="3"/>
<path d="M3443.5 16L3432.06 27.5605" stroke="#BF7E4F" stroke-width="3"/>
<path d="M2928.06 16L2939.5 27.5605" stroke="#BF7E4F" stroke-width="3"/>
<path d="M2939.5 16L2928.06 27.5605" stroke="#BF7E4F" stroke-width="3"/>
<path d="M3740.06 16L3751.5 27.5605" stroke="#BF7E4F" stroke-width="3"/>
<path d="M3751.5 16L3740.06 27.5605" stroke="#BF7E4F" stroke-width="3"/>
<path d="M3768.06 16L3779.5 27.5605" stroke="#BF7E4F" stroke-width="3"/>
<path d="M3779.5 16L3768.06 27.5605" stroke="#BF7E4F" stroke-width="3"/>
<path d="M3796.06 16L3807.5 27.5605" stroke="#BF7E4F" stroke-width="3"/>
<path d="M3807.5 16L3796.06 27.5605" stroke="#BF7E4F" stroke-width="3"/>
<path d="M3824.06 16L3835.5 27.5605" stroke="#BF7E4F" stroke-width="3"/>
<path d="M3835.5 16L3824.06 27.5605" stroke="#BF7E4F" stroke-width="3"/>
</svg>
