<svg width="71" height="71" viewBox="0 0 71 71" fill="none" xmlns="http://www.w3.org/2000/svg">
<path d="M30.0586 30L41.498 41.5605" stroke="#FF0000" stroke-width="3"/>
<path d="M41.498 30L30.0586 41.5605" stroke="#FF0000" stroke-width="3"/>
<path d="M30.0586 44L41.498 55.5605" stroke="#FF0000" stroke-width="3"/>
<path d="M41.498 44L30.0586 55.5605" stroke="#FF0000" stroke-width="3"/>
<path d="M30.0586 58L41.498 69.5605" stroke="#FF0000" stroke-width="3"/>
<path d="M41.498 58L30.0586 69.5605" stroke="#FF0000" stroke-width="3"/>
<path d="M16.0586 44L27.498 55.5605" stroke="#FF0000" stroke-width="3"/>
<path d="M27.498 44L16.0586 55.5605" stroke="#FF0000" stroke-width="3"/>
<path d="M44.0586 44L55.498 55.5605" stroke="#FF0000" stroke-width="3"/>
<path d="M55.498 44L44.0586 55.5605" stroke="#FF0000" stroke-width="3"/>
<path d="M2.05859 30L13.498 41.5605" stroke="#FF0000" stroke-width="3"/>
<path d="M13.498 30L2.05859 41.5605" stroke="#FF0000" stroke-width="3"/>
<path d="M58.0586 30L69.498 41.5605" stroke="#FF0000" stroke-width="3"/>
<path d="M69.498 30L58.0586 41.5605" stroke="#FF0000" stroke-width="3"/>
<path d="M16.0586 30L27.498 41.5605" stroke="#FF0000" stroke-width="3"/>
<path d="M27.498 30L16.0586 41.5605" stroke="#FF0000" stroke-width="3"/>
<path d="M44.0586 30L55.498 41.5605" stroke="#FF0000" stroke-width="3"/>
<path d="M55.498 30L44.0586 41.5605" stroke="#FF0000" stroke-width="3"/>
<path d="M58.0586 16L69.498 27.5605" stroke="#FF0000" stroke-width="3"/>
<path d="M69.498 16L58.0586 27.5605" stroke="#FF0000" stroke-width="3"/>
<path d="M2.05859 16L13.498 27.5605" stroke="#FF0000" stroke-width="3"/>
<path d="M13.498 16L2.05859 27.5605" stroke="#FF0000" stroke-width="3"/>
<path d="M2.05859 2L13.498 13.5605" stroke="#FF0000" stroke-width="3"/>
<path d="M13.498 2L2.05859 13.5605" stroke="#FF0000" stroke-width="3"/>
<path d="M58.0586 2L69.498 13.5605" stroke="#FF0000" stroke-width="3"/>
<path d="M69.498 2L58.0586 13.5605" stroke="#FF0000" stroke-width="3"/>
<path d="M30.0586 16L41.498 27.5605" stroke="#FF0000" stroke-width="3"/>
<path d="M41.498 16L30.0586 27.5605" stroke="#FF0000" stroke-width="3"/>
<path d="M16.0586 16L27.498 27.5605" stroke="#FF0000" stroke-width="3"/>
<path d="M27.498 16L16.0586 27.5605" stroke="#FF0000" stroke-width="3"/>
<path d="M16.0586 2L27.498 13.5605" stroke="#FF0000" stroke-width="3"/>
<path d="M27.498 2L16.0586 13.5605" stroke="#FF0000" stroke-width="3"/>
<path d="M44.0586 2L55.498 13.5605" stroke="#FF0000" stroke-width="3"/>
<path d="M55.498 2L44.0586 13.5605" stroke="#FF0000" stroke-width="3"/>
<path d="M44.0586 16L55.498 27.5605" stroke="#FF0000" stroke-width="3"/>
<path d="M55.498 16L44.0586 27.5605" stroke="#FF0000" stroke-width="3"/>
</svg>
