<svg width="127" height="127" viewBox="0 0 127 127" fill="none" xmlns="http://www.w3.org/2000/svg">
<path d="M30.0605 114L41.5 125.561" stroke="#FFB800" stroke-width="3"/>
<path d="M41.5 114L30.0605 125.561" stroke="#FFB800" stroke-width="3"/>
<path d="M30.0605 2L41.5 13.5605" stroke="#FFB800" stroke-width="3"/>
<path d="M41.5 2L30.0605 13.5605" stroke="#FFB800" stroke-width="3"/>
<path d="M30.0605 100L41.5 111.561" stroke="#FFB800" stroke-width="3"/>
<path d="M41.5 100L30.0605 111.561" stroke="#FFB800" stroke-width="3"/>
<path d="M30.0605 16L41.5 27.5605" stroke="#FFB800" stroke-width="3"/>
<path d="M41.5 16L30.0605 27.5605" stroke="#FFB800" stroke-width="3"/>
<path d="M30.0605 86L41.5 97.5605" stroke="#FFB800" stroke-width="3"/>
<path d="M41.5 86L30.0605 97.5605" stroke="#FFB800" stroke-width="3"/>
<path d="M30.0605 72L41.5 83.5605" stroke="#FFB800" stroke-width="3"/>
<path d="M41.5 72L30.0605 83.5605" stroke="#FFB800" stroke-width="3"/>
<path d="M30.0605 58L41.5 69.5605" stroke="#FFB800" stroke-width="3"/>
<path d="M41.5 58L30.0605 69.5605" stroke="#FFB800" stroke-width="3"/>
<path d="M30.0605 44L41.5 55.5605" stroke="#FFB800" stroke-width="3"/>
<path d="M41.5 44L30.0605 55.5605" stroke="#FFB800" stroke-width="3"/>
<path d="M30.0605 30L41.5 41.5605" stroke="#FFB800" stroke-width="3"/>
<path d="M41.5 30L30.0605 41.5605" stroke="#FFB800" stroke-width="3"/>
<path d="M16.0605 100L27.5 111.561" stroke="#FFB800" stroke-width="3"/>
<path d="M27.5 100L16.0605 111.561" stroke="#FFB800" stroke-width="3"/>
<path d="M16.0605 16L27.5 27.5605" stroke="#FFB800" stroke-width="3"/>
<path d="M27.5 16L16.0605 27.5605" stroke="#FFB800" stroke-width="3"/>
<path d="M16.0605 86L27.5 97.5605" stroke="#FFB800" stroke-width="3"/>
<path d="M27.5 86L16.0605 97.5605" stroke="#FFB800" stroke-width="3"/>
<path d="M16.0605 72L27.5 83.5605" stroke="#FFB800" stroke-width="3"/>
<path d="M27.5 72L16.0605 83.5605" stroke="#FFB800" stroke-width="3"/>
<path d="M16.0605 58L27.5 69.5605" stroke="#FFB800" stroke-width="3"/>
<path d="M27.5 58L16.0605 69.5605" stroke="#FFB800" stroke-width="3"/>
<path d="M16.0605 44L27.5 55.5605" stroke="#FFB800" stroke-width="3"/>
<path d="M27.5 44L16.0605 55.5605" stroke="#FFB800" stroke-width="3"/>
<path d="M16.0605 30L27.5 41.5605" stroke="#FFB800" stroke-width="3"/>
<path d="M27.5 30L16.0605 41.5605" stroke="#FFB800" stroke-width="3"/>
<path d="M2.06055 86L13.5 97.5605" stroke="#FFB800" stroke-width="3"/>
<path d="M13.5 86L2.06055 97.5605" stroke="#FFB800" stroke-width="3"/>
<path d="M2.06055 72L13.5 83.5605" stroke="#FFB800" stroke-width="3"/>
<path d="M13.5 72L2.06055 83.5605" stroke="#FFB800" stroke-width="3"/>
<path d="M2.06055 58L13.5 69.5605" stroke="#FFB800" stroke-width="3"/>
<path d="M13.5 58L2.06055 69.5605" stroke="#FFB800" stroke-width="3"/>
<path d="M2.06055 44L13.5 55.5605" stroke="#FFB800" stroke-width="3"/>
<path d="M13.5 44L2.06055 55.5605" stroke="#FFB800" stroke-width="3"/>
<path d="M2.06055 30L13.5 41.5605" stroke="#FFB800" stroke-width="3"/>
<path d="M13.5 30L2.06055 41.5605" stroke="#FFB800" stroke-width="3"/>
<path d="M44.0605 114L55.5 125.561" stroke="#FFB800" stroke-width="3"/>
<path d="M55.5 114L44.0605 125.561" stroke="#FFB800" stroke-width="3"/>
<path d="M44.0605 2L55.5 13.5605" stroke="#FFB800" stroke-width="3"/>
<path d="M55.5 2L44.0605 13.5605" stroke="#FFB800" stroke-width="3"/>
<path d="M44.0605 100L55.5 111.561" stroke="#FFB800" stroke-width="3"/>
<path d="M55.5 100L44.0605 111.561" stroke="#FFB800" stroke-width="3"/>
<path d="M44.0605 16L55.5 27.5605" stroke="#FFB800" stroke-width="3"/>
<path d="M55.5 16L44.0605 27.5605" stroke="#FFB800" stroke-width="3"/>
<path d="M44.0605 86L55.5 97.5605" stroke="#FFB800" stroke-width="3"/>
<path d="M55.5 86L44.0605 97.5605" stroke="#FFB800" stroke-width="3"/>
<path d="M44.0605 72L55.5 83.5605" stroke="#FFB800" stroke-width="3"/>
<path d="M55.5 72L44.0605 83.5605" stroke="#FFB800" stroke-width="3"/>
<path d="M44.0605 58L55.5 69.5605" stroke="#FFB800" stroke-width="3"/>
<path d="M55.5 58L44.0605 69.5605" stroke="#FFB800" stroke-width="3"/>
<path d="M44.0605 44L55.5 55.5605" stroke="#FFB800" stroke-width="3"/>
<path d="M55.5 44L44.0605 55.5605" stroke="#FFB800" stroke-width="3"/>
<path d="M44.0605 30L55.5 41.5605" stroke="#FFB800" stroke-width="3"/>
<path d="M55.5 30L44.0605 41.5605" stroke="#FFB800" stroke-width="3"/>
<path d="M58.0605 114L69.5 125.561" stroke="#FFB800" stroke-width="3"/>
<path d="M69.5 114L58.0605 125.561" stroke="#FFB800" stroke-width="3"/>
<path d="M58.0605 2L69.5 13.5605" stroke="#FFB800" stroke-width="3"/>
<path d="M69.5 2L58.0605 13.5605" stroke="#FFB800" stroke-width="3"/>
<path d="M58.0605 100L69.5 111.561" stroke="#FFB800" stroke-width="3"/>
<path d="M69.5 100L58.0605 111.561" stroke="#FFB800" stroke-width="3"/>
<path d="M58.0605 16L69.5 27.5605" stroke="#FFB800" stroke-width="3"/>
<path d="M69.5 16L58.0605 27.5605" stroke="#FFB800" stroke-width="3"/>
<path d="M58.0605 86L69.5 97.5605" stroke="#FFB800" stroke-width="3"/>
<path d="M69.5 86L58.0605 97.5605" stroke="#FFB800" stroke-width="3"/>
<path d="M58.0605 72L69.5 83.5605" stroke="#FFB800" stroke-width="3"/>
<path d="M69.5 72L58.0605 83.5605" stroke="#FFB800" stroke-width="3"/>
<path d="M58.0605 58L69.5 69.5605" stroke="#FFB800" stroke-width="3"/>
<path d="M69.5 58L58.0605 69.5605" stroke="#FFB800" stroke-width="3"/>
<path d="M58.0605 44L69.5 55.5605" stroke="#FFB800" stroke-width="3"/>
<path d="M69.5 44L58.0605 55.5605" stroke="#FFB800" stroke-width="3"/>
<path d="M58.0605 30L69.5 41.5605" stroke="#FFB800" stroke-width="3"/>
<path d="M69.5 30L58.0605 41.5605" stroke="#FFB800" stroke-width="3"/>
<path d="M72.0605 114L83.5 125.561" stroke="#FFB800" stroke-width="3"/>
<path d="M83.5 114L72.0605 125.561" stroke="#FFB800" stroke-width="3"/>
<path d="M72.0605 2L83.5 13.5605" stroke="#FFB800" stroke-width="3"/>
<path d="M83.5 2L72.0605 13.5605" stroke="#FFB800" stroke-width="3"/>
<path d="M72.0605 100L83.5 111.561" stroke="#FFB800" stroke-width="3"/>
<path d="M83.5 100L72.0605 111.561" stroke="#FFB800" stroke-width="3"/>
<path d="M72.0605 16L83.5 27.5605" stroke="#FFB800" stroke-width="3"/>
<path d="M83.5 16L72.0605 27.5605" stroke="#FFB800" stroke-width="3"/>
<path d="M72.0605 86L83.5 97.5605" stroke="#FFB800" stroke-width="3"/>
<path d="M83.5 86L72.0605 97.5605" stroke="#FFB800" stroke-width="3"/>
<path d="M72.0605 72L83.5 83.5605" stroke="#FFB800" stroke-width="3"/>
<path d="M83.5 72L72.0605 83.5605" stroke="#FFB800" stroke-width="3"/>
<path d="M72.0605 58L83.5 69.5605" stroke="#FFB800" stroke-width="3"/>
<path d="M83.5 58L72.0605 69.5605" stroke="#FFB800" stroke-width="3"/>
<path d="M72.0605 44L83.5 55.5605" stroke="#FFB800" stroke-width="3"/>
<path d="M83.5 44L72.0605 55.5605" stroke="#FFB800" stroke-width="3"/>
<path d="M72.0605 30L83.5 41.5605" stroke="#FFB800" stroke-width="3"/>
<path d="M83.5 30L72.0605 41.5605" stroke="#FFB800" stroke-width="3"/>
<path d="M86.0605 114L97.5 125.561" stroke="#FFB800" stroke-width="3"/>
<path d="M97.5 114L86.0605 125.561" stroke="#FFB800" stroke-width="3"/>
<path d="M86.0605 2L97.5 13.5605" stroke="#FFB800" stroke-width="3"/>
<path d="M97.5 2L86.0605 13.5605" stroke="#FFB800" stroke-width="3"/>
<path d="M86.0605 100L97.5 111.561" stroke="#FFB800" stroke-width="3"/>
<path d="M97.5 100L86.0605 111.561" stroke="#FFB800" stroke-width="3"/>
<path d="M86.0605 16L97.5 27.5605" stroke="#FFB800" stroke-width="3"/>
<path d="M97.5 16L86.0605 27.5605" stroke="#FFB800" stroke-width="3"/>
<path d="M86.0605 86L97.5 97.5605" stroke="#FFB800" stroke-width="3"/>
<path d="M97.5 86L86.0605 97.5605" stroke="#FFB800" stroke-width="3"/>
<path d="M86.0605 72L97.5 83.5605" stroke="#FFB800" stroke-width="3"/>
<path d="M97.5 72L86.0605 83.5605" stroke="#FFB800" stroke-width="3"/>
<path d="M86.0605 58L97.5 69.5605" stroke="#FFB800" stroke-width="3"/>
<path d="M97.5 58L86.0605 69.5605" stroke="#FFB800" stroke-width="3"/>
<path d="M86.0605 44L97.5 55.5605" stroke="#FFB800" stroke-width="3"/>
<path d="M97.5 44L86.0605 55.5605" stroke="#FFB800" stroke-width="3"/>
<path d="M86.0605 30L97.5 41.5605" stroke="#FFB800" stroke-width="3"/>
<path d="M97.5 30L86.0605 41.5605" stroke="#FFB800" stroke-width="3"/>
<path d="M100.061 100L111.5 111.561" stroke="#FFB800" stroke-width="3"/>
<path d="M111.5 100L100.061 111.561" stroke="#FFB800" stroke-width="3"/>
<path d="M100.061 16L111.5 27.5605" stroke="#FFB800" stroke-width="3"/>
<path d="M111.5 16L100.061 27.5605" stroke="#FFB800" stroke-width="3"/>
<path d="M100.061 86L111.5 97.5605" stroke="#FFB800" stroke-width="3"/>
<path d="M111.5 86L100.061 97.5605" stroke="#FFB800" stroke-width="3"/>
<path d="M100.061 72L111.5 83.5605" stroke="#FFB800" stroke-width="3"/>
<path d="M111.5 72L100.061 83.5605" stroke="#FFB800" stroke-width="3"/>
<path d="M100.061 58L111.5 69.5605" stroke="#FFB800" stroke-width="3"/>
<path d="M111.5 58L100.061 69.5605" stroke="#FFB800" stroke-width="3"/>
<path d="M100.061 44L111.5 55.5605" stroke="#FFB800" stroke-width="3"/>
<path d="M111.5 44L100.061 55.5605" stroke="#FFB800" stroke-width="3"/>
<path d="M100.061 30L111.5 41.5605" stroke="#FFB800" stroke-width="3"/>
<path d="M111.5 30L100.061 41.5605" stroke="#FFB800" stroke-width="3"/>
<path d="M114.061 86L125.5 97.5605" stroke="#FFB800" stroke-width="3"/>
<path d="M125.5 86L114.061 97.5605" stroke="#FFB800" stroke-width="3"/>
<path d="M114.061 72L125.5 83.5605" stroke="#FFB800" stroke-width="3"/>
<path d="M125.5 72L114.061 83.5605" stroke="#FFB800" stroke-width="3"/>
<path d="M114.061 58L125.5 69.5605" stroke="#FFB800" stroke-width="3"/>
<path d="M125.5 58L114.061 69.5605" stroke="#FFB800" stroke-width="3"/>
<path d="M114.061 44L125.5 55.5605" stroke="#FFB800" stroke-width="3"/>
<path d="M125.5 44L114.061 55.5605" stroke="#FFB800" stroke-width="3"/>
<path d="M114.061 30L125.5 41.5605" stroke="#FFB800" stroke-width="3"/>
<path d="M125.5 30L114.061 41.5605" stroke="#FFB800" stroke-width="3"/>
</svg>
