<svg width="187" height="253" viewBox="0 0 187 253" fill="none" xmlns="http://www.w3.org/2000/svg">
<path d="M88.0586 240L99.498 251.561" stroke="#BF7E4F" stroke-width="3"/>
<path d="M99.498 240L88.0586 251.561" stroke="#BF7E4F" stroke-width="3"/>
<path d="M88.0586 156L99.498 167.561" stroke="#BF7E4F" stroke-width="3"/>
<path d="M99.498 156L88.0586 167.561" stroke="#BF7E4F" stroke-width="3"/>
<path d="M88.0586 72L99.498 83.5605" stroke="#BF7E4F" stroke-width="3"/>
<path d="M99.498 72L88.0586 83.5605" stroke="#BF7E4F" stroke-width="3"/>
<path d="M88.0586 198L99.498 209.561" stroke="#BF7E4F" stroke-width="3"/>
<path d="M99.498 198L88.0586 209.561" stroke="#BF7E4F" stroke-width="3"/>
<path d="M88.0586 114L99.498 125.561" stroke="#BF7E4F" stroke-width="3"/>
<path d="M99.498 114L88.0586 125.561" stroke="#BF7E4F" stroke-width="3"/>
<path d="M88.0586 30L99.498 41.5605" stroke="#BF7E4F" stroke-width="3"/>
<path d="M99.498 30L88.0586 41.5605" stroke="#BF7E4F" stroke-width="3"/>
<path d="M88.0586 226L99.498 237.561" stroke="#BF7E4F" stroke-width="3"/>
<path d="M99.498 226L88.0586 237.561" stroke="#BF7E4F" stroke-width="3"/>
<path d="M88.0586 142L99.498 153.561" stroke="#BF7E4F" stroke-width="3"/>
<path d="M99.498 142L88.0586 153.561" stroke="#BF7E4F" stroke-width="3"/>
<path d="M88.0586 58L99.498 69.5605" stroke="#BF7E4F" stroke-width="3"/>
<path d="M99.498 58L88.0586 69.5605" stroke="#BF7E4F" stroke-width="3"/>
<path d="M88.0586 184L99.498 195.561" stroke="#BF7E4F" stroke-width="3"/>
<path d="M99.498 184L88.0586 195.561" stroke="#BF7E4F" stroke-width="3"/>
<path d="M88.0586 100L99.498 111.561" stroke="#BF7E4F" stroke-width="3"/>
<path d="M99.498 100L88.0586 111.561" stroke="#BF7E4F" stroke-width="3"/>
<path d="M88.0586 16L99.498 27.5605" stroke="#BF7E4F" stroke-width="3"/>
<path d="M99.498 16L88.0586 27.5605" stroke="#BF7E4F" stroke-width="3"/>
<path d="M102.059 16L113.498 27.5605" stroke="#038910" stroke-width="3"/>
<path d="M113.498 16L102.059 27.5605" stroke="#038910" stroke-width="3"/>
<path d="M102.059 58L113.498 69.5605" stroke="#038910" stroke-width="3"/>
<path d="M113.498 58L102.059 69.5605" stroke="#038910" stroke-width="3"/>
<path d="M102.059 100L113.498 111.561" stroke="#038910" stroke-width="3"/>
<path d="M113.498 100L102.059 111.561" stroke="#038910" stroke-width="3"/>
<path d="M102.059 142L113.498 153.561" stroke="#038910" stroke-width="3"/>
<path d="M113.498 142L102.059 153.561" stroke="#038910" stroke-width="3"/>
<path d="M102.059 184L113.498 195.561" stroke="#038910" stroke-width="3"/>
<path d="M113.498 184L102.059 195.561" stroke="#038910" stroke-width="3"/>
<path d="M114.059 46L125.498 57.5605" stroke="#038910" stroke-width="3"/>
<path d="M125.498 46L114.059 57.5605" stroke="#038910" stroke-width="3"/>
<path d="M114.059 88L125.498 99.5605" stroke="#038910" stroke-width="3"/>
<path d="M125.498 88L114.059 99.5605" stroke="#038910" stroke-width="3"/>
<path d="M114.059 130L125.498 141.561" stroke="#038910" stroke-width="3"/>
<path d="M125.498 130L114.059 141.561" stroke="#038910" stroke-width="3"/>
<path d="M114.059 172L125.498 183.561" stroke="#038910" stroke-width="3"/>
<path d="M125.498 172L114.059 183.561" stroke="#038910" stroke-width="3"/>
<path d="M126.059 76L137.498 87.5605" stroke="#038910" stroke-width="3"/>
<path d="M137.498 76L126.059 87.5605" stroke="#038910" stroke-width="3"/>
<path d="M126.059 118L137.498 129.561" stroke="#038910" stroke-width="3"/>
<path d="M137.498 118L126.059 129.561" stroke="#038910" stroke-width="3"/>
<path d="M126.059 160L137.498 171.561" stroke="#038910" stroke-width="3"/>
<path d="M137.498 160L126.059 171.561" stroke="#038910" stroke-width="3"/>
<path d="M138.059 106L149.498 117.561" stroke="#038910" stroke-width="3"/>
<path d="M149.498 106L138.059 117.561" stroke="#038910" stroke-width="3"/>
<path d="M138.059 148L149.498 159.561" stroke="#038910" stroke-width="3"/>
<path d="M149.498 148L138.059 159.561" stroke="#038910" stroke-width="3"/>
<path d="M150.059 136L161.498 147.561" stroke="#038910" stroke-width="3"/>
<path d="M161.498 136L150.059 147.561" stroke="#038910" stroke-width="3"/>
<path d="M162.059 124L173.498 135.561" stroke="#038910" stroke-width="3"/>
<path d="M173.498 124L162.059 135.561" stroke="#038910" stroke-width="3"/>
<path d="M174.059 112L185.498 123.561" stroke="#038910" stroke-width="3"/>
<path d="M185.498 112L174.059 123.561" stroke="#038910" stroke-width="3"/>
<path d="M50.0586 76L61.498 87.5605" stroke="#038910" stroke-width="3"/>
<path d="M61.498 76L50.0586 87.5605" stroke="#038910" stroke-width="3"/>
<path d="M50.0586 118L61.498 129.561" stroke="#038910" stroke-width="3"/>
<path d="M61.498 118L50.0586 129.561" stroke="#038910" stroke-width="3"/>
<path d="M50.0586 160L61.498 171.561" stroke="#038910" stroke-width="3"/>
<path d="M61.498 160L50.0586 171.561" stroke="#038910" stroke-width="3"/>
<path d="M38.0586 106L49.498 117.561" stroke="#038910" stroke-width="3"/>
<path d="M49.498 106L38.0586 117.561" stroke="#038910" stroke-width="3"/>
<path d="M38.0586 148L49.498 159.561" stroke="#038910" stroke-width="3"/>
<path d="M49.498 148L38.0586 159.561" stroke="#038910" stroke-width="3"/>
<path d="M26.0586 136L37.498 147.561" stroke="#038910" stroke-width="3"/>
<path d="M37.498 136L26.0586 147.561" stroke="#038910" stroke-width="3"/>
<path d="M14.0586 124L25.498 135.561" stroke="#038910" stroke-width="3"/>
<path d="M25.498 124L14.0586 135.561" stroke="#038910" stroke-width="3"/>
<path d="M2.05859 112L13.498 123.561" stroke="#038910" stroke-width="3"/>
<path d="M13.498 112L2.05859 123.561" stroke="#038910" stroke-width="3"/>
<path d="M62.0586 46L73.498 57.5605" stroke="#038910" stroke-width="3"/>
<path d="M73.498 46L62.0586 57.5605" stroke="#038910" stroke-width="3"/>
<path d="M62.0586 88L73.498 99.5605" stroke="#038910" stroke-width="3"/>
<path d="M73.498 88L62.0586 99.5605" stroke="#038910" stroke-width="3"/>
<path d="M62.0586 130L73.498 141.561" stroke="#038910" stroke-width="3"/>
<path d="M73.498 130L62.0586 141.561" stroke="#038910" stroke-width="3"/>
<path d="M62.0586 172L73.498 183.561" stroke="#038910" stroke-width="3"/>
<path d="M73.498 172L62.0586 183.561" stroke="#038910" stroke-width="3"/>
<path d="M74.0586 16L85.498 27.5605" stroke="#038910" stroke-width="3"/>
<path d="M85.498 16L74.0586 27.5605" stroke="#038910" stroke-width="3"/>
<path d="M74.0586 58L85.498 69.5605" stroke="#038910" stroke-width="3"/>
<path d="M85.498 58L74.0586 69.5605" stroke="#038910" stroke-width="3"/>
<path d="M74.0586 100L85.498 111.561" stroke="#038910" stroke-width="3"/>
<path d="M85.498 100L74.0586 111.561" stroke="#038910" stroke-width="3"/>
<path d="M74.0586 142L85.498 153.561" stroke="#038910" stroke-width="3"/>
<path d="M85.498 142L74.0586 153.561" stroke="#038910" stroke-width="3"/>
<path d="M74.0586 184L85.498 195.561" stroke="#038910" stroke-width="3"/>
<path d="M85.498 184L74.0586 195.561" stroke="#038910" stroke-width="3"/>
<path d="M88.0586 212L99.498 223.561" stroke="#BF7E4F" stroke-width="3"/>
<path d="M99.498 212L88.0586 223.561" stroke="#BF7E4F" stroke-width="3"/>
<path d="M88.0586 128L99.498 139.561" stroke="#BF7E4F" stroke-width="3"/>
<path d="M99.498 128L88.0586 139.561" stroke="#BF7E4F" stroke-width="3"/>
<path d="M88.0586 44L99.498 55.5605" stroke="#BF7E4F" stroke-width="3"/>
<path d="M99.498 44L88.0586 55.5605" stroke="#BF7E4F" stroke-width="3"/>
<path d="M88.0586 170L99.498 181.561" stroke="#BF7E4F" stroke-width="3"/>
<path d="M99.498 170L88.0586 181.561" stroke="#BF7E4F" stroke-width="3"/>
<path d="M88.0586 86L99.498 97.5605" stroke="#BF7E4F" stroke-width="3"/>
<path d="M99.498 86L88.0586 97.5605" stroke="#BF7E4F" stroke-width="3"/>
<path d="M88.0586 2L99.498 13.5605" stroke="#BF7E4F" stroke-width="3"/>
<path d="M99.498 2L88.0586 13.5605" stroke="#BF7E4F" stroke-width="3"/>
</svg>
