<svg width="371" height="253" viewBox="0 0 371 253" fill="none" xmlns="http://www.w3.org/2000/svg">
<path d="M88.0605 240L99.5 251.561" stroke="#BF7E4F" stroke-width="3"/>
<path d="M99.5 240L88.0605 251.561" stroke="#BF7E4F" stroke-width="3"/>
<path d="M88.0605 156L99.5 167.561" stroke="#BF7E4F" stroke-width="3"/>
<path d="M99.5 156L88.0605 167.561" stroke="#BF7E4F" stroke-width="3"/>
<path d="M88.0605 72L99.5 83.5605" stroke="#BF7E4F" stroke-width="3"/>
<path d="M99.5 72L88.0605 83.5605" stroke="#BF7E4F" stroke-width="3"/>
<path d="M88.0605 198L99.5 209.561" stroke="#BF7E4F" stroke-width="3"/>
<path d="M99.5 198L88.0605 209.561" stroke="#BF7E4F" stroke-width="3"/>
<path d="M88.0605 114L99.5 125.561" stroke="#BF7E4F" stroke-width="3"/>
<path d="M99.5 114L88.0605 125.561" stroke="#BF7E4F" stroke-width="3"/>
<path d="M88.0605 30L99.5 41.5605" stroke="#BF7E4F" stroke-width="3"/>
<path d="M99.5 30L88.0605 41.5605" stroke="#BF7E4F" stroke-width="3"/>
<path d="M88.0605 226L99.5 237.561" stroke="#BF7E4F" stroke-width="3"/>
<path d="M99.5 226L88.0605 237.561" stroke="#BF7E4F" stroke-width="3"/>
<path d="M88.0605 142L99.5 153.561" stroke="#BF7E4F" stroke-width="3"/>
<path d="M99.5 142L88.0605 153.561" stroke="#BF7E4F" stroke-width="3"/>
<path d="M88.0605 58L99.5 69.5605" stroke="#BF7E4F" stroke-width="3"/>
<path d="M99.5 58L88.0605 69.5605" stroke="#BF7E4F" stroke-width="3"/>
<path d="M88.0605 184L99.5 195.561" stroke="#BF7E4F" stroke-width="3"/>
<path d="M99.5 184L88.0605 195.561" stroke="#BF7E4F" stroke-width="3"/>
<path d="M88.0605 100L99.5 111.561" stroke="#BF7E4F" stroke-width="3"/>
<path d="M99.5 100L88.0605 111.561" stroke="#BF7E4F" stroke-width="3"/>
<path d="M88.0605 16L99.5 27.5605" stroke="#BF7E4F" stroke-width="3"/>
<path d="M99.5 16L88.0605 27.5605" stroke="#BF7E4F" stroke-width="3"/>
<path d="M102.061 16L113.5 27.5605" stroke="#038910" stroke-width="3"/>
<path d="M113.5 16L102.061 27.5605" stroke="#038910" stroke-width="3"/>
<path d="M102.061 58L113.5 69.5605" stroke="#038910" stroke-width="3"/>
<path d="M113.5 58L102.061 69.5605" stroke="#038910" stroke-width="3"/>
<path d="M102.061 100L113.5 111.561" stroke="#038910" stroke-width="3"/>
<path d="M113.5 100L102.061 111.561" stroke="#038910" stroke-width="3"/>
<path d="M102.061 142L113.5 153.561" stroke="#038910" stroke-width="3"/>
<path d="M113.5 142L102.061 153.561" stroke="#038910" stroke-width="3"/>
<path d="M102.061 184L113.5 195.561" stroke="#038910" stroke-width="3"/>
<path d="M113.5 184L102.061 195.561" stroke="#038910" stroke-width="3"/>
<path d="M114.061 46L125.5 57.5605" stroke="#038910" stroke-width="3"/>
<path d="M125.5 46L114.061 57.5605" stroke="#038910" stroke-width="3"/>
<path d="M114.061 88L125.5 99.5605" stroke="#038910" stroke-width="3"/>
<path d="M125.5 88L114.061 99.5605" stroke="#038910" stroke-width="3"/>
<path d="M114.061 130L125.5 141.561" stroke="#038910" stroke-width="3"/>
<path d="M125.5 130L114.061 141.561" stroke="#038910" stroke-width="3"/>
<path d="M114.061 172L125.5 183.561" stroke="#038910" stroke-width="3"/>
<path d="M125.5 172L114.061 183.561" stroke="#038910" stroke-width="3"/>
<path d="M126.061 76L137.5 87.5605" stroke="#038910" stroke-width="3"/>
<path d="M137.5 76L126.061 87.5605" stroke="#038910" stroke-width="3"/>
<path d="M126.061 118L137.5 129.561" stroke="#038910" stroke-width="3"/>
<path d="M137.5 118L126.061 129.561" stroke="#038910" stroke-width="3"/>
<path d="M126.061 160L137.5 171.561" stroke="#038910" stroke-width="3"/>
<path d="M137.5 160L126.061 171.561" stroke="#038910" stroke-width="3"/>
<path d="M138.061 106L149.5 117.561" stroke="#038910" stroke-width="3"/>
<path d="M149.5 106L138.061 117.561" stroke="#038910" stroke-width="3"/>
<path d="M138.061 148L149.5 159.561" stroke="#038910" stroke-width="3"/>
<path d="M149.5 148L138.061 159.561" stroke="#038910" stroke-width="3"/>
<path d="M150.061 136L161.5 147.561" stroke="#038910" stroke-width="3"/>
<path d="M161.5 136L150.061 147.561" stroke="#038910" stroke-width="3"/>
<path d="M162.061 124L173.5 135.561" stroke="#038910" stroke-width="3"/>
<path d="M173.5 124L162.061 135.561" stroke="#038910" stroke-width="3"/>
<path d="M174.061 112L185.5 123.561" stroke="#038910" stroke-width="3"/>
<path d="M185.5 112L174.061 123.561" stroke="#038910" stroke-width="3"/>
<path d="M50.0605 76L61.5 87.5605" stroke="#038910" stroke-width="3"/>
<path d="M61.5 76L50.0605 87.5605" stroke="#038910" stroke-width="3"/>
<path d="M50.0605 118L61.5 129.561" stroke="#038910" stroke-width="3"/>
<path d="M61.5 118L50.0605 129.561" stroke="#038910" stroke-width="3"/>
<path d="M50.0605 160L61.5 171.561" stroke="#038910" stroke-width="3"/>
<path d="M61.5 160L50.0605 171.561" stroke="#038910" stroke-width="3"/>
<path d="M38.0605 106L49.5 117.561" stroke="#038910" stroke-width="3"/>
<path d="M49.5 106L38.0605 117.561" stroke="#038910" stroke-width="3"/>
<path d="M38.0605 148L49.5 159.561" stroke="#038910" stroke-width="3"/>
<path d="M49.5 148L38.0605 159.561" stroke="#038910" stroke-width="3"/>
<path d="M26.0605 136L37.5 147.561" stroke="#038910" stroke-width="3"/>
<path d="M37.5 136L26.0605 147.561" stroke="#038910" stroke-width="3"/>
<path d="M14.0605 124L25.5 135.561" stroke="#038910" stroke-width="3"/>
<path d="M25.5 124L14.0605 135.561" stroke="#038910" stroke-width="3"/>
<path d="M2.06055 112L13.5 123.561" stroke="#038910" stroke-width="3"/>
<path d="M13.5 112L2.06055 123.561" stroke="#038910" stroke-width="3"/>
<path d="M62.0605 46L73.5 57.5605" stroke="#038910" stroke-width="3"/>
<path d="M73.5 46L62.0605 57.5605" stroke="#038910" stroke-width="3"/>
<path d="M62.0605 88L73.5 99.5605" stroke="#038910" stroke-width="3"/>
<path d="M73.5 88L62.0605 99.5605" stroke="#038910" stroke-width="3"/>
<path d="M62.0605 130L73.5 141.561" stroke="#038910" stroke-width="3"/>
<path d="M73.5 130L62.0605 141.561" stroke="#038910" stroke-width="3"/>
<path d="M62.0605 172L73.5 183.561" stroke="#038910" stroke-width="3"/>
<path d="M73.5 172L62.0605 183.561" stroke="#038910" stroke-width="3"/>
<path d="M74.0605 16L85.5 27.5605" stroke="#038910" stroke-width="3"/>
<path d="M85.5 16L74.0605 27.5605" stroke="#038910" stroke-width="3"/>
<path d="M74.0605 58L85.5 69.5605" stroke="#038910" stroke-width="3"/>
<path d="M85.5 58L74.0605 69.5605" stroke="#038910" stroke-width="3"/>
<path d="M74.0605 100L85.5 111.561" stroke="#038910" stroke-width="3"/>
<path d="M85.5 100L74.0605 111.561" stroke="#038910" stroke-width="3"/>
<path d="M74.0605 142L85.5 153.561" stroke="#038910" stroke-width="3"/>
<path d="M85.5 142L74.0605 153.561" stroke="#038910" stroke-width="3"/>
<path d="M74.0605 184L85.5 195.561" stroke="#038910" stroke-width="3"/>
<path d="M85.5 184L74.0605 195.561" stroke="#038910" stroke-width="3"/>
<path d="M88.0605 212L99.5 223.561" stroke="#BF7E4F" stroke-width="3"/>
<path d="M99.5 212L88.0605 223.561" stroke="#BF7E4F" stroke-width="3"/>
<path d="M88.0605 128L99.5 139.561" stroke="#BF7E4F" stroke-width="3"/>
<path d="M99.5 128L88.0605 139.561" stroke="#BF7E4F" stroke-width="3"/>
<path d="M88.0605 44L99.5 55.5605" stroke="#BF7E4F" stroke-width="3"/>
<path d="M99.5 44L88.0605 55.5605" stroke="#BF7E4F" stroke-width="3"/>
<path d="M88.0605 170L99.5 181.561" stroke="#BF7E4F" stroke-width="3"/>
<path d="M99.5 170L88.0605 181.561" stroke="#BF7E4F" stroke-width="3"/>
<path d="M88.0605 86L99.5 97.5605" stroke="#BF7E4F" stroke-width="3"/>
<path d="M99.5 86L88.0605 97.5605" stroke="#BF7E4F" stroke-width="3"/>
<path d="M88.0605 2L99.5 13.5605" stroke="#BF7E4F" stroke-width="3"/>
<path d="M99.5 2L88.0605 13.5605" stroke="#BF7E4F" stroke-width="3"/>
<path d="M260.061 240L271.5 251.561" stroke="#BF7E4F" stroke-width="3"/>
<path d="M271.5 240L260.061 251.561" stroke="#BF7E4F" stroke-width="3"/>
<path d="M260.061 156L271.5 167.561" stroke="#BF7E4F" stroke-width="3"/>
<path d="M271.5 156L260.061 167.561" stroke="#BF7E4F" stroke-width="3"/>
<path d="M260.061 72L271.5 83.5605" stroke="#BF7E4F" stroke-width="3"/>
<path d="M271.5 72L260.061 83.5605" stroke="#BF7E4F" stroke-width="3"/>
<path d="M260.061 198L271.5 209.561" stroke="#BF7E4F" stroke-width="3"/>
<path d="M271.5 198L260.061 209.561" stroke="#BF7E4F" stroke-width="3"/>
<path d="M260.061 114L271.5 125.561" stroke="#BF7E4F" stroke-width="3"/>
<path d="M271.5 114L260.061 125.561" stroke="#BF7E4F" stroke-width="3"/>
<path d="M260.061 30L271.5 41.5605" stroke="#BF7E4F" stroke-width="3"/>
<path d="M271.5 30L260.061 41.5605" stroke="#BF7E4F" stroke-width="3"/>
<path d="M260.061 226L271.5 237.561" stroke="#BF7E4F" stroke-width="3"/>
<path d="M271.5 226L260.061 237.561" stroke="#BF7E4F" stroke-width="3"/>
<path d="M260.061 142L271.5 153.561" stroke="#BF7E4F" stroke-width="3"/>
<path d="M271.5 142L260.061 153.561" stroke="#BF7E4F" stroke-width="3"/>
<path d="M260.061 58L271.5 69.5605" stroke="#BF7E4F" stroke-width="3"/>
<path d="M271.5 58L260.061 69.5605" stroke="#BF7E4F" stroke-width="3"/>
<path d="M260.061 184L271.5 195.561" stroke="#BF7E4F" stroke-width="3"/>
<path d="M271.5 184L260.061 195.561" stroke="#BF7E4F" stroke-width="3"/>
<path d="M260.061 100L271.5 111.561" stroke="#BF7E4F" stroke-width="3"/>
<path d="M271.5 100L260.061 111.561" stroke="#BF7E4F" stroke-width="3"/>
<path d="M260.061 16L271.5 27.5605" stroke="#BF7E4F" stroke-width="3"/>
<path d="M271.5 16L260.061 27.5605" stroke="#BF7E4F" stroke-width="3"/>
<path d="M274.061 16L285.5 27.5605" stroke="#038910" stroke-width="3"/>
<path d="M285.5 16L274.061 27.5605" stroke="#038910" stroke-width="3"/>
<path d="M274.061 58L285.5 69.5605" stroke="#038910" stroke-width="3"/>
<path d="M285.5 58L274.061 69.5605" stroke="#038910" stroke-width="3"/>
<path d="M274.061 100L285.5 111.561" stroke="#038910" stroke-width="3"/>
<path d="M285.5 100L274.061 111.561" stroke="#038910" stroke-width="3"/>
<path d="M274.061 142L285.5 153.561" stroke="#038910" stroke-width="3"/>
<path d="M285.5 142L274.061 153.561" stroke="#038910" stroke-width="3"/>
<path d="M274.061 184L285.5 195.561" stroke="#038910" stroke-width="3"/>
<path d="M285.5 184L274.061 195.561" stroke="#038910" stroke-width="3"/>
<path d="M286.061 46L297.5 57.5605" stroke="#038910" stroke-width="3"/>
<path d="M297.5 46L286.061 57.5605" stroke="#038910" stroke-width="3"/>
<path d="M286.061 88L297.5 99.5605" stroke="#038910" stroke-width="3"/>
<path d="M297.5 88L286.061 99.5605" stroke="#038910" stroke-width="3"/>
<path d="M286.061 130L297.5 141.561" stroke="#038910" stroke-width="3"/>
<path d="M297.5 130L286.061 141.561" stroke="#038910" stroke-width="3"/>
<path d="M286.061 172L297.5 183.561" stroke="#038910" stroke-width="3"/>
<path d="M297.5 172L286.061 183.561" stroke="#038910" stroke-width="3"/>
<path d="M298.061 76L309.5 87.5605" stroke="#038910" stroke-width="3"/>
<path d="M309.5 76L298.061 87.5605" stroke="#038910" stroke-width="3"/>
<path d="M298.061 118L309.5 129.561" stroke="#038910" stroke-width="3"/>
<path d="M309.5 118L298.061 129.561" stroke="#038910" stroke-width="3"/>
<path d="M298.061 160L309.5 171.561" stroke="#038910" stroke-width="3"/>
<path d="M309.5 160L298.061 171.561" stroke="#038910" stroke-width="3"/>
<path d="M310.061 106L321.5 117.561" stroke="#038910" stroke-width="3"/>
<path d="M321.5 106L310.061 117.561" stroke="#038910" stroke-width="3"/>
<path d="M310.061 148L321.5 159.561" stroke="#038910" stroke-width="3"/>
<path d="M321.5 148L310.061 159.561" stroke="#038910" stroke-width="3"/>
<path d="M322.061 136L333.5 147.561" stroke="#038910" stroke-width="3"/>
<path d="M333.5 136L322.061 147.561" stroke="#038910" stroke-width="3"/>
<path d="M334.061 124L345.5 135.561" stroke="#038910" stroke-width="3"/>
<path d="M345.5 124L334.061 135.561" stroke="#038910" stroke-width="3"/>
<path d="M346.061 112L357.5 123.561" stroke="#038910" stroke-width="3"/>
<path d="M357.5 112L346.061 123.561" stroke="#038910" stroke-width="3"/>
<path d="M358.061 124L369.5 135.561" stroke="#038910" stroke-width="3"/>
<path d="M369.5 124L358.061 135.561" stroke="#038910" stroke-width="3"/>
<path d="M222.061 76L233.5 87.5605" stroke="#038910" stroke-width="3"/>
<path d="M233.5 76L222.061 87.5605" stroke="#038910" stroke-width="3"/>
<path d="M222.061 118L233.5 129.561" stroke="#038910" stroke-width="3"/>
<path d="M233.5 118L222.061 129.561" stroke="#038910" stroke-width="3"/>
<path d="M222.061 160L233.5 171.561" stroke="#038910" stroke-width="3"/>
<path d="M233.5 160L222.061 171.561" stroke="#038910" stroke-width="3"/>
<path d="M210.061 106L221.5 117.561" stroke="#038910" stroke-width="3"/>
<path d="M221.5 106L210.061 117.561" stroke="#038910" stroke-width="3"/>
<path d="M210.061 148L221.5 159.561" stroke="#038910" stroke-width="3"/>
<path d="M221.5 148L210.061 159.561" stroke="#038910" stroke-width="3"/>
<path d="M198.061 136L209.5 147.561" stroke="#038910" stroke-width="3"/>
<path d="M209.5 136L198.061 147.561" stroke="#038910" stroke-width="3"/>
<path d="M186.061 124L197.5 135.561" stroke="#038910" stroke-width="3"/>
<path d="M197.5 124L186.061 135.561" stroke="#038910" stroke-width="3"/>
<path d="M174.061 112L185.5 123.561" stroke="#038910" stroke-width="3"/>
<path d="M185.5 112L174.061 123.561" stroke="#038910" stroke-width="3"/>
<path d="M234.061 46L245.5 57.5605" stroke="#038910" stroke-width="3"/>
<path d="M245.5 46L234.061 57.5605" stroke="#038910" stroke-width="3"/>
<path d="M234.061 88L245.5 99.5605" stroke="#038910" stroke-width="3"/>
<path d="M245.5 88L234.061 99.5605" stroke="#038910" stroke-width="3"/>
<path d="M234.061 130L245.5 141.561" stroke="#038910" stroke-width="3"/>
<path d="M245.5 130L234.061 141.561" stroke="#038910" stroke-width="3"/>
<path d="M234.061 172L245.5 183.561" stroke="#038910" stroke-width="3"/>
<path d="M245.5 172L234.061 183.561" stroke="#038910" stroke-width="3"/>
<path d="M246.061 16L257.5 27.5605" stroke="#038910" stroke-width="3"/>
<path d="M257.5 16L246.061 27.5605" stroke="#038910" stroke-width="3"/>
<path d="M246.061 58L257.5 69.5605" stroke="#038910" stroke-width="3"/>
<path d="M257.5 58L246.061 69.5605" stroke="#038910" stroke-width="3"/>
<path d="M246.061 100L257.5 111.561" stroke="#038910" stroke-width="3"/>
<path d="M257.5 100L246.061 111.561" stroke="#038910" stroke-width="3"/>
<path d="M246.061 142L257.5 153.561" stroke="#038910" stroke-width="3"/>
<path d="M257.5 142L246.061 153.561" stroke="#038910" stroke-width="3"/>
<path d="M246.061 184L257.5 195.561" stroke="#038910" stroke-width="3"/>
<path d="M257.5 184L246.061 195.561" stroke="#038910" stroke-width="3"/>
<path d="M260.061 212L271.5 223.561" stroke="#BF7E4F" stroke-width="3"/>
<path d="M271.5 212L260.061 223.561" stroke="#BF7E4F" stroke-width="3"/>
<path d="M260.061 128L271.5 139.561" stroke="#BF7E4F" stroke-width="3"/>
<path d="M271.5 128L260.061 139.561" stroke="#BF7E4F" stroke-width="3"/>
<path d="M260.061 44L271.5 55.5605" stroke="#BF7E4F" stroke-width="3"/>
<path d="M271.5 44L260.061 55.5605" stroke="#BF7E4F" stroke-width="3"/>
<path d="M260.061 170L271.5 181.561" stroke="#BF7E4F" stroke-width="3"/>
<path d="M271.5 170L260.061 181.561" stroke="#BF7E4F" stroke-width="3"/>
<path d="M260.061 86L271.5 97.5605" stroke="#BF7E4F" stroke-width="3"/>
<path d="M271.5 86L260.061 97.5605" stroke="#BF7E4F" stroke-width="3"/>
<path d="M260.061 2L271.5 13.5605" stroke="#BF7E4F" stroke-width="3"/>
<path d="M271.5 2L260.061 13.5605" stroke="#BF7E4F" stroke-width="3"/>
</svg>
