<svg width="139" height="253" viewBox="0 0 139 253" fill="none" xmlns="http://www.w3.org/2000/svg">
<path d="M64.0605 240L75.5 251.561" stroke="#BF7E4F" stroke-width="3"/>
<path d="M75.5 240L64.0605 251.561" stroke="#BF7E4F" stroke-width="3"/>
<path d="M64.0605 156L75.5 167.561" stroke="#BF7E4F" stroke-width="3"/>
<path d="M75.5 156L64.0605 167.561" stroke="#BF7E4F" stroke-width="3"/>
<path d="M64.0605 72L75.5 83.5605" stroke="#BF7E4F" stroke-width="3"/>
<path d="M75.5 72L64.0605 83.5605" stroke="#BF7E4F" stroke-width="3"/>
<path d="M64.0605 198L75.5 209.561" stroke="#BF7E4F" stroke-width="3"/>
<path d="M75.5 198L64.0605 209.561" stroke="#BF7E4F" stroke-width="3"/>
<path d="M64.0605 114L75.5 125.561" stroke="#BF7E4F" stroke-width="3"/>
<path d="M75.5 114L64.0605 125.561" stroke="#BF7E4F" stroke-width="3"/>
<path d="M64.0605 30L75.5 41.5605" stroke="#BF7E4F" stroke-width="3"/>
<path d="M75.5 30L64.0605 41.5605" stroke="#BF7E4F" stroke-width="3"/>
<path d="M64.0605 226L75.5 237.561" stroke="#BF7E4F" stroke-width="3"/>
<path d="M75.5 226L64.0605 237.561" stroke="#BF7E4F" stroke-width="3"/>
<path d="M64.0605 142L75.5 153.561" stroke="#BF7E4F" stroke-width="3"/>
<path d="M75.5 142L64.0605 153.561" stroke="#BF7E4F" stroke-width="3"/>
<path d="M64.0605 58L75.5 69.5605" stroke="#BF7E4F" stroke-width="3"/>
<path d="M75.5 58L64.0605 69.5605" stroke="#BF7E4F" stroke-width="3"/>
<path d="M64.0605 184L75.5 195.561" stroke="#BF7E4F" stroke-width="3"/>
<path d="M75.5 184L64.0605 195.561" stroke="#BF7E4F" stroke-width="3"/>
<path d="M64.0605 100L75.5 111.561" stroke="#BF7E4F" stroke-width="3"/>
<path d="M75.5 100L64.0605 111.561" stroke="#BF7E4F" stroke-width="3"/>
<path d="M64.0605 16L75.5 27.5605" stroke="#BF7E4F" stroke-width="3"/>
<path d="M75.5 16L64.0605 27.5605" stroke="#BF7E4F" stroke-width="3"/>
<path d="M78.0605 16L89.5 27.5605" stroke="#038910" stroke-width="3"/>
<path d="M89.5 16L78.0605 27.5605" stroke="#038910" stroke-width="3"/>
<path d="M101.5 56L90.0605 67.5605" stroke="#038910" stroke-width="3"/>
<path d="M90.0605 56L101.5 67.5605" stroke="#038910" stroke-width="3"/>
<path d="M113.5 110L102.061 121.561" stroke="#038910" stroke-width="3"/>
<path d="M102.061 110L113.5 121.561" stroke="#038910" stroke-width="3"/>
<path d="M125.5 164L114.061 175.561" stroke="#038910" stroke-width="3"/>
<path d="M114.061 164L125.5 175.561" stroke="#038910" stroke-width="3"/>
<path d="M89.5 44L78.0605 55.5605" stroke="#038910" stroke-width="3"/>
<path d="M78.0605 44L89.5 55.5605" stroke="#038910" stroke-width="3"/>
<path d="M101.5 98L90.0605 109.561" stroke="#038910" stroke-width="3"/>
<path d="M90.0605 98L101.5 109.561" stroke="#038910" stroke-width="3"/>
<path d="M113.5 152L102.061 163.561" stroke="#038910" stroke-width="3"/>
<path d="M102.061 152L113.5 163.561" stroke="#038910" stroke-width="3"/>
<path d="M89.5 86L78.0605 97.5605" stroke="#038910" stroke-width="3"/>
<path d="M78.0605 86L89.5 97.5605" stroke="#038910" stroke-width="3"/>
<path d="M101.5 140L90.0605 151.561" stroke="#038910" stroke-width="3"/>
<path d="M90.0605 140L101.5 151.561" stroke="#038910" stroke-width="3"/>
<path d="M137.5 218L126.061 229.561" stroke="#038910" stroke-width="3"/>
<path d="M126.061 218L137.5 229.561" stroke="#038910" stroke-width="3"/>
<path d="M89.5 128L78.0605 139.561" stroke="#038910" stroke-width="3"/>
<path d="M78.0605 128L89.5 139.561" stroke="#038910" stroke-width="3"/>
<path d="M125.5 206L114.061 217.561" stroke="#038910" stroke-width="3"/>
<path d="M114.061 206L125.5 217.561" stroke="#038910" stroke-width="3"/>
<path d="M113.5 194L102.061 205.561" stroke="#038910" stroke-width="3"/>
<path d="M102.061 194L113.5 205.561" stroke="#038910" stroke-width="3"/>
<path d="M101.5 182L90.0605 193.561" stroke="#038910" stroke-width="3"/>
<path d="M90.0605 182L101.5 193.561" stroke="#038910" stroke-width="3"/>
<path d="M89.5 170L78.0605 181.561" stroke="#038910" stroke-width="3"/>
<path d="M78.0605 170L89.5 181.561" stroke="#038910" stroke-width="3"/>
<path d="M61.5 86L50.0605 97.5605" stroke="#038910" stroke-width="3"/>
<path d="M50.0605 86L61.5 97.5605" stroke="#038910" stroke-width="3"/>
<path d="M49.5 140L38.0605 151.561" stroke="#038910" stroke-width="3"/>
<path d="M38.0605 140L49.5 151.561" stroke="#038910" stroke-width="3"/>
<path d="M13.5 218L2.06055 229.561" stroke="#038910" stroke-width="3"/>
<path d="M2.06055 218L13.5 229.561" stroke="#038910" stroke-width="3"/>
<path d="M61.5 128L50.0605 139.561" stroke="#038910" stroke-width="3"/>
<path d="M50.0605 128L61.5 139.561" stroke="#038910" stroke-width="3"/>
<path d="M25.5 206L14.0605 217.561" stroke="#038910" stroke-width="3"/>
<path d="M14.0605 206L25.5 217.561" stroke="#038910" stroke-width="3"/>
<path d="M37.5 194L26.0605 205.561" stroke="#038910" stroke-width="3"/>
<path d="M26.0605 194L37.5 205.561" stroke="#038910" stroke-width="3"/>
<path d="M49.5 182L38.0605 193.561" stroke="#038910" stroke-width="3"/>
<path d="M38.0605 182L49.5 193.561" stroke="#038910" stroke-width="3"/>
<path d="M61.5 170L50.0605 181.561" stroke="#038910" stroke-width="3"/>
<path d="M50.0605 170L61.5 181.561" stroke="#038910" stroke-width="3"/>
<path d="M61.5 44L50.0605 55.5605" stroke="#038910" stroke-width="3"/>
<path d="M50.0605 44L61.5 55.5605" stroke="#038910" stroke-width="3"/>
<path d="M49.5 98L38.0605 109.561" stroke="#038910" stroke-width="3"/>
<path d="M38.0605 98L49.5 109.561" stroke="#038910" stroke-width="3"/>
<path d="M37.5 152L26.0605 163.561" stroke="#038910" stroke-width="3"/>
<path d="M26.0605 152L37.5 163.561" stroke="#038910" stroke-width="3"/>
<path d="M50.0605 16L61.5 27.5605" stroke="#038910" stroke-width="3"/>
<path d="M61.5 16L50.0605 27.5605" stroke="#038910" stroke-width="3"/>
<path d="M49.5 56L38.0605 67.5605" stroke="#038910" stroke-width="3"/>
<path d="M38.0605 56L49.5 67.5605" stroke="#038910" stroke-width="3"/>
<path d="M37.5 110L26.0605 121.561" stroke="#038910" stroke-width="3"/>
<path d="M26.0605 110L37.5 121.561" stroke="#038910" stroke-width="3"/>
<path d="M25.5 164L14.0605 175.561" stroke="#038910" stroke-width="3"/>
<path d="M14.0605 164L25.5 175.561" stroke="#038910" stroke-width="3"/>
<path d="M64.0605 212L75.5 223.561" stroke="#BF7E4F" stroke-width="3"/>
<path d="M75.5 212L64.0605 223.561" stroke="#BF7E4F" stroke-width="3"/>
<path d="M64.0605 128L75.5 139.561" stroke="#BF7E4F" stroke-width="3"/>
<path d="M75.5 128L64.0605 139.561" stroke="#BF7E4F" stroke-width="3"/>
<path d="M64.0605 44L75.5 55.5605" stroke="#BF7E4F" stroke-width="3"/>
<path d="M75.5 44L64.0605 55.5605" stroke="#BF7E4F" stroke-width="3"/>
<path d="M64.0605 170L75.5 181.561" stroke="#BF7E4F" stroke-width="3"/>
<path d="M75.5 170L64.0605 181.561" stroke="#BF7E4F" stroke-width="3"/>
<path d="M64.0605 86L75.5 97.5605" stroke="#BF7E4F" stroke-width="3"/>
<path d="M75.5 86L64.0605 97.5605" stroke="#BF7E4F" stroke-width="3"/>
<path d="M64.0605 2L75.5 13.5605" stroke="#BF7E4F" stroke-width="3"/>
<path d="M75.5 2L64.0605 13.5605" stroke="#BF7E4F" stroke-width="3"/>
</svg>
