<svg width="169" height="169" viewBox="0 0 169 169" fill="none" xmlns="http://www.w3.org/2000/svg">
<path d="M2.05859 156L13.498 167.561" stroke="#FFC700" stroke-width="3"/>
<path d="M13.498 156L2.05859 167.561" stroke="#FFC700" stroke-width="3"/>
<path d="M58.0586 156L69.498 167.561" stroke="#FFC700" stroke-width="3"/>
<path d="M69.498 156L58.0586 167.561" stroke="#FFC700" stroke-width="3"/>
<path d="M58.0586 142L69.498 153.561" stroke="#FFC700" stroke-width="3"/>
<path d="M69.498 142L58.0586 153.561" stroke="#FFC700" stroke-width="3"/>
<path d="M58.0586 128L69.498 139.561" stroke="#FFC700" stroke-width="3"/>
<path d="M69.498 128L58.0586 139.561" stroke="#FFC700" stroke-width="3"/>
<path d="M2.05859 142L13.498 153.561" stroke="#FFC700" stroke-width="3"/>
<path d="M13.498 142L2.05859 153.561" stroke="#FFC700" stroke-width="3"/>
<path d="M2.05859 128L13.498 139.561" stroke="#FFC700" stroke-width="3"/>
<path d="M13.498 128L2.05859 139.561" stroke="#FFC700" stroke-width="3"/>
<path d="M2.05859 114L13.498 125.561" stroke="#FFC700" stroke-width="3"/>
<path d="M13.498 114L2.05859 125.561" stroke="#FFC700" stroke-width="3"/>
<path d="M2.05859 100L13.498 111.561" stroke="#FFC700" stroke-width="3"/>
<path d="M13.498 100L2.05859 111.561" stroke="#FFC700" stroke-width="3"/>
<path d="M2.05859 86L13.498 97.5605" stroke="#FFC700" stroke-width="3"/>
<path d="M13.498 86L2.05859 97.5605" stroke="#FFC700" stroke-width="3"/>
<path d="M2.05859 72L13.498 83.5605" stroke="#FFC700" stroke-width="3"/>
<path d="M13.498 72L2.05859 83.5605" stroke="#FFC700" stroke-width="3"/>
<path d="M44.0586 156L55.498 167.561" stroke="#FFC700" stroke-width="3"/>
<path d="M55.498 156L44.0586 167.561" stroke="#FFC700" stroke-width="3"/>
<path d="M100.059 156L111.498 167.561" stroke="#FFC700" stroke-width="3"/>
<path d="M111.498 156L100.059 167.561" stroke="#FFC700" stroke-width="3"/>
<path d="M100.059 142L111.498 153.561" stroke="#FFC700" stroke-width="3"/>
<path d="M111.498 142L100.059 153.561" stroke="#FFC700" stroke-width="3"/>
<path d="M100.059 128L111.498 139.561" stroke="#FFC700" stroke-width="3"/>
<path d="M111.498 128L100.059 139.561" stroke="#FFC700" stroke-width="3"/>
<path d="M44.0586 142L55.498 153.561" stroke="#FFC700" stroke-width="3"/>
<path d="M55.498 142L44.0586 153.561" stroke="#FFC700" stroke-width="3"/>
<path d="M44.0586 128L55.498 139.561" stroke="#FFC700" stroke-width="3"/>
<path d="M55.498 128L44.0586 139.561" stroke="#FFC700" stroke-width="3"/>
<path d="M44.0586 114L55.498 125.561" stroke="#FFC700" stroke-width="3"/>
<path d="M55.498 114L44.0586 125.561" stroke="#FFC700" stroke-width="3"/>
<path d="M44.0586 100L55.498 111.561" stroke="#FFC700" stroke-width="3"/>
<path d="M55.498 100L44.0586 111.561" stroke="#FFC700" stroke-width="3"/>
<path d="M44.0586 86L55.498 97.5605" stroke="#FFC700" stroke-width="3"/>
<path d="M55.498 86L44.0586 97.5605" stroke="#FFC700" stroke-width="3"/>
<path d="M44.0586 72L55.498 83.5605" stroke="#FFC700" stroke-width="3"/>
<path d="M55.498 72L44.0586 83.5605" stroke="#FFC700" stroke-width="3"/>
<path d="M44.0586 58L55.498 69.5605" stroke="#FFC700" stroke-width="3"/>
<path d="M55.498 58L44.0586 69.5605" stroke="#FFC700" stroke-width="3"/>
<path d="M44.0586 44L55.498 55.5605" stroke="#FFC700" stroke-width="3"/>
<path d="M55.498 44L44.0586 55.5605" stroke="#FFC700" stroke-width="3"/>
<path d="M44.0586 30L55.498 41.5605" stroke="#FFC700" stroke-width="3"/>
<path d="M55.498 30L44.0586 41.5605" stroke="#FFC700" stroke-width="3"/>
<path d="M86.0586 72L97.498 83.5605" stroke="#FFC700" stroke-width="3"/>
<path d="M97.498 72L86.0586 83.5605" stroke="#FFC700" stroke-width="3"/>
<path d="M86.0586 58L97.498 69.5605" stroke="#FFC700" stroke-width="3"/>
<path d="M97.498 58L86.0586 69.5605" stroke="#FFC700" stroke-width="3"/>
<path d="M86.0586 44L97.498 55.5605" stroke="#FFC700" stroke-width="3"/>
<path d="M97.498 44L86.0586 55.5605" stroke="#FFC700" stroke-width="3"/>
<path d="M86.0586 30L97.498 41.5605" stroke="#FFC700" stroke-width="3"/>
<path d="M97.498 30L86.0586 41.5605" stroke="#FFC700" stroke-width="3"/>
<path d="M86.0586 16L97.498 27.5605" stroke="#FFC700" stroke-width="3"/>
<path d="M97.498 16L86.0586 27.5605" stroke="#FFC700" stroke-width="3"/>
<path d="M86.0586 2L97.498 13.5605" stroke="#FFC700" stroke-width="3"/>
<path d="M97.498 2L86.0586 13.5605" stroke="#FFC700" stroke-width="3"/>
<path d="M128.059 156L139.498 167.561" stroke="#FFC700" stroke-width="3"/>
<path d="M139.498 156L128.059 167.561" stroke="#FFC700" stroke-width="3"/>
<path d="M128.059 142L139.498 153.561" stroke="#FFC700" stroke-width="3"/>
<path d="M139.498 142L128.059 153.561" stroke="#FFC700" stroke-width="3"/>
<path d="M128.059 128L139.498 139.561" stroke="#FFC700" stroke-width="3"/>
<path d="M139.498 128L128.059 139.561" stroke="#FFC700" stroke-width="3"/>
<path d="M128.059 114L139.498 125.561" stroke="#FFC700" stroke-width="3"/>
<path d="M139.498 114L128.059 125.561" stroke="#FFC700" stroke-width="3"/>
<path d="M128.059 100L139.498 111.561" stroke="#FFC700" stroke-width="3"/>
<path d="M139.498 100L128.059 111.561" stroke="#FFC700" stroke-width="3"/>
<path d="M128.059 86L139.498 97.5605" stroke="#FFC700" stroke-width="3"/>
<path d="M139.498 86L128.059 97.5605" stroke="#FFC700" stroke-width="3"/>
<path d="M128.059 72L139.498 83.5605" stroke="#FFC700" stroke-width="3"/>
<path d="M139.498 72L128.059 83.5605" stroke="#FFC700" stroke-width="3"/>
<path d="M128.059 58L139.498 69.5605" stroke="#FFC700" stroke-width="3"/>
<path d="M139.498 58L128.059 69.5605" stroke="#FFC700" stroke-width="3"/>
<path d="M128.059 44L139.498 55.5605" stroke="#FFC700" stroke-width="3"/>
<path d="M139.498 44L128.059 55.5605" stroke="#FFC700" stroke-width="3"/>
<path d="M16.0586 156L27.498 167.561" stroke="#FFC700" stroke-width="3"/>
<path d="M27.498 156L16.0586 167.561" stroke="#FFC700" stroke-width="3"/>
<path d="M72.0586 156L83.498 167.561" stroke="#FFC700" stroke-width="3"/>
<path d="M83.498 156L72.0586 167.561" stroke="#FFC700" stroke-width="3"/>
<path d="M72.0586 142L83.498 153.561" stroke="#FFC700" stroke-width="3"/>
<path d="M83.498 142L72.0586 153.561" stroke="#FFC700" stroke-width="3"/>
<path d="M72.0586 128L83.498 139.561" stroke="#FFC700" stroke-width="3"/>
<path d="M83.498 128L72.0586 139.561" stroke="#FFC700" stroke-width="3"/>
<path d="M16.0586 142L27.498 153.561" stroke="#FFC700" stroke-width="3"/>
<path d="M27.498 142L16.0586 153.561" stroke="#FFC700" stroke-width="3"/>
<path d="M16.0586 128L27.498 139.561" stroke="#FFC700" stroke-width="3"/>
<path d="M27.498 128L16.0586 139.561" stroke="#FFC700" stroke-width="3"/>
<path d="M16.0586 114L27.498 125.561" stroke="#FFC700" stroke-width="3"/>
<path d="M27.498 114L16.0586 125.561" stroke="#FFC700" stroke-width="3"/>
<path d="M16.0586 100L27.498 111.561" stroke="#FFC700" stroke-width="3"/>
<path d="M27.498 100L16.0586 111.561" stroke="#FFC700" stroke-width="3"/>
<path d="M16.0586 86L27.498 97.5605" stroke="#FFC700" stroke-width="3"/>
<path d="M27.498 86L16.0586 97.5605" stroke="#FFC700" stroke-width="3"/>
<path d="M16.0586 72L27.498 83.5605" stroke="#FFC700" stroke-width="3"/>
<path d="M27.498 72L16.0586 83.5605" stroke="#FFC700" stroke-width="3"/>
<path d="M16.0586 58L27.498 69.5605" stroke="#FFC700" stroke-width="3"/>
<path d="M27.498 58L16.0586 69.5605" stroke="#FFC700" stroke-width="3"/>
<path d="M16.0586 44L27.498 55.5605" stroke="#FFC700" stroke-width="3"/>
<path d="M27.498 44L16.0586 55.5605" stroke="#FFC700" stroke-width="3"/>
<path d="M30.0586 30L41.498 41.5605" stroke="#FFC700" stroke-width="3"/>
<path d="M41.498 30L30.0586 41.5605" stroke="#FFC700" stroke-width="3"/>
<path d="M30.0586 16L41.498 27.5605" stroke="#FFC700" stroke-width="3"/>
<path d="M41.498 16L30.0586 27.5605" stroke="#FFC700" stroke-width="3"/>
<path d="M17.0586 16L28.498 27.5605" stroke="#FFC700" stroke-width="3"/>
<path d="M28.498 16L17.0586 27.5605" stroke="#FFC700" stroke-width="3"/>
<path d="M17.0586 2L28.498 13.5605" stroke="#FFC700" stroke-width="3"/>
<path d="M28.498 2L17.0586 13.5605" stroke="#FFC700" stroke-width="3"/>
<path d="M30.0586 2L41.498 13.5605" stroke="#FFC700" stroke-width="3"/>
<path d="M41.498 2L30.0586 13.5605" stroke="#FFC700" stroke-width="3"/>
<path d="M16.0586 30L27.498 41.5605" stroke="#FFC700" stroke-width="3"/>
<path d="M27.498 30L16.0586 41.5605" stroke="#FFC700" stroke-width="3"/>
<path d="M58.0586 72L69.498 83.5605" stroke="#FFC700" stroke-width="3"/>
<path d="M69.498 72L58.0586 83.5605" stroke="#FFC700" stroke-width="3"/>
<path d="M58.0586 58L69.498 69.5605" stroke="#FFC700" stroke-width="3"/>
<path d="M69.498 58L58.0586 69.5605" stroke="#FFC700" stroke-width="3"/>
<path d="M58.0586 44L69.498 55.5605" stroke="#FFC700" stroke-width="3"/>
<path d="M69.498 44L58.0586 55.5605" stroke="#FFC700" stroke-width="3"/>
<path d="M58.0586 30L69.498 41.5605" stroke="#FFC700" stroke-width="3"/>
<path d="M69.498 30L58.0586 41.5605" stroke="#FFC700" stroke-width="3"/>
<path d="M58.0586 16L69.498 27.5605" stroke="#FFC700" stroke-width="3"/>
<path d="M69.498 16L58.0586 27.5605" stroke="#FFC700" stroke-width="3"/>
<path d="M100.059 72L111.498 83.5605" stroke="#FFC700" stroke-width="3"/>
<path d="M111.498 72L100.059 83.5605" stroke="#FFC700" stroke-width="3"/>
<path d="M100.059 58L111.498 69.5605" stroke="#FFC700" stroke-width="3"/>
<path d="M111.498 58L100.059 69.5605" stroke="#FFC700" stroke-width="3"/>
<path d="M100.059 44L111.498 55.5605" stroke="#FFC700" stroke-width="3"/>
<path d="M111.498 44L100.059 55.5605" stroke="#FFC700" stroke-width="3"/>
<path d="M100.059 30L111.498 41.5605" stroke="#FFC700" stroke-width="3"/>
<path d="M111.498 30L100.059 41.5605" stroke="#FFC700" stroke-width="3"/>
<path d="M100.059 16L111.498 27.5605" stroke="#FFC700" stroke-width="3"/>
<path d="M111.498 16L100.059 27.5605" stroke="#FFC700" stroke-width="3"/>
<path d="M142.059 156L153.498 167.561" stroke="#FFC700" stroke-width="3"/>
<path d="M153.498 156L142.059 167.561" stroke="#FFC700" stroke-width="3"/>
<path d="M142.059 142L153.498 153.561" stroke="#FFC700" stroke-width="3"/>
<path d="M153.498 142L142.059 153.561" stroke="#FFC700" stroke-width="3"/>
<path d="M142.059 128L153.498 139.561" stroke="#FFC700" stroke-width="3"/>
<path d="M153.498 128L142.059 139.561" stroke="#FFC700" stroke-width="3"/>
<path d="M142.059 114L153.498 125.561" stroke="#FFC700" stroke-width="3"/>
<path d="M153.498 114L142.059 125.561" stroke="#FFC700" stroke-width="3"/>
<path d="M142.059 100L153.498 111.561" stroke="#FFC700" stroke-width="3"/>
<path d="M153.498 100L142.059 111.561" stroke="#FFC700" stroke-width="3"/>
<path d="M142.059 86L153.498 97.5605" stroke="#FFC700" stroke-width="3"/>
<path d="M153.498 86L142.059 97.5605" stroke="#FFC700" stroke-width="3"/>
<path d="M142.059 72L153.498 83.5605" stroke="#FFC700" stroke-width="3"/>
<path d="M153.498 72L142.059 83.5605" stroke="#FFC700" stroke-width="3"/>
<path d="M142.059 58L153.498 69.5605" stroke="#FFC700" stroke-width="3"/>
<path d="M153.498 58L142.059 69.5605" stroke="#FFC700" stroke-width="3"/>
<path d="M30.0586 156L41.498 167.561" stroke="#FFC700" stroke-width="3"/>
<path d="M41.498 156L30.0586 167.561" stroke="#FFC700" stroke-width="3"/>
<path d="M86.0586 156L97.498 167.561" stroke="#FFC700" stroke-width="3"/>
<path d="M97.498 156L86.0586 167.561" stroke="#FFC700" stroke-width="3"/>
<path d="M86.0586 142L97.498 153.561" stroke="#FFC700" stroke-width="3"/>
<path d="M97.498 142L86.0586 153.561" stroke="#FFC700" stroke-width="3"/>
<path d="M86.0586 128L97.498 139.561" stroke="#FFC700" stroke-width="3"/>
<path d="M97.498 128L86.0586 139.561" stroke="#FFC700" stroke-width="3"/>
<path d="M30.0586 142L41.498 153.561" stroke="#FFC700" stroke-width="3"/>
<path d="M41.498 142L30.0586 153.561" stroke="#FFC700" stroke-width="3"/>
<path d="M30.0586 128L41.498 139.561" stroke="#FFC700" stroke-width="3"/>
<path d="M41.498 128L30.0586 139.561" stroke="#FFC700" stroke-width="3"/>
<path d="M30.0586 114L41.498 125.561" stroke="#FFC700" stroke-width="3"/>
<path d="M41.498 114L30.0586 125.561" stroke="#FFC700" stroke-width="3"/>
<path d="M30.0586 100L41.498 111.561" stroke="#FFC700" stroke-width="3"/>
<path d="M41.498 100L30.0586 111.561" stroke="#FFC700" stroke-width="3"/>
<path d="M30.0586 86L41.498 97.5605" stroke="#FFC700" stroke-width="3"/>
<path d="M41.498 86L30.0586 97.5605" stroke="#FFC700" stroke-width="3"/>
<path d="M30.0586 72L41.498 83.5605" stroke="#FFC700" stroke-width="3"/>
<path d="M41.498 72L30.0586 83.5605" stroke="#FFC700" stroke-width="3"/>
<path d="M30.0586 58L41.498 69.5605" stroke="#FFC700" stroke-width="3"/>
<path d="M41.498 58L30.0586 69.5605" stroke="#FFC700" stroke-width="3"/>
<path d="M30.0586 44L41.498 55.5605" stroke="#FFC700" stroke-width="3"/>
<path d="M41.498 44L30.0586 55.5605" stroke="#FFC700" stroke-width="3"/>
<path d="M72.0586 72L83.498 83.5605" stroke="#FFC700" stroke-width="3"/>
<path d="M83.498 72L72.0586 83.5605" stroke="#FFC700" stroke-width="3"/>
<path d="M72.0586 58L83.498 69.5605" stroke="#FFC700" stroke-width="3"/>
<path d="M83.498 58L72.0586 69.5605" stroke="#FFC700" stroke-width="3"/>
<path d="M72.0586 44L83.498 55.5605" stroke="#FFC700" stroke-width="3"/>
<path d="M83.498 44L72.0586 55.5605" stroke="#FFC700" stroke-width="3"/>
<path d="M72.0586 30L83.498 41.5605" stroke="#FFC700" stroke-width="3"/>
<path d="M83.498 30L72.0586 41.5605" stroke="#FFC700" stroke-width="3"/>
<path d="M72.0586 16L83.498 27.5605" stroke="#FFC700" stroke-width="3"/>
<path d="M83.498 16L72.0586 27.5605" stroke="#FFC700" stroke-width="3"/>
<path d="M72.0586 2L83.498 13.5605" stroke="#FFC700" stroke-width="3"/>
<path d="M83.498 2L72.0586 13.5605" stroke="#FFC700" stroke-width="3"/>
<path d="M114.059 156L125.498 167.561" stroke="#FFC700" stroke-width="3"/>
<path d="M125.498 156L114.059 167.561" stroke="#FFC700" stroke-width="3"/>
<path d="M114.059 142L125.498 153.561" stroke="#FFC700" stroke-width="3"/>
<path d="M125.498 142L114.059 153.561" stroke="#FFC700" stroke-width="3"/>
<path d="M114.059 128L125.498 139.561" stroke="#FFC700" stroke-width="3"/>
<path d="M125.498 128L114.059 139.561" stroke="#FFC700" stroke-width="3"/>
<path d="M114.059 114L125.498 125.561" stroke="#FFC700" stroke-width="3"/>
<path d="M125.498 114L114.059 125.561" stroke="#FFC700" stroke-width="3"/>
<path d="M114.059 100L125.498 111.561" stroke="#FFC700" stroke-width="3"/>
<path d="M125.498 100L114.059 111.561" stroke="#FFC700" stroke-width="3"/>
<path d="M114.059 86L125.498 97.5605" stroke="#FFC700" stroke-width="3"/>
<path d="M125.498 86L114.059 97.5605" stroke="#FFC700" stroke-width="3"/>
<path d="M114.059 72L125.498 83.5605" stroke="#FFC700" stroke-width="3"/>
<path d="M125.498 72L114.059 83.5605" stroke="#FFC700" stroke-width="3"/>
<path d="M114.059 58L125.498 69.5605" stroke="#FFC700" stroke-width="3"/>
<path d="M125.498 58L114.059 69.5605" stroke="#FFC700" stroke-width="3"/>
<path d="M114.059 44L125.498 55.5605" stroke="#FFC700" stroke-width="3"/>
<path d="M125.498 44L114.059 55.5605" stroke="#FFC700" stroke-width="3"/>
<path d="M114.059 30L125.498 41.5605" stroke="#FFC700" stroke-width="3"/>
<path d="M125.498 30L114.059 41.5605" stroke="#FFC700" stroke-width="3"/>
<path d="M156.059 156L167.498 167.561" stroke="#FFC700" stroke-width="3"/>
<path d="M167.498 156L156.059 167.561" stroke="#FFC700" stroke-width="3"/>
<path d="M156.059 142L167.498 153.561" stroke="#FFC700" stroke-width="3"/>
<path d="M167.498 142L156.059 153.561" stroke="#FFC700" stroke-width="3"/>
<path d="M156.059 128L167.498 139.561" stroke="#FFC700" stroke-width="3"/>
<path d="M167.498 128L156.059 139.561" stroke="#FFC700" stroke-width="3"/>
<path d="M156.059 114L167.498 125.561" stroke="#FFC700" stroke-width="3"/>
<path d="M167.498 114L156.059 125.561" stroke="#FFC700" stroke-width="3"/>
<path d="M156.059 100L167.498 111.561" stroke="#FFC700" stroke-width="3"/>
<path d="M167.498 100L156.059 111.561" stroke="#FFC700" stroke-width="3"/>
<path d="M156.059 86L167.498 97.5605" stroke="#FFC700" stroke-width="3"/>
<path d="M167.498 86L156.059 97.5605" stroke="#FFC700" stroke-width="3"/>
<path d="M156.059 72L167.498 83.5605" stroke="#FFC700" stroke-width="3"/>
<path d="M167.498 72L156.059 83.5605" stroke="#FFC700" stroke-width="3"/>
</svg>
