<svg width="183" height="211" viewBox="0 0 183 211" fill="none" xmlns="http://www.w3.org/2000/svg">
<path d="M72.0605 44L83.5 55.5605" stroke="#FF5C00" stroke-width="3"/>
<path d="M83.5 44L72.0605 55.5605" stroke="#FF5C00" stroke-width="3"/>
<path d="M86.0605 44L97.5 55.5605" stroke="#FF5C00" stroke-width="3"/>
<path d="M97.5 44L86.0605 55.5605" stroke="#FF5C00" stroke-width="3"/>
<path d="M100.061 44L111.5 55.5605" stroke="#FF5C00" stroke-width="3"/>
<path d="M111.5 44L100.061 55.5605" stroke="#FF5C00" stroke-width="3"/>
<path d="M100.061 16L111.5 27.5605" stroke="#653B09" stroke-width="3"/>
<path d="M111.5 16L100.061 27.5605" stroke="#653B09" stroke-width="3"/>
<path d="M100.061 30L111.5 41.5605" stroke="#A05F12" stroke-width="3"/>
<path d="M111.5 30L100.061 41.5605" stroke="#A05F12" stroke-width="3"/>
<path d="M100.061 2L111.5 13.5605" stroke="#653B09" stroke-width="3"/>
<path d="M111.5 2L100.061 13.5605" stroke="#653B09" stroke-width="3"/>
<path d="M58.0605 30L69.5 41.5605" stroke="#A05F12" stroke-width="3"/>
<path d="M69.5 30L58.0605 41.5605" stroke="#A05F12" stroke-width="3"/>
<path d="M58.0605 2L69.5 13.5605" stroke="#653B09" stroke-width="3"/>
<path d="M69.5 2L58.0605 13.5605" stroke="#653B09" stroke-width="3"/>
<path d="M58.0605 44L69.5 55.5605" stroke="#FF5C00" stroke-width="3"/>
<path d="M69.5 44L58.0605 55.5605" stroke="#FF5C00" stroke-width="3"/>
<path d="M58.0605 16L69.5 27.5605" stroke="#653B09" stroke-width="3"/>
<path d="M69.5 16L58.0605 27.5605" stroke="#653B09" stroke-width="3"/>
<path d="M44.0605 44L55.5 55.5605" stroke="#FF5C00" stroke-width="3"/>
<path d="M55.5 44L44.0605 55.5605" stroke="#FF5C00" stroke-width="3"/>
<path d="M30.0605 44L41.5 55.5605" stroke="#FF5C00" stroke-width="3"/>
<path d="M41.5 44L30.0605 55.5605" stroke="#FF5C00" stroke-width="3"/>
<path d="M16.0605 58L27.5 69.5605" stroke="#FF5C00" stroke-width="3"/>
<path d="M27.5 58L16.0605 69.5605" stroke="#FF5C00" stroke-width="3"/>
<path d="M2.06055 72L13.5 83.5605" stroke="#FF5C00" stroke-width="3"/>
<path d="M13.5 72L2.06055 83.5605" stroke="#FF5C00" stroke-width="3"/>
<path d="M44.0605 16L55.5 27.5605" stroke="#653B09" stroke-width="3"/>
<path d="M55.5 16L44.0605 27.5605" stroke="#653B09" stroke-width="3"/>
<path d="M114.061 44L125.5 55.5605" stroke="#FF5C00" stroke-width="3"/>
<path d="M125.5 44L114.061 55.5605" stroke="#FF5C00" stroke-width="3"/>
<path d="M114.061 86L125.5 97.5605" stroke="#FF5C00" stroke-width="3"/>
<path d="M125.5 86L114.061 97.5605" stroke="#FF5C00" stroke-width="3"/>
<path d="M100.061 86L111.5 97.5605" stroke="#FF5C00" stroke-width="3"/>
<path d="M111.5 86L100.061 97.5605" stroke="#FF5C00" stroke-width="3"/>
<path d="M86.0605 86L97.5 97.5605" stroke="#FF5C00" stroke-width="3"/>
<path d="M97.5 86L86.0605 97.5605" stroke="#FF5C00" stroke-width="3"/>
<path d="M72.0605 86L83.5 97.5605" stroke="#FF5C00" stroke-width="3"/>
<path d="M83.5 86L72.0605 97.5605" stroke="#FF5C00" stroke-width="3"/>
<path d="M58.0605 86L69.5 97.5605" stroke="#FF5C00" stroke-width="3"/>
<path d="M69.5 86L58.0605 97.5605" stroke="#FF5C00" stroke-width="3"/>
<path d="M44.0605 86L55.5 97.5605" stroke="#FF5C00" stroke-width="3"/>
<path d="M55.5 86L44.0605 97.5605" stroke="#FF5C00" stroke-width="3"/>
<path d="M30.0605 86L41.5 97.5605" stroke="#FF5C00" stroke-width="3"/>
<path d="M41.5 86L30.0605 97.5605" stroke="#FF5C00" stroke-width="3"/>
<path d="M16.0605 100L27.5 111.561" stroke="#FF5C00" stroke-width="3"/>
<path d="M27.5 100L16.0605 111.561" stroke="#FF5C00" stroke-width="3"/>
<path d="M2.06055 114L13.5 125.561" stroke="#FF5C00" stroke-width="3"/>
<path d="M13.5 114L2.06055 125.561" stroke="#FF5C00" stroke-width="3"/>
<path d="M128.061 86L139.5 97.5605" stroke="#FF5C00" stroke-width="3"/>
<path d="M139.5 86L128.061 97.5605" stroke="#FF5C00" stroke-width="3"/>
<path d="M142.061 100L153.5 111.561" stroke="#FF5C00" stroke-width="3"/>
<path d="M153.5 100L142.061 111.561" stroke="#FF5C00" stroke-width="3"/>
<path d="M156.061 100L167.5 111.561" stroke="#FF5C00" stroke-width="3"/>
<path d="M167.5 100L156.061 111.561" stroke="#FF5C00" stroke-width="3"/>
<path d="M170.061 100L181.5 111.561" stroke="#653B09" stroke-width="3"/>
<path d="M181.5 100L170.061 111.561" stroke="#653B09" stroke-width="3"/>
<path d="M114.061 114L125.5 125.561" stroke="#FF5C00" stroke-width="3"/>
<path d="M125.5 114L114.061 125.561" stroke="#FF5C00" stroke-width="3"/>
<path d="M100.061 114L111.5 125.561" stroke="#FF5C00" stroke-width="3"/>
<path d="M111.5 114L100.061 125.561" stroke="#FF5C00" stroke-width="3"/>
<path d="M86.0605 114L97.5 125.561" stroke="#FF5C00" stroke-width="3"/>
<path d="M97.5 114L86.0605 125.561" stroke="#FF5C00" stroke-width="3"/>
<path d="M72.0605 114L83.5 125.561" stroke="#FF5C00" stroke-width="3"/>
<path d="M83.5 114L72.0605 125.561" stroke="#FF5C00" stroke-width="3"/>
<path d="M58.0605 114L69.5 125.561" stroke="#FF5C00" stroke-width="3"/>
<path d="M69.5 114L58.0605 125.561" stroke="#FF5C00" stroke-width="3"/>
<path d="M44.0605 114L55.5 125.561" stroke="#FF5C00" stroke-width="3"/>
<path d="M55.5 114L44.0605 125.561" stroke="#FF5C00" stroke-width="3"/>
<path d="M30.0605 114L41.5 125.561" stroke="#FF5C00" stroke-width="3"/>
<path d="M41.5 114L30.0605 125.561" stroke="#FF5C00" stroke-width="3"/>
<path d="M16.0605 128L27.5 139.561" stroke="#FF5C00" stroke-width="3"/>
<path d="M27.5 128L16.0605 139.561" stroke="#FF5C00" stroke-width="3"/>
<path d="M2.06055 142L13.5 153.561" stroke="#FF5C00" stroke-width="3"/>
<path d="M13.5 142L2.06055 153.561" stroke="#FF5C00" stroke-width="3"/>
<path d="M72.0605 142L83.5 153.561" stroke="#FF5C00" stroke-width="3"/>
<path d="M83.5 142L72.0605 153.561" stroke="#FF5C00" stroke-width="3"/>
<path d="M58.0605 142L69.5 153.561" stroke="#FF5C00" stroke-width="3"/>
<path d="M69.5 142L58.0605 153.561" stroke="#FF5C00" stroke-width="3"/>
<path d="M44.0605 142L55.5 153.561" stroke="#FF5C00" stroke-width="3"/>
<path d="M55.5 142L44.0605 153.561" stroke="#FF5C00" stroke-width="3"/>
<path d="M30.0605 142L41.5 153.561" stroke="#FF5C00" stroke-width="3"/>
<path d="M41.5 142L30.0605 153.561" stroke="#FF5C00" stroke-width="3"/>
<path d="M16.0605 156L27.5 167.561" stroke="#FF5C00" stroke-width="3"/>
<path d="M27.5 156L16.0605 167.561" stroke="#FF5C00" stroke-width="3"/>
<path d="M2.06055 170L13.5 181.561" stroke="#FF5C00" stroke-width="3"/>
<path d="M13.5 170L2.06055 181.561" stroke="#FF5C00" stroke-width="3"/>
<path d="M58.0605 156L69.5 167.561" stroke="#FF5C00" stroke-width="3"/>
<path d="M69.5 156L58.0605 167.561" stroke="#FF5C00" stroke-width="3"/>
<path d="M44.0605 156L55.5 167.561" stroke="#FF5C00" stroke-width="3"/>
<path d="M55.5 156L44.0605 167.561" stroke="#FF5C00" stroke-width="3"/>
<path d="M30.0605 156L41.5 167.561" stroke="#FF5C00" stroke-width="3"/>
<path d="M41.5 156L30.0605 167.561" stroke="#FF5C00" stroke-width="3"/>
<path d="M16.0605 170L27.5 181.561" stroke="#FF5C00" stroke-width="3"/>
<path d="M27.5 170L16.0605 181.561" stroke="#FF5C00" stroke-width="3"/>
<path d="M2.06055 184L13.5 195.561" stroke="#FF5C00" stroke-width="3"/>
<path d="M13.5 184L2.06055 195.561" stroke="#FF5C00" stroke-width="3"/>
<path d="M44.0605 170L55.5 181.561" stroke="#FF5C00" stroke-width="3"/>
<path d="M55.5 170L44.0605 181.561" stroke="#FF5C00" stroke-width="3"/>
<path d="M30.0605 170L41.5 181.561" stroke="#FF5C00" stroke-width="3"/>
<path d="M41.5 170L30.0605 181.561" stroke="#FF5C00" stroke-width="3"/>
<path d="M16.0605 184L27.5 195.561" stroke="#FF5C00" stroke-width="3"/>
<path d="M27.5 184L16.0605 195.561" stroke="#FF5C00" stroke-width="3"/>
<path d="M2.06055 198L13.5 209.561" stroke="#FF5C00" stroke-width="3"/>
<path d="M13.5 198L2.06055 209.561" stroke="#FF5C00" stroke-width="3"/>
<path d="M30.0605 184L41.5 195.561" stroke="#FF5C00" stroke-width="3"/>
<path d="M41.5 184L30.0605 195.561" stroke="#FF5C00" stroke-width="3"/>
<path d="M16.0605 198L27.5 209.561" stroke="#FF5C00" stroke-width="3"/>
<path d="M27.5 198L16.0605 209.561" stroke="#FF5C00" stroke-width="3"/>
<path d="M128.061 114L139.5 125.561" stroke="#FF5C00" stroke-width="3"/>
<path d="M139.5 114L128.061 125.561" stroke="#FF5C00" stroke-width="3"/>
<path d="M114.061 30L125.5 41.5605" stroke="#A05F12" stroke-width="3"/>
<path d="M125.5 30L114.061 41.5605" stroke="#A05F12" stroke-width="3"/>
<path d="M114.061 72L125.5 83.5605" stroke="#FF5C00" stroke-width="3"/>
<path d="M125.5 72L114.061 83.5605" stroke="#FF5C00" stroke-width="3"/>
<path d="M100.061 72L111.5 83.5605" stroke="#FF5C00" stroke-width="3"/>
<path d="M111.5 72L100.061 83.5605" stroke="#FF5C00" stroke-width="3"/>
<path d="M86.0605 72L97.5 83.5605" stroke="#FF5C00" stroke-width="3"/>
<path d="M97.5 72L86.0605 83.5605" stroke="#FF5C00" stroke-width="3"/>
<path d="M72.0605 72L83.5 83.5605" stroke="#FF5C00" stroke-width="3"/>
<path d="M83.5 72L72.0605 83.5605" stroke="#FF5C00" stroke-width="3"/>
<path d="M58.0605 72L69.5 83.5605" stroke="#FF5C00" stroke-width="3"/>
<path d="M69.5 72L58.0605 83.5605" stroke="#FF5C00" stroke-width="3"/>
<path d="M44.0605 72L55.5 83.5605" stroke="#FF5C00" stroke-width="3"/>
<path d="M55.5 72L44.0605 83.5605" stroke="#FF5C00" stroke-width="3"/>
<path d="M30.0605 72L41.5 83.5605" stroke="#FF5C00" stroke-width="3"/>
<path d="M41.5 72L30.0605 83.5605" stroke="#FF5C00" stroke-width="3"/>
<path d="M16.0605 86L27.5 97.5605" stroke="#FF5C00" stroke-width="3"/>
<path d="M27.5 86L16.0605 97.5605" stroke="#FF5C00" stroke-width="3"/>
<path d="M2.06055 100L13.5 111.561" stroke="#FF5C00" stroke-width="3"/>
<path d="M13.5 100L2.06055 111.561" stroke="#FF5C00" stroke-width="3"/>
<path d="M114.061 100L125.5 111.561" stroke="#FF5C00" stroke-width="3"/>
<path d="M125.5 100L114.061 111.561" stroke="#FF5C00" stroke-width="3"/>
<path d="M100.061 100L111.5 111.561" stroke="#FF5C00" stroke-width="3"/>
<path d="M111.5 100L100.061 111.561" stroke="#FF5C00" stroke-width="3"/>
<path d="M86.0605 100L97.5 111.561" stroke="#FF5C00" stroke-width="3"/>
<path d="M97.5 100L86.0605 111.561" stroke="#FF5C00" stroke-width="3"/>
<path d="M72.0605 100L83.5 111.561" stroke="#FF5C00" stroke-width="3"/>
<path d="M83.5 100L72.0605 111.561" stroke="#FF5C00" stroke-width="3"/>
<path d="M58.0605 100L69.5 111.561" stroke="#FF5C00" stroke-width="3"/>
<path d="M69.5 100L58.0605 111.561" stroke="#FF5C00" stroke-width="3"/>
<path d="M44.0605 100L55.5 111.561" stroke="#FF5C00" stroke-width="3"/>
<path d="M55.5 100L44.0605 111.561" stroke="#FF5C00" stroke-width="3"/>
<path d="M30.0605 100L41.5 111.561" stroke="#FF5C00" stroke-width="3"/>
<path d="M41.5 100L30.0605 111.561" stroke="#FF5C00" stroke-width="3"/>
<path d="M16.0605 114L27.5 125.561" stroke="#FF5C00" stroke-width="3"/>
<path d="M27.5 114L16.0605 125.561" stroke="#FF5C00" stroke-width="3"/>
<path d="M2.06055 128L13.5 139.561" stroke="#FF5C00" stroke-width="3"/>
<path d="M13.5 128L2.06055 139.561" stroke="#FF5C00" stroke-width="3"/>
<path d="M86.0605 128L97.5 139.561" stroke="#FF5C00" stroke-width="3"/>
<path d="M97.5 128L86.0605 139.561" stroke="#FF5C00" stroke-width="3"/>
<path d="M72.0605 128L83.5 139.561" stroke="#FF5C00" stroke-width="3"/>
<path d="M83.5 128L72.0605 139.561" stroke="#FF5C00" stroke-width="3"/>
<path d="M58.0605 128L69.5 139.561" stroke="#FF5C00" stroke-width="3"/>
<path d="M69.5 128L58.0605 139.561" stroke="#FF5C00" stroke-width="3"/>
<path d="M44.0605 128L55.5 139.561" stroke="#FF5C00" stroke-width="3"/>
<path d="M55.5 128L44.0605 139.561" stroke="#FF5C00" stroke-width="3"/>
<path d="M30.0605 128L41.5 139.561" stroke="#FF5C00" stroke-width="3"/>
<path d="M41.5 128L30.0605 139.561" stroke="#FF5C00" stroke-width="3"/>
<path d="M16.0605 142L27.5 153.561" stroke="#FF5C00" stroke-width="3"/>
<path d="M27.5 142L16.0605 153.561" stroke="#FF5C00" stroke-width="3"/>
<path d="M2.06055 156L13.5 167.561" stroke="#FF5C00" stroke-width="3"/>
<path d="M13.5 156L2.06055 167.561" stroke="#FF5C00" stroke-width="3"/>
<path d="M128.061 100L139.5 111.561" stroke="#FF5C00" stroke-width="3"/>
<path d="M139.5 100L128.061 111.561" stroke="#FF5C00" stroke-width="3"/>
<path d="M142.061 114L153.5 125.561" stroke="#FF5C00" stroke-width="3"/>
<path d="M153.5 114L142.061 125.561" stroke="#FF5C00" stroke-width="3"/>
<path d="M156.061 114L167.5 125.561" stroke="#FF5C00" stroke-width="3"/>
<path d="M167.5 114L156.061 125.561" stroke="#FF5C00" stroke-width="3"/>
<path d="M114.061 16L125.5 27.5605" stroke="#653B09" stroke-width="3"/>
<path d="M125.5 16L114.061 27.5605" stroke="#653B09" stroke-width="3"/>
<path d="M114.061 58L125.5 69.5605" stroke="#FF5C00" stroke-width="3"/>
<path d="M125.5 58L114.061 69.5605" stroke="#FF5C00" stroke-width="3"/>
<path d="M100.061 58L111.5 69.5605" stroke="#FF5C00" stroke-width="3"/>
<path d="M111.5 58L100.061 69.5605" stroke="#FF5C00" stroke-width="3"/>
<path d="M86.0605 58L97.5 69.5605" stroke="#FF5C00" stroke-width="3"/>
<path d="M97.5 58L86.0605 69.5605" stroke="#FF5C00" stroke-width="3"/>
<path d="M72.0605 58L83.5 69.5605" stroke="#FF5C00" stroke-width="3"/>
<path d="M83.5 58L72.0605 69.5605" stroke="#FF5C00" stroke-width="3"/>
<path d="M58.0605 58L69.5 69.5605" stroke="#FF5C00" stroke-width="3"/>
<path d="M69.5 58L58.0605 69.5605" stroke="#FF5C00" stroke-width="3"/>
<path d="M44.0605 58L55.5 69.5605" stroke="#FF5C00" stroke-width="3"/>
<path d="M55.5 58L44.0605 69.5605" stroke="#FF5C00" stroke-width="3"/>
<path d="M30.0605 58L41.5 69.5605" stroke="#FF5C00" stroke-width="3"/>
<path d="M41.5 58L30.0605 69.5605" stroke="#FF5C00" stroke-width="3"/>
<path d="M16.0605 72L27.5 83.5605" stroke="#FF5C00" stroke-width="3"/>
<path d="M27.5 72L16.0605 83.5605" stroke="#FF5C00" stroke-width="3"/>
<path d="M2.06055 86L13.5 97.5605" stroke="#FF5C00" stroke-width="3"/>
<path d="M13.5 86L2.06055 97.5605" stroke="#FF5C00" stroke-width="3"/>
<path d="M44.0605 30L55.5 41.5605" stroke="#A05F12" stroke-width="3"/>
<path d="M55.5 30L44.0605 41.5605" stroke="#A05F12" stroke-width="3"/>
</svg>
