<svg width="1917" height="97" viewBox="0 0 1917 97" fill="none" xmlns="http://www.w3.org/2000/svg">
<path d="M28.0605 2L39.5 13.5605" stroke="#00C2FF" stroke-width="3"/>
<path d="M39.5 2L28.0605 13.5605" stroke="#00C2FF" stroke-width="3"/>
<path d="M2.06055 30L13.5 41.5605" stroke="#00C2FF" stroke-width="3"/>
<path d="M13.5 30L2.06055 41.5605" stroke="#00C2FF" stroke-width="3"/>
<path d="M82.0605 2L93.5 13.5605" stroke="#00C2FF" stroke-width="3"/>
<path d="M93.5 2L82.0605 13.5605" stroke="#00C2FF" stroke-width="3"/>
<path d="M82.0605 58L93.5 69.5605" stroke="#00C2FF" stroke-width="3"/>
<path d="M93.5 58L82.0605 69.5605" stroke="#00C2FF" stroke-width="3"/>
<path d="M112.061 84L123.5 95.5605" stroke="#00C2FF" stroke-width="3"/>
<path d="M123.5 84L112.061 95.5605" stroke="#00C2FF" stroke-width="3"/>
<path d="M112.061 30L123.5 41.5605" stroke="#00C2FF" stroke-width="3"/>
<path d="M123.5 30L112.061 41.5605" stroke="#00C2FF" stroke-width="3"/>
<path d="M140.061 2L151.5 13.5605" stroke="#00C2FF" stroke-width="3"/>
<path d="M151.5 2L140.061 13.5605" stroke="#00C2FF" stroke-width="3"/>
<path d="M166.061 84L177.5 95.5605" stroke="#00C2FF" stroke-width="3"/>
<path d="M177.5 84L166.061 95.5605" stroke="#00C2FF" stroke-width="3"/>
<path d="M166.061 30L177.5 41.5605" stroke="#00C2FF" stroke-width="3"/>
<path d="M177.5 30L166.061 41.5605" stroke="#00C2FF" stroke-width="3"/>
<path d="M194.061 2L205.5 13.5605" stroke="#00C2FF" stroke-width="3"/>
<path d="M205.5 2L194.061 13.5605" stroke="#00C2FF" stroke-width="3"/>
<path d="M224.061 30L235.5 41.5605" stroke="#00C2FF" stroke-width="3"/>
<path d="M235.5 30L224.061 41.5605" stroke="#00C2FF" stroke-width="3"/>
<path d="M194.061 58L205.5 69.5605" stroke="#00C2FF" stroke-width="3"/>
<path d="M205.5 58L194.061 69.5605" stroke="#00C2FF" stroke-width="3"/>
<path d="M224.061 84L235.5 95.5605" stroke="#00C2FF" stroke-width="3"/>
<path d="M235.5 84L224.061 95.5605" stroke="#00C2FF" stroke-width="3"/>
<path d="M252.061 58L263.5 69.5605" stroke="#00C2FF" stroke-width="3"/>
<path d="M263.5 58L252.061 69.5605" stroke="#00C2FF" stroke-width="3"/>
<path d="M279.061 84L290.5 95.5605" stroke="#00C2FF" stroke-width="3"/>
<path d="M290.5 84L279.061 95.5605" stroke="#00C2FF" stroke-width="3"/>
<path d="M252.061 2L263.5 13.5605" stroke="#00C2FF" stroke-width="3"/>
<path d="M263.5 2L252.061 13.5605" stroke="#00C2FF" stroke-width="3"/>
<path d="M308.061 2L319.5 13.5605" stroke="#00C2FF" stroke-width="3"/>
<path d="M319.5 2L308.061 13.5605" stroke="#00C2FF" stroke-width="3"/>
<path d="M336.061 30L347.5 41.5605" stroke="#00C2FF" stroke-width="3"/>
<path d="M347.5 30L336.061 41.5605" stroke="#00C2FF" stroke-width="3"/>
<path d="M336.061 84L347.5 95.5605" stroke="#00C2FF" stroke-width="3"/>
<path d="M347.5 84L336.061 95.5605" stroke="#00C2FF" stroke-width="3"/>
<path d="M364.061 2L375.5 13.5605" stroke="#00C2FF" stroke-width="3"/>
<path d="M375.5 2L364.061 13.5605" stroke="#00C2FF" stroke-width="3"/>
<path d="M364.061 58L375.5 69.5605" stroke="#00C2FF" stroke-width="3"/>
<path d="M375.5 58L364.061 69.5605" stroke="#00C2FF" stroke-width="3"/>
<path d="M392.061 30L403.5 41.5605" stroke="#00C2FF" stroke-width="3"/>
<path d="M403.5 30L392.061 41.5605" stroke="#00C2FF" stroke-width="3"/>
<path d="M420.061 2L431.5 13.5605" stroke="#00C2FF" stroke-width="3"/>
<path d="M431.5 2L420.061 13.5605" stroke="#00C2FF" stroke-width="3"/>
<path d="M420.061 58L431.5 69.5605" stroke="#00C2FF" stroke-width="3"/>
<path d="M431.5 58L420.061 69.5605" stroke="#00C2FF" stroke-width="3"/>
<path d="M392.061 84L403.5 95.5605" stroke="#00C2FF" stroke-width="3"/>
<path d="M403.5 84L392.061 95.5605" stroke="#00C2FF" stroke-width="3"/>
<path d="M448.061 84L459.5 95.5605" stroke="#00C2FF" stroke-width="3"/>
<path d="M459.5 84L448.061 95.5605" stroke="#00C2FF" stroke-width="3"/>
<path d="M448.061 30L459.5 41.5605" stroke="#00C2FF" stroke-width="3"/>
<path d="M459.5 30L448.061 41.5605" stroke="#00C2FF" stroke-width="3"/>
<path d="M476.061 2L487.5 13.5605" stroke="#00C2FF" stroke-width="3"/>
<path d="M487.5 2L476.061 13.5605" stroke="#00C2FF" stroke-width="3"/>
<path d="M504.061 30L515.5 41.5605" stroke="#00C2FF" stroke-width="3"/>
<path d="M515.5 30L504.061 41.5605" stroke="#00C2FF" stroke-width="3"/>
<path d="M504.061 84L515.5 95.5605" stroke="#00C2FF" stroke-width="3"/>
<path d="M515.5 84L504.061 95.5605" stroke="#00C2FF" stroke-width="3"/>
<path d="M532.061 58L543.5 69.5605" stroke="#00C2FF" stroke-width="3"/>
<path d="M543.5 58L532.061 69.5605" stroke="#00C2FF" stroke-width="3"/>
<path d="M532.061 2L543.5 13.5605" stroke="#00C2FF" stroke-width="3"/>
<path d="M543.5 2L532.061 13.5605" stroke="#00C2FF" stroke-width="3"/>
<path d="M588.061 58L599.5 69.5605" stroke="#00C2FF" stroke-width="3"/>
<path d="M599.5 58L588.061 69.5605" stroke="#00C2FF" stroke-width="3"/>
<path d="M588.061 2L599.5 13.5605" stroke="#00C2FF" stroke-width="3"/>
<path d="M599.5 2L588.061 13.5605" stroke="#00C2FF" stroke-width="3"/>
<path d="M616.061 30L627.5 41.5605" stroke="#00C2FF" stroke-width="3"/>
<path d="M627.5 30L616.061 41.5605" stroke="#00C2FF" stroke-width="3"/>
<path d="M616.061 84L627.5 95.5605" stroke="#00C2FF" stroke-width="3"/>
<path d="M627.5 84L616.061 95.5605" stroke="#00C2FF" stroke-width="3"/>
<path d="M644.061 2L655.5 13.5605" stroke="#00C2FF" stroke-width="3"/>
<path d="M655.5 2L644.061 13.5605" stroke="#00C2FF" stroke-width="3"/>
<path d="M672.061 30L683.5 41.5605" stroke="#00C2FF" stroke-width="3"/>
<path d="M683.5 30L672.061 41.5605" stroke="#00C2FF" stroke-width="3"/>
<path d="M728.061 30L739.5 41.5605" stroke="#00C2FF" stroke-width="3"/>
<path d="M739.5 30L728.061 41.5605" stroke="#00C2FF" stroke-width="3"/>
<path d="M728.061 84L739.5 95.5605" stroke="#00C2FF" stroke-width="3"/>
<path d="M739.5 84L728.061 95.5605" stroke="#00C2FF" stroke-width="3"/>
<path d="M756.061 58L767.5 69.5605" stroke="#00C2FF" stroke-width="3"/>
<path d="M767.5 58L756.061 69.5605" stroke="#00C2FF" stroke-width="3"/>
<path d="M784.061 84L795.5 95.5605" stroke="#00C2FF" stroke-width="3"/>
<path d="M795.5 84L784.061 95.5605" stroke="#00C2FF" stroke-width="3"/>
<path d="M756.061 2L767.5 13.5605" stroke="#00C2FF" stroke-width="3"/>
<path d="M767.5 2L756.061 13.5605" stroke="#00C2FF" stroke-width="3"/>
<path d="M812.061 2L823.5 13.5605" stroke="#00C2FF" stroke-width="3"/>
<path d="M823.5 2L812.061 13.5605" stroke="#00C2FF" stroke-width="3"/>
<path d="M812.061 58L823.5 69.5605" stroke="#00C2FF" stroke-width="3"/>
<path d="M823.5 58L812.061 69.5605" stroke="#00C2FF" stroke-width="3"/>
<path d="M840.061 30L851.5 41.5605" stroke="#00C2FF" stroke-width="3"/>
<path d="M851.5 30L840.061 41.5605" stroke="#00C2FF" stroke-width="3"/>
<path d="M868.061 2L879.5 13.5605" stroke="#00C2FF" stroke-width="3"/>
<path d="M879.5 2L868.061 13.5605" stroke="#00C2FF" stroke-width="3"/>
<path d="M868.061 58L879.5 69.5605" stroke="#00C2FF" stroke-width="3"/>
<path d="M879.5 58L868.061 69.5605" stroke="#00C2FF" stroke-width="3"/>
<path d="M896.061 84L907.5 95.5605" stroke="#00C2FF" stroke-width="3"/>
<path d="M907.5 84L896.061 95.5605" stroke="#00C2FF" stroke-width="3"/>
<path d="M868.061 2L879.5 13.5605" stroke="#00C2FF" stroke-width="3"/>
<path d="M879.5 2L868.061 13.5605" stroke="#00C2FF" stroke-width="3"/>
<path d="M924.061 2L935.5 13.5605" stroke="#00C2FF" stroke-width="3"/>
<path d="M935.5 2L924.061 13.5605" stroke="#00C2FF" stroke-width="3"/>
<path d="M952.061 30L963.5 41.5605" stroke="#00C2FF" stroke-width="3"/>
<path d="M963.5 30L952.061 41.5605" stroke="#00C2FF" stroke-width="3"/>
<path d="M952.061 84L963.5 95.5605" stroke="#00C2FF" stroke-width="3"/>
<path d="M963.5 84L952.061 95.5605" stroke="#00C2FF" stroke-width="3"/>
<path d="M980.061 58L991.5 69.5605" stroke="#00C2FF" stroke-width="3"/>
<path d="M991.5 58L980.061 69.5605" stroke="#00C2FF" stroke-width="3"/>
<path d="M980.061 2L991.5 13.5605" stroke="#00C2FF" stroke-width="3"/>
<path d="M991.5 2L980.061 13.5605" stroke="#00C2FF" stroke-width="3"/>
<path d="M1008.06 30L1019.5 41.5605" stroke="#00C2FF" stroke-width="3"/>
<path d="M1019.5 30L1008.06 41.5605" stroke="#00C2FF" stroke-width="3"/>
<path d="M1008.06 84L1019.5 95.5605" stroke="#00C2FF" stroke-width="3"/>
<path d="M1019.5 84L1008.06 95.5605" stroke="#00C2FF" stroke-width="3"/>
<path d="M1036.06 58L1047.5 69.5605" stroke="#00C2FF" stroke-width="3"/>
<path d="M1047.5 58L1036.06 69.5605" stroke="#00C2FF" stroke-width="3"/>
<path d="M1036.06 2L1047.5 13.5605" stroke="#00C2FF" stroke-width="3"/>
<path d="M1047.5 2L1036.06 13.5605" stroke="#00C2FF" stroke-width="3"/>
<path d="M1064.06 84L1075.5 95.5605" stroke="#00C2FF" stroke-width="3"/>
<path d="M1075.5 84L1064.06 95.5605" stroke="#00C2FF" stroke-width="3"/>
<path d="M1092.06 58L1103.5 69.5605" stroke="#00C2FF" stroke-width="3"/>
<path d="M1103.5 58L1092.06 69.5605" stroke="#00C2FF" stroke-width="3"/>
<path d="M1092.06 2L1103.5 13.5605" stroke="#00C2FF" stroke-width="3"/>
<path d="M1103.5 2L1092.06 13.5605" stroke="#00C2FF" stroke-width="3"/>
<path d="M1120.06 30L1131.5 41.5605" stroke="#00C2FF" stroke-width="3"/>
<path d="M1131.5 30L1120.06 41.5605" stroke="#00C2FF" stroke-width="3"/>
<path d="M1120.06 84L1131.5 95.5605" stroke="#00C2FF" stroke-width="3"/>
<path d="M1131.5 84L1120.06 95.5605" stroke="#00C2FF" stroke-width="3"/>
<path d="M1148.06 58L1159.5 69.5605" stroke="#00C2FF" stroke-width="3"/>
<path d="M1159.5 58L1148.06 69.5605" stroke="#00C2FF" stroke-width="3"/>
<path d="M1148.06 2L1159.5 13.5605" stroke="#00C2FF" stroke-width="3"/>
<path d="M1159.5 2L1148.06 13.5605" stroke="#00C2FF" stroke-width="3"/>
<path d="M1176.06 30L1187.5 41.5605" stroke="#00C2FF" stroke-width="3"/>
<path d="M1187.5 30L1176.06 41.5605" stroke="#00C2FF" stroke-width="3"/>
<path d="M1176.06 84L1187.5 95.5605" stroke="#00C2FF" stroke-width="3"/>
<path d="M1187.5 84L1176.06 95.5605" stroke="#00C2FF" stroke-width="3"/>
<path d="M1204.06 2L1215.5 13.5605" stroke="#00C2FF" stroke-width="3"/>
<path d="M1215.5 2L1204.06 13.5605" stroke="#00C2FF" stroke-width="3"/>
<path d="M1232.06 30L1243.5 41.5605" stroke="#00C2FF" stroke-width="3"/>
<path d="M1243.5 30L1232.06 41.5605" stroke="#00C2FF" stroke-width="3"/>
<path d="M1232.06 84L1243.5 95.5605" stroke="#00C2FF" stroke-width="3"/>
<path d="M1243.5 84L1232.06 95.5605" stroke="#00C2FF" stroke-width="3"/>
<path d="M1260.06 58L1271.5 69.5605" stroke="#00C2FF" stroke-width="3"/>
<path d="M1271.5 58L1260.06 69.5605" stroke="#00C2FF" stroke-width="3"/>
<path d="M1260.06 2L1271.5 13.5605" stroke="#00C2FF" stroke-width="3"/>
<path d="M1271.5 2L1260.06 13.5605" stroke="#00C2FF" stroke-width="3"/>
<path d="M1288.06 84L1299.5 95.5605" stroke="#00C2FF" stroke-width="3"/>
<path d="M1299.5 84L1288.06 95.5605" stroke="#00C2FF" stroke-width="3"/>
<path d="M1316.06 58L1327.5 69.5605" stroke="#00C2FF" stroke-width="3"/>
<path d="M1327.5 58L1316.06 69.5605" stroke="#00C2FF" stroke-width="3"/>
<path d="M1344.06 30L1355.5 41.5605" stroke="#00C2FF" stroke-width="3"/>
<path d="M1355.5 30L1344.06 41.5605" stroke="#00C2FF" stroke-width="3"/>
<path d="M1344.06 84L1355.5 95.5605" stroke="#00C2FF" stroke-width="3"/>
<path d="M1355.5 84L1344.06 95.5605" stroke="#00C2FF" stroke-width="3"/>
<path d="M1372.06 2L1383.5 13.5605" stroke="#00C2FF" stroke-width="3"/>
<path d="M1383.5 2L1372.06 13.5605" stroke="#00C2FF" stroke-width="3"/>
<path d="M1400.06 30L1411.5 41.5605" stroke="#00C2FF" stroke-width="3"/>
<path d="M1411.5 30L1400.06 41.5605" stroke="#00C2FF" stroke-width="3"/>
<path d="M1400.06 84L1411.5 95.5605" stroke="#00C2FF" stroke-width="3"/>
<path d="M1411.5 84L1400.06 95.5605" stroke="#00C2FF" stroke-width="3"/>
<path d="M1456.06 84L1467.5 95.5605" stroke="#00C2FF" stroke-width="3"/>
<path d="M1467.5 84L1456.06 95.5605" stroke="#00C2FF" stroke-width="3"/>
<path d="M1456.06 30L1467.5 41.5605" stroke="#00C2FF" stroke-width="3"/>
<path d="M1467.5 30L1456.06 41.5605" stroke="#00C2FF" stroke-width="3"/>
<path d="M1484.06 58L1495.5 69.5605" stroke="#00C2FF" stroke-width="3"/>
<path d="M1495.5 58L1484.06 69.5605" stroke="#00C2FF" stroke-width="3"/>
<path d="M1484.06 2L1495.5 13.5605" stroke="#00C2FF" stroke-width="3"/>
<path d="M1495.5 2L1484.06 13.5605" stroke="#00C2FF" stroke-width="3"/>
<path d="M1512.06 30L1523.5 41.5605" stroke="#00C2FF" stroke-width="3"/>
<path d="M1523.5 30L1512.06 41.5605" stroke="#00C2FF" stroke-width="3"/>
<path d="M1512.06 84L1523.5 95.5605" stroke="#00C2FF" stroke-width="3"/>
<path d="M1523.5 84L1512.06 95.5605" stroke="#00C2FF" stroke-width="3"/>
<path d="M1540.06 58L1551.5 69.5605" stroke="#00C2FF" stroke-width="3"/>
<path d="M1551.5 58L1540.06 69.5605" stroke="#00C2FF" stroke-width="3"/>
<path d="M1540.06 2L1551.5 13.5605" stroke="#00C2FF" stroke-width="3"/>
<path d="M1551.5 2L1540.06 13.5605" stroke="#00C2FF" stroke-width="3"/>
<path d="M1568.06 84L1579.5 95.5605" stroke="#00C2FF" stroke-width="3"/>
<path d="M1579.5 84L1568.06 95.5605" stroke="#00C2FF" stroke-width="3"/>
<path d="M1596.06 58L1607.5 69.5605" stroke="#00C2FF" stroke-width="3"/>
<path d="M1607.5 58L1596.06 69.5605" stroke="#00C2FF" stroke-width="3"/>
<path d="M1596.06 2L1607.5 13.5605" stroke="#00C2FF" stroke-width="3"/>
<path d="M1607.5 2L1596.06 13.5605" stroke="#00C2FF" stroke-width="3"/>
<path d="M1624.06 30L1635.5 41.5605" stroke="#00C2FF" stroke-width="3"/>
<path d="M1635.5 30L1624.06 41.5605" stroke="#00C2FF" stroke-width="3"/>
<path d="M1624.06 84L1635.5 95.5605" stroke="#00C2FF" stroke-width="3"/>
<path d="M1635.5 84L1624.06 95.5605" stroke="#00C2FF" stroke-width="3"/>
<path d="M1680.06 84L1691.5 95.5605" stroke="#00C2FF" stroke-width="3"/>
<path d="M1691.5 84L1680.06 95.5605" stroke="#00C2FF" stroke-width="3"/>
<path d="M1708.06 58L1719.5 69.5605" stroke="#00C2FF" stroke-width="3"/>
<path d="M1719.5 58L1708.06 69.5605" stroke="#00C2FF" stroke-width="3"/>
<path d="M1708.06 2L1719.5 13.5605" stroke="#00C2FF" stroke-width="3"/>
<path d="M1719.5 2L1708.06 13.5605" stroke="#00C2FF" stroke-width="3"/>
<path d="M1736.06 30L1747.5 41.5605" stroke="#00C2FF" stroke-width="3"/>
<path d="M1747.5 30L1736.06 41.5605" stroke="#00C2FF" stroke-width="3"/>
<path d="M1736.06 84L1747.5 95.5605" stroke="#00C2FF" stroke-width="3"/>
<path d="M1747.5 84L1736.06 95.5605" stroke="#00C2FF" stroke-width="3"/>
<path d="M1764.06 58L1775.5 69.5605" stroke="#00C2FF" stroke-width="3"/>
<path d="M1775.5 58L1764.06 69.5605" stroke="#00C2FF" stroke-width="3"/>
<path d="M1764.06 2L1775.5 13.5605" stroke="#00C2FF" stroke-width="3"/>
<path d="M1775.5 2L1764.06 13.5605" stroke="#00C2FF" stroke-width="3"/>
<path d="M1820.06 2L1831.5 13.5605" stroke="#00C2FF" stroke-width="3"/>
<path d="M1831.5 2L1820.06 13.5605" stroke="#00C2FF" stroke-width="3"/>
<path d="M1848.06 84L1859.5 95.5605" stroke="#00C2FF" stroke-width="3"/>
<path d="M1859.5 84L1848.06 95.5605" stroke="#00C2FF" stroke-width="3"/>
<path d="M1876.06 58L1887.5 69.5605" stroke="#00C2FF" stroke-width="3"/>
<path d="M1887.5 58L1876.06 69.5605" stroke="#00C2FF" stroke-width="3"/>
<path d="M1848.06 30L1859.5 41.5605" stroke="#00C2FF" stroke-width="3"/>
<path d="M1859.5 30L1848.06 41.5605" stroke="#00C2FF" stroke-width="3"/>
<path d="M1876.06 2L1887.5 13.5605" stroke="#00C2FF" stroke-width="3"/>
<path d="M1887.5 2L1876.06 13.5605" stroke="#00C2FF" stroke-width="3"/>
<path d="M1904.06 30L1915.5 41.5605" stroke="#00C2FF" stroke-width="3"/>
<path d="M1915.5 30L1904.06 41.5605" stroke="#00C2FF" stroke-width="3"/>
<path d="M1904.06 84L1915.5 95.5605" stroke="#00C2FF" stroke-width="3"/>
<path d="M1915.5 84L1904.06 95.5605" stroke="#00C2FF" stroke-width="3"/>
<path d="M1792.06 84L1803.5 95.5605" stroke="#00C2FF" stroke-width="3"/>
<path d="M1803.5 84L1792.06 95.5605" stroke="#00C2FF" stroke-width="3"/>
<path d="M1652.06 2L1663.5 13.5605" stroke="#00C2FF" stroke-width="3"/>
<path d="M1663.5 2L1652.06 13.5605" stroke="#00C2FF" stroke-width="3"/>
<path d="M1428.06 2L1439.5 13.5605" stroke="#00C2FF" stroke-width="3"/>
<path d="M1439.5 2L1428.06 13.5605" stroke="#00C2FF" stroke-width="3"/>
<path d="M1316.06 2L1327.5 13.5605" stroke="#00C2FF" stroke-width="3"/>
<path d="M1327.5 2L1316.06 13.5605" stroke="#00C2FF" stroke-width="3"/>
<path d="M840.061 84L851.5 95.5605" stroke="#00C2FF" stroke-width="3"/>
<path d="M851.5 84L840.061 95.5605" stroke="#00C2FF" stroke-width="3"/>
<path d="M672.061 84L683.5 95.5605" stroke="#00C2FF" stroke-width="3"/>
<path d="M683.5 84L672.061 95.5605" stroke="#00C2FF" stroke-width="3"/>
<path d="M700.061 2L711.5 13.5605" stroke="#00C2FF" stroke-width="3"/>
<path d="M711.5 2L700.061 13.5605" stroke="#00C2FF" stroke-width="3"/>
<path d="M560.061 84L571.5 95.5605" stroke="#00C2FF" stroke-width="3"/>
<path d="M571.5 84L560.061 95.5605" stroke="#00C2FF" stroke-width="3"/>
<path d="M54.0605 84L65.5 95.5605" stroke="#00C2FF" stroke-width="3"/>
<path d="M65.5 84L54.0605 95.5605" stroke="#00C2FF" stroke-width="3"/>
<path d="M2.06055 84L13.5 95.5605" stroke="#00C2FF" stroke-width="3"/>
<path d="M13.5 84L2.06055 95.5605" stroke="#00C2FF" stroke-width="3"/>
<path d="M28.0605 58L39.5 69.5605" stroke="#00C2FF" stroke-width="3"/>
<path d="M39.5 58L28.0605 69.5605" stroke="#00C2FF" stroke-width="3"/>
</svg>
