<svg width="363" height="139" viewBox="0 0 363 139" fill="none" xmlns="http://www.w3.org/2000/svg">
<path d="M238.061 64L249.5 75.5605" stroke="#038910" stroke-width="3"/>
<path d="M249.5 64L238.061 75.5605" stroke="#038910" stroke-width="3"/>
<path d="M336.061 64L347.5 75.5605" stroke="#038910" stroke-width="3"/>
<path d="M347.5 64L336.061 75.5605" stroke="#038910" stroke-width="3"/>
<path d="M141.061 64L152.5 75.5605" stroke="#038910" stroke-width="3"/>
<path d="M152.5 64L141.061 75.5605" stroke="#038910" stroke-width="3"/>
<path d="M44.0605 64L55.5 75.5605" stroke="#038910" stroke-width="3"/>
<path d="M55.5 64L44.0605 75.5605" stroke="#038910" stroke-width="3"/>
<path d="M252.061 64L263.5 75.5605" stroke="#038910" stroke-width="3"/>
<path d="M263.5 64L252.061 75.5605" stroke="#038910" stroke-width="3"/>
<path d="M350.061 64L361.5 75.5605" stroke="#038910" stroke-width="3"/>
<path d="M361.5 64L350.061 75.5605" stroke="#038910" stroke-width="3"/>
<path d="M155.061 64L166.5 75.5605" stroke="#038910" stroke-width="3"/>
<path d="M166.5 64L155.061 75.5605" stroke="#038910" stroke-width="3"/>
<path d="M58.0605 64L69.5 75.5605" stroke="#038910" stroke-width="3"/>
<path d="M69.5 64L58.0605 75.5605" stroke="#038910" stroke-width="3"/>
<path d="M266.061 64L277.5 75.5605" stroke="#038910" stroke-width="3"/>
<path d="M277.5 64L266.061 75.5605" stroke="#038910" stroke-width="3"/>
<path d="M169.061 64L180.5 75.5605" stroke="#038910" stroke-width="3"/>
<path d="M180.5 64L169.061 75.5605" stroke="#038910" stroke-width="3"/>
<path d="M72.0605 64L83.5 75.5605" stroke="#038910" stroke-width="3"/>
<path d="M83.5 64L72.0605 75.5605" stroke="#038910" stroke-width="3"/>
<path d="M280.061 64L291.5 75.5605" stroke="#038910" stroke-width="3"/>
<path d="M291.5 64L280.061 75.5605" stroke="#038910" stroke-width="3"/>
<path d="M183.061 64L194.5 75.5605" stroke="#038910" stroke-width="3"/>
<path d="M194.5 64L183.061 75.5605" stroke="#038910" stroke-width="3"/>
<path d="M86.0605 64L97.5 75.5605" stroke="#038910" stroke-width="3"/>
<path d="M97.5 64L86.0605 75.5605" stroke="#038910" stroke-width="3"/>
<path d="M294.061 64L305.5 75.5605" stroke="#038910" stroke-width="3"/>
<path d="M305.5 64L294.061 75.5605" stroke="#038910" stroke-width="3"/>
<path d="M2.06055 64L13.5 75.5605" stroke="#038910" stroke-width="3"/>
<path d="M13.5 64L2.06055 75.5605" stroke="#038910" stroke-width="3"/>
<path d="M197.061 64L208.5 75.5605" stroke="#038910" stroke-width="3"/>
<path d="M208.5 64L197.061 75.5605" stroke="#038910" stroke-width="3"/>
<path d="M100.061 64L111.5 75.5605" stroke="#038910" stroke-width="3"/>
<path d="M111.5 64L100.061 75.5605" stroke="#038910" stroke-width="3"/>
<path d="M308.061 64L319.5 75.5605" stroke="#038910" stroke-width="3"/>
<path d="M319.5 64L308.061 75.5605" stroke="#038910" stroke-width="3"/>
<path d="M16.0605 64L27.5 75.5605" stroke="#038910" stroke-width="3"/>
<path d="M27.5 64L16.0605 75.5605" stroke="#038910" stroke-width="3"/>
<path d="M211.061 64L222.5 75.5605" stroke="#038910" stroke-width="3"/>
<path d="M222.5 64L211.061 75.5605" stroke="#038910" stroke-width="3"/>
<path d="M114.061 64L125.5 75.5605" stroke="#038910" stroke-width="3"/>
<path d="M125.5 64L114.061 75.5605" stroke="#038910" stroke-width="3"/>
<path d="M322.061 64L333.5 75.5605" stroke="#038910" stroke-width="3"/>
<path d="M333.5 64L322.061 75.5605" stroke="#038910" stroke-width="3"/>
<path d="M30.0605 64L41.5 75.5605" stroke="#038910" stroke-width="3"/>
<path d="M41.5 64L30.0605 75.5605" stroke="#038910" stroke-width="3"/>
<path d="M224.061 64L235.5 75.5605" stroke="#038910" stroke-width="3"/>
<path d="M235.5 64L224.061 75.5605" stroke="#038910" stroke-width="3"/>
<path d="M127.061 64L138.5 75.5605" stroke="#038910" stroke-width="3"/>
<path d="M138.5 64L127.061 75.5605" stroke="#038910" stroke-width="3"/>
<path d="M197.061 50L208.5 61.5605" stroke="#038910" stroke-width="3"/>
<path d="M208.5 50L197.061 61.5605" stroke="#038910" stroke-width="3"/>
<path d="M185.061 38L196.5 49.5605" stroke="#038910" stroke-width="3"/>
<path d="M196.5 38L185.061 49.5605" stroke="#038910" stroke-width="3"/>
<path d="M173.061 26L184.5 37.5605" stroke="#FFC700" stroke-width="3"/>
<path d="M184.5 26L173.061 37.5605" stroke="#FFC700" stroke-width="3"/>
<path d="M161.061 14L172.5 25.5605" stroke="#FFC700" stroke-width="3"/>
<path d="M172.5 14L161.061 25.5605" stroke="#FFC700" stroke-width="3"/>
<path d="M173.061 2L184.5 13.5605" stroke="#FFC700" stroke-width="3"/>
<path d="M184.5 2L173.061 13.5605" stroke="#FFC700" stroke-width="3"/>
<path d="M149.061 26L160.5 37.5605" stroke="#FFC700" stroke-width="3"/>
<path d="M160.5 26L149.061 37.5605" stroke="#FFC700" stroke-width="3"/>
<path d="M149.061 2L160.5 13.5605" stroke="#FFC700" stroke-width="3"/>
<path d="M160.5 2L149.061 13.5605" stroke="#FFC700" stroke-width="3"/>
<path d="M197.061 78L208.5 89.5605" stroke="#038910" stroke-width="3"/>
<path d="M208.5 78L197.061 89.5605" stroke="#038910" stroke-width="3"/>
<path d="M185.061 90L196.5 101.561" stroke="#038910" stroke-width="3"/>
<path d="M196.5 90L185.061 101.561" stroke="#038910" stroke-width="3"/>
<path d="M173.061 102L184.5 113.561" stroke="#FFC700" stroke-width="3"/>
<path d="M184.5 102L173.061 113.561" stroke="#FFC700" stroke-width="3"/>
<path d="M161.061 114L172.5 125.561" stroke="#FFC700" stroke-width="3"/>
<path d="M172.5 114L161.061 125.561" stroke="#FFC700" stroke-width="3"/>
<path d="M173.061 126L184.5 137.561" stroke="#FFC700" stroke-width="3"/>
<path d="M184.5 126L173.061 137.561" stroke="#FFC700" stroke-width="3"/>
<path d="M149.061 126L160.5 137.561" stroke="#FFC700" stroke-width="3"/>
<path d="M160.5 126L149.061 137.561" stroke="#FFC700" stroke-width="3"/>
<path d="M149.061 102L160.5 113.561" stroke="#FFC700" stroke-width="3"/>
<path d="M160.5 102L149.061 113.561" stroke="#FFC700" stroke-width="3"/>
<path d="M336.061 50L347.5 61.5605" stroke="#038910" stroke-width="3"/>
<path d="M347.5 50L336.061 61.5605" stroke="#038910" stroke-width="3"/>
<path d="M324.061 38L335.5 49.5605" stroke="#038910" stroke-width="3"/>
<path d="M335.5 38L324.061 49.5605" stroke="#038910" stroke-width="3"/>
<path d="M312.061 26L323.5 37.5605" stroke="#FFC700" stroke-width="3"/>
<path d="M323.5 26L312.061 37.5605" stroke="#FFC700" stroke-width="3"/>
<path d="M300.061 14L311.5 25.5605" stroke="#FFC700" stroke-width="3"/>
<path d="M311.5 14L300.061 25.5605" stroke="#FFC700" stroke-width="3"/>
<path d="M312.061 2L323.5 13.5605" stroke="#FFC700" stroke-width="3"/>
<path d="M323.5 2L312.061 13.5605" stroke="#FFC700" stroke-width="3"/>
<path d="M288.061 26L299.5 37.5605" stroke="#FFC700" stroke-width="3"/>
<path d="M299.5 26L288.061 37.5605" stroke="#FFC700" stroke-width="3"/>
<path d="M288.061 2L299.5 13.5605" stroke="#FFC700" stroke-width="3"/>
<path d="M299.5 2L288.061 13.5605" stroke="#FFC700" stroke-width="3"/>
<path d="M336.061 78L347.5 89.5605" stroke="#038910" stroke-width="3"/>
<path d="M347.5 78L336.061 89.5605" stroke="#038910" stroke-width="3"/>
<path d="M324.061 90L335.5 101.561" stroke="#038910" stroke-width="3"/>
<path d="M335.5 90L324.061 101.561" stroke="#038910" stroke-width="3"/>
<path d="M312.061 102L323.5 113.561" stroke="#FFC700" stroke-width="3"/>
<path d="M323.5 102L312.061 113.561" stroke="#FFC700" stroke-width="3"/>
<path d="M300.061 114L311.5 125.561" stroke="#FFC700" stroke-width="3"/>
<path d="M311.5 114L300.061 125.561" stroke="#FFC700" stroke-width="3"/>
<path d="M312.061 126L323.5 137.561" stroke="#FFC700" stroke-width="3"/>
<path d="M323.5 126L312.061 137.561" stroke="#FFC700" stroke-width="3"/>
<path d="M288.061 126L299.5 137.561" stroke="#FFC700" stroke-width="3"/>
<path d="M299.5 126L288.061 137.561" stroke="#FFC700" stroke-width="3"/>
<path d="M288.061 102L299.5 113.561" stroke="#FFC700" stroke-width="3"/>
<path d="M299.5 102L288.061 113.561" stroke="#FFC700" stroke-width="3"/>
<path d="M58.0605 50L69.5 61.5605" stroke="#038910" stroke-width="3"/>
<path d="M69.5 50L58.0605 61.5605" stroke="#038910" stroke-width="3"/>
<path d="M46.0605 38L57.5 49.5605" stroke="#038910" stroke-width="3"/>
<path d="M57.5 38L46.0605 49.5605" stroke="#038910" stroke-width="3"/>
<path d="M34.0605 26L45.5 37.5605" stroke="#FFC700" stroke-width="3"/>
<path d="M45.5 26L34.0605 37.5605" stroke="#FFC700" stroke-width="3"/>
<path d="M22.0605 14L33.5 25.5605" stroke="#FFC700" stroke-width="3"/>
<path d="M33.5 14L22.0605 25.5605" stroke="#FFC700" stroke-width="3"/>
<path d="M34.0605 2L45.5 13.5605" stroke="#FFC700" stroke-width="3"/>
<path d="M45.5 2L34.0605 13.5605" stroke="#FFC700" stroke-width="3"/>
<path d="M10.0605 26L21.5 37.5605" stroke="#FFC700" stroke-width="3"/>
<path d="M21.5 26L10.0605 37.5605" stroke="#FFC700" stroke-width="3"/>
<path d="M10.0605 2L21.5 13.5605" stroke="#FFC700" stroke-width="3"/>
<path d="M21.5 2L10.0605 13.5605" stroke="#FFC700" stroke-width="3"/>
<path d="M58.0605 78L69.5 89.5605" stroke="#038910" stroke-width="3"/>
<path d="M69.5 78L58.0605 89.5605" stroke="#038910" stroke-width="3"/>
<path d="M46.0605 90L57.5 101.561" stroke="#038910" stroke-width="3"/>
<path d="M57.5 90L46.0605 101.561" stroke="#038910" stroke-width="3"/>
<path d="M34.0605 102L45.5 113.561" stroke="#FFC700" stroke-width="3"/>
<path d="M45.5 102L34.0605 113.561" stroke="#FFC700" stroke-width="3"/>
<path d="M22.0605 114L33.5 125.561" stroke="#FFC700" stroke-width="3"/>
<path d="M33.5 114L22.0605 125.561" stroke="#FFC700" stroke-width="3"/>
<path d="M34.0605 126L45.5 137.561" stroke="#FFC700" stroke-width="3"/>
<path d="M45.5 126L34.0605 137.561" stroke="#FFC700" stroke-width="3"/>
<path d="M10.0605 126L21.5 137.561" stroke="#FFC700" stroke-width="3"/>
<path d="M21.5 126L10.0605 137.561" stroke="#FFC700" stroke-width="3"/>
<path d="M10.0605 102L21.5 113.561" stroke="#FFC700" stroke-width="3"/>
<path d="M21.5 102L10.0605 113.561" stroke="#FFC700" stroke-width="3"/>
<path d="M266.061 50L277.5 61.5605" stroke="#038910" stroke-width="3"/>
<path d="M277.5 50L266.061 61.5605" stroke="#038910" stroke-width="3"/>
<path d="M254.061 38L265.5 49.5605" stroke="#038910" stroke-width="3"/>
<path d="M265.5 38L254.061 49.5605" stroke="#038910" stroke-width="3"/>
<path d="M242.061 26L253.5 37.5605" stroke="#FFC700" stroke-width="3"/>
<path d="M253.5 26L242.061 37.5605" stroke="#FFC700" stroke-width="3"/>
<path d="M230.061 14L241.5 25.5605" stroke="#FFC700" stroke-width="3"/>
<path d="M241.5 14L230.061 25.5605" stroke="#FFC700" stroke-width="3"/>
<path d="M242.061 2L253.5 13.5605" stroke="#FFC700" stroke-width="3"/>
<path d="M253.5 2L242.061 13.5605" stroke="#FFC700" stroke-width="3"/>
<path d="M218.061 26L229.5 37.5605" stroke="#FFC700" stroke-width="3"/>
<path d="M229.5 26L218.061 37.5605" stroke="#FFC700" stroke-width="3"/>
<path d="M218.061 2L229.5 13.5605" stroke="#FFC700" stroke-width="3"/>
<path d="M229.5 2L218.061 13.5605" stroke="#FFC700" stroke-width="3"/>
<path d="M266.061 78L277.5 89.5605" stroke="#038910" stroke-width="3"/>
<path d="M277.5 78L266.061 89.5605" stroke="#038910" stroke-width="3"/>
<path d="M254.061 90L265.5 101.561" stroke="#038910" stroke-width="3"/>
<path d="M265.5 90L254.061 101.561" stroke="#038910" stroke-width="3"/>
<path d="M242.061 102L253.5 113.561" stroke="#FFC700" stroke-width="3"/>
<path d="M253.5 102L242.061 113.561" stroke="#FFC700" stroke-width="3"/>
<path d="M230.061 114L241.5 125.561" stroke="#FFC700" stroke-width="3"/>
<path d="M241.5 114L230.061 125.561" stroke="#FFC700" stroke-width="3"/>
<path d="M242.061 126L253.5 137.561" stroke="#FFC700" stroke-width="3"/>
<path d="M253.5 126L242.061 137.561" stroke="#FFC700" stroke-width="3"/>
<path d="M218.061 126L229.5 137.561" stroke="#FFC700" stroke-width="3"/>
<path d="M229.5 126L218.061 137.561" stroke="#FFC700" stroke-width="3"/>
<path d="M218.061 102L229.5 113.561" stroke="#FFC700" stroke-width="3"/>
<path d="M229.5 102L218.061 113.561" stroke="#FFC700" stroke-width="3"/>
<path d="M127.061 50L138.5 61.5605" stroke="#038910" stroke-width="3"/>
<path d="M138.5 50L127.061 61.5605" stroke="#038910" stroke-width="3"/>
<path d="M115.061 38L126.5 49.5605" stroke="#038910" stroke-width="3"/>
<path d="M126.5 38L115.061 49.5605" stroke="#038910" stroke-width="3"/>
<path d="M103.061 26L114.5 37.5605" stroke="#FFC700" stroke-width="3"/>
<path d="M114.5 26L103.061 37.5605" stroke="#FFC700" stroke-width="3"/>
<path d="M91.0605 14L102.5 25.5605" stroke="#FFC700" stroke-width="3"/>
<path d="M102.5 14L91.0605 25.5605" stroke="#FFC700" stroke-width="3"/>
<path d="M103.061 2L114.5 13.5605" stroke="#FFC700" stroke-width="3"/>
<path d="M114.5 2L103.061 13.5605" stroke="#FFC700" stroke-width="3"/>
<path d="M79.0605 26L90.5 37.5605" stroke="#FFC700" stroke-width="3"/>
<path d="M90.5 26L79.0605 37.5605" stroke="#FFC700" stroke-width="3"/>
<path d="M79.0605 2L90.5 13.5605" stroke="#FFC700" stroke-width="3"/>
<path d="M90.5 2L79.0605 13.5605" stroke="#FFC700" stroke-width="3"/>
<path d="M127.061 78L138.5 89.5605" stroke="#038910" stroke-width="3"/>
<path d="M138.5 78L127.061 89.5605" stroke="#038910" stroke-width="3"/>
<path d="M115.061 90L126.5 101.561" stroke="#038910" stroke-width="3"/>
<path d="M126.5 90L115.061 101.561" stroke="#038910" stroke-width="3"/>
<path d="M103.061 102L114.5 113.561" stroke="#FFC700" stroke-width="3"/>
<path d="M114.5 102L103.061 113.561" stroke="#FFC700" stroke-width="3"/>
<path d="M91.0605 114L102.5 125.561" stroke="#FFC700" stroke-width="3"/>
<path d="M102.5 114L91.0605 125.561" stroke="#FFC700" stroke-width="3"/>
<path d="M103.061 126L114.5 137.561" stroke="#FFC700" stroke-width="3"/>
<path d="M114.5 126L103.061 137.561" stroke="#FFC700" stroke-width="3"/>
<path d="M79.0605 126L90.5 137.561" stroke="#FFC700" stroke-width="3"/>
<path d="M90.5 126L79.0605 137.561" stroke="#FFC700" stroke-width="3"/>
<path d="M79.0605 102L90.5 113.561" stroke="#FFC700" stroke-width="3"/>
<path d="M90.5 102L79.0605 113.561" stroke="#FFC700" stroke-width="3"/>
</svg>
