<svg width="187" height="253" viewBox="0 0 187 253" fill="none" xmlns="http://www.w3.org/2000/svg">
<path d="M88.0605 240L99.5 251.561" stroke="#BF7E4F" stroke-width="3"/>
<path d="M99.5 240L88.0605 251.561" stroke="#BF7E4F" stroke-width="3"/>
<path d="M88.0605 156L99.5 167.561" stroke="#BF7E4F" stroke-width="3"/>
<path d="M99.5 156L88.0605 167.561" stroke="#BF7E4F" stroke-width="3"/>
<path d="M88.0605 72L99.5 83.5605" stroke="#BF7E4F" stroke-width="3"/>
<path d="M99.5 72L88.0605 83.5605" stroke="#BF7E4F" stroke-width="3"/>
<path d="M88.0605 198L99.5 209.561" stroke="#BF7E4F" stroke-width="3"/>
<path d="M99.5 198L88.0605 209.561" stroke="#BF7E4F" stroke-width="3"/>
<path d="M88.0605 114L99.5 125.561" stroke="#BF7E4F" stroke-width="3"/>
<path d="M99.5 114L88.0605 125.561" stroke="#BF7E4F" stroke-width="3"/>
<path d="M88.0605 30L99.5 41.5605" stroke="#BF7E4F" stroke-width="3"/>
<path d="M99.5 30L88.0605 41.5605" stroke="#BF7E4F" stroke-width="3"/>
<path d="M88.0605 226L99.5 237.561" stroke="#BF7E4F" stroke-width="3"/>
<path d="M99.5 226L88.0605 237.561" stroke="#BF7E4F" stroke-width="3"/>
<path d="M88.0605 142L99.5 153.561" stroke="#BF7E4F" stroke-width="3"/>
<path d="M99.5 142L88.0605 153.561" stroke="#BF7E4F" stroke-width="3"/>
<path d="M88.0605 58L99.5 69.5605" stroke="#BF7E4F" stroke-width="3"/>
<path d="M99.5 58L88.0605 69.5605" stroke="#BF7E4F" stroke-width="3"/>
<path d="M88.0605 184L99.5 195.561" stroke="#BF7E4F" stroke-width="3"/>
<path d="M99.5 184L88.0605 195.561" stroke="#BF7E4F" stroke-width="3"/>
<path d="M88.0605 100L99.5 111.561" stroke="#BF7E4F" stroke-width="3"/>
<path d="M99.5 100L88.0605 111.561" stroke="#BF7E4F" stroke-width="3"/>
<path d="M137.5 110L126.061 121.561" stroke="#038910" stroke-width="3"/>
<path d="M126.061 110L137.5 121.561" stroke="#038910" stroke-width="3"/>
<path d="M125.5 98L114.061 109.561" stroke="#038910" stroke-width="3"/>
<path d="M114.061 98L125.5 109.561" stroke="#038910" stroke-width="3"/>
<path d="M113.5 86L102.061 97.5605" stroke="#038910" stroke-width="3"/>
<path d="M102.061 86L113.5 97.5605" stroke="#038910" stroke-width="3"/>
<path d="M85.5 86L74.0605 97.5605" stroke="#038910" stroke-width="3"/>
<path d="M74.0605 86L85.5 97.5605" stroke="#038910" stroke-width="3"/>
<path d="M73.5 98L62.0605 109.561" stroke="#038910" stroke-width="3"/>
<path d="M62.0605 98L73.5 109.561" stroke="#038910" stroke-width="3"/>
<path d="M61.5 110L50.0605 121.561" stroke="#038910" stroke-width="3"/>
<path d="M50.0605 110L61.5 121.561" stroke="#038910" stroke-width="3"/>
<path d="M49.5 122L38.0605 133.561" stroke="#038910" stroke-width="3"/>
<path d="M38.0605 122L49.5 133.561" stroke="#038910" stroke-width="3"/>
<path d="M149.5 122L138.061 133.561" stroke="#038910" stroke-width="3"/>
<path d="M138.061 122L149.5 133.561" stroke="#038910" stroke-width="3"/>
<path d="M88.0605 16L99.5 27.5605" stroke="#BF7E4F" stroke-width="3"/>
<path d="M99.5 16L88.0605 27.5605" stroke="#BF7E4F" stroke-width="3"/>
<path d="M102.061 16L113.5 27.5605" stroke="#038910" stroke-width="3"/>
<path d="M113.5 16L102.061 27.5605" stroke="#038910" stroke-width="3"/>
<path d="M125.5 58L114.061 69.5605" stroke="#038910" stroke-width="3"/>
<path d="M114.061 58L125.5 69.5605" stroke="#038910" stroke-width="3"/>
<path d="M149.5 164L138.061 175.561" stroke="#038910" stroke-width="3"/>
<path d="M138.061 164L149.5 175.561" stroke="#038910" stroke-width="3"/>
<path d="M161.5 176L150.061 187.561" stroke="#038910" stroke-width="3"/>
<path d="M150.061 176L161.5 187.561" stroke="#038910" stroke-width="3"/>
<path d="M185.5 240L174.061 251.561" stroke="#038910" stroke-width="3"/>
<path d="M174.061 240L185.5 251.561" stroke="#038910" stroke-width="3"/>
<path d="M102.061 46L113.5 57.5605" stroke="#038910" stroke-width="3"/>
<path d="M113.5 46L102.061 57.5605" stroke="#038910" stroke-width="3"/>
<path d="M137.5 152L126.061 163.561" stroke="#038910" stroke-width="3"/>
<path d="M126.061 152L137.5 163.561" stroke="#038910" stroke-width="3"/>
<path d="M173.5 228L162.061 239.561" stroke="#038910" stroke-width="3"/>
<path d="M162.061 228L173.5 239.561" stroke="#038910" stroke-width="3"/>
<path d="M125.5 140L114.061 151.561" stroke="#038910" stroke-width="3"/>
<path d="M114.061 140L125.5 151.561" stroke="#038910" stroke-width="3"/>
<path d="M161.5 216L150.061 227.561" stroke="#038910" stroke-width="3"/>
<path d="M150.061 216L161.5 227.561" stroke="#038910" stroke-width="3"/>
<path d="M113.5 128L102.061 139.561" stroke="#038910" stroke-width="3"/>
<path d="M102.061 128L113.5 139.561" stroke="#038910" stroke-width="3"/>
<path d="M149.5 204L138.061 215.561" stroke="#038910" stroke-width="3"/>
<path d="M138.061 204L149.5 215.561" stroke="#038910" stroke-width="3"/>
<path d="M137.5 192L126.061 203.561" stroke="#038910" stroke-width="3"/>
<path d="M126.061 192L137.5 203.561" stroke="#038910" stroke-width="3"/>
<path d="M125.5 180L114.061 191.561" stroke="#038910" stroke-width="3"/>
<path d="M114.061 180L125.5 191.561" stroke="#038910" stroke-width="3"/>
<path d="M113.5 168L102.061 179.561" stroke="#038910" stroke-width="3"/>
<path d="M102.061 168L113.5 179.561" stroke="#038910" stroke-width="3"/>
<path d="M73.5 140L62.0605 151.561" stroke="#038910" stroke-width="3"/>
<path d="M62.0605 140L73.5 151.561" stroke="#038910" stroke-width="3"/>
<path d="M37.5 216L26.0605 227.561" stroke="#038910" stroke-width="3"/>
<path d="M26.0605 216L37.5 227.561" stroke="#038910" stroke-width="3"/>
<path d="M85.5 128L74.0605 139.561" stroke="#038910" stroke-width="3"/>
<path d="M74.0605 128L85.5 139.561" stroke="#038910" stroke-width="3"/>
<path d="M49.5 204L38.0605 215.561" stroke="#038910" stroke-width="3"/>
<path d="M38.0605 204L49.5 215.561" stroke="#038910" stroke-width="3"/>
<path d="M61.5 192L50.0605 203.561" stroke="#038910" stroke-width="3"/>
<path d="M50.0605 192L61.5 203.561" stroke="#038910" stroke-width="3"/>
<path d="M73.5 180L62.0605 191.561" stroke="#038910" stroke-width="3"/>
<path d="M62.0605 180L73.5 191.561" stroke="#038910" stroke-width="3"/>
<path d="M85.5 168L74.0605 179.561" stroke="#038910" stroke-width="3"/>
<path d="M74.0605 168L85.5 179.561" stroke="#038910" stroke-width="3"/>
<path d="M85.5 46L74.0605 57.5605" stroke="#038910" stroke-width="3"/>
<path d="M74.0605 46L85.5 57.5605" stroke="#038910" stroke-width="3"/>
<path d="M61.5 152L50.0605 163.561" stroke="#038910" stroke-width="3"/>
<path d="M50.0605 152L61.5 163.561" stroke="#038910" stroke-width="3"/>
<path d="M25.5 228L14.0605 239.561" stroke="#038910" stroke-width="3"/>
<path d="M14.0605 228L25.5 239.561" stroke="#038910" stroke-width="3"/>
<path d="M74.0605 16L85.5 27.5605" stroke="#038910" stroke-width="3"/>
<path d="M85.5 16L74.0605 27.5605" stroke="#038910" stroke-width="3"/>
<path d="M73.5 58L62.0605 69.5605" stroke="#038910" stroke-width="3"/>
<path d="M62.0605 58L73.5 69.5605" stroke="#038910" stroke-width="3"/>
<path d="M61.5 70L50.0605 81.5605" stroke="#038910" stroke-width="3"/>
<path d="M50.0605 70L61.5 81.5605" stroke="#038910" stroke-width="3"/>
<path d="M137.5 70L126.061 81.5605" stroke="#038910" stroke-width="3"/>
<path d="M126.061 70L137.5 81.5605" stroke="#038910" stroke-width="3"/>
<path d="M49.5 164L38.0605 175.561" stroke="#038910" stroke-width="3"/>
<path d="M38.0605 164L49.5 175.561" stroke="#038910" stroke-width="3"/>
<path d="M37.5 176L26.0605 187.561" stroke="#038910" stroke-width="3"/>
<path d="M26.0605 176L37.5 187.561" stroke="#038910" stroke-width="3"/>
<path d="M13.5 240L2.06055 251.561" stroke="#038910" stroke-width="3"/>
<path d="M2.06055 240L13.5 251.561" stroke="#038910" stroke-width="3"/>
<path d="M88.0605 212L99.5 223.561" stroke="#BF7E4F" stroke-width="3"/>
<path d="M99.5 212L88.0605 223.561" stroke="#BF7E4F" stroke-width="3"/>
<path d="M88.0605 128L99.5 139.561" stroke="#BF7E4F" stroke-width="3"/>
<path d="M99.5 128L88.0605 139.561" stroke="#BF7E4F" stroke-width="3"/>
<path d="M88.0605 44L99.5 55.5605" stroke="#BF7E4F" stroke-width="3"/>
<path d="M99.5 44L88.0605 55.5605" stroke="#BF7E4F" stroke-width="3"/>
<path d="M88.0605 170L99.5 181.561" stroke="#BF7E4F" stroke-width="3"/>
<path d="M99.5 170L88.0605 181.561" stroke="#BF7E4F" stroke-width="3"/>
<path d="M88.0605 86L99.5 97.5605" stroke="#BF7E4F" stroke-width="3"/>
<path d="M99.5 86L88.0605 97.5605" stroke="#BF7E4F" stroke-width="3"/>
<path d="M88.0605 2L99.5 13.5605" stroke="#BF7E4F" stroke-width="3"/>
<path d="M99.5 2L88.0605 13.5605" stroke="#BF7E4F" stroke-width="3"/>
</svg>
