<svg width="321" height="139" viewBox="0 0 321 139" fill="none" xmlns="http://www.w3.org/2000/svg">
<path d="M168.061 64L179.5 75.5605" stroke="#038910" stroke-width="3"/>
<path d="M179.5 64L168.061 75.5605" stroke="#038910" stroke-width="3"/>
<path d="M266.061 64L277.5 75.5605" stroke="#038910" stroke-width="3"/>
<path d="M277.5 64L266.061 75.5605" stroke="#038910" stroke-width="3"/>
<path d="M71.0605 64L82.5 75.5605" stroke="#038910" stroke-width="3"/>
<path d="M82.5 64L71.0605 75.5605" stroke="#038910" stroke-width="3"/>
<path d="M182.061 64L193.5 75.5605" stroke="#038910" stroke-width="3"/>
<path d="M193.5 64L182.061 75.5605" stroke="#038910" stroke-width="3"/>
<path d="M280.061 64L291.5 75.5605" stroke="#038910" stroke-width="3"/>
<path d="M291.5 64L280.061 75.5605" stroke="#038910" stroke-width="3"/>
<path d="M85.0605 64L96.5 75.5605" stroke="#038910" stroke-width="3"/>
<path d="M96.5 64L85.0605 75.5605" stroke="#038910" stroke-width="3"/>
<path d="M196.061 64L207.5 75.5605" stroke="#038910" stroke-width="3"/>
<path d="M207.5 64L196.061 75.5605" stroke="#038910" stroke-width="3"/>
<path d="M294.061 64L305.5 75.5605" stroke="#038910" stroke-width="3"/>
<path d="M305.5 64L294.061 75.5605" stroke="#038910" stroke-width="3"/>
<path d="M99.0605 64L110.5 75.5605" stroke="#038910" stroke-width="3"/>
<path d="M110.5 64L99.0605 75.5605" stroke="#038910" stroke-width="3"/>
<path d="M2.06055 64L13.5 75.5605" stroke="#038910" stroke-width="3"/>
<path d="M13.5 64L2.06055 75.5605" stroke="#038910" stroke-width="3"/>
<path d="M210.061 64L221.5 75.5605" stroke="#038910" stroke-width="3"/>
<path d="M221.5 64L210.061 75.5605" stroke="#038910" stroke-width="3"/>
<path d="M308.061 64L319.5 75.5605" stroke="#038910" stroke-width="3"/>
<path d="M319.5 64L308.061 75.5605" stroke="#038910" stroke-width="3"/>
<path d="M113.061 64L124.5 75.5605" stroke="#038910" stroke-width="3"/>
<path d="M124.5 64L113.061 75.5605" stroke="#038910" stroke-width="3"/>
<path d="M16.0605 64L27.5 75.5605" stroke="#038910" stroke-width="3"/>
<path d="M27.5 64L16.0605 75.5605" stroke="#038910" stroke-width="3"/>
<path d="M224.061 64L235.5 75.5605" stroke="#038910" stroke-width="3"/>
<path d="M235.5 64L224.061 75.5605" stroke="#038910" stroke-width="3"/>
<path d="M127.061 64L138.5 75.5605" stroke="#038910" stroke-width="3"/>
<path d="M138.5 64L127.061 75.5605" stroke="#038910" stroke-width="3"/>
<path d="M30.0605 64L41.5 75.5605" stroke="#038910" stroke-width="3"/>
<path d="M41.5 64L30.0605 75.5605" stroke="#038910" stroke-width="3"/>
<path d="M238.061 64L249.5 75.5605" stroke="#038910" stroke-width="3"/>
<path d="M249.5 64L238.061 75.5605" stroke="#038910" stroke-width="3"/>
<path d="M141.061 64L152.5 75.5605" stroke="#038910" stroke-width="3"/>
<path d="M152.5 64L141.061 75.5605" stroke="#038910" stroke-width="3"/>
<path d="M44.0605 64L55.5 75.5605" stroke="#038910" stroke-width="3"/>
<path d="M55.5 64L44.0605 75.5605" stroke="#038910" stroke-width="3"/>
<path d="M252.061 64L263.5 75.5605" stroke="#038910" stroke-width="3"/>
<path d="M263.5 64L252.061 75.5605" stroke="#038910" stroke-width="3"/>
<path d="M154.061 64L165.5 75.5605" stroke="#038910" stroke-width="3"/>
<path d="M165.5 64L154.061 75.5605" stroke="#038910" stroke-width="3"/>
<path d="M57.0605 64L68.5 75.5605" stroke="#038910" stroke-width="3"/>
<path d="M68.5 64L57.0605 75.5605" stroke="#038910" stroke-width="3"/>
<path d="M61.0605 102L72.5 113.561" stroke="#00C2FF" stroke-width="3"/>
<path d="M72.5 102L61.0605 113.561" stroke="#00C2FF" stroke-width="3"/>
<path d="M55.5 50L44.0605 61.5605" stroke="#038910" stroke-width="3"/>
<path d="M44.0605 50L55.5 61.5605" stroke="#038910" stroke-width="3"/>
<path d="M67.5 38L56.0605 49.5605" stroke="#038910" stroke-width="3"/>
<path d="M56.0605 38L67.5 49.5605" stroke="#038910" stroke-width="3"/>
<path d="M79.5 26L68.0605 37.5605" stroke="#00C2FF" stroke-width="3"/>
<path d="M68.0605 26L79.5 37.5605" stroke="#00C2FF" stroke-width="3"/>
<path d="M91.5 14L80.0605 25.5605" stroke="#00C2FF" stroke-width="3"/>
<path d="M80.0605 14L91.5 25.5605" stroke="#00C2FF" stroke-width="3"/>
<path d="M79.5 2L68.0605 13.5605" stroke="#00C2FF" stroke-width="3"/>
<path d="M68.0605 2L79.5 13.5605" stroke="#00C2FF" stroke-width="3"/>
<path d="M103.5 26L92.0605 37.5605" stroke="#00C2FF" stroke-width="3"/>
<path d="M92.0605 26L103.5 37.5605" stroke="#00C2FF" stroke-width="3"/>
<path d="M103.5 2L92.0605 13.5605" stroke="#00C2FF" stroke-width="3"/>
<path d="M92.0605 2L103.5 13.5605" stroke="#00C2FF" stroke-width="3"/>
<path d="M55.5 78L44.0605 89.5605" stroke="#038910" stroke-width="3"/>
<path d="M44.0605 78L55.5 89.5605" stroke="#038910" stroke-width="3"/>
<path d="M67.5 90L56.0605 101.561" stroke="#038910" stroke-width="3"/>
<path d="M56.0605 90L67.5 101.561" stroke="#038910" stroke-width="3"/>
<path d="M91.5 114L80.0605 125.561" stroke="#00C2FF" stroke-width="3"/>
<path d="M80.0605 114L91.5 125.561" stroke="#00C2FF" stroke-width="3"/>
<path d="M79.5 126L68.0605 137.561" stroke="#00C2FF" stroke-width="3"/>
<path d="M68.0605 126L79.5 137.561" stroke="#00C2FF" stroke-width="3"/>
<path d="M103.5 126L92.0605 137.561" stroke="#00C2FF" stroke-width="3"/>
<path d="M92.0605 126L103.5 137.561" stroke="#00C2FF" stroke-width="3"/>
<path d="M103.5 102L92.0605 113.561" stroke="#00C2FF" stroke-width="3"/>
<path d="M92.0605 102L103.5 113.561" stroke="#00C2FF" stroke-width="3"/>
<path d="M124.5 50L113.061 61.5605" stroke="#038910" stroke-width="3"/>
<path d="M113.061 50L124.5 61.5605" stroke="#038910" stroke-width="3"/>
<path d="M136.5 38L125.061 49.5605" stroke="#038910" stroke-width="3"/>
<path d="M125.061 38L136.5 49.5605" stroke="#038910" stroke-width="3"/>
<path d="M148.5 26L137.061 37.5605" stroke="#00C2FF" stroke-width="3"/>
<path d="M137.061 26L148.5 37.5605" stroke="#00C2FF" stroke-width="3"/>
<path d="M160.5 14L149.061 25.5605" stroke="#00C2FF" stroke-width="3"/>
<path d="M149.061 14L160.5 25.5605" stroke="#00C2FF" stroke-width="3"/>
<path d="M148.5 2L137.061 13.5605" stroke="#00C2FF" stroke-width="3"/>
<path d="M137.061 2L148.5 13.5605" stroke="#00C2FF" stroke-width="3"/>
<path d="M172.5 26L161.061 37.5605" stroke="#00C2FF" stroke-width="3"/>
<path d="M161.061 26L172.5 37.5605" stroke="#00C2FF" stroke-width="3"/>
<path d="M172.5 2L161.061 13.5605" stroke="#00C2FF" stroke-width="3"/>
<path d="M161.061 2L172.5 13.5605" stroke="#00C2FF" stroke-width="3"/>
<path d="M124.5 78L113.061 89.5605" stroke="#038910" stroke-width="3"/>
<path d="M113.061 78L124.5 89.5605" stroke="#038910" stroke-width="3"/>
<path d="M136.5 90L125.061 101.561" stroke="#038910" stroke-width="3"/>
<path d="M125.061 90L136.5 101.561" stroke="#038910" stroke-width="3"/>
<path d="M148.5 102L137.061 113.561" stroke="#00C2FF" stroke-width="3"/>
<path d="M137.061 102L148.5 113.561" stroke="#00C2FF" stroke-width="3"/>
<path d="M160.5 114L149.061 125.561" stroke="#00C2FF" stroke-width="3"/>
<path d="M149.061 114L160.5 125.561" stroke="#00C2FF" stroke-width="3"/>
<path d="M148.5 126L137.061 137.561" stroke="#00C2FF" stroke-width="3"/>
<path d="M137.061 126L148.5 137.561" stroke="#00C2FF" stroke-width="3"/>
<path d="M172.5 126L161.061 137.561" stroke="#00C2FF" stroke-width="3"/>
<path d="M161.061 126L172.5 137.561" stroke="#00C2FF" stroke-width="3"/>
<path d="M172.5 102L161.061 113.561" stroke="#00C2FF" stroke-width="3"/>
<path d="M161.061 102L172.5 113.561" stroke="#00C2FF" stroke-width="3"/>
<path d="M263.5 50L252.061 61.5605" stroke="#038910" stroke-width="3"/>
<path d="M252.061 50L263.5 61.5605" stroke="#038910" stroke-width="3"/>
<path d="M275.5 38L264.061 49.5605" stroke="#038910" stroke-width="3"/>
<path d="M264.061 38L275.5 49.5605" stroke="#038910" stroke-width="3"/>
<path d="M287.5 26L276.061 37.5605" stroke="#00C2FF" stroke-width="3"/>
<path d="M276.061 26L287.5 37.5605" stroke="#00C2FF" stroke-width="3"/>
<path d="M299.5 14L288.061 25.5605" stroke="#00C2FF" stroke-width="3"/>
<path d="M288.061 14L299.5 25.5605" stroke="#00C2FF" stroke-width="3"/>
<path d="M287.5 2L276.061 13.5605" stroke="#00C2FF" stroke-width="3"/>
<path d="M276.061 2L287.5 13.5605" stroke="#00C2FF" stroke-width="3"/>
<path d="M311.5 26L300.061 37.5605" stroke="#00C2FF" stroke-width="3"/>
<path d="M300.061 26L311.5 37.5605" stroke="#00C2FF" stroke-width="3"/>
<path d="M311.5 2L300.061 13.5605" stroke="#00C2FF" stroke-width="3"/>
<path d="M300.061 2L311.5 13.5605" stroke="#00C2FF" stroke-width="3"/>
<path d="M263.5 78L252.061 89.5605" stroke="#038910" stroke-width="3"/>
<path d="M252.061 78L263.5 89.5605" stroke="#038910" stroke-width="3"/>
<path d="M275.5 90L264.061 101.561" stroke="#038910" stroke-width="3"/>
<path d="M264.061 90L275.5 101.561" stroke="#038910" stroke-width="3"/>
<path d="M287.5 102L276.061 113.561" stroke="#00C2FF" stroke-width="3"/>
<path d="M276.061 102L287.5 113.561" stroke="#00C2FF" stroke-width="3"/>
<path d="M299.5 114L288.061 125.561" stroke="#00C2FF" stroke-width="3"/>
<path d="M288.061 114L299.5 125.561" stroke="#00C2FF" stroke-width="3"/>
<path d="M287.5 126L276.061 137.561" stroke="#00C2FF" stroke-width="3"/>
<path d="M276.061 126L287.5 137.561" stroke="#00C2FF" stroke-width="3"/>
<path d="M311.5 126L300.061 137.561" stroke="#00C2FF" stroke-width="3"/>
<path d="M300.061 126L311.5 137.561" stroke="#00C2FF" stroke-width="3"/>
<path d="M311.5 102L300.061 113.561" stroke="#00C2FF" stroke-width="3"/>
<path d="M300.061 102L311.5 113.561" stroke="#00C2FF" stroke-width="3"/>
<path d="M193.5 50L182.061 61.5605" stroke="#038910" stroke-width="3"/>
<path d="M182.061 50L193.5 61.5605" stroke="#038910" stroke-width="3"/>
<path d="M205.5 38L194.061 49.5605" stroke="#038910" stroke-width="3"/>
<path d="M194.061 38L205.5 49.5605" stroke="#038910" stroke-width="3"/>
<path d="M217.5 26L206.061 37.5605" stroke="#00C2FF" stroke-width="3"/>
<path d="M206.061 26L217.5 37.5605" stroke="#00C2FF" stroke-width="3"/>
<path d="M229.5 14L218.061 25.5605" stroke="#00C2FF" stroke-width="3"/>
<path d="M218.061 14L229.5 25.5605" stroke="#00C2FF" stroke-width="3"/>
<path d="M217.5 2L206.061 13.5605" stroke="#00C2FF" stroke-width="3"/>
<path d="M206.061 2L217.5 13.5605" stroke="#00C2FF" stroke-width="3"/>
<path d="M241.5 26L230.061 37.5605" stroke="#00C2FF" stroke-width="3"/>
<path d="M230.061 26L241.5 37.5605" stroke="#00C2FF" stroke-width="3"/>
<path d="M241.5 2L230.061 13.5605" stroke="#00C2FF" stroke-width="3"/>
<path d="M230.061 2L241.5 13.5605" stroke="#00C2FF" stroke-width="3"/>
<path d="M193.5 78L182.061 89.5605" stroke="#038910" stroke-width="3"/>
<path d="M182.061 78L193.5 89.5605" stroke="#038910" stroke-width="3"/>
<path d="M205.5 90L194.061 101.561" stroke="#038910" stroke-width="3"/>
<path d="M194.061 90L205.5 101.561" stroke="#038910" stroke-width="3"/>
<path d="M217.5 102L206.061 113.561" stroke="#00C2FF" stroke-width="3"/>
<path d="M206.061 102L217.5 113.561" stroke="#00C2FF" stroke-width="3"/>
<path d="M229.5 114L218.061 125.561" stroke="#00C2FF" stroke-width="3"/>
<path d="M218.061 114L229.5 125.561" stroke="#00C2FF" stroke-width="3"/>
<path d="M217.5 126L206.061 137.561" stroke="#00C2FF" stroke-width="3"/>
<path d="M206.061 126L217.5 137.561" stroke="#00C2FF" stroke-width="3"/>
<path d="M241.5 126L230.061 137.561" stroke="#00C2FF" stroke-width="3"/>
<path d="M230.061 126L241.5 137.561" stroke="#00C2FF" stroke-width="3"/>
<path d="M241.5 102L230.061 113.561" stroke="#00C2FF" stroke-width="3"/>
<path d="M230.061 102L241.5 113.561" stroke="#00C2FF" stroke-width="3"/>
</svg>
