<svg width="363" height="139" viewBox="0 0 363 139" fill="none" xmlns="http://www.w3.org/2000/svg">
<path d="M125.5 64L114.061 75.5605" stroke="#038910" stroke-width="3"/>
<path d="M114.061 64L125.5 75.5605" stroke="#038910" stroke-width="3"/>
<path d="M27.5 64L16.0605 75.5605" stroke="#038910" stroke-width="3"/>
<path d="M16.0605 64L27.5 75.5605" stroke="#038910" stroke-width="3"/>
<path d="M222.5 64L211.061 75.5605" stroke="#038910" stroke-width="3"/>
<path d="M211.061 64L222.5 75.5605" stroke="#038910" stroke-width="3"/>
<path d="M319.5 64L308.061 75.5605" stroke="#038910" stroke-width="3"/>
<path d="M308.061 64L319.5 75.5605" stroke="#038910" stroke-width="3"/>
<path d="M111.5 64L100.061 75.5605" stroke="#038910" stroke-width="3"/>
<path d="M100.061 64L111.5 75.5605" stroke="#038910" stroke-width="3"/>
<path d="M13.5 64L2.06055 75.5605" stroke="#038910" stroke-width="3"/>
<path d="M2.06055 64L13.5 75.5605" stroke="#038910" stroke-width="3"/>
<path d="M208.5 64L197.061 75.5605" stroke="#038910" stroke-width="3"/>
<path d="M197.061 64L208.5 75.5605" stroke="#038910" stroke-width="3"/>
<path d="M305.5 64L294.061 75.5605" stroke="#038910" stroke-width="3"/>
<path d="M294.061 64L305.5 75.5605" stroke="#038910" stroke-width="3"/>
<path d="M97.5 64L86.0605 75.5605" stroke="#038910" stroke-width="3"/>
<path d="M86.0605 64L97.5 75.5605" stroke="#038910" stroke-width="3"/>
<path d="M194.5 64L183.061 75.5605" stroke="#038910" stroke-width="3"/>
<path d="M183.061 64L194.5 75.5605" stroke="#038910" stroke-width="3"/>
<path d="M291.5 64L280.061 75.5605" stroke="#038910" stroke-width="3"/>
<path d="M280.061 64L291.5 75.5605" stroke="#038910" stroke-width="3"/>
<path d="M83.5 64L72.0605 75.5605" stroke="#038910" stroke-width="3"/>
<path d="M72.0605 64L83.5 75.5605" stroke="#038910" stroke-width="3"/>
<path d="M180.5 64L169.061 75.5605" stroke="#038910" stroke-width="3"/>
<path d="M169.061 64L180.5 75.5605" stroke="#038910" stroke-width="3"/>
<path d="M277.5 64L266.061 75.5605" stroke="#038910" stroke-width="3"/>
<path d="M266.061 64L277.5 75.5605" stroke="#038910" stroke-width="3"/>
<path d="M69.5 64L58.0605 75.5605" stroke="#038910" stroke-width="3"/>
<path d="M58.0605 64L69.5 75.5605" stroke="#038910" stroke-width="3"/>
<path d="M361.5 64L350.061 75.5605" stroke="#038910" stroke-width="3"/>
<path d="M350.061 64L361.5 75.5605" stroke="#038910" stroke-width="3"/>
<path d="M166.5 64L155.061 75.5605" stroke="#038910" stroke-width="3"/>
<path d="M155.061 64L166.5 75.5605" stroke="#038910" stroke-width="3"/>
<path d="M263.5 64L252.061 75.5605" stroke="#038910" stroke-width="3"/>
<path d="M252.061 64L263.5 75.5605" stroke="#038910" stroke-width="3"/>
<path d="M55.5 64L44.0605 75.5605" stroke="#038910" stroke-width="3"/>
<path d="M44.0605 64L55.5 75.5605" stroke="#038910" stroke-width="3"/>
<path d="M347.5 64L336.061 75.5605" stroke="#038910" stroke-width="3"/>
<path d="M336.061 64L347.5 75.5605" stroke="#038910" stroke-width="3"/>
<path d="M152.5 64L141.061 75.5605" stroke="#038910" stroke-width="3"/>
<path d="M141.061 64L152.5 75.5605" stroke="#038910" stroke-width="3"/>
<path d="M249.5 64L238.061 75.5605" stroke="#038910" stroke-width="3"/>
<path d="M238.061 64L249.5 75.5605" stroke="#038910" stroke-width="3"/>
<path d="M41.5 64L30.0605 75.5605" stroke="#038910" stroke-width="3"/>
<path d="M30.0605 64L41.5 75.5605" stroke="#038910" stroke-width="3"/>
<path d="M333.5 64L322.061 75.5605" stroke="#038910" stroke-width="3"/>
<path d="M322.061 64L333.5 75.5605" stroke="#038910" stroke-width="3"/>
<path d="M139.5 64L128.061 75.5605" stroke="#038910" stroke-width="3"/>
<path d="M128.061 64L139.5 75.5605" stroke="#038910" stroke-width="3"/>
<path d="M236.5 64L225.061 75.5605" stroke="#038910" stroke-width="3"/>
<path d="M225.061 64L236.5 75.5605" stroke="#038910" stroke-width="3"/>
<path d="M166.5 50L155.061 61.5605" stroke="#038910" stroke-width="3"/>
<path d="M155.061 50L166.5 61.5605" stroke="#038910" stroke-width="3"/>
<path d="M178.5 38L167.061 49.5605" stroke="#038910" stroke-width="3"/>
<path d="M167.061 38L178.5 49.5605" stroke="#038910" stroke-width="3"/>
<path d="M190.5 26L179.061 37.5605" stroke="#00C2FF" stroke-width="3"/>
<path d="M179.061 26L190.5 37.5605" stroke="#00C2FF" stroke-width="3"/>
<path d="M202.5 14L191.061 25.5605" stroke="#00C2FF" stroke-width="3"/>
<path d="M191.061 14L202.5 25.5605" stroke="#00C2FF" stroke-width="3"/>
<path d="M190.5 2L179.061 13.5605" stroke="#00C2FF" stroke-width="3"/>
<path d="M179.061 2L190.5 13.5605" stroke="#00C2FF" stroke-width="3"/>
<path d="M214.5 26L203.061 37.5605" stroke="#00C2FF" stroke-width="3"/>
<path d="M203.061 26L214.5 37.5605" stroke="#00C2FF" stroke-width="3"/>
<path d="M214.5 2L203.061 13.5605" stroke="#00C2FF" stroke-width="3"/>
<path d="M203.061 2L214.5 13.5605" stroke="#00C2FF" stroke-width="3"/>
<path d="M166.5 78L155.061 89.5605" stroke="#038910" stroke-width="3"/>
<path d="M155.061 78L166.5 89.5605" stroke="#038910" stroke-width="3"/>
<path d="M178.5 90L167.061 101.561" stroke="#038910" stroke-width="3"/>
<path d="M167.061 90L178.5 101.561" stroke="#038910" stroke-width="3"/>
<path d="M190.5 102L179.061 113.561" stroke="#00C2FF" stroke-width="3"/>
<path d="M179.061 102L190.5 113.561" stroke="#00C2FF" stroke-width="3"/>
<path d="M202.5 114L191.061 125.561" stroke="#00C2FF" stroke-width="3"/>
<path d="M191.061 114L202.5 125.561" stroke="#00C2FF" stroke-width="3"/>
<path d="M190.5 126L179.061 137.561" stroke="#00C2FF" stroke-width="3"/>
<path d="M179.061 126L190.5 137.561" stroke="#00C2FF" stroke-width="3"/>
<path d="M214.5 126L203.061 137.561" stroke="#00C2FF" stroke-width="3"/>
<path d="M203.061 126L214.5 137.561" stroke="#00C2FF" stroke-width="3"/>
<path d="M214.5 102L203.061 113.561" stroke="#00C2FF" stroke-width="3"/>
<path d="M203.061 102L214.5 113.561" stroke="#00C2FF" stroke-width="3"/>
<path d="M27.5 50L16.0605 61.5605" stroke="#038910" stroke-width="3"/>
<path d="M16.0605 50L27.5 61.5605" stroke="#038910" stroke-width="3"/>
<path d="M39.5 38L28.0605 49.5605" stroke="#038910" stroke-width="3"/>
<path d="M28.0605 38L39.5 49.5605" stroke="#038910" stroke-width="3"/>
<path d="M51.5 26L40.0605 37.5605" stroke="#00C2FF" stroke-width="3"/>
<path d="M40.0605 26L51.5 37.5605" stroke="#00C2FF" stroke-width="3"/>
<path d="M63.5 14L52.0605 25.5605" stroke="#00C2FF" stroke-width="3"/>
<path d="M52.0605 14L63.5 25.5605" stroke="#00C2FF" stroke-width="3"/>
<path d="M51.5 2L40.0605 13.5605" stroke="#00C2FF" stroke-width="3"/>
<path d="M40.0605 2L51.5 13.5605" stroke="#00C2FF" stroke-width="3"/>
<path d="M75.5 26L64.0605 37.5605" stroke="#00C2FF" stroke-width="3"/>
<path d="M64.0605 26L75.5 37.5605" stroke="#00C2FF" stroke-width="3"/>
<path d="M75.5 2L64.0605 13.5605" stroke="#00C2FF" stroke-width="3"/>
<path d="M64.0605 2L75.5 13.5605" stroke="#00C2FF" stroke-width="3"/>
<path d="M27.5 78L16.0605 89.5605" stroke="#038910" stroke-width="3"/>
<path d="M16.0605 78L27.5 89.5605" stroke="#038910" stroke-width="3"/>
<path d="M39.5 90L28.0605 101.561" stroke="#038910" stroke-width="3"/>
<path d="M28.0605 90L39.5 101.561" stroke="#038910" stroke-width="3"/>
<path d="M51.5 102L40.0605 113.561" stroke="#00C2FF" stroke-width="3"/>
<path d="M40.0605 102L51.5 113.561" stroke="#00C2FF" stroke-width="3"/>
<path d="M63.5 114L52.0605 125.561" stroke="#00C2FF" stroke-width="3"/>
<path d="M52.0605 114L63.5 125.561" stroke="#00C2FF" stroke-width="3"/>
<path d="M51.5 126L40.0605 137.561" stroke="#00C2FF" stroke-width="3"/>
<path d="M40.0605 126L51.5 137.561" stroke="#00C2FF" stroke-width="3"/>
<path d="M75.5 126L64.0605 137.561" stroke="#00C2FF" stroke-width="3"/>
<path d="M64.0605 126L75.5 137.561" stroke="#00C2FF" stroke-width="3"/>
<path d="M75.5 102L64.0605 113.561" stroke="#00C2FF" stroke-width="3"/>
<path d="M64.0605 102L75.5 113.561" stroke="#00C2FF" stroke-width="3"/>
<path d="M305.5 50L294.061 61.5605" stroke="#038910" stroke-width="3"/>
<path d="M294.061 50L305.5 61.5605" stroke="#038910" stroke-width="3"/>
<path d="M317.5 38L306.061 49.5605" stroke="#038910" stroke-width="3"/>
<path d="M306.061 38L317.5 49.5605" stroke="#038910" stroke-width="3"/>
<path d="M329.5 26L318.061 37.5605" stroke="#00C2FF" stroke-width="3"/>
<path d="M318.061 26L329.5 37.5605" stroke="#00C2FF" stroke-width="3"/>
<path d="M341.5 14L330.061 25.5605" stroke="#00C2FF" stroke-width="3"/>
<path d="M330.061 14L341.5 25.5605" stroke="#00C2FF" stroke-width="3"/>
<path d="M329.5 2L318.061 13.5605" stroke="#00C2FF" stroke-width="3"/>
<path d="M318.061 2L329.5 13.5605" stroke="#00C2FF" stroke-width="3"/>
<path d="M353.5 26L342.061 37.5605" stroke="#00C2FF" stroke-width="3"/>
<path d="M342.061 26L353.5 37.5605" stroke="#00C2FF" stroke-width="3"/>
<path d="M353.5 2L342.061 13.5605" stroke="#00C2FF" stroke-width="3"/>
<path d="M342.061 2L353.5 13.5605" stroke="#00C2FF" stroke-width="3"/>
<path d="M305.5 78L294.061 89.5605" stroke="#038910" stroke-width="3"/>
<path d="M294.061 78L305.5 89.5605" stroke="#038910" stroke-width="3"/>
<path d="M317.5 90L306.061 101.561" stroke="#038910" stroke-width="3"/>
<path d="M306.061 90L317.5 101.561" stroke="#038910" stroke-width="3"/>
<path d="M329.5 102L318.061 113.561" stroke="#00C2FF" stroke-width="3"/>
<path d="M318.061 102L329.5 113.561" stroke="#00C2FF" stroke-width="3"/>
<path d="M341.5 114L330.061 125.561" stroke="#00C2FF" stroke-width="3"/>
<path d="M330.061 114L341.5 125.561" stroke="#00C2FF" stroke-width="3"/>
<path d="M329.5 126L318.061 137.561" stroke="#00C2FF" stroke-width="3"/>
<path d="M318.061 126L329.5 137.561" stroke="#00C2FF" stroke-width="3"/>
<path d="M353.5 126L342.061 137.561" stroke="#00C2FF" stroke-width="3"/>
<path d="M342.061 126L353.5 137.561" stroke="#00C2FF" stroke-width="3"/>
<path d="M353.5 102L342.061 113.561" stroke="#00C2FF" stroke-width="3"/>
<path d="M342.061 102L353.5 113.561" stroke="#00C2FF" stroke-width="3"/>
<path d="M97.5 50L86.0605 61.5605" stroke="#038910" stroke-width="3"/>
<path d="M86.0605 50L97.5 61.5605" stroke="#038910" stroke-width="3"/>
<path d="M109.5 38L98.0605 49.5605" stroke="#038910" stroke-width="3"/>
<path d="M98.0605 38L109.5 49.5605" stroke="#038910" stroke-width="3"/>
<path d="M121.5 26L110.061 37.5605" stroke="#00C2FF" stroke-width="3"/>
<path d="M110.061 26L121.5 37.5605" stroke="#00C2FF" stroke-width="3"/>
<path d="M133.5 14L122.061 25.5605" stroke="#00C2FF" stroke-width="3"/>
<path d="M122.061 14L133.5 25.5605" stroke="#00C2FF" stroke-width="3"/>
<path d="M121.5 2L110.061 13.5605" stroke="#00C2FF" stroke-width="3"/>
<path d="M110.061 2L121.5 13.5605" stroke="#00C2FF" stroke-width="3"/>
<path d="M145.5 26L134.061 37.5605" stroke="#00C2FF" stroke-width="3"/>
<path d="M134.061 26L145.5 37.5605" stroke="#00C2FF" stroke-width="3"/>
<path d="M145.5 2L134.061 13.5605" stroke="#00C2FF" stroke-width="3"/>
<path d="M134.061 2L145.5 13.5605" stroke="#00C2FF" stroke-width="3"/>
<path d="M97.5 78L86.0605 89.5605" stroke="#038910" stroke-width="3"/>
<path d="M86.0605 78L97.5 89.5605" stroke="#038910" stroke-width="3"/>
<path d="M109.5 90L98.0605 101.561" stroke="#038910" stroke-width="3"/>
<path d="M98.0605 90L109.5 101.561" stroke="#038910" stroke-width="3"/>
<path d="M121.5 102L110.061 113.561" stroke="#00C2FF" stroke-width="3"/>
<path d="M110.061 102L121.5 113.561" stroke="#00C2FF" stroke-width="3"/>
<path d="M133.5 114L122.061 125.561" stroke="#00C2FF" stroke-width="3"/>
<path d="M122.061 114L133.5 125.561" stroke="#00C2FF" stroke-width="3"/>
<path d="M121.5 126L110.061 137.561" stroke="#00C2FF" stroke-width="3"/>
<path d="M110.061 126L121.5 137.561" stroke="#00C2FF" stroke-width="3"/>
<path d="M145.5 126L134.061 137.561" stroke="#00C2FF" stroke-width="3"/>
<path d="M134.061 126L145.5 137.561" stroke="#00C2FF" stroke-width="3"/>
<path d="M145.5 102L134.061 113.561" stroke="#00C2FF" stroke-width="3"/>
<path d="M134.061 102L145.5 113.561" stroke="#00C2FF" stroke-width="3"/>
<path d="M236.5 50L225.061 61.5605" stroke="#038910" stroke-width="3"/>
<path d="M225.061 50L236.5 61.5605" stroke="#038910" stroke-width="3"/>
<path d="M248.5 38L237.061 49.5605" stroke="#038910" stroke-width="3"/>
<path d="M237.061 38L248.5 49.5605" stroke="#038910" stroke-width="3"/>
<path d="M260.5 26L249.061 37.5605" stroke="#00C2FF" stroke-width="3"/>
<path d="M249.061 26L260.5 37.5605" stroke="#00C2FF" stroke-width="3"/>
<path d="M272.5 14L261.061 25.5605" stroke="#00C2FF" stroke-width="3"/>
<path d="M261.061 14L272.5 25.5605" stroke="#00C2FF" stroke-width="3"/>
<path d="M260.5 2L249.061 13.5605" stroke="#00C2FF" stroke-width="3"/>
<path d="M249.061 2L260.5 13.5605" stroke="#00C2FF" stroke-width="3"/>
<path d="M284.5 26L273.061 37.5605" stroke="#00C2FF" stroke-width="3"/>
<path d="M273.061 26L284.5 37.5605" stroke="#00C2FF" stroke-width="3"/>
<path d="M284.5 2L273.061 13.5605" stroke="#00C2FF" stroke-width="3"/>
<path d="M273.061 2L284.5 13.5605" stroke="#00C2FF" stroke-width="3"/>
<path d="M236.5 78L225.061 89.5605" stroke="#038910" stroke-width="3"/>
<path d="M225.061 78L236.5 89.5605" stroke="#038910" stroke-width="3"/>
<path d="M248.5 90L237.061 101.561" stroke="#038910" stroke-width="3"/>
<path d="M237.061 90L248.5 101.561" stroke="#038910" stroke-width="3"/>
<path d="M260.5 102L249.061 113.561" stroke="#00C2FF" stroke-width="3"/>
<path d="M249.061 102L260.5 113.561" stroke="#00C2FF" stroke-width="3"/>
<path d="M272.5 114L261.061 125.561" stroke="#00C2FF" stroke-width="3"/>
<path d="M261.061 114L272.5 125.561" stroke="#00C2FF" stroke-width="3"/>
<path d="M260.5 126L249.061 137.561" stroke="#00C2FF" stroke-width="3"/>
<path d="M249.061 126L260.5 137.561" stroke="#00C2FF" stroke-width="3"/>
<path d="M284.5 126L273.061 137.561" stroke="#00C2FF" stroke-width="3"/>
<path d="M273.061 126L284.5 137.561" stroke="#00C2FF" stroke-width="3"/>
<path d="M284.5 102L273.061 113.561" stroke="#00C2FF" stroke-width="3"/>
<path d="M273.061 102L284.5 113.561" stroke="#00C2FF" stroke-width="3"/>
</svg>
