<svg width="169" height="85" viewBox="0 0 169 85" fill="none" xmlns="http://www.w3.org/2000/svg">
<path d="M27 59V29H42V32H30V41H39V44H30V56H42V59H27ZM60 65V59H45V29H48V56H51V29H54V56H57V29H60V56H63V65H60ZM66 59V29H81V32H69V41H78V44H69V56H81V59H66ZM69 26V23H72V26H69ZM75 26V23H78V26H75ZM102 41V32H105V41H102ZM90 59V29H102V32H93V41H102V44H93V59H90ZM108 59V32H111V41H120V32H123V59H120V44H111V59H108ZM111 32V29H120V32H111ZM129 59V56H138V59H129ZM126 56V53H129V56H126ZM138 56V44H141V56H138ZM132 44V41H138V44H132ZM126 35V32H129V35H126ZM138 41V32H141V41H138ZM129 32V29H138V32H129Z" fill="#FFC700"/>
<path d="M2.06055 72L13.5 83.5605" stroke="#FFC700" stroke-width="3"/>
<path d="M13.5 72L2.06055 83.5605" stroke="#FFC700" stroke-width="3"/>
<path d="M2.06055 58L13.5 69.5605" stroke="#FFC700" stroke-width="3"/>
<path d="M13.5 58L2.06055 69.5605" stroke="#FFC700" stroke-width="3"/>
<path d="M156.061 58L167.5 69.5605" stroke="#FFC700" stroke-width="3"/>
<path d="M167.5 58L156.061 69.5605" stroke="#FFC700" stroke-width="3"/>
<path d="M2.06055 44L13.5 55.5605" stroke="#FFC700" stroke-width="3"/>
<path d="M13.5 44L2.06055 55.5605" stroke="#FFC700" stroke-width="3"/>
<path d="M156.061 44L167.5 55.5605" stroke="#FFC700" stroke-width="3"/>
<path d="M167.5 44L156.061 55.5605" stroke="#FFC700" stroke-width="3"/>
<path d="M2.06055 30L13.5 41.5605" stroke="#FFC700" stroke-width="3"/>
<path d="M13.5 30L2.06055 41.5605" stroke="#FFC700" stroke-width="3"/>
<path d="M156.061 30L167.5 41.5605" stroke="#FFC700" stroke-width="3"/>
<path d="M167.5 30L156.061 41.5605" stroke="#FFC700" stroke-width="3"/>
<path d="M2.06055 16L13.5 27.5605" stroke="#FFC700" stroke-width="3"/>
<path d="M13.5 16L2.06055 27.5605" stroke="#FFC700" stroke-width="3"/>
<path d="M156.061 16L167.5 27.5605" stroke="#FFC700" stroke-width="3"/>
<path d="M167.5 16L156.061 27.5605" stroke="#FFC700" stroke-width="3"/>
<path d="M2.06055 2L13.5 13.5605" stroke="#FFC700" stroke-width="3"/>
<path d="M13.5 2L2.06055 13.5605" stroke="#FFC700" stroke-width="3"/>
<path d="M44.0605 72L55.5 83.5605" stroke="#FFC700" stroke-width="3"/>
<path d="M55.5 72L44.0605 83.5605" stroke="#FFC700" stroke-width="3"/>
<path d="M44.0605 2L55.5 13.5605" stroke="#FFC700" stroke-width="3"/>
<path d="M55.5 2L44.0605 13.5605" stroke="#FFC700" stroke-width="3"/>
<path d="M86.0605 72L97.5 83.5605" stroke="#FFC700" stroke-width="3"/>
<path d="M97.5 72L86.0605 83.5605" stroke="#FFC700" stroke-width="3"/>
<path d="M86.0605 2L97.5 13.5605" stroke="#FFC700" stroke-width="3"/>
<path d="M97.5 2L86.0605 13.5605" stroke="#FFC700" stroke-width="3"/>
<path d="M128.061 72L139.5 83.5605" stroke="#FFC700" stroke-width="3"/>
<path d="M139.5 72L128.061 83.5605" stroke="#FFC700" stroke-width="3"/>
<path d="M128.061 2L139.5 13.5605" stroke="#FFC700" stroke-width="3"/>
<path d="M139.5 2L128.061 13.5605" stroke="#FFC700" stroke-width="3"/>
<path d="M16.0605 72L27.5 83.5605" stroke="#FFC700" stroke-width="3"/>
<path d="M27.5 72L16.0605 83.5605" stroke="#FFC700" stroke-width="3"/>
<path d="M16.0605 2L27.5 13.5605" stroke="#FFC700" stroke-width="3"/>
<path d="M27.5 2L16.0605 13.5605" stroke="#FFC700" stroke-width="3"/>
<path d="M58.0605 72L69.5 83.5605" stroke="#FFC700" stroke-width="3"/>
<path d="M69.5 72L58.0605 83.5605" stroke="#FFC700" stroke-width="3"/>
<path d="M58.0605 2L69.5 13.5605" stroke="#FFC700" stroke-width="3"/>
<path d="M69.5 2L58.0605 13.5605" stroke="#FFC700" stroke-width="3"/>
<path d="M100.061 72L111.5 83.5605" stroke="#FFC700" stroke-width="3"/>
<path d="M111.5 72L100.061 83.5605" stroke="#FFC700" stroke-width="3"/>
<path d="M100.061 2L111.5 13.5605" stroke="#FFC700" stroke-width="3"/>
<path d="M111.5 2L100.061 13.5605" stroke="#FFC700" stroke-width="3"/>
<path d="M142.061 72L153.5 83.5605" stroke="#FFC700" stroke-width="3"/>
<path d="M153.5 72L142.061 83.5605" stroke="#FFC700" stroke-width="3"/>
<path d="M142.061 2L153.5 13.5605" stroke="#FFC700" stroke-width="3"/>
<path d="M153.5 2L142.061 13.5605" stroke="#FFC700" stroke-width="3"/>
<path d="M30.0605 72L41.5 83.5605" stroke="#FFC700" stroke-width="3"/>
<path d="M41.5 72L30.0605 83.5605" stroke="#FFC700" stroke-width="3"/>
<path d="M30.0605 2L41.5 13.5605" stroke="#FFC700" stroke-width="3"/>
<path d="M41.5 2L30.0605 13.5605" stroke="#FFC700" stroke-width="3"/>
<path d="M72.0605 72L83.5 83.5605" stroke="#FFC700" stroke-width="3"/>
<path d="M83.5 72L72.0605 83.5605" stroke="#FFC700" stroke-width="3"/>
<path d="M72.0605 2L83.5 13.5605" stroke="#FFC700" stroke-width="3"/>
<path d="M83.5 2L72.0605 13.5605" stroke="#FFC700" stroke-width="3"/>
<path d="M114.061 72L125.5 83.5605" stroke="#FFC700" stroke-width="3"/>
<path d="M125.5 72L114.061 83.5605" stroke="#FFC700" stroke-width="3"/>
<path d="M114.061 2L125.5 13.5605" stroke="#FFC700" stroke-width="3"/>
<path d="M125.5 2L114.061 13.5605" stroke="#FFC700" stroke-width="3"/>
<path d="M156.061 72L167.5 83.5605" stroke="#FFC700" stroke-width="3"/>
<path d="M167.5 72L156.061 83.5605" stroke="#FFC700" stroke-width="3"/>
<path d="M156.061 2L167.5 13.5605" stroke="#FFC700" stroke-width="3"/>
<path d="M167.5 2L156.061 13.5605" stroke="#FFC700" stroke-width="3"/>
</svg>
