<svg width="476" height="197" viewBox="0 0 476 197" fill="none" xmlns="http://www.w3.org/2000/svg">
<path d="M16.0605 128L27.5 139.561" stroke="#FFC700" stroke-width="3"/>
<path d="M27.5 128L16.0605 139.561" stroke="#FFC700" stroke-width="3"/>
<path d="M449.061 128L460.5 139.561" stroke="#FFC700" stroke-width="3"/>
<path d="M460.5 128L449.061 139.561" stroke="#FFC700" stroke-width="3"/>
<path d="M463.061 128L474.5 139.561" stroke="#FFC700" stroke-width="3"/>
<path d="M474.5 128L463.061 139.561" stroke="#FFC700" stroke-width="3"/>
<path d="M2.06055 128L13.5 139.561" stroke="#FFC700" stroke-width="3"/>
<path d="M13.5 128L2.06055 139.561" stroke="#FFC700" stroke-width="3"/>
<path d="M16.0605 86L27.5 97.5605" stroke="#FFC700" stroke-width="3"/>
<path d="M27.5 86L16.0605 97.5605" stroke="#FFC700" stroke-width="3"/>
<path d="M449.061 86L460.5 97.5605" stroke="#FFC700" stroke-width="3"/>
<path d="M460.5 86L449.061 97.5605" stroke="#FFC700" stroke-width="3"/>
<path d="M463.061 86L474.5 97.5605" stroke="#FFC700" stroke-width="3"/>
<path d="M474.5 86L463.061 97.5605" stroke="#FFC700" stroke-width="3"/>
<path d="M2.06055 86L13.5 97.5605" stroke="#FFC700" stroke-width="3"/>
<path d="M13.5 86L2.06055 97.5605" stroke="#FFC700" stroke-width="3"/>
<path d="M16.0605 44L27.5 55.5605" stroke="#FFC700" stroke-width="3"/>
<path d="M27.5 44L16.0605 55.5605" stroke="#FFC700" stroke-width="3"/>
<path d="M449.061 44L460.5 55.5605" stroke="#FFC700" stroke-width="3"/>
<path d="M460.5 44L449.061 55.5605" stroke="#FFC700" stroke-width="3"/>
<path d="M449.061 44L460.5 55.5605" stroke="#FFC700" stroke-width="3"/>
<path d="M460.5 44L449.061 55.5605" stroke="#FFC700" stroke-width="3"/>
<path d="M463.061 44L474.5 55.5605" stroke="#FFC700" stroke-width="3"/>
<path d="M474.5 44L463.061 55.5605" stroke="#FFC700" stroke-width="3"/>
<path d="M2.06055 44L13.5 55.5605" stroke="#FFC700" stroke-width="3"/>
<path d="M13.5 44L2.06055 55.5605" stroke="#FFC700" stroke-width="3"/>
<path d="M16.0605 156L27.5 167.561" stroke="#FFC700" stroke-width="3"/>
<path d="M27.5 156L16.0605 167.561" stroke="#FFC700" stroke-width="3"/>
<path d="M2.06055 156L13.5 167.561" stroke="#FFC700" stroke-width="3"/>
<path d="M13.5 156L2.06055 167.561" stroke="#FFC700" stroke-width="3"/>
<path d="M30.0605 184L41.5 195.561" stroke="#FFC700" stroke-width="3"/>
<path d="M41.5 184L30.0605 195.561" stroke="#FFC700" stroke-width="3"/>
<path d="M449.061 156L460.5 167.561" stroke="#FFC700" stroke-width="3"/>
<path d="M460.5 156L449.061 167.561" stroke="#FFC700" stroke-width="3"/>
<path d="M16.0605 114L27.5 125.561" stroke="#FFC700" stroke-width="3"/>
<path d="M27.5 114L16.0605 125.561" stroke="#FFC700" stroke-width="3"/>
<path d="M449.061 114L460.5 125.561" stroke="#FFC700" stroke-width="3"/>
<path d="M460.5 114L449.061 125.561" stroke="#FFC700" stroke-width="3"/>
<path d="M463.061 114L474.5 125.561" stroke="#FFC700" stroke-width="3"/>
<path d="M474.5 114L463.061 125.561" stroke="#FFC700" stroke-width="3"/>
<path d="M2.06055 114L13.5 125.561" stroke="#FFC700" stroke-width="3"/>
<path d="M13.5 114L2.06055 125.561" stroke="#FFC700" stroke-width="3"/>
<path d="M16.0605 72L27.5 83.5605" stroke="#FFC700" stroke-width="3"/>
<path d="M27.5 72L16.0605 83.5605" stroke="#FFC700" stroke-width="3"/>
<path d="M449.061 72L460.5 83.5605" stroke="#FFC700" stroke-width="3"/>
<path d="M460.5 72L449.061 83.5605" stroke="#FFC700" stroke-width="3"/>
<path d="M463.061 72L474.5 83.5605" stroke="#FFC700" stroke-width="3"/>
<path d="M474.5 72L463.061 83.5605" stroke="#FFC700" stroke-width="3"/>
<path d="M2.06055 72L13.5 83.5605" stroke="#FFC700" stroke-width="3"/>
<path d="M13.5 72L2.06055 83.5605" stroke="#FFC700" stroke-width="3"/>
<path d="M16.0605 30L27.5 41.5605" stroke="#FFC700" stroke-width="3"/>
<path d="M27.5 30L16.0605 41.5605" stroke="#FFC700" stroke-width="3"/>
<path d="M16.0605 16L27.5 27.5605" stroke="#FFC700" stroke-width="3"/>
<path d="M27.5 16L16.0605 27.5605" stroke="#FFC700" stroke-width="3"/>
<path d="M16.0605 2L27.5 13.5605" stroke="#FFC700" stroke-width="3"/>
<path d="M27.5 2L16.0605 13.5605" stroke="#FFC700" stroke-width="3"/>
<path d="M2.06055 16L13.5 27.5605" stroke="#FFC700" stroke-width="3"/>
<path d="M13.5 16L2.06055 27.5605" stroke="#FFC700" stroke-width="3"/>
<path d="M2.06055 2L13.5 13.5605" stroke="#FFC700" stroke-width="3"/>
<path d="M13.5 2L2.06055 13.5605" stroke="#FFC700" stroke-width="3"/>
<path d="M30.0605 2L41.5 13.5605" stroke="#FFC700" stroke-width="3"/>
<path d="M41.5 2L30.0605 13.5605" stroke="#FFC700" stroke-width="3"/>
<path d="M2.06055 30L13.5 41.5605" stroke="#FFC700" stroke-width="3"/>
<path d="M13.5 30L2.06055 41.5605" stroke="#FFC700" stroke-width="3"/>
<path d="M449.061 30L460.5 41.5605" stroke="#FFC700" stroke-width="3"/>
<path d="M460.5 30L449.061 41.5605" stroke="#FFC700" stroke-width="3"/>
<path d="M463.061 30L474.5 41.5605" stroke="#FFC700" stroke-width="3"/>
<path d="M474.5 30L463.061 41.5605" stroke="#FFC700" stroke-width="3"/>
<path d="M16.0605 142L27.5 153.561" stroke="#FFC700" stroke-width="3"/>
<path d="M27.5 142L16.0605 153.561" stroke="#FFC700" stroke-width="3"/>
<path d="M449.061 142L460.5 153.561" stroke="#FFC700" stroke-width="3"/>
<path d="M460.5 142L449.061 153.561" stroke="#FFC700" stroke-width="3"/>
<path d="M463.061 142L474.5 153.561" stroke="#FFC700" stroke-width="3"/>
<path d="M474.5 142L463.061 153.561" stroke="#FFC700" stroke-width="3"/>
<path d="M2.06055 142L13.5 153.561" stroke="#FFC700" stroke-width="3"/>
<path d="M13.5 142L2.06055 153.561" stroke="#FFC700" stroke-width="3"/>
<path d="M16.0605 100L27.5 111.561" stroke="#FFC700" stroke-width="3"/>
<path d="M27.5 100L16.0605 111.561" stroke="#FFC700" stroke-width="3"/>
<path d="M449.061 100L460.5 111.561" stroke="#FFC700" stroke-width="3"/>
<path d="M460.5 100L449.061 111.561" stroke="#FFC700" stroke-width="3"/>
<path d="M463.061 100L474.5 111.561" stroke="#FFC700" stroke-width="3"/>
<path d="M474.5 100L463.061 111.561" stroke="#FFC700" stroke-width="3"/>
<path d="M2.06055 100L13.5 111.561" stroke="#FFC700" stroke-width="3"/>
<path d="M13.5 100L2.06055 111.561" stroke="#FFC700" stroke-width="3"/>
<path d="M16.0605 58L27.5 69.5605" stroke="#FFC700" stroke-width="3"/>
<path d="M27.5 58L16.0605 69.5605" stroke="#FFC700" stroke-width="3"/>
<path d="M449.061 58L460.5 69.5605" stroke="#FFC700" stroke-width="3"/>
<path d="M460.5 58L449.061 69.5605" stroke="#FFC700" stroke-width="3"/>
<path d="M463.061 58L474.5 69.5605" stroke="#FFC700" stroke-width="3"/>
<path d="M474.5 58L463.061 69.5605" stroke="#FFC700" stroke-width="3"/>
<path d="M2.06055 58L13.5 69.5605" stroke="#FFC700" stroke-width="3"/>
<path d="M13.5 58L2.06055 69.5605" stroke="#FFC700" stroke-width="3"/>
<path d="M71.0605 170L82.5 181.561" stroke="#FFC700" stroke-width="3"/>
<path d="M82.5 170L71.0605 181.561" stroke="#FFC700" stroke-width="3"/>
<path d="M71.0605 16L82.5 27.5605" stroke="#FFC700" stroke-width="3"/>
<path d="M82.5 16L71.0605 27.5605" stroke="#FFC700" stroke-width="3"/>
<path d="M71.0605 2L82.5 13.5605" stroke="#FFC700" stroke-width="3"/>
<path d="M82.5 2L71.0605 13.5605" stroke="#FFC700" stroke-width="3"/>
<path d="M71.0605 184L82.5 195.561" stroke="#FFC700" stroke-width="3"/>
<path d="M82.5 184L71.0605 195.561" stroke="#FFC700" stroke-width="3"/>
<path d="M113.061 170L124.5 181.561" stroke="#FFC700" stroke-width="3"/>
<path d="M124.5 170L113.061 181.561" stroke="#FFC700" stroke-width="3"/>
<path d="M113.061 16L124.5 27.5605" stroke="#FFC700" stroke-width="3"/>
<path d="M124.5 16L113.061 27.5605" stroke="#FFC700" stroke-width="3"/>
<path d="M113.061 2L124.5 13.5605" stroke="#FFC700" stroke-width="3"/>
<path d="M124.5 2L113.061 13.5605" stroke="#FFC700" stroke-width="3"/>
<path d="M113.061 184L124.5 195.561" stroke="#FFC700" stroke-width="3"/>
<path d="M124.5 184L113.061 195.561" stroke="#FFC700" stroke-width="3"/>
<path d="M155.061 170L166.5 181.561" stroke="#FFC700" stroke-width="3"/>
<path d="M166.5 170L155.061 181.561" stroke="#FFC700" stroke-width="3"/>
<path d="M155.061 16L166.5 27.5605" stroke="#FFC700" stroke-width="3"/>
<path d="M166.5 16L155.061 27.5605" stroke="#FFC700" stroke-width="3"/>
<path d="M155.061 2L166.5 13.5605" stroke="#FFC700" stroke-width="3"/>
<path d="M166.5 2L155.061 13.5605" stroke="#FFC700" stroke-width="3"/>
<path d="M155.061 184L166.5 195.561" stroke="#FFC700" stroke-width="3"/>
<path d="M166.5 184L155.061 195.561" stroke="#FFC700" stroke-width="3"/>
<path d="M197.061 170L208.5 181.561" stroke="#FFC700" stroke-width="3"/>
<path d="M208.5 170L197.061 181.561" stroke="#FFC700" stroke-width="3"/>
<path d="M197.061 16L208.5 27.5605" stroke="#FFC700" stroke-width="3"/>
<path d="M208.5 16L197.061 27.5605" stroke="#FFC700" stroke-width="3"/>
<path d="M197.061 2L208.5 13.5605" stroke="#FFC700" stroke-width="3"/>
<path d="M208.5 2L197.061 13.5605" stroke="#FFC700" stroke-width="3"/>
<path d="M197.061 184L208.5 195.561" stroke="#FFC700" stroke-width="3"/>
<path d="M208.5 184L197.061 195.561" stroke="#FFC700" stroke-width="3"/>
<path d="M239.061 170L250.5 181.561" stroke="#FFC700" stroke-width="3"/>
<path d="M250.5 170L239.061 181.561" stroke="#FFC700" stroke-width="3"/>
<path d="M239.061 16L250.5 27.5605" stroke="#FFC700" stroke-width="3"/>
<path d="M250.5 16L239.061 27.5605" stroke="#FFC700" stroke-width="3"/>
<path d="M239.061 2L250.5 13.5605" stroke="#FFC700" stroke-width="3"/>
<path d="M250.5 2L239.061 13.5605" stroke="#FFC700" stroke-width="3"/>
<path d="M239.061 184L250.5 195.561" stroke="#FFC700" stroke-width="3"/>
<path d="M250.5 184L239.061 195.561" stroke="#FFC700" stroke-width="3"/>
<path d="M281.061 170L292.5 181.561" stroke="#FFC700" stroke-width="3"/>
<path d="M292.5 170L281.061 181.561" stroke="#FFC700" stroke-width="3"/>
<path d="M281.061 16L292.5 27.5605" stroke="#FFC700" stroke-width="3"/>
<path d="M292.5 16L281.061 27.5605" stroke="#FFC700" stroke-width="3"/>
<path d="M281.061 2L292.5 13.5605" stroke="#FFC700" stroke-width="3"/>
<path d="M292.5 2L281.061 13.5605" stroke="#FFC700" stroke-width="3"/>
<path d="M281.061 184L292.5 195.561" stroke="#FFC700" stroke-width="3"/>
<path d="M292.5 184L281.061 195.561" stroke="#FFC700" stroke-width="3"/>
<path d="M323.061 170L334.5 181.561" stroke="#FFC700" stroke-width="3"/>
<path d="M334.5 170L323.061 181.561" stroke="#FFC700" stroke-width="3"/>
<path d="M323.061 16L334.5 27.5605" stroke="#FFC700" stroke-width="3"/>
<path d="M334.5 16L323.061 27.5605" stroke="#FFC700" stroke-width="3"/>
<path d="M323.061 2L334.5 13.5605" stroke="#FFC700" stroke-width="3"/>
<path d="M334.5 2L323.061 13.5605" stroke="#FFC700" stroke-width="3"/>
<path d="M323.061 184L334.5 195.561" stroke="#FFC700" stroke-width="3"/>
<path d="M334.5 184L323.061 195.561" stroke="#FFC700" stroke-width="3"/>
<path d="M365.061 170L376.5 181.561" stroke="#FFC700" stroke-width="3"/>
<path d="M376.5 170L365.061 181.561" stroke="#FFC700" stroke-width="3"/>
<path d="M365.061 16L376.5 27.5605" stroke="#FFC700" stroke-width="3"/>
<path d="M376.5 16L365.061 27.5605" stroke="#FFC700" stroke-width="3"/>
<path d="M365.061 2L376.5 13.5605" stroke="#FFC700" stroke-width="3"/>
<path d="M376.5 2L365.061 13.5605" stroke="#FFC700" stroke-width="3"/>
<path d="M365.061 184L376.5 195.561" stroke="#FFC700" stroke-width="3"/>
<path d="M376.5 184L365.061 195.561" stroke="#FFC700" stroke-width="3"/>
<path d="M407.061 170L418.5 181.561" stroke="#FFC700" stroke-width="3"/>
<path d="M418.5 170L407.061 181.561" stroke="#FFC700" stroke-width="3"/>
<path d="M407.061 16L418.5 27.5605" stroke="#FFC700" stroke-width="3"/>
<path d="M418.5 16L407.061 27.5605" stroke="#FFC700" stroke-width="3"/>
<path d="M407.061 2L418.5 13.5605" stroke="#FFC700" stroke-width="3"/>
<path d="M418.5 2L407.061 13.5605" stroke="#FFC700" stroke-width="3"/>
<path d="M407.061 184L418.5 195.561" stroke="#FFC700" stroke-width="3"/>
<path d="M418.5 184L407.061 195.561" stroke="#FFC700" stroke-width="3"/>
<path d="M85.0605 170L96.5 181.561" stroke="#FFC700" stroke-width="3"/>
<path d="M96.5 170L85.0605 181.561" stroke="#FFC700" stroke-width="3"/>
<path d="M85.0605 16L96.5 27.5605" stroke="#FFC700" stroke-width="3"/>
<path d="M96.5 16L85.0605 27.5605" stroke="#FFC700" stroke-width="3"/>
<path d="M85.0605 2L96.5 13.5605" stroke="#FFC700" stroke-width="3"/>
<path d="M96.5 2L85.0605 13.5605" stroke="#FFC700" stroke-width="3"/>
<path d="M85.0605 184L96.5 195.561" stroke="#FFC700" stroke-width="3"/>
<path d="M96.5 184L85.0605 195.561" stroke="#FFC700" stroke-width="3"/>
<path d="M30.0605 170L41.5 181.561" stroke="#FFC700" stroke-width="3"/>
<path d="M41.5 170L30.0605 181.561" stroke="#FFC700" stroke-width="3"/>
<path d="M16.0605 170L27.5 181.561" stroke="#FFC700" stroke-width="3"/>
<path d="M27.5 170L16.0605 181.561" stroke="#FFC700" stroke-width="3"/>
<path d="M16.0605 184L27.5 195.561" stroke="#FFC700" stroke-width="3"/>
<path d="M27.5 184L16.0605 195.561" stroke="#FFC700" stroke-width="3"/>
<path d="M2.06055 184L13.5 195.561" stroke="#FFC700" stroke-width="3"/>
<path d="M13.5 184L2.06055 195.561" stroke="#FFC700" stroke-width="3"/>
<path d="M2.06055 170L13.5 181.561" stroke="#FFC700" stroke-width="3"/>
<path d="M13.5 170L2.06055 181.561" stroke="#FFC700" stroke-width="3"/>
<path d="M30.0605 16L41.5 27.5605" stroke="#FFC700" stroke-width="3"/>
<path d="M41.5 16L30.0605 27.5605" stroke="#FFC700" stroke-width="3"/>
<path d="M30.0605 2L41.5 13.5605" stroke="#FFC700" stroke-width="3"/>
<path d="M41.5 2L30.0605 13.5605" stroke="#FFC700" stroke-width="3"/>
<path d="M30.0605 184L41.5 195.561" stroke="#FFC700" stroke-width="3"/>
<path d="M41.5 184L30.0605 195.561" stroke="#FFC700" stroke-width="3"/>
<path d="M99.0605 170L110.5 181.561" stroke="#FFC700" stroke-width="3"/>
<path d="M110.5 170L99.0605 181.561" stroke="#FFC700" stroke-width="3"/>
<path d="M99.0605 16L110.5 27.5605" stroke="#FFC700" stroke-width="3"/>
<path d="M110.5 16L99.0605 27.5605" stroke="#FFC700" stroke-width="3"/>
<path d="M99.0605 2L110.5 13.5605" stroke="#FFC700" stroke-width="3"/>
<path d="M110.5 2L99.0605 13.5605" stroke="#FFC700" stroke-width="3"/>
<path d="M99.0605 184L110.5 195.561" stroke="#FFC700" stroke-width="3"/>
<path d="M110.5 184L99.0605 195.561" stroke="#FFC700" stroke-width="3"/>
<path d="M127.061 170L138.5 181.561" stroke="#FFC700" stroke-width="3"/>
<path d="M138.5 170L127.061 181.561" stroke="#FFC700" stroke-width="3"/>
<path d="M127.061 16L138.5 27.5605" stroke="#FFC700" stroke-width="3"/>
<path d="M138.5 16L127.061 27.5605" stroke="#FFC700" stroke-width="3"/>
<path d="M127.061 2L138.5 13.5605" stroke="#FFC700" stroke-width="3"/>
<path d="M138.5 2L127.061 13.5605" stroke="#FFC700" stroke-width="3"/>
<path d="M127.061 184L138.5 195.561" stroke="#FFC700" stroke-width="3"/>
<path d="M138.5 184L127.061 195.561" stroke="#FFC700" stroke-width="3"/>
<path d="M169.061 170L180.5 181.561" stroke="#FFC700" stroke-width="3"/>
<path d="M180.5 170L169.061 181.561" stroke="#FFC700" stroke-width="3"/>
<path d="M169.061 16L180.5 27.5605" stroke="#FFC700" stroke-width="3"/>
<path d="M180.5 16L169.061 27.5605" stroke="#FFC700" stroke-width="3"/>
<path d="M169.061 2L180.5 13.5605" stroke="#FFC700" stroke-width="3"/>
<path d="M180.5 2L169.061 13.5605" stroke="#FFC700" stroke-width="3"/>
<path d="M169.061 184L180.5 195.561" stroke="#FFC700" stroke-width="3"/>
<path d="M180.5 184L169.061 195.561" stroke="#FFC700" stroke-width="3"/>
<path d="M211.061 170L222.5 181.561" stroke="#FFC700" stroke-width="3"/>
<path d="M222.5 170L211.061 181.561" stroke="#FFC700" stroke-width="3"/>
<path d="M211.061 16L222.5 27.5605" stroke="#FFC700" stroke-width="3"/>
<path d="M222.5 16L211.061 27.5605" stroke="#FFC700" stroke-width="3"/>
<path d="M211.061 2L222.5 13.5605" stroke="#FFC700" stroke-width="3"/>
<path d="M222.5 2L211.061 13.5605" stroke="#FFC700" stroke-width="3"/>
<path d="M211.061 184L222.5 195.561" stroke="#FFC700" stroke-width="3"/>
<path d="M222.5 184L211.061 195.561" stroke="#FFC700" stroke-width="3"/>
<path d="M253.061 170L264.5 181.561" stroke="#FFC700" stroke-width="3"/>
<path d="M264.5 170L253.061 181.561" stroke="#FFC700" stroke-width="3"/>
<path d="M253.061 16L264.5 27.5605" stroke="#FFC700" stroke-width="3"/>
<path d="M264.5 16L253.061 27.5605" stroke="#FFC700" stroke-width="3"/>
<path d="M253.061 2L264.5 13.5605" stroke="#FFC700" stroke-width="3"/>
<path d="M264.5 2L253.061 13.5605" stroke="#FFC700" stroke-width="3"/>
<path d="M253.061 184L264.5 195.561" stroke="#FFC700" stroke-width="3"/>
<path d="M264.5 184L253.061 195.561" stroke="#FFC700" stroke-width="3"/>
<path d="M295.061 170L306.5 181.561" stroke="#FFC700" stroke-width="3"/>
<path d="M306.5 170L295.061 181.561" stroke="#FFC700" stroke-width="3"/>
<path d="M295.061 16L306.5 27.5605" stroke="#FFC700" stroke-width="3"/>
<path d="M306.5 16L295.061 27.5605" stroke="#FFC700" stroke-width="3"/>
<path d="M295.061 2L306.5 13.5605" stroke="#FFC700" stroke-width="3"/>
<path d="M306.5 2L295.061 13.5605" stroke="#FFC700" stroke-width="3"/>
<path d="M295.061 184L306.5 195.561" stroke="#FFC700" stroke-width="3"/>
<path d="M306.5 184L295.061 195.561" stroke="#FFC700" stroke-width="3"/>
<path d="M337.061 170L348.5 181.561" stroke="#FFC700" stroke-width="3"/>
<path d="M348.5 170L337.061 181.561" stroke="#FFC700" stroke-width="3"/>
<path d="M337.061 16L348.5 27.5605" stroke="#FFC700" stroke-width="3"/>
<path d="M348.5 16L337.061 27.5605" stroke="#FFC700" stroke-width="3"/>
<path d="M337.061 2L348.5 13.5605" stroke="#FFC700" stroke-width="3"/>
<path d="M348.5 2L337.061 13.5605" stroke="#FFC700" stroke-width="3"/>
<path d="M337.061 184L348.5 195.561" stroke="#FFC700" stroke-width="3"/>
<path d="M348.5 184L337.061 195.561" stroke="#FFC700" stroke-width="3"/>
<path d="M379.061 170L390.5 181.561" stroke="#FFC700" stroke-width="3"/>
<path d="M390.5 170L379.061 181.561" stroke="#FFC700" stroke-width="3"/>
<path d="M379.061 16L390.5 27.5605" stroke="#FFC700" stroke-width="3"/>
<path d="M390.5 16L379.061 27.5605" stroke="#FFC700" stroke-width="3"/>
<path d="M379.061 2L390.5 13.5605" stroke="#FFC700" stroke-width="3"/>
<path d="M390.5 2L379.061 13.5605" stroke="#FFC700" stroke-width="3"/>
<path d="M379.061 184L390.5 195.561" stroke="#FFC700" stroke-width="3"/>
<path d="M390.5 184L379.061 195.561" stroke="#FFC700" stroke-width="3"/>
<path d="M421.061 170L432.5 181.561" stroke="#FFC700" stroke-width="3"/>
<path d="M432.5 170L421.061 181.561" stroke="#FFC700" stroke-width="3"/>
<path d="M421.061 16L432.5 27.5605" stroke="#FFC700" stroke-width="3"/>
<path d="M432.5 16L421.061 27.5605" stroke="#FFC700" stroke-width="3"/>
<path d="M421.061 2L432.5 13.5605" stroke="#FFC700" stroke-width="3"/>
<path d="M432.5 2L421.061 13.5605" stroke="#FFC700" stroke-width="3"/>
<path d="M421.061 184L432.5 195.561" stroke="#FFC700" stroke-width="3"/>
<path d="M432.5 184L421.061 195.561" stroke="#FFC700" stroke-width="3"/>
<path d="M44.0605 170L55.5 181.561" stroke="#FFC700" stroke-width="3"/>
<path d="M55.5 170L44.0605 181.561" stroke="#FFC700" stroke-width="3"/>
<path d="M44.0605 16L55.5 27.5605" stroke="#FFC700" stroke-width="3"/>
<path d="M55.5 16L44.0605 27.5605" stroke="#FFC700" stroke-width="3"/>
<path d="M44.0605 2L55.5 13.5605" stroke="#FFC700" stroke-width="3"/>
<path d="M55.5 2L44.0605 13.5605" stroke="#FFC700" stroke-width="3"/>
<path d="M44.0605 184L55.5 195.561" stroke="#FFC700" stroke-width="3"/>
<path d="M55.5 184L44.0605 195.561" stroke="#FFC700" stroke-width="3"/>
<path d="M141.061 170L152.5 181.561" stroke="#FFC700" stroke-width="3"/>
<path d="M152.5 170L141.061 181.561" stroke="#FFC700" stroke-width="3"/>
<path d="M141.061 16L152.5 27.5605" stroke="#FFC700" stroke-width="3"/>
<path d="M152.5 16L141.061 27.5605" stroke="#FFC700" stroke-width="3"/>
<path d="M141.061 2L152.5 13.5605" stroke="#FFC700" stroke-width="3"/>
<path d="M152.5 2L141.061 13.5605" stroke="#FFC700" stroke-width="3"/>
<path d="M141.061 184L152.5 195.561" stroke="#FFC700" stroke-width="3"/>
<path d="M152.5 184L141.061 195.561" stroke="#FFC700" stroke-width="3"/>
<path d="M183.061 170L194.5 181.561" stroke="#FFC700" stroke-width="3"/>
<path d="M194.5 170L183.061 181.561" stroke="#FFC700" stroke-width="3"/>
<path d="M183.061 16L194.5 27.5605" stroke="#FFC700" stroke-width="3"/>
<path d="M194.5 16L183.061 27.5605" stroke="#FFC700" stroke-width="3"/>
<path d="M183.061 2L194.5 13.5605" stroke="#FFC700" stroke-width="3"/>
<path d="M194.5 2L183.061 13.5605" stroke="#FFC700" stroke-width="3"/>
<path d="M183.061 184L194.5 195.561" stroke="#FFC700" stroke-width="3"/>
<path d="M194.5 184L183.061 195.561" stroke="#FFC700" stroke-width="3"/>
<path d="M225.061 170L236.5 181.561" stroke="#FFC700" stroke-width="3"/>
<path d="M236.5 170L225.061 181.561" stroke="#FFC700" stroke-width="3"/>
<path d="M225.061 16L236.5 27.5605" stroke="#FFC700" stroke-width="3"/>
<path d="M236.5 16L225.061 27.5605" stroke="#FFC700" stroke-width="3"/>
<path d="M225.061 2L236.5 13.5605" stroke="#FFC700" stroke-width="3"/>
<path d="M236.5 2L225.061 13.5605" stroke="#FFC700" stroke-width="3"/>
<path d="M225.061 184L236.5 195.561" stroke="#FFC700" stroke-width="3"/>
<path d="M236.5 184L225.061 195.561" stroke="#FFC700" stroke-width="3"/>
<path d="M267.061 170L278.5 181.561" stroke="#FFC700" stroke-width="3"/>
<path d="M278.5 170L267.061 181.561" stroke="#FFC700" stroke-width="3"/>
<path d="M267.061 16L278.5 27.5605" stroke="#FFC700" stroke-width="3"/>
<path d="M278.5 16L267.061 27.5605" stroke="#FFC700" stroke-width="3"/>
<path d="M267.061 2L278.5 13.5605" stroke="#FFC700" stroke-width="3"/>
<path d="M278.5 2L267.061 13.5605" stroke="#FFC700" stroke-width="3"/>
<path d="M267.061 184L278.5 195.561" stroke="#FFC700" stroke-width="3"/>
<path d="M278.5 184L267.061 195.561" stroke="#FFC700" stroke-width="3"/>
<path d="M309.061 170L320.5 181.561" stroke="#FFC700" stroke-width="3"/>
<path d="M320.5 170L309.061 181.561" stroke="#FFC700" stroke-width="3"/>
<path d="M309.061 16L320.5 27.5605" stroke="#FFC700" stroke-width="3"/>
<path d="M320.5 16L309.061 27.5605" stroke="#FFC700" stroke-width="3"/>
<path d="M309.061 2L320.5 13.5605" stroke="#FFC700" stroke-width="3"/>
<path d="M320.5 2L309.061 13.5605" stroke="#FFC700" stroke-width="3"/>
<path d="M309.061 184L320.5 195.561" stroke="#FFC700" stroke-width="3"/>
<path d="M320.5 184L309.061 195.561" stroke="#FFC700" stroke-width="3"/>
<path d="M351.061 170L362.5 181.561" stroke="#FFC700" stroke-width="3"/>
<path d="M362.5 170L351.061 181.561" stroke="#FFC700" stroke-width="3"/>
<path d="M351.061 16L362.5 27.5605" stroke="#FFC700" stroke-width="3"/>
<path d="M362.5 16L351.061 27.5605" stroke="#FFC700" stroke-width="3"/>
<path d="M351.061 2L362.5 13.5605" stroke="#FFC700" stroke-width="3"/>
<path d="M362.5 2L351.061 13.5605" stroke="#FFC700" stroke-width="3"/>
<path d="M351.061 184L362.5 195.561" stroke="#FFC700" stroke-width="3"/>
<path d="M362.5 184L351.061 195.561" stroke="#FFC700" stroke-width="3"/>
<path d="M393.061 170L404.5 181.561" stroke="#FFC700" stroke-width="3"/>
<path d="M404.5 170L393.061 181.561" stroke="#FFC700" stroke-width="3"/>
<path d="M393.061 16L404.5 27.5605" stroke="#FFC700" stroke-width="3"/>
<path d="M404.5 16L393.061 27.5605" stroke="#FFC700" stroke-width="3"/>
<path d="M393.061 2L404.5 13.5605" stroke="#FFC700" stroke-width="3"/>
<path d="M404.5 2L393.061 13.5605" stroke="#FFC700" stroke-width="3"/>
<path d="M393.061 184L404.5 195.561" stroke="#FFC700" stroke-width="3"/>
<path d="M404.5 184L393.061 195.561" stroke="#FFC700" stroke-width="3"/>
<path d="M435.061 170L446.5 181.561" stroke="#FFC700" stroke-width="3"/>
<path d="M446.5 170L435.061 181.561" stroke="#FFC700" stroke-width="3"/>
<path d="M449.061 170L460.5 181.561" stroke="#FFC700" stroke-width="3"/>
<path d="M460.5 170L449.061 181.561" stroke="#FFC700" stroke-width="3"/>
<path d="M449.061 184L460.5 195.561" stroke="#FFC700" stroke-width="3"/>
<path d="M460.5 184L449.061 195.561" stroke="#FFC700" stroke-width="3"/>
<path d="M435.061 184L446.5 195.561" stroke="#FFC700" stroke-width="3"/>
<path d="M446.5 184L435.061 195.561" stroke="#FFC700" stroke-width="3"/>
<path d="M463.061 156L474.5 167.561" stroke="#FFC700" stroke-width="3"/>
<path d="M474.5 156L463.061 167.561" stroke="#FFC700" stroke-width="3"/>
<path d="M435.061 16L446.5 27.5605" stroke="#FFC700" stroke-width="3"/>
<path d="M446.5 16L435.061 27.5605" stroke="#FFC700" stroke-width="3"/>
<path d="M449.061 16L460.5 27.5605" stroke="#FFC700" stroke-width="3"/>
<path d="M460.5 16L449.061 27.5605" stroke="#FFC700" stroke-width="3"/>
<path d="M449.061 2L460.5 13.5605" stroke="#FFC700" stroke-width="3"/>
<path d="M460.5 2L449.061 13.5605" stroke="#FFC700" stroke-width="3"/>
<path d="M463.061 16L474.5 27.5605" stroke="#FFC700" stroke-width="3"/>
<path d="M474.5 16L463.061 27.5605" stroke="#FFC700" stroke-width="3"/>
<path d="M463.061 2L474.5 13.5605" stroke="#FFC700" stroke-width="3"/>
<path d="M474.5 2L463.061 13.5605" stroke="#FFC700" stroke-width="3"/>
<path d="M463.061 170L474.5 181.561" stroke="#FFC700" stroke-width="3"/>
<path d="M474.5 170L463.061 181.561" stroke="#FFC700" stroke-width="3"/>
<path d="M463.061 184L474.5 195.561" stroke="#FFC700" stroke-width="3"/>
<path d="M474.5 184L463.061 195.561" stroke="#FFC700" stroke-width="3"/>
<path d="M435.061 2L446.5 13.5605" stroke="#FFC700" stroke-width="3"/>
<path d="M446.5 2L435.061 13.5605" stroke="#FFC700" stroke-width="3"/>
<path d="M58.0605 170L69.5 181.561" stroke="#FFC700" stroke-width="3"/>
<path d="M69.5 170L58.0605 181.561" stroke="#FFC700" stroke-width="3"/>
<path d="M58.0605 16L69.5 27.5605" stroke="#FFC700" stroke-width="3"/>
<path d="M69.5 16L58.0605 27.5605" stroke="#FFC700" stroke-width="3"/>
<path d="M58.0605 2L69.5 13.5605" stroke="#FFC700" stroke-width="3"/>
<path d="M69.5 2L58.0605 13.5605" stroke="#FFC700" stroke-width="3"/>
<path d="M58.0605 184L69.5 195.561" stroke="#FFC700" stroke-width="3"/>
<path d="M69.5 184L58.0605 195.561" stroke="#FFC700" stroke-width="3"/>
<path d="M49 76V72H51V76H49ZM47 72V68H49V72H47ZM47 64V60H49V64H47ZM41 76V56H43V66H45V64H47V68H43V76H41ZM49 60V56H51V60H49ZM54.76 76V74H56.76V76H54.76ZM62.76 76V58H58.76V74H56.76V56H64.76V76H62.76ZM72.52 68V64H74.52V68H72.52ZM68.52 76V56H70.52V68H72.52V72H70.52V76H68.52ZM76.52 76V64H74.52V60H76.52V56H78.52V76H76.52ZM90.28 76V72H92.28V76H90.28ZM88.28 72V68H90.28V72H88.28ZM88.28 64V60H90.28V64H88.28ZM82.28 76V56H84.28V66H86.28V64H88.28V68H84.28V76H82.28ZM90.28 60V56H92.28V60H90.28ZM96.04 76V58H98.04V64H104.04V58H106.04V76H104.04V66H98.04V76H96.04ZM98.04 58V56H104.04V58H98.04ZM113.8 68V64H115.8V68H113.8ZM109.8 76V56H111.8V68H113.8V72H111.8V76H109.8ZM117.8 76V64H115.8V60H117.8V56H119.8V76H117.8ZM113.8 56V54H115.8V56H113.8ZM111.8 54V52H113.8V54H111.8ZM115.8 54V52H117.8V54H115.8ZM129.32 76V56H139.32V76H137.32V58H131.32V76H129.32ZM145.08 76V74H151.08V76H145.08ZM143.08 74V58H145.08V74H143.08ZM151.08 74V58H153.08V74H151.08ZM145.08 58V56H151.08V58H145.08ZM162.6 76V74H170.6V76H162.6ZM170.6 74V66H164.6V64H170.6V58H172.6V74H170.6ZM162.6 58V56H170.6V58H162.6ZM184.36 76V72H186.36V76H184.36ZM182.36 72V68H184.36V72H182.36ZM182.36 64V60H184.36V64H182.36ZM176.36 76V56H178.36V66H180.36V64H182.36V68H178.36V76H176.36ZM184.36 60V56H186.36V60H184.36ZM198.12 64V58H200.12V64H198.12ZM190.12 76V56H198.12V58H192.12V64H198.12V66H192.12V76H190.12ZM203.88 76V58H205.88V64H211.88V58H213.88V76H211.88V66H205.88V76H203.88ZM205.88 58V56H211.88V58H205.88ZM217.64 76V56H219.64V64H225.64V56H227.64V76H225.64V66H219.64V76H217.64ZM233.4 76V74H239.4V76H233.4ZM231.4 66V56H233.4V66H231.4ZM239.4 74V68H233.4V66H239.4V56H241.4V74H239.4ZM254.92 68V64H256.92V68H254.92ZM250.92 76V56H252.92V68H254.92V72H252.92V76H250.92ZM258.92 76V64H256.92V60H258.92V56H260.92V76H258.92ZM270.44 76V56H280.44V76H278.44V58H272.44V76H270.44ZM284.2 76V56H294.2V58H286.2V64H292.2V66H286.2V74H294.2V76H284.2ZM305.96 64V58H307.96V64H305.96ZM297.96 76V56H305.96V58H299.96V64H305.96V66H299.96V76H297.96ZM311.72 76V56H321.72V58H313.72V64H319.72V66H313.72V74H321.72V76H311.72ZM325.48 76V56H335.48V76H333.48V58H327.48V76H325.48ZM347.24 64V58H349.24V64H347.24ZM339.24 76V56H347.24V58H341.24V64H347.24V66H341.24V76H339.24ZM359 74V66H361V74H359ZM353 76V56H355V64H359V66H355V74H359V76H353ZM363 76V56H365V76H363ZM368.76 76V56H378.76V58H370.76V76H368.76ZM386.52 68V64H388.52V68H386.52ZM382.52 76V56H384.52V68H386.52V72H384.52V76H382.52ZM390.52 76V64H388.52V60H390.52V56H392.52V76H390.52ZM404.28 74V66H406.28V74H404.28ZM404.28 64V58H406.28V64H404.28ZM396.28 76V56H404.28V58H398.28V64H404.28V66H398.28V74H404.28V76H396.28ZM410.04 76V58H412.04V64H418.04V58H420.04V76H418.04V66H412.04V76H410.04ZM412.04 58V56H418.04V58H412.04ZM427.8 68V64H429.8V68H427.8ZM423.8 76V56H425.8V68H427.8V72H425.8V76H423.8ZM431.8 76V64H429.8V60H431.8V56H433.8V76H431.8ZM427.8 56V54H429.8V56H427.8ZM425.8 54V52H427.8V54H425.8ZM429.8 54V52H431.8V54H429.8ZM41 112V92H51V112H49V94H43V112H41ZM62.76 100V94H64.76V100H62.76ZM54.76 112V92H62.76V94H56.76V100H62.76V102H56.76V112H54.76ZM68.52 112V92H78.52V94H70.52V100H76.52V102H70.52V110H78.52V112H68.52ZM82.28 112V92H92.28V112H90.28V94H84.28V112H82.28ZM96.04 112V108H98.04V112H96.04ZM98.04 108V104H100.04V108H98.04ZM96.04 100V94H98.04V100H96.04ZM104.04 112V102H102.04V104H100.04V102H98.04V100H104.04V94H98.04V92H106.04V112H104.04ZM113.8 112V94H109.8V92H119.8V94H115.8V112H113.8ZM125.56 112V110H131.56V112H125.56ZM131.56 110V108H133.56V110H131.56ZM123.56 110V94H125.56V110H123.56ZM131.56 96V94H133.56V96H131.56ZM125.56 94V92H131.56V94H125.56ZM141.32 112V94H137.32V92H147.32V94H143.32V112H141.32ZM159.08 110V102H161.08V110H159.08ZM159.08 100V94H161.08V100H159.08ZM151.08 112V92H159.08V94H153.08V100H159.08V102H153.08V110H159.08V112H151.08ZM168.84 104V100H170.84V104H168.84ZM164.84 112V92H166.84V104H168.84V108H166.84V112H164.84ZM172.84 112V100H170.84V96H172.84V92H174.84V112H172.84ZM178.6 112V108H180.6V112H178.6ZM180.6 108V104H182.6V108H180.6ZM178.6 100V94H180.6V100H178.6ZM186.6 112V102H184.6V104H182.6V102H180.6V100H186.6V94H180.6V92H188.6V112H186.6ZM192.36 114V112H194.36V114H192.36ZM194.36 112V110H192.36V108H196.36V112H194.36ZM205.88 100V92H207.88V100H205.88ZM213.88 112V102H207.88V100H213.88V92H215.88V112H213.88ZM223.64 112V94H219.64V92H229.64V94H225.64V112H223.64ZM235.4 112V110H241.4V112H235.4ZM233.4 110V94H235.4V110H233.4ZM241.4 110V94H243.4V110H241.4ZM235.4 94V92H241.4V94H235.4ZM255.16 110V102H257.16V110H255.16ZM247.16 112V92H257.16V94H249.16V100H255.16V102H249.16V110H255.16V112H247.16ZM266.92 110V102H268.92V110H266.92ZM260.92 112V92H262.92V100H266.92V102H262.92V110H266.92V112H260.92ZM270.92 112V92H272.92V112H270.92ZM282.44 112V92H292.44V112H290.44V94H284.44V112H282.44ZM298.2 112V110H304.2V112H298.2ZM296.2 110V94H298.2V110H296.2ZM304.2 110V94H306.2V110H304.2ZM298.2 94V92H304.2V94H298.2ZM315.96 108V104H317.96V108H315.96ZM313.96 104V100H315.96V104H313.96ZM317.96 104V100H319.96V104H317.96ZM309.96 112V92H311.96V96H313.96V100H311.96V112H309.96ZM321.96 112V100H319.96V96H321.96V92H323.96V112H321.96ZM329.72 112V110H335.72V112H329.72ZM327.72 110V94H329.72V110H327.72ZM335.72 110V94H337.72V110H335.72ZM329.72 94V92H335.72V94H329.72ZM341.48 100V92H343.48V100H341.48ZM349.48 112V102H343.48V100H349.48V92H351.48V112H349.48ZM361.24 110V102H363.24V110H361.24ZM355.24 112V92H357.24V100H361.24V102H357.24V110H361.24V112H355.24ZM49 144V140H51V144H49ZM47 140V136H49V140H47ZM47 132V128H49V132H47ZM41 144V124H43V134H45V132H47V136H43V144H41ZM49 128V124H51V128H49ZM56.76 144V142H62.76V144H56.76ZM54.76 142V126H56.76V142H54.76ZM62.76 142V126H64.76V142H62.76ZM56.76 126V124H62.76V126H56.76ZM68.52 144V142H70.52V144H68.52ZM76.52 144V126H72.52V142H70.52V124H78.52V144H76.52ZM84.28 144V142H90.28V144H84.28ZM82.28 142V126H84.28V142H82.28ZM90.28 142V126H92.28V142H90.28ZM84.28 126V124H90.28V126H84.28ZM104.04 142V134H106.04V142H104.04ZM96.04 144V124H106.04V126H98.04V132H104.04V134H98.04V142H104.04V144H96.04ZM117.8 144V140H119.8V144H117.8ZM115.8 140V136H117.8V140H115.8ZM115.8 132V128H117.8V132H115.8ZM109.8 144V124H111.8V134H113.8V132H115.8V136H111.8V144H109.8ZM117.8 128V124H119.8V128H117.8ZM125.56 144V142H131.56V144H125.56ZM123.56 134V124H125.56V134H123.56ZM131.56 142V136H125.56V134H131.56V124H133.56V142H131.56ZM143.08 146V138H145.08V142H151.08V126H147.08V138H145.08V124H153.08V146H151.08V144H145.08V146H143.08ZM158.84 144V142H164.84V144H158.84ZM156.84 142V126H158.84V142H156.84ZM164.84 142V126H166.84V142H164.84ZM158.84 126V124H164.84V126H158.84ZM178.6 142V134H180.6V142H178.6ZM170.6 144V124H180.6V126H172.6V132H178.6V134H172.6V142H178.6V144H170.6ZM192.36 132V126H194.36V132H192.36ZM184.36 144V124H192.36V126H186.36V132H192.36V134H186.36V144H184.36ZM198.12 144V126H200.12V132H206.12V126H208.12V144H206.12V134H200.12V144H198.12ZM200.12 126V124H206.12V126H200.12ZM215.88 144V126H211.88V124H221.88V126H217.88V144H215.88ZM231.64 142V134H233.64V142H231.64ZM225.64 144V124H227.64V132H231.64V134H227.64V142H231.64V144H225.64ZM239.4 144V142H245.4V144H239.4ZM245.4 142V140H247.4V142H245.4ZM237.4 142V126H239.4V142H237.4ZM245.4 128V126H247.4V128H245.4ZM239.4 126V124H245.4V126H239.4ZM251.16 144V140H253.16V144H251.16ZM253.16 140V136H255.16V140H253.16ZM251.16 132V126H253.16V132H251.16ZM259.16 144V134H257.16V136H255.16V134H253.16V132H259.16V126H253.16V124H261.16V144H259.16ZM270.68 146V138H272.68V142H278.68V126H274.68V138H272.68V124H280.68V146H278.68V144H272.68V146H270.68ZM286.44 144V142H292.44V144H286.44ZM284.44 142V126H286.44V142H284.44ZM292.44 142V126H294.44V142H292.44ZM286.44 126V124H292.44V126H286.44ZM303.96 138V130H305.96V138H303.96ZM315.96 138V130H317.96V138H315.96ZM309.96 144V140H305.96V138H309.96V130H305.96V128H309.96V124H311.96V128H315.96V130H311.96V138H315.96V140H311.96V144H309.96ZM325.72 136V132H327.72V136H325.72ZM321.72 144V124H323.72V136H325.72V140H323.72V144H321.72ZM329.72 144V132H327.72V128H329.72V124H331.72V144H329.72ZM335.48 144V124H337.48V132H343.48V124H345.48V144H343.48V134H337.48V144H335.48ZM353.24 136V132H355.24V136H353.24ZM349.24 144V124H351.24V136H353.24V140H351.24V144H349.24ZM357.24 144V132H355.24V128H357.24V124H359.24V144H357.24ZM363 144V124H365V142H367V124H369V142H371V124H373V144H363ZM376.76 144V126H378.76V132H384.76V126H386.76V144H384.76V134H378.76V144H376.76ZM378.76 126V124H384.76V126H378.76Z" fill="#FFC700"/>
</svg>
