<svg width="393" height="852" viewBox="0 0 393 852" fill="none" xmlns="http://www.w3.org/2000/svg">
<rect width="393" height="852" fill="black"/>
<path d="M73 306V289.75H81.125V306H79.5V291.375H74.625V306H73ZM86.065 306V304.375H90.94V306H86.065ZM84.44 304.375V291.375H86.065V304.375H84.44ZM90.94 304.375V291.375H92.565V304.375H90.94ZM86.065 291.375V289.75H90.94V291.375H86.065ZM95.88 306V297.875H97.505V306H95.88ZM102.38 306V297.875H104.005V306H102.38ZM95.88 296.25V289.75H97.505V296.25H95.88ZM99.13 306V297.875H97.505V296.25H99.13V289.75H100.755V296.25H102.38V297.875H100.755V306H99.13ZM102.38 296.25V289.75H104.005V296.25H102.38ZM107.32 306V291.375H108.945V296.25H113.82V291.375H115.445V306H113.82V297.875H108.945V306H107.32ZM108.945 291.375V289.75H113.82V291.375H108.945ZM118.76 306V304.375H120.385V306H118.76ZM125.26 306V291.375H122.01V304.375H120.385V289.75H126.885V306H125.26ZM131.825 306V304.375H136.7V306H131.825ZM130.2 297.875V289.75H131.825V297.875H130.2ZM136.7 304.375V299.5H131.825V297.875H136.7V289.75H138.325V304.375H136.7ZM144.89 299.5V296.25H146.515V299.5H144.89ZM141.64 306V289.75H143.265V299.5H144.89V302.75H143.265V306H141.64ZM148.14 306V296.25H146.515V293H148.14V289.75H149.765V306H148.14ZM144.89 289.75V288.125H146.515V289.75H144.89ZM143.265 288.125V286.5H144.89V288.125H143.265ZM146.515 288.125V286.5H148.14V288.125H146.515ZM154.705 306V304.375H159.58V306H154.705ZM159.58 304.375V302.75H161.205V304.375H159.58ZM153.08 304.375V291.375H154.705V304.375H153.08ZM159.58 293V291.375H161.205V293H159.58ZM154.705 291.375V289.75H159.58V291.375H154.705ZM167.77 306V291.375H164.52V289.75H172.645V291.375H169.395V306H167.77ZM175.96 306V291.375H177.585V296.25H182.46V291.375H184.085V306H182.46V297.875H177.585V306H175.96ZM177.585 291.375V289.75H182.46V291.375H177.585ZM187.4 307.625V306H189.025V307.625H187.4ZM189.025 306V304.375H187.4V302.75H190.65V306H189.025ZM198.905 306V289.75H207.03V306H205.405V291.375H200.53V306H198.905ZM210.345 306V289.75H218.47V291.375H211.97V296.25H216.845V297.875H211.97V304.375H218.47V306H210.345ZM228.285 296.25V291.375H229.91V296.25H228.285ZM221.785 306V289.75H228.285V291.375H223.41V296.25H228.285V297.875H223.41V306H221.785ZM233.225 306V289.75H241.35V291.375H234.85V296.25H239.725V297.875H234.85V304.375H241.35V306H233.225ZM251.165 304.375V297.875H252.79V304.375H251.165ZM251.165 296.25V291.375H252.79V296.25H251.165ZM244.665 306V289.75H251.165V291.375H246.29V296.25H251.165V297.875H246.29V304.375H251.165V306H244.665ZM256.105 306V289.75H264.23V291.375H257.73V296.25H262.605V297.875H257.73V304.375H264.23V306H256.105ZM274.045 296.25V291.375H275.67V296.25H274.045ZM267.545 306V289.75H274.045V291.375H269.17V296.25H274.045V297.875H269.17V306H267.545ZM278.985 306V289.75H280.61V296.25H285.485V289.75H287.11V306H285.485V297.875H280.61V306H278.985ZM293.675 299.5V296.25H295.3V299.5H293.675ZM290.425 306V289.75H292.05V299.5H293.675V302.75H292.05V306H290.425ZM296.925 306V296.25H295.3V293H296.925V289.75H298.55V306H296.925ZM305.115 306V291.375H301.865V289.75H309.99V291.375H306.74V306H305.115ZM313.305 306V289.75H321.43V291.375H314.93V296.25H319.805V297.875H314.93V304.375H321.43V306H313.305ZM73 332V330.375H79.5V332H73ZM79.5 330.375V323.875H74.625V322.25H79.5V317.375H81.125V330.375H79.5ZM73 317.375V315.75H79.5V317.375H73ZM90.94 332V328.75H92.565V332H90.94ZM89.315 328.75V325.5H90.94V328.75H89.315ZM89.315 322.25V319H90.94V322.25H89.315ZM84.44 332V315.75H86.065V323.875H87.69V322.25H89.315V325.5H86.065V332H84.44ZM90.94 319V315.75H92.565V319H90.94ZM102.38 322.25V317.375H104.005V322.25H102.38ZM95.88 332V315.75H102.38V317.375H97.505V322.25H102.38V323.875H97.505V332H95.88ZM107.32 332V317.375H108.945V322.25H113.82V317.375H115.445V332H113.82V323.875H108.945V332H107.32ZM108.945 317.375V315.75H113.82V317.375H108.945ZM118.76 332V315.75H120.385V322.25H125.26V315.75H126.885V332H125.26V323.875H120.385V332H118.76ZM130.2 333.625V332H131.825V333.625H130.2ZM131.825 332V330.375H130.2V328.75H133.45V332H131.825ZM141.705 332V317.375H143.33V322.25H148.205V317.375H149.83V332H148.205V323.875H143.33V332H141.705ZM143.33 317.375V315.75H148.205V317.375H143.33ZM159.71 332V330.375H164.585V332H159.71ZM158.085 330.375V328.75H159.71V330.375H158.085ZM164.585 330.375V323.875H166.21V330.375H164.585ZM161.335 323.875V322.25H164.585V323.875H161.335ZM158.085 319V317.375H159.71V319H158.085ZM164.585 322.25V317.375H166.21V322.25H164.585ZM159.71 317.375V315.75H164.585V317.375H159.71ZM169.525 332V317.375H171.15V322.25H176.025V317.375H177.65V332H176.025V323.875H171.15V332H169.525ZM171.15 317.375V315.75H176.025V317.375H171.15ZM184.215 332V317.375H180.965V315.75H189.09V317.375H185.84V332H184.215ZM192.405 332V315.75H200.53V317.375H194.03V322.25H198.905V323.875H194.03V330.375H200.53V332H192.405ZM208.72 328.75V325.5H210.345V328.75H208.72ZM207.095 325.5V322.25H208.72V325.5H207.095ZM210.345 325.5V322.25H211.97V325.5H210.345ZM203.845 332V315.75H205.47V319H207.095V322.25H205.47V332H203.845ZM213.595 332V322.25H211.97V319H213.595V315.75H215.22V332H213.595ZM218.535 333.625V332H220.16V333.625H218.535ZM220.16 332V330.375H218.535V328.75H221.785V332H220.16ZM230.04 332V315.75H231.665V322.25H236.54V315.75H238.165V332H236.54V323.875H231.665V332H230.04ZM241.48 332V317.375H243.105V322.25H247.98V317.375H249.605V332H247.98V323.875H243.105V332H241.48ZM243.105 317.375V315.75H247.98V317.375H243.105ZM252.92 332V323.875H254.545V332H252.92ZM259.42 332V323.875H261.045V332H259.42ZM252.92 322.25V315.75H254.545V322.25H252.92ZM256.17 332V323.875H254.545V322.25H256.17V315.75H257.795V322.25H259.42V323.875H257.795V332H256.17ZM259.42 322.25V315.75H261.045V322.25H259.42ZM269.235 328.75V325.5H270.86V328.75H269.235ZM267.61 325.5V322.25H269.235V325.5H267.61ZM270.86 325.5V322.25H272.485V325.5H270.86ZM264.36 332V315.75H265.985V319H267.61V322.25H265.985V332H264.36ZM274.11 332V322.25H272.485V319H274.11V315.75H275.735V332H274.11ZM282.3 325.5V322.25H283.925V325.5H282.3ZM279.05 332V315.75H280.675V325.5H282.3V328.75H280.675V332H279.05ZM285.55 332V322.25H283.925V319H285.55V315.75H287.175V332H285.55ZM293.74 332V317.375H290.49V315.75H298.615V317.375H295.365V332H293.74ZM301.93 332V315.75H310.055V317.375H303.555V322.25H308.43V323.875H303.555V330.375H310.055V332H301.93ZM73 358V341.75H74.625V348.25H79.5V341.75H81.125V358H79.5V349.875H74.625V358H73ZM84.44 358V343.375H86.065V348.25H90.94V343.375H92.565V358H90.94V349.875H86.065V358H84.44ZM86.065 343.375V341.75H90.94V343.375H86.065ZM107.32 358V354.75H108.945V358H107.32ZM105.695 354.75V351.5H107.32V354.75H105.695ZM105.695 348.25V345H107.32V348.25H105.695ZM100.82 358V341.75H102.445V349.875H104.07V348.25H105.695V351.5H102.445V358H100.82ZM107.32 345V341.75H108.945V345H107.32ZM118.76 348.25V343.375H120.385V348.25H118.76ZM112.26 358V341.75H118.76V343.375H113.885V348.25H118.76V349.875H113.885V358H112.26ZM123.7 358V341.75H131.825V343.375H125.325V348.25H130.2V349.875H125.325V356.375H131.825V358H123.7ZM136.765 358V356.375H141.64V358H136.765ZM141.64 356.375V354.75H143.265V356.375H141.64ZM135.14 356.375V343.375H136.765V356.375H135.14ZM141.64 345V343.375H143.265V345H141.64ZM136.765 343.375V341.75H141.64V343.375H136.765ZM149.83 358V343.375H146.58V341.75H154.705V343.375H151.455V358H149.83ZM161.27 351.5V348.25H162.895V351.5H161.27ZM158.02 358V341.75H159.645V351.5H161.27V354.75H159.645V358H158.02ZM164.52 358V348.25H162.895V345H164.52V341.75H166.145V358H164.52ZM175.96 358V354.75H177.585V358H175.96ZM174.335 354.75V351.5H175.96V354.75H174.335ZM174.335 348.25V345H175.96V348.25H174.335ZM169.46 358V341.75H171.085V349.875H172.71V348.25H174.335V351.5H171.085V358H169.46ZM175.96 345V341.75H177.585V345H175.96ZM180.9 359.625V358H182.525V359.625H180.9ZM182.525 358V356.375H180.9V354.75H184.15V358H182.525ZM194.03 358V356.375H198.905V358H194.03ZM198.905 356.375V354.75H200.53V356.375H198.905ZM192.405 356.375V343.375H194.03V356.375H192.405ZM198.905 345V343.375H200.53V345H198.905ZM194.03 343.375V341.75H198.905V343.375H194.03ZM203.845 358V341.75H211.97V358H210.345V343.375H205.47V358H203.845ZM215.285 358V343.375H216.91V348.25H221.785V343.375H223.41V358H221.785V349.875H216.91V358H215.285ZM216.91 343.375V341.75H221.785V343.375H216.91ZM228.35 358V356.375H233.225V358H228.35ZM233.225 356.375V354.75H234.85V356.375H233.225ZM226.725 356.375V343.375H228.35V356.375H226.725ZM233.225 345V343.375H234.85V345H233.225ZM228.35 343.375V341.75H233.225V343.375H228.35ZM241.415 351.5V348.25H243.04V351.5H241.415ZM238.165 358V341.75H239.79V351.5H241.415V354.75H239.79V358H238.165ZM244.665 358V348.25H243.04V345H244.665V341.75H246.29V358H244.665ZM256.105 356.375V349.875H257.73V356.375H256.105ZM249.605 358V341.75H257.73V343.375H251.23V348.25H256.105V349.875H251.23V356.375H256.105V358H249.605ZM262.67 358V356.375H267.545V358H262.67ZM261.045 356.375V343.375H262.67V356.375H261.045ZM267.545 356.375V343.375H269.17V356.375H267.545ZM262.67 343.375V341.75H267.545V343.375H262.67ZM272.485 358V356.375H274.11V358H272.485ZM272.485 353.125V341.75H274.11V353.125H272.485Z" fill="#FFC700"/>
<path d="M44.0605 296L55.5 307.561" stroke="#FFC700" stroke-width="3"/>
<path d="M55.5 296L44.0605 307.561" stroke="#FFC700" stroke-width="3"/>
<path d="M338.061 295L349.5 306.561" stroke="#FFC700" stroke-width="3"/>
<path d="M349.5 295L338.061 306.561" stroke="#FFC700" stroke-width="3"/>
<path d="M44.0605 268L55.5 279.561" stroke="#FFC700" stroke-width="3"/>
<path d="M55.5 268L44.0605 279.561" stroke="#FFC700" stroke-width="3"/>
<path d="M338.061 267L349.5 278.561" stroke="#FFC700" stroke-width="3"/>
<path d="M349.5 267L338.061 278.561" stroke="#FFC700" stroke-width="3"/>
<path d="M44.0605 254L55.5 265.561" stroke="#FFC700" stroke-width="3"/>
<path d="M55.5 254L44.0605 265.561" stroke="#FFC700" stroke-width="3"/>
<path d="M44.0605 380L55.5 391.561" stroke="#FFC700" stroke-width="3"/>
<path d="M55.5 380L44.0605 391.561" stroke="#FFC700" stroke-width="3"/>
<path d="M254.061 380L265.5 391.561" stroke="#FFC700" stroke-width="3"/>
<path d="M265.5 380L254.061 391.561" stroke="#FFC700" stroke-width="3"/>
<path d="M268.061 380L279.5 391.561" stroke="#FFC700" stroke-width="3"/>
<path d="M279.5 380L268.061 391.561" stroke="#FFC700" stroke-width="3"/>
<path d="M282.061 380L293.5 391.561" stroke="#FFC700" stroke-width="3"/>
<path d="M293.5 380L282.061 391.561" stroke="#FFC700" stroke-width="3"/>
<path d="M296.061 380L307.5 391.561" stroke="#FFC700" stroke-width="3"/>
<path d="M307.5 380L296.061 391.561" stroke="#FFC700" stroke-width="3"/>
<path d="M310.061 380L321.5 391.561" stroke="#FFC700" stroke-width="3"/>
<path d="M321.5 380L310.061 391.561" stroke="#FFC700" stroke-width="3"/>
<path d="M324.061 380L335.5 391.561" stroke="#FFC700" stroke-width="3"/>
<path d="M335.5 380L324.061 391.561" stroke="#FFC700" stroke-width="3"/>
<path d="M338.061 380L349.5 391.561" stroke="#FFC700" stroke-width="3"/>
<path d="M349.5 380L338.061 391.561" stroke="#FFC700" stroke-width="3"/>
<path d="M240.061 254L251.5 265.561" stroke="#FFC700" stroke-width="3"/>
<path d="M251.5 254L240.061 265.561" stroke="#FFC700" stroke-width="3"/>
<path d="M254.061 254L265.5 265.561" stroke="#FFC700" stroke-width="3"/>
<path d="M265.5 254L254.061 265.561" stroke="#FFC700" stroke-width="3"/>
<path d="M268.061 254L279.5 265.561" stroke="#FFC700" stroke-width="3"/>
<path d="M279.5 254L268.061 265.561" stroke="#FFC700" stroke-width="3"/>
<path d="M282.061 254L293.5 265.561" stroke="#FFC700" stroke-width="3"/>
<path d="M293.5 254L282.061 265.561" stroke="#FFC700" stroke-width="3"/>
<path d="M296.061 254L307.5 265.561" stroke="#FFC700" stroke-width="3"/>
<path d="M307.5 254L296.061 265.561" stroke="#FFC700" stroke-width="3"/>
<path d="M310.061 254L321.5 265.561" stroke="#FFC700" stroke-width="3"/>
<path d="M321.5 254L310.061 265.561" stroke="#FFC700" stroke-width="3"/>
<path d="M324.061 254L335.5 265.561" stroke="#FFC700" stroke-width="3"/>
<path d="M335.5 254L324.061 265.561" stroke="#FFC700" stroke-width="3"/>
<path d="M338.061 254L349.5 265.561" stroke="#FFC700" stroke-width="3"/>
<path d="M349.5 254L338.061 265.561" stroke="#FFC700" stroke-width="3"/>
<path d="M44.0605 310L55.5 321.561" stroke="#FFC700" stroke-width="3"/>
<path d="M55.5 310L44.0605 321.561" stroke="#FFC700" stroke-width="3"/>
<path d="M338.061 309L349.5 320.561" stroke="#FFC700" stroke-width="3"/>
<path d="M349.5 309L338.061 320.561" stroke="#FFC700" stroke-width="3"/>
<path d="M44.0605 282L55.5 293.561" stroke="#FFC700" stroke-width="3"/>
<path d="M55.5 282L44.0605 293.561" stroke="#FFC700" stroke-width="3"/>
<path d="M338.061 281L349.5 292.561" stroke="#FFC700" stroke-width="3"/>
<path d="M349.5 281L338.061 292.561" stroke="#FFC700" stroke-width="3"/>
<path d="M44.0605 324L55.5 335.561" stroke="#FFC700" stroke-width="3"/>
<path d="M55.5 324L44.0605 335.561" stroke="#FFC700" stroke-width="3"/>
<path d="M338.061 323L349.5 334.561" stroke="#FFC700" stroke-width="3"/>
<path d="M349.5 323L338.061 334.561" stroke="#FFC700" stroke-width="3"/>
<path d="M44.0605 338L55.5 349.561" stroke="#FFC700" stroke-width="3"/>
<path d="M55.5 338L44.0605 349.561" stroke="#FFC700" stroke-width="3"/>
<path d="M338.061 337L349.5 348.561" stroke="#FFC700" stroke-width="3"/>
<path d="M349.5 337L338.061 348.561" stroke="#FFC700" stroke-width="3"/>
<path d="M44.0605 352L55.5 363.561" stroke="#FFC700" stroke-width="3"/>
<path d="M55.5 352L44.0605 363.561" stroke="#FFC700" stroke-width="3"/>
<path d="M338.061 351L349.5 362.561" stroke="#FFC700" stroke-width="3"/>
<path d="M349.5 351L338.061 362.561" stroke="#FFC700" stroke-width="3"/>
<path d="M44.0605 366L55.5 377.561" stroke="#FFC700" stroke-width="3"/>
<path d="M55.5 366L44.0605 377.561" stroke="#FFC700" stroke-width="3"/>
<path d="M338.061 365L349.5 376.561" stroke="#FFC700" stroke-width="3"/>
<path d="M349.5 365L338.061 376.561" stroke="#FFC700" stroke-width="3"/>
<path d="M58.0605 254L69.5 265.561" stroke="#FFC700" stroke-width="3"/>
<path d="M69.5 254L58.0605 265.561" stroke="#FFC700" stroke-width="3"/>
<path d="M58.0605 380L69.5 391.561" stroke="#FFC700" stroke-width="3"/>
<path d="M69.5 380L58.0605 391.561" stroke="#FFC700" stroke-width="3"/>
<path d="M72.0605 254L83.5 265.561" stroke="#FFC700" stroke-width="3"/>
<path d="M83.5 254L72.0605 265.561" stroke="#FFC700" stroke-width="3"/>
<path d="M72.0605 380L83.5 391.561" stroke="#FFC700" stroke-width="3"/>
<path d="M83.5 380L72.0605 391.561" stroke="#FFC700" stroke-width="3"/>
<path d="M86.0605 254L97.5 265.561" stroke="#FFC700" stroke-width="3"/>
<path d="M97.5 254L86.0605 265.561" stroke="#FFC700" stroke-width="3"/>
<path d="M86.0605 380L97.5 391.561" stroke="#FFC700" stroke-width="3"/>
<path d="M97.5 380L86.0605 391.561" stroke="#FFC700" stroke-width="3"/>
<path d="M142.061 254L153.5 265.561" stroke="#FFC700" stroke-width="3"/>
<path d="M153.5 254L142.061 265.561" stroke="#FFC700" stroke-width="3"/>
<path d="M142.061 380L153.5 391.561" stroke="#FFC700" stroke-width="3"/>
<path d="M153.5 380L142.061 391.561" stroke="#FFC700" stroke-width="3"/>
<path d="M100.061 254L111.5 265.561" stroke="#FFC700" stroke-width="3"/>
<path d="M111.5 254L100.061 265.561" stroke="#FFC700" stroke-width="3"/>
<path d="M100.061 380L111.5 391.561" stroke="#FFC700" stroke-width="3"/>
<path d="M111.5 380L100.061 391.561" stroke="#FFC700" stroke-width="3"/>
<path d="M156.061 254L167.5 265.561" stroke="#FFC700" stroke-width="3"/>
<path d="M167.5 254L156.061 265.561" stroke="#FFC700" stroke-width="3"/>
<path d="M156.061 380L167.5 391.561" stroke="#FFC700" stroke-width="3"/>
<path d="M167.5 380L156.061 391.561" stroke="#FFC700" stroke-width="3"/>
<path d="M114.061 254L125.5 265.561" stroke="#FFC700" stroke-width="3"/>
<path d="M125.5 254L114.061 265.561" stroke="#FFC700" stroke-width="3"/>
<path d="M114.061 380L125.5 391.561" stroke="#FFC700" stroke-width="3"/>
<path d="M125.5 380L114.061 391.561" stroke="#FFC700" stroke-width="3"/>
<path d="M170.061 254L181.5 265.561" stroke="#FFC700" stroke-width="3"/>
<path d="M181.5 254L170.061 265.561" stroke="#FFC700" stroke-width="3"/>
<path d="M170.061 380L181.5 391.561" stroke="#FFC700" stroke-width="3"/>
<path d="M181.5 380L170.061 391.561" stroke="#FFC700" stroke-width="3"/>
<path d="M128.061 254L139.5 265.561" stroke="#FFC700" stroke-width="3"/>
<path d="M139.5 254L128.061 265.561" stroke="#FFC700" stroke-width="3"/>
<path d="M128.061 380L139.5 391.561" stroke="#FFC700" stroke-width="3"/>
<path d="M139.5 380L128.061 391.561" stroke="#FFC700" stroke-width="3"/>
<path d="M184.061 254L195.5 265.561" stroke="#FFC700" stroke-width="3"/>
<path d="M195.5 254L184.061 265.561" stroke="#FFC700" stroke-width="3"/>
<path d="M184.061 380L195.5 391.561" stroke="#FFC700" stroke-width="3"/>
<path d="M195.5 380L184.061 391.561" stroke="#FFC700" stroke-width="3"/>
<path d="M226.061 254L237.5 265.561" stroke="#FFC700" stroke-width="3"/>
<path d="M237.5 254L226.061 265.561" stroke="#FFC700" stroke-width="3"/>
<path d="M226.061 380L237.5 391.561" stroke="#FFC700" stroke-width="3"/>
<path d="M237.5 380L226.061 391.561" stroke="#FFC700" stroke-width="3"/>
<path d="M240.061 380L251.5 391.561" stroke="#FFC700" stroke-width="3"/>
<path d="M251.5 380L240.061 391.561" stroke="#FFC700" stroke-width="3"/>
<path d="M212.061 254L223.5 265.561" stroke="#FFC700" stroke-width="3"/>
<path d="M223.5 254L212.061 265.561" stroke="#FFC700" stroke-width="3"/>
<path d="M212.061 380L223.5 391.561" stroke="#FFC700" stroke-width="3"/>
<path d="M223.5 380L212.061 391.561" stroke="#FFC700" stroke-width="3"/>
<path d="M198.061 254L209.5 265.561" stroke="#FFC700" stroke-width="3"/>
<path d="M209.5 254L198.061 265.561" stroke="#FFC700" stroke-width="3"/>
<path d="M198.061 380L209.5 391.561" stroke="#FFC700" stroke-width="3"/>
<path d="M209.5 380L198.061 391.561" stroke="#FFC700" stroke-width="3"/>
</svg>
