<svg width="43" height="71" viewBox="0 0 43 71" fill="none" xmlns="http://www.w3.org/2000/svg">
<path d="M16.0605 58L27.5 69.5605" stroke="#038910" stroke-width="3"/>
<path d="M27.5 58L16.0605 69.5605" stroke="#038910" stroke-width="3"/>
<path d="M16.0605 44L27.5 55.5605" stroke="#038910" stroke-width="3"/>
<path d="M27.5 44L16.0605 55.5605" stroke="#038910" stroke-width="3"/>
<path d="M16.0605 30L27.5 41.5605" stroke="#038910" stroke-width="3"/>
<path d="M27.5 30L16.0605 41.5605" stroke="#038910" stroke-width="3"/>
<path d="M2.06055 30L13.5 41.5605" stroke="#FF0000" stroke-width="3"/>
<path d="M13.5 30L2.06055 41.5605" stroke="#FF0000" stroke-width="3"/>
<path d="M30.0605 30L41.5 41.5605" stroke="#FF0000" stroke-width="3"/>
<path d="M41.5 30L30.0605 41.5605" stroke="#FF0000" stroke-width="3"/>
<path d="M16.0605 16L27.5 27.5605" stroke="#038910" stroke-width="3"/>
<path d="M27.5 16L16.0605 27.5605" stroke="#038910" stroke-width="3"/>
<path d="M16.0605 2L27.5 13.5605" stroke="#038910" stroke-width="3"/>
<path d="M27.5 2L16.0605 13.5605" stroke="#038910" stroke-width="3"/>
<path d="M2.06055 2L13.5 13.5605" stroke="#FF0000" stroke-width="3"/>
<path d="M13.5 2L2.06055 13.5605" stroke="#FF0000" stroke-width="3"/>
<path d="M30.0605 2L41.5 13.5605" stroke="#FF0000" stroke-width="3"/>
<path d="M41.5 2L30.0605 13.5605" stroke="#FF0000" stroke-width="3"/>
<path d="M2.06055 16L13.5 27.5605" stroke="#FF0000" stroke-width="3"/>
<path d="M13.5 16L2.06055 27.5605" stroke="#FF0000" stroke-width="3"/>
<path d="M30.0605 16L41.5 27.5605" stroke="#FF0000" stroke-width="3"/>
<path d="M41.5 16L30.0605 27.5605" stroke="#FF0000" stroke-width="3"/>
</svg>
