<svg width="239" height="239" viewBox="0 0 239 239" fill="none" xmlns="http://www.w3.org/2000/svg">
<path d="M72.0605 170L83.5 181.561" stroke="#FFC700" stroke-width="3"/>
<path d="M83.5 170L72.0605 181.561" stroke="#FFC700" stroke-width="3"/>
<path d="M72.0605 184L83.5 195.561" stroke="#FFC700" stroke-width="3"/>
<path d="M83.5 184L72.0605 195.561" stroke="#FFC700" stroke-width="3"/>
<path d="M72.0605 198L83.5 209.561" stroke="#FFC700" stroke-width="3"/>
<path d="M83.5 198L72.0605 209.561" stroke="#FFC700" stroke-width="3"/>
<path d="M72.0605 212L83.5 223.561" stroke="#FFC700" stroke-width="3"/>
<path d="M83.5 212L72.0605 223.561" stroke="#FFC700" stroke-width="3"/>
<path d="M72.0605 226L83.5 237.561" stroke="#FFC700" stroke-width="3"/>
<path d="M83.5 226L72.0605 237.561" stroke="#FFC700" stroke-width="3"/>
<path d="M86.0605 170L97.5 181.561" stroke="#FFC700" stroke-width="3"/>
<path d="M97.5 170L86.0605 181.561" stroke="#FFC700" stroke-width="3"/>
<path d="M86.0605 184L97.5 195.561" stroke="#FFC700" stroke-width="3"/>
<path d="M97.5 184L86.0605 195.561" stroke="#FFC700" stroke-width="3"/>
<path d="M86.0605 198L97.5 209.561" stroke="#FFC700" stroke-width="3"/>
<path d="M97.5 198L86.0605 209.561" stroke="#FFC700" stroke-width="3"/>
<path d="M86.0605 212L97.5 223.561" stroke="#FFC700" stroke-width="3"/>
<path d="M97.5 212L86.0605 223.561" stroke="#FFC700" stroke-width="3"/>
<path d="M86.0605 226L97.5 237.561" stroke="#FFC700" stroke-width="3"/>
<path d="M97.5 226L86.0605 237.561" stroke="#FFC700" stroke-width="3"/>
<path d="M58.0605 170L69.5 181.561" stroke="#FFC700" stroke-width="3"/>
<path d="M69.5 170L58.0605 181.561" stroke="#FFC700" stroke-width="3"/>
<path d="M58.0605 184L69.5 195.561" stroke="#FFC700" stroke-width="3"/>
<path d="M69.5 184L58.0605 195.561" stroke="#FFC700" stroke-width="3"/>
<path d="M58.0605 198L69.5 209.561" stroke="#FFC700" stroke-width="3"/>
<path d="M69.5 198L58.0605 209.561" stroke="#FFC700" stroke-width="3"/>
<path d="M58.0605 212L69.5 223.561" stroke="#FFC700" stroke-width="3"/>
<path d="M69.5 212L58.0605 223.561" stroke="#FFC700" stroke-width="3"/>
<path d="M212.061 184L223.5 195.561" stroke="#FFC700" stroke-width="3"/>
<path d="M223.5 184L212.061 195.561" stroke="#FFC700" stroke-width="3"/>
<path d="M44.0605 170L55.5 181.561" stroke="#FFC700" stroke-width="3"/>
<path d="M55.5 170L44.0605 181.561" stroke="#FFC700" stroke-width="3"/>
<path d="M44.0605 184L55.5 195.561" stroke="#FFC700" stroke-width="3"/>
<path d="M55.5 184L44.0605 195.561" stroke="#FFC700" stroke-width="3"/>
<path d="M44.0605 198L55.5 209.561" stroke="#FFC700" stroke-width="3"/>
<path d="M55.5 198L44.0605 209.561" stroke="#FFC700" stroke-width="3"/>
<path d="M44.0605 212L55.5 223.561" stroke="#FFC700" stroke-width="3"/>
<path d="M55.5 212L44.0605 223.561" stroke="#FFC700" stroke-width="3"/>
<path d="M198.061 198L209.5 209.561" stroke="#FFC700" stroke-width="3"/>
<path d="M209.5 198L198.061 209.561" stroke="#FFC700" stroke-width="3"/>
<path d="M198.061 184L209.5 195.561" stroke="#FFC700" stroke-width="3"/>
<path d="M209.5 184L198.061 195.561" stroke="#FFC700" stroke-width="3"/>
<path d="M30.0605 170L41.5 181.561" stroke="#FFC700" stroke-width="3"/>
<path d="M41.5 170L30.0605 181.561" stroke="#FFC700" stroke-width="3"/>
<path d="M30.0605 184L41.5 195.561" stroke="#FFC700" stroke-width="3"/>
<path d="M41.5 184L30.0605 195.561" stroke="#FFC700" stroke-width="3"/>
<path d="M30.0605 198L41.5 209.561" stroke="#FFC700" stroke-width="3"/>
<path d="M41.5 198L30.0605 209.561" stroke="#FFC700" stroke-width="3"/>
<path d="M184.061 212L195.5 223.561" stroke="#FFC700" stroke-width="3"/>
<path d="M195.5 212L184.061 223.561" stroke="#FFC700" stroke-width="3"/>
<path d="M184.061 198L195.5 209.561" stroke="#FFC700" stroke-width="3"/>
<path d="M195.5 198L184.061 209.561" stroke="#FFC700" stroke-width="3"/>
<path d="M184.061 184L195.5 195.561" stroke="#FFC700" stroke-width="3"/>
<path d="M195.5 184L184.061 195.561" stroke="#FFC700" stroke-width="3"/>
<path d="M16.0605 170L27.5 181.561" stroke="#FFC700" stroke-width="3"/>
<path d="M27.5 170L16.0605 181.561" stroke="#FFC700" stroke-width="3"/>
<path d="M2.06055 170L13.5 181.561" stroke="#FFC700" stroke-width="3"/>
<path d="M13.5 170L2.06055 181.561" stroke="#FFC700" stroke-width="3"/>
<path d="M226.061 170L237.5 181.561" stroke="#FFC700" stroke-width="3"/>
<path d="M237.5 170L226.061 181.561" stroke="#FFC700" stroke-width="3"/>
<path d="M16.0605 184L27.5 195.561" stroke="#FFC700" stroke-width="3"/>
<path d="M27.5 184L16.0605 195.561" stroke="#FFC700" stroke-width="3"/>
<path d="M170.061 212L181.5 223.561" stroke="#FFC700" stroke-width="3"/>
<path d="M181.5 212L170.061 223.561" stroke="#FFC700" stroke-width="3"/>
<path d="M170.061 198L181.5 209.561" stroke="#FFC700" stroke-width="3"/>
<path d="M181.5 198L170.061 209.561" stroke="#FFC700" stroke-width="3"/>
<path d="M170.061 184L181.5 195.561" stroke="#FFC700" stroke-width="3"/>
<path d="M181.5 184L170.061 195.561" stroke="#FFC700" stroke-width="3"/>
<path d="M58.0605 156L69.5 167.561" stroke="#FFC700" stroke-width="3"/>
<path d="M69.5 156L58.0605 167.561" stroke="#FFC700" stroke-width="3"/>
<path d="M44.0605 156L55.5 167.561" stroke="#FFC700" stroke-width="3"/>
<path d="M55.5 156L44.0605 167.561" stroke="#FFC700" stroke-width="3"/>
<path d="M30.0605 156L41.5 167.561" stroke="#FFC700" stroke-width="3"/>
<path d="M41.5 156L30.0605 167.561" stroke="#FFC700" stroke-width="3"/>
<path d="M16.0605 156L27.5 167.561" stroke="#FFC700" stroke-width="3"/>
<path d="M27.5 156L16.0605 167.561" stroke="#FFC700" stroke-width="3"/>
<path d="M2.06055 156L13.5 167.561" stroke="#FFC700" stroke-width="3"/>
<path d="M13.5 156L2.06055 167.561" stroke="#FFC700" stroke-width="3"/>
<path d="M226.061 156L237.5 167.561" stroke="#FFC700" stroke-width="3"/>
<path d="M237.5 156L226.061 167.561" stroke="#FFC700" stroke-width="3"/>
<path d="M156.061 170L167.5 181.561" stroke="#FFC700" stroke-width="3"/>
<path d="M167.5 170L156.061 181.561" stroke="#FFC700" stroke-width="3"/>
<path d="M156.061 184L167.5 195.561" stroke="#FFC700" stroke-width="3"/>
<path d="M167.5 184L156.061 195.561" stroke="#FFC700" stroke-width="3"/>
<path d="M156.061 198L167.5 209.561" stroke="#FFC700" stroke-width="3"/>
<path d="M167.5 198L156.061 209.561" stroke="#FFC700" stroke-width="3"/>
<path d="M156.061 212L167.5 223.561" stroke="#FFC700" stroke-width="3"/>
<path d="M167.5 212L156.061 223.561" stroke="#FFC700" stroke-width="3"/>
<path d="M156.061 226L167.5 237.561" stroke="#FFC700" stroke-width="3"/>
<path d="M167.5 226L156.061 237.561" stroke="#FFC700" stroke-width="3"/>
<path d="M156.061 2L167.5 13.5605" stroke="#FFC700" stroke-width="3"/>
<path d="M167.5 2L156.061 13.5605" stroke="#FFC700" stroke-width="3"/>
<path d="M170.061 156L181.5 167.561" stroke="#FFC700" stroke-width="3"/>
<path d="M181.5 156L170.061 167.561" stroke="#FFC700" stroke-width="3"/>
<path d="M184.061 156L195.5 167.561" stroke="#FFC700" stroke-width="3"/>
<path d="M195.5 156L184.061 167.561" stroke="#FFC700" stroke-width="3"/>
<path d="M198.061 156L209.5 167.561" stroke="#FFC700" stroke-width="3"/>
<path d="M209.5 156L198.061 167.561" stroke="#FFC700" stroke-width="3"/>
<path d="M212.061 156L223.5 167.561" stroke="#FFC700" stroke-width="3"/>
<path d="M223.5 156L212.061 167.561" stroke="#FFC700" stroke-width="3"/>
<path d="M170.061 170L181.5 181.561" stroke="#FFC700" stroke-width="3"/>
<path d="M181.5 170L170.061 181.561" stroke="#FFC700" stroke-width="3"/>
<path d="M184.061 170L195.5 181.561" stroke="#FFC700" stroke-width="3"/>
<path d="M195.5 170L184.061 181.561" stroke="#FFC700" stroke-width="3"/>
<path d="M198.061 170L209.5 181.561" stroke="#FFC700" stroke-width="3"/>
<path d="M209.5 170L198.061 181.561" stroke="#FFC700" stroke-width="3"/>
<path d="M212.061 170L223.5 181.561" stroke="#FFC700" stroke-width="3"/>
<path d="M223.5 170L212.061 181.561" stroke="#FFC700" stroke-width="3"/>
<path d="M86.0605 156L97.5 167.561" stroke="#FFC700" stroke-width="3"/>
<path d="M97.5 156L86.0605 167.561" stroke="#FFC700" stroke-width="3"/>
<path d="M86.0605 142L97.5 153.561" stroke="#FFC700" stroke-width="3"/>
<path d="M97.5 142L86.0605 153.561" stroke="#FFC700" stroke-width="3"/>
<path d="M86.0605 128L97.5 139.561" stroke="#FFC700" stroke-width="3"/>
<path d="M97.5 128L86.0605 139.561" stroke="#FFC700" stroke-width="3"/>
<path d="M72.0605 114L83.5 125.561" stroke="#FFC700" stroke-width="3"/>
<path d="M83.5 114L72.0605 125.561" stroke="#FFC700" stroke-width="3"/>
<path d="M86.0605 114L97.5 125.561" stroke="#FFC700" stroke-width="3"/>
<path d="M97.5 114L86.0605 125.561" stroke="#FFC700" stroke-width="3"/>
<path d="M100.061 114L111.5 125.561" stroke="#FFC700" stroke-width="3"/>
<path d="M111.5 114L100.061 125.561" stroke="#FFC700" stroke-width="3"/>
<path d="M100.061 86L111.5 97.5605" stroke="#FFC700" stroke-width="3"/>
<path d="M111.5 86L100.061 97.5605" stroke="#FFC700" stroke-width="3"/>
<path d="M72.0605 156L83.5 167.561" stroke="#FFC700" stroke-width="3"/>
<path d="M83.5 156L72.0605 167.561" stroke="#FFC700" stroke-width="3"/>
<path d="M72.0605 142L83.5 153.561" stroke="#FFC700" stroke-width="3"/>
<path d="M83.5 142L72.0605 153.561" stroke="#FFC700" stroke-width="3"/>
<path d="M58.0605 142L69.5 153.561" stroke="#FFC700" stroke-width="3"/>
<path d="M69.5 142L58.0605 153.561" stroke="#FFC700" stroke-width="3"/>
<path d="M44.0605 142L55.5 153.561" stroke="#FFC700" stroke-width="3"/>
<path d="M55.5 142L44.0605 153.561" stroke="#FFC700" stroke-width="3"/>
<path d="M58.0605 128L69.5 139.561" stroke="#FFC700" stroke-width="3"/>
<path d="M69.5 128L58.0605 139.561" stroke="#FFC700" stroke-width="3"/>
<path d="M30.0605 142L41.5 153.561" stroke="#FFC700" stroke-width="3"/>
<path d="M41.5 142L30.0605 153.561" stroke="#FFC700" stroke-width="3"/>
<path d="M30.0605 128L41.5 139.561" stroke="#FFC700" stroke-width="3"/>
<path d="M41.5 128L30.0605 139.561" stroke="#FFC700" stroke-width="3"/>
<path d="M16.0605 142L27.5 153.561" stroke="#FFC700" stroke-width="3"/>
<path d="M27.5 142L16.0605 153.561" stroke="#FFC700" stroke-width="3"/>
<path d="M16.0605 128L27.5 139.561" stroke="#FFC700" stroke-width="3"/>
<path d="M27.5 128L16.0605 139.561" stroke="#FFC700" stroke-width="3"/>
<path d="M16.0605 58L27.5 69.5605" stroke="#FFC700" stroke-width="3"/>
<path d="M27.5 58L16.0605 69.5605" stroke="#FFC700" stroke-width="3"/>
<path d="M44.0605 114L55.5 125.561" stroke="#FFC700" stroke-width="3"/>
<path d="M55.5 114L44.0605 125.561" stroke="#FFC700" stroke-width="3"/>
<path d="M58.0605 86L69.5 97.5605" stroke="#FFC700" stroke-width="3"/>
<path d="M69.5 86L58.0605 97.5605" stroke="#FFC700" stroke-width="3"/>
<path d="M72.0605 128L83.5 139.561" stroke="#FFC700" stroke-width="3"/>
<path d="M83.5 128L72.0605 139.561" stroke="#FFC700" stroke-width="3"/>
<path d="M58.0605 44L69.5 55.5605" stroke="#FFC700" stroke-width="3"/>
<path d="M69.5 44L58.0605 55.5605" stroke="#FFC700" stroke-width="3"/>
<path d="M72.0605 58L83.5 69.5605" stroke="#FFC700" stroke-width="3"/>
<path d="M83.5 58L72.0605 69.5605" stroke="#FFC700" stroke-width="3"/>
<path d="M2.06055 142L13.5 153.561" stroke="#FFC700" stroke-width="3"/>
<path d="M13.5 142L2.06055 153.561" stroke="#FFC700" stroke-width="3"/>
<path d="M226.061 142L237.5 153.561" stroke="#FFC700" stroke-width="3"/>
<path d="M237.5 142L226.061 153.561" stroke="#FFC700" stroke-width="3"/>
<path d="M2.06055 128L13.5 139.561" stroke="#FFC700" stroke-width="3"/>
<path d="M13.5 128L2.06055 139.561" stroke="#FFC700" stroke-width="3"/>
<path d="M2.06055 114L13.5 125.561" stroke="#FFC700" stroke-width="3"/>
<path d="M13.5 114L2.06055 125.561" stroke="#FFC700" stroke-width="3"/>
<path d="M2.06055 86L13.5 97.5605" stroke="#FFC700" stroke-width="3"/>
<path d="M13.5 86L2.06055 97.5605" stroke="#FFC700" stroke-width="3"/>
<path d="M30.0605 72L41.5 83.5605" stroke="#FFC700" stroke-width="3"/>
<path d="M41.5 72L30.0605 83.5605" stroke="#FFC700" stroke-width="3"/>
<path d="M30.0605 30L41.5 41.5605" stroke="#FFC700" stroke-width="3"/>
<path d="M41.5 30L30.0605 41.5605" stroke="#FFC700" stroke-width="3"/>
<path d="M226.061 128L237.5 139.561" stroke="#FFC700" stroke-width="3"/>
<path d="M237.5 128L226.061 139.561" stroke="#FFC700" stroke-width="3"/>
<path d="M226.061 114L237.5 125.561" stroke="#FFC700" stroke-width="3"/>
<path d="M237.5 114L226.061 125.561" stroke="#FFC700" stroke-width="3"/>
<path d="M226.061 100L237.5 111.561" stroke="#FFC700" stroke-width="3"/>
<path d="M237.5 100L226.061 111.561" stroke="#FFC700" stroke-width="3"/>
<path d="M226.061 86L237.5 97.5605" stroke="#FFC700" stroke-width="3"/>
<path d="M237.5 86L226.061 97.5605" stroke="#FFC700" stroke-width="3"/>
<path d="M226.061 72L237.5 83.5605" stroke="#FFC700" stroke-width="3"/>
<path d="M237.5 72L226.061 83.5605" stroke="#FFC700" stroke-width="3"/>
<path d="M226.061 58L237.5 69.5605" stroke="#FFC700" stroke-width="3"/>
<path d="M237.5 58L226.061 69.5605" stroke="#FFC700" stroke-width="3"/>
<path d="M100.061 170L111.5 181.561" stroke="#FFC700" stroke-width="3"/>
<path d="M111.5 170L100.061 181.561" stroke="#FFC700" stroke-width="3"/>
<path d="M100.061 184L111.5 195.561" stroke="#FFC700" stroke-width="3"/>
<path d="M111.5 184L100.061 195.561" stroke="#FFC700" stroke-width="3"/>
<path d="M100.061 198L111.5 209.561" stroke="#FFC700" stroke-width="3"/>
<path d="M111.5 198L100.061 209.561" stroke="#FFC700" stroke-width="3"/>
<path d="M100.061 212L111.5 223.561" stroke="#FFC700" stroke-width="3"/>
<path d="M111.5 212L100.061 223.561" stroke="#FFC700" stroke-width="3"/>
<path d="M100.061 226L111.5 237.561" stroke="#FFC700" stroke-width="3"/>
<path d="M111.5 226L100.061 237.561" stroke="#FFC700" stroke-width="3"/>
<path d="M100.061 2L111.5 13.5605" stroke="#FFC700" stroke-width="3"/>
<path d="M111.5 2L100.061 13.5605" stroke="#FFC700" stroke-width="3"/>
<path d="M100.061 156L111.5 167.561" stroke="#FFC700" stroke-width="3"/>
<path d="M111.5 156L100.061 167.561" stroke="#FFC700" stroke-width="3"/>
<path d="M100.061 142L111.5 153.561" stroke="#FFC700" stroke-width="3"/>
<path d="M111.5 142L100.061 153.561" stroke="#FFC700" stroke-width="3"/>
<path d="M100.061 128L111.5 139.561" stroke="#FFC700" stroke-width="3"/>
<path d="M111.5 128L100.061 139.561" stroke="#FFC700" stroke-width="3"/>
<path d="M114.061 170L125.5 181.561" stroke="#FFC700" stroke-width="3"/>
<path d="M125.5 170L114.061 181.561" stroke="#FFC700" stroke-width="3"/>
<path d="M114.061 184L125.5 195.561" stroke="#FFC700" stroke-width="3"/>
<path d="M125.5 184L114.061 195.561" stroke="#FFC700" stroke-width="3"/>
<path d="M114.061 198L125.5 209.561" stroke="#FFC700" stroke-width="3"/>
<path d="M125.5 198L114.061 209.561" stroke="#FFC700" stroke-width="3"/>
<path d="M114.061 212L125.5 223.561" stroke="#FFC700" stroke-width="3"/>
<path d="M125.5 212L114.061 223.561" stroke="#FFC700" stroke-width="3"/>
<path d="M114.061 226L125.5 237.561" stroke="#FFC700" stroke-width="3"/>
<path d="M125.5 226L114.061 237.561" stroke="#FFC700" stroke-width="3"/>
<path d="M114.061 2L125.5 13.5605" stroke="#FFC700" stroke-width="3"/>
<path d="M125.5 2L114.061 13.5605" stroke="#FFC700" stroke-width="3"/>
<path d="M114.061 30L125.5 41.5605" stroke="#FFC700" stroke-width="3"/>
<path d="M125.5 30L114.061 41.5605" stroke="#FFC700" stroke-width="3"/>
<path d="M114.061 16L125.5 27.5605" stroke="#FFC700" stroke-width="3"/>
<path d="M125.5 16L114.061 27.5605" stroke="#FFC700" stroke-width="3"/>
<path d="M86.0605 2L97.5 13.5605" stroke="#FFC700" stroke-width="3"/>
<path d="M97.5 2L86.0605 13.5605" stroke="#FFC700" stroke-width="3"/>
<path d="M72.0605 2L83.5 13.5605" stroke="#FFC700" stroke-width="3"/>
<path d="M83.5 2L72.0605 13.5605" stroke="#FFC700" stroke-width="3"/>
<path d="M72.0605 2L83.5 13.5605" stroke="#FFC700" stroke-width="3"/>
<path d="M83.5 2L72.0605 13.5605" stroke="#FFC700" stroke-width="3"/>
<path d="M58.0605 16L69.5 27.5605" stroke="#FFC700" stroke-width="3"/>
<path d="M69.5 16L58.0605 27.5605" stroke="#FFC700" stroke-width="3"/>
<path d="M86.0605 16L97.5 27.5605" stroke="#FFC700" stroke-width="3"/>
<path d="M97.5 16L86.0605 27.5605" stroke="#FFC700" stroke-width="3"/>
<path d="M100.061 16L111.5 27.5605" stroke="#FFC700" stroke-width="3"/>
<path d="M111.5 16L100.061 27.5605" stroke="#FFC700" stroke-width="3"/>
<path d="M114.061 156L125.5 167.561" stroke="#FFC700" stroke-width="3"/>
<path d="M125.5 156L114.061 167.561" stroke="#FFC700" stroke-width="3"/>
<path d="M114.061 142L125.5 153.561" stroke="#FFC700" stroke-width="3"/>
<path d="M125.5 142L114.061 153.561" stroke="#FFC700" stroke-width="3"/>
<path d="M114.061 128L125.5 139.561" stroke="#FFC700" stroke-width="3"/>
<path d="M125.5 128L114.061 139.561" stroke="#FFC700" stroke-width="3"/>
<path d="M114.061 114L125.5 125.561" stroke="#FFC700" stroke-width="3"/>
<path d="M125.5 114L114.061 125.561" stroke="#FFC700" stroke-width="3"/>
<path d="M114.061 100L125.5 111.561" stroke="#FFC700" stroke-width="3"/>
<path d="M125.5 100L114.061 111.561" stroke="#FFC700" stroke-width="3"/>
<path d="M128.061 170L139.5 181.561" stroke="#FFC700" stroke-width="3"/>
<path d="M139.5 170L128.061 181.561" stroke="#FFC700" stroke-width="3"/>
<path d="M128.061 184L139.5 195.561" stroke="#FFC700" stroke-width="3"/>
<path d="M139.5 184L128.061 195.561" stroke="#FFC700" stroke-width="3"/>
<path d="M128.061 198L139.5 209.561" stroke="#FFC700" stroke-width="3"/>
<path d="M139.5 198L128.061 209.561" stroke="#FFC700" stroke-width="3"/>
<path d="M128.061 212L139.5 223.561" stroke="#FFC700" stroke-width="3"/>
<path d="M139.5 212L128.061 223.561" stroke="#FFC700" stroke-width="3"/>
<path d="M128.061 226L139.5 237.561" stroke="#FFC700" stroke-width="3"/>
<path d="M139.5 226L128.061 237.561" stroke="#FFC700" stroke-width="3"/>
<path d="M128.061 2L139.5 13.5605" stroke="#FFC700" stroke-width="3"/>
<path d="M139.5 2L128.061 13.5605" stroke="#FFC700" stroke-width="3"/>
<path d="M128.061 58L139.5 69.5605" stroke="#FFC700" stroke-width="3"/>
<path d="M139.5 58L128.061 69.5605" stroke="#FFC700" stroke-width="3"/>
<path d="M100.061 44L111.5 55.5605" stroke="#FFC700" stroke-width="3"/>
<path d="M111.5 44L100.061 55.5605" stroke="#FFC700" stroke-width="3"/>
<path d="M128.061 44L139.5 55.5605" stroke="#FFC700" stroke-width="3"/>
<path d="M139.5 44L128.061 55.5605" stroke="#FFC700" stroke-width="3"/>
<path d="M128.061 30L139.5 41.5605" stroke="#FFC700" stroke-width="3"/>
<path d="M139.5 30L128.061 41.5605" stroke="#FFC700" stroke-width="3"/>
<path d="M128.061 16L139.5 27.5605" stroke="#FFC700" stroke-width="3"/>
<path d="M139.5 16L128.061 27.5605" stroke="#FFC700" stroke-width="3"/>
<path d="M128.061 156L139.5 167.561" stroke="#FFC700" stroke-width="3"/>
<path d="M139.5 156L128.061 167.561" stroke="#FFC700" stroke-width="3"/>
<path d="M128.061 72L139.5 83.5605" stroke="#FFC700" stroke-width="3"/>
<path d="M139.5 72L128.061 83.5605" stroke="#FFC700" stroke-width="3"/>
<path d="M114.061 72L125.5 83.5605" stroke="#FFC700" stroke-width="3"/>
<path d="M125.5 72L114.061 83.5605" stroke="#FFC700" stroke-width="3"/>
<path d="M114.061 58L125.5 69.5605" stroke="#FFC700" stroke-width="3"/>
<path d="M125.5 58L114.061 69.5605" stroke="#FFC700" stroke-width="3"/>
<path d="M128.061 142L139.5 153.561" stroke="#FFC700" stroke-width="3"/>
<path d="M139.5 142L128.061 153.561" stroke="#FFC700" stroke-width="3"/>
<path d="M128.061 128L139.5 139.561" stroke="#FFC700" stroke-width="3"/>
<path d="M139.5 128L128.061 139.561" stroke="#FFC700" stroke-width="3"/>
<path d="M128.061 114L139.5 125.561" stroke="#FFC700" stroke-width="3"/>
<path d="M139.5 114L128.061 125.561" stroke="#FFC700" stroke-width="3"/>
<path d="M128.061 100L139.5 111.561" stroke="#FFC700" stroke-width="3"/>
<path d="M139.5 100L128.061 111.561" stroke="#FFC700" stroke-width="3"/>
<path d="M128.061 86L139.5 97.5605" stroke="#FFC700" stroke-width="3"/>
<path d="M139.5 86L128.061 97.5605" stroke="#FFC700" stroke-width="3"/>
<path d="M142.061 170L153.5 181.561" stroke="#FFC700" stroke-width="3"/>
<path d="M153.5 170L142.061 181.561" stroke="#FFC700" stroke-width="3"/>
<path d="M142.061 184L153.5 195.561" stroke="#FFC700" stroke-width="3"/>
<path d="M153.5 184L142.061 195.561" stroke="#FFC700" stroke-width="3"/>
<path d="M142.061 198L153.5 209.561" stroke="#FFC700" stroke-width="3"/>
<path d="M153.5 198L142.061 209.561" stroke="#FFC700" stroke-width="3"/>
<path d="M142.061 212L153.5 223.561" stroke="#FFC700" stroke-width="3"/>
<path d="M153.5 212L142.061 223.561" stroke="#FFC700" stroke-width="3"/>
<path d="M142.061 226L153.5 237.561" stroke="#FFC700" stroke-width="3"/>
<path d="M153.5 226L142.061 237.561" stroke="#FFC700" stroke-width="3"/>
<path d="M142.061 2L153.5 13.5605" stroke="#FFC700" stroke-width="3"/>
<path d="M153.5 2L142.061 13.5605" stroke="#FFC700" stroke-width="3"/>
<path d="M142.061 58L153.5 69.5605" stroke="#FFC700" stroke-width="3"/>
<path d="M153.5 58L142.061 69.5605" stroke="#FFC700" stroke-width="3"/>
<path d="M142.061 44L153.5 55.5605" stroke="#FFC700" stroke-width="3"/>
<path d="M153.5 44L142.061 55.5605" stroke="#FFC700" stroke-width="3"/>
<path d="M142.061 30L153.5 41.5605" stroke="#FFC700" stroke-width="3"/>
<path d="M153.5 30L142.061 41.5605" stroke="#FFC700" stroke-width="3"/>
<path d="M142.061 16L153.5 27.5605" stroke="#FFC700" stroke-width="3"/>
<path d="M153.5 16L142.061 27.5605" stroke="#FFC700" stroke-width="3"/>
<path d="M156.061 58L167.5 69.5605" stroke="#FFC700" stroke-width="3"/>
<path d="M167.5 58L156.061 69.5605" stroke="#FFC700" stroke-width="3"/>
<path d="M156.061 44L167.5 55.5605" stroke="#FFC700" stroke-width="3"/>
<path d="M167.5 44L156.061 55.5605" stroke="#FFC700" stroke-width="3"/>
<path d="M156.061 30L167.5 41.5605" stroke="#FFC700" stroke-width="3"/>
<path d="M167.5 30L156.061 41.5605" stroke="#FFC700" stroke-width="3"/>
<path d="M156.061 16L167.5 27.5605" stroke="#FFC700" stroke-width="3"/>
<path d="M167.5 16L156.061 27.5605" stroke="#FFC700" stroke-width="3"/>
<path d="M170.061 58L181.5 69.5605" stroke="#FFC700" stroke-width="3"/>
<path d="M181.5 58L170.061 69.5605" stroke="#FFC700" stroke-width="3"/>
<path d="M170.061 44L181.5 55.5605" stroke="#FFC700" stroke-width="3"/>
<path d="M181.5 44L170.061 55.5605" stroke="#FFC700" stroke-width="3"/>
<path d="M170.061 30L181.5 41.5605" stroke="#FFC700" stroke-width="3"/>
<path d="M181.5 30L170.061 41.5605" stroke="#FFC700" stroke-width="3"/>
<path d="M170.061 16L181.5 27.5605" stroke="#FFC700" stroke-width="3"/>
<path d="M181.5 16L170.061 27.5605" stroke="#FFC700" stroke-width="3"/>
<path d="M184.061 58L195.5 69.5605" stroke="#FFC700" stroke-width="3"/>
<path d="M195.5 58L184.061 69.5605" stroke="#FFC700" stroke-width="3"/>
<path d="M184.061 44L195.5 55.5605" stroke="#FFC700" stroke-width="3"/>
<path d="M195.5 44L184.061 55.5605" stroke="#FFC700" stroke-width="3"/>
<path d="M184.061 30L195.5 41.5605" stroke="#FFC700" stroke-width="3"/>
<path d="M195.5 30L184.061 41.5605" stroke="#FFC700" stroke-width="3"/>
<path d="M184.061 16L195.5 27.5605" stroke="#FFC700" stroke-width="3"/>
<path d="M195.5 16L184.061 27.5605" stroke="#FFC700" stroke-width="3"/>
<path d="M198.061 58L209.5 69.5605" stroke="#FFC700" stroke-width="3"/>
<path d="M209.5 58L198.061 69.5605" stroke="#FFC700" stroke-width="3"/>
<path d="M198.061 44L209.5 55.5605" stroke="#FFC700" stroke-width="3"/>
<path d="M209.5 44L198.061 55.5605" stroke="#FFC700" stroke-width="3"/>
<path d="M198.061 30L209.5 41.5605" stroke="#FFC700" stroke-width="3"/>
<path d="M209.5 30L198.061 41.5605" stroke="#FFC700" stroke-width="3"/>
<path d="M212.061 58L223.5 69.5605" stroke="#FFC700" stroke-width="3"/>
<path d="M223.5 58L212.061 69.5605" stroke="#FFC700" stroke-width="3"/>
<path d="M212.061 44L223.5 55.5605" stroke="#FFC700" stroke-width="3"/>
<path d="M223.5 44L212.061 55.5605" stroke="#FFC700" stroke-width="3"/>
<path d="M170.061 72L181.5 83.5605" stroke="#FFC700" stroke-width="3"/>
<path d="M181.5 72L170.061 83.5605" stroke="#FFC700" stroke-width="3"/>
<path d="M184.061 72L195.5 83.5605" stroke="#FFC700" stroke-width="3"/>
<path d="M195.5 72L184.061 83.5605" stroke="#FFC700" stroke-width="3"/>
<path d="M198.061 72L209.5 83.5605" stroke="#FFC700" stroke-width="3"/>
<path d="M209.5 72L198.061 83.5605" stroke="#FFC700" stroke-width="3"/>
<path d="M212.061 72L223.5 83.5605" stroke="#FFC700" stroke-width="3"/>
<path d="M223.5 72L212.061 83.5605" stroke="#FFC700" stroke-width="3"/>
<path d="M142.061 156L153.5 167.561" stroke="#FFC700" stroke-width="3"/>
<path d="M153.5 156L142.061 167.561" stroke="#FFC700" stroke-width="3"/>
<path d="M142.061 72L153.5 83.5605" stroke="#FFC700" stroke-width="3"/>
<path d="M153.5 72L142.061 83.5605" stroke="#FFC700" stroke-width="3"/>
<path d="M142.061 142L153.5 153.561" stroke="#FFC700" stroke-width="3"/>
<path d="M153.5 142L142.061 153.561" stroke="#FFC700" stroke-width="3"/>
<path d="M142.061 128L153.5 139.561" stroke="#FFC700" stroke-width="3"/>
<path d="M153.5 128L142.061 139.561" stroke="#FFC700" stroke-width="3"/>
<path d="M142.061 114L153.5 125.561" stroke="#FFC700" stroke-width="3"/>
<path d="M153.5 114L142.061 125.561" stroke="#FFC700" stroke-width="3"/>
<path d="M142.061 100L153.5 111.561" stroke="#FFC700" stroke-width="3"/>
<path d="M153.5 100L142.061 111.561" stroke="#FFC700" stroke-width="3"/>
<path d="M142.061 86L153.5 97.5605" stroke="#FFC700" stroke-width="3"/>
<path d="M153.5 86L142.061 97.5605" stroke="#FFC700" stroke-width="3"/>
<path d="M156.061 156L167.5 167.561" stroke="#FFC700" stroke-width="3"/>
<path d="M167.5 156L156.061 167.561" stroke="#FFC700" stroke-width="3"/>
<path d="M156.061 72L167.5 83.5605" stroke="#FFC700" stroke-width="3"/>
<path d="M167.5 72L156.061 83.5605" stroke="#FFC700" stroke-width="3"/>
<path d="M156.061 142L167.5 153.561" stroke="#FFC700" stroke-width="3"/>
<path d="M167.5 142L156.061 153.561" stroke="#FFC700" stroke-width="3"/>
<path d="M156.061 128L167.5 139.561" stroke="#FFC700" stroke-width="3"/>
<path d="M167.5 128L156.061 139.561" stroke="#FFC700" stroke-width="3"/>
<path d="M156.061 114L167.5 125.561" stroke="#FFC700" stroke-width="3"/>
<path d="M167.5 114L156.061 125.561" stroke="#FFC700" stroke-width="3"/>
<path d="M156.061 100L167.5 111.561" stroke="#FFC700" stroke-width="3"/>
<path d="M167.5 100L156.061 111.561" stroke="#FFC700" stroke-width="3"/>
<path d="M156.061 86L167.5 97.5605" stroke="#FFC700" stroke-width="3"/>
<path d="M167.5 86L156.061 97.5605" stroke="#FFC700" stroke-width="3"/>
<path d="M170.061 142L181.5 153.561" stroke="#FFC700" stroke-width="3"/>
<path d="M181.5 142L170.061 153.561" stroke="#FFC700" stroke-width="3"/>
<path d="M184.061 142L195.5 153.561" stroke="#FFC700" stroke-width="3"/>
<path d="M195.5 142L184.061 153.561" stroke="#FFC700" stroke-width="3"/>
<path d="M198.061 142L209.5 153.561" stroke="#FFC700" stroke-width="3"/>
<path d="M209.5 142L198.061 153.561" stroke="#FFC700" stroke-width="3"/>
<path d="M212.061 142L223.5 153.561" stroke="#FFC700" stroke-width="3"/>
<path d="M223.5 142L212.061 153.561" stroke="#FFC700" stroke-width="3"/>
<path d="M170.061 128L181.5 139.561" stroke="#FFC700" stroke-width="3"/>
<path d="M181.5 128L170.061 139.561" stroke="#FFC700" stroke-width="3"/>
<path d="M184.061 128L195.5 139.561" stroke="#FFC700" stroke-width="3"/>
<path d="M195.5 128L184.061 139.561" stroke="#FFC700" stroke-width="3"/>
<path d="M198.061 128L209.5 139.561" stroke="#FFC700" stroke-width="3"/>
<path d="M209.5 128L198.061 139.561" stroke="#FFC700" stroke-width="3"/>
<path d="M212.061 128L223.5 139.561" stroke="#FFC700" stroke-width="3"/>
<path d="M223.5 128L212.061 139.561" stroke="#FFC700" stroke-width="3"/>
<path d="M170.061 114L181.5 125.561" stroke="#FFC700" stroke-width="3"/>
<path d="M181.5 114L170.061 125.561" stroke="#FFC700" stroke-width="3"/>
<path d="M184.061 114L195.5 125.561" stroke="#FFC700" stroke-width="3"/>
<path d="M195.5 114L184.061 125.561" stroke="#FFC700" stroke-width="3"/>
<path d="M198.061 114L209.5 125.561" stroke="#FFC700" stroke-width="3"/>
<path d="M209.5 114L198.061 125.561" stroke="#FFC700" stroke-width="3"/>
<path d="M212.061 114L223.5 125.561" stroke="#FFC700" stroke-width="3"/>
<path d="M223.5 114L212.061 125.561" stroke="#FFC700" stroke-width="3"/>
<path d="M170.061 100L181.5 111.561" stroke="#FFC700" stroke-width="3"/>
<path d="M181.5 100L170.061 111.561" stroke="#FFC700" stroke-width="3"/>
<path d="M184.061 100L195.5 111.561" stroke="#FFC700" stroke-width="3"/>
<path d="M195.5 100L184.061 111.561" stroke="#FFC700" stroke-width="3"/>
<path d="M198.061 100L209.5 111.561" stroke="#FFC700" stroke-width="3"/>
<path d="M209.5 100L198.061 111.561" stroke="#FFC700" stroke-width="3"/>
<path d="M212.061 100L223.5 111.561" stroke="#FFC700" stroke-width="3"/>
<path d="M223.5 100L212.061 111.561" stroke="#FFC700" stroke-width="3"/>
<path d="M170.061 86L181.5 97.5605" stroke="#FFC700" stroke-width="3"/>
<path d="M181.5 86L170.061 97.5605" stroke="#FFC700" stroke-width="3"/>
<path d="M184.061 86L195.5 97.5605" stroke="#FFC700" stroke-width="3"/>
<path d="M195.5 86L184.061 97.5605" stroke="#FFC700" stroke-width="3"/>
<path d="M198.061 86L209.5 97.5605" stroke="#FFC700" stroke-width="3"/>
<path d="M209.5 86L198.061 97.5605" stroke="#FFC700" stroke-width="3"/>
<path d="M212.061 86L223.5 97.5605" stroke="#FFC700" stroke-width="3"/>
<path d="M223.5 86L212.061 97.5605" stroke="#FFC700" stroke-width="3"/>
</svg>
