<svg width="1891" height="67" viewBox="0 0 1891 67" fill="none" xmlns="http://www.w3.org/2000/svg">
<path d="M752.061 28L763.5 39.5605" stroke="#038910" stroke-width="3"/>
<path d="M763.5 28L752.061 39.5605" stroke="#038910" stroke-width="3"/>
<path d="M1322.06 28L1333.5 39.5605" stroke="#038910" stroke-width="3"/>
<path d="M1333.5 28L1322.06 39.5605" stroke="#038910" stroke-width="3"/>
<path d="M168.061 28L179.5 39.5605" stroke="#038910" stroke-width="3"/>
<path d="M179.5 28L168.061 39.5605" stroke="#038910" stroke-width="3"/>
<path d="M850.061 28L861.5 39.5605" stroke="#038910" stroke-width="3"/>
<path d="M861.5 28L850.061 39.5605" stroke="#038910" stroke-width="3"/>
<path d="M1420.06 28L1431.5 39.5605" stroke="#038910" stroke-width="3"/>
<path d="M1431.5 28L1420.06 39.5605" stroke="#038910" stroke-width="3"/>
<path d="M266.061 28L277.5 39.5605" stroke="#038910" stroke-width="3"/>
<path d="M277.5 28L266.061 39.5605" stroke="#038910" stroke-width="3"/>
<path d="M947.061 28L958.5 39.5605" stroke="#038910" stroke-width="3"/>
<path d="M958.5 28L947.061 39.5605" stroke="#038910" stroke-width="3"/>
<path d="M1517.06 28L1528.5 39.5605" stroke="#038910" stroke-width="3"/>
<path d="M1528.5 28L1517.06 39.5605" stroke="#038910" stroke-width="3"/>
<path d="M363.061 28L374.5 39.5605" stroke="#038910" stroke-width="3"/>
<path d="M374.5 28L363.061 39.5605" stroke="#038910" stroke-width="3"/>
<path d="M1044.06 28L1055.5 39.5605" stroke="#038910" stroke-width="3"/>
<path d="M1055.5 28L1044.06 39.5605" stroke="#038910" stroke-width="3"/>
<path d="M1614.06 28L1625.5 39.5605" stroke="#038910" stroke-width="3"/>
<path d="M1625.5 28L1614.06 39.5605" stroke="#038910" stroke-width="3"/>
<path d="M460.061 28L471.5 39.5605" stroke="#038910" stroke-width="3"/>
<path d="M471.5 28L460.061 39.5605" stroke="#038910" stroke-width="3"/>
<path d="M1808.06 28L1819.5 39.5605" stroke="#038910" stroke-width="3"/>
<path d="M1819.5 28L1808.06 39.5605" stroke="#038910" stroke-width="3"/>
<path d="M655.061 28L666.5 39.5605" stroke="#038910" stroke-width="3"/>
<path d="M666.5 28L655.061 39.5605" stroke="#038910" stroke-width="3"/>
<path d="M1225.06 28L1236.5 39.5605" stroke="#038910" stroke-width="3"/>
<path d="M1236.5 28L1225.06 39.5605" stroke="#038910" stroke-width="3"/>
<path d="M71.0605 28L82.5 39.5605" stroke="#038910" stroke-width="3"/>
<path d="M82.5 28L71.0605 39.5605" stroke="#038910" stroke-width="3"/>
<path d="M1711.06 28L1722.5 39.5605" stroke="#038910" stroke-width="3"/>
<path d="M1722.5 28L1711.06 39.5605" stroke="#038910" stroke-width="3"/>
<path d="M558.061 28L569.5 39.5605" stroke="#038910" stroke-width="3"/>
<path d="M569.5 28L558.061 39.5605" stroke="#038910" stroke-width="3"/>
<path d="M1128.06 28L1139.5 39.5605" stroke="#038910" stroke-width="3"/>
<path d="M1139.5 28L1128.06 39.5605" stroke="#038910" stroke-width="3"/>
<path d="M766.061 28L777.5 39.5605" stroke="#038910" stroke-width="3"/>
<path d="M777.5 28L766.061 39.5605" stroke="#038910" stroke-width="3"/>
<path d="M1336.06 28L1347.5 39.5605" stroke="#038910" stroke-width="3"/>
<path d="M1347.5 28L1336.06 39.5605" stroke="#038910" stroke-width="3"/>
<path d="M182.061 28L193.5 39.5605" stroke="#038910" stroke-width="3"/>
<path d="M193.5 28L182.061 39.5605" stroke="#038910" stroke-width="3"/>
<path d="M864.061 28L875.5 39.5605" stroke="#038910" stroke-width="3"/>
<path d="M875.5 28L864.061 39.5605" stroke="#038910" stroke-width="3"/>
<path d="M1434.06 28L1445.5 39.5605" stroke="#038910" stroke-width="3"/>
<path d="M1445.5 28L1434.06 39.5605" stroke="#038910" stroke-width="3"/>
<path d="M280.061 28L291.5 39.5605" stroke="#038910" stroke-width="3"/>
<path d="M291.5 28L280.061 39.5605" stroke="#038910" stroke-width="3"/>
<path d="M961.061 28L972.5 39.5605" stroke="#038910" stroke-width="3"/>
<path d="M972.5 28L961.061 39.5605" stroke="#038910" stroke-width="3"/>
<path d="M1531.06 28L1542.5 39.5605" stroke="#038910" stroke-width="3"/>
<path d="M1542.5 28L1531.06 39.5605" stroke="#038910" stroke-width="3"/>
<path d="M377.061 28L388.5 39.5605" stroke="#038910" stroke-width="3"/>
<path d="M388.5 28L377.061 39.5605" stroke="#038910" stroke-width="3"/>
<path d="M1058.06 28L1069.5 39.5605" stroke="#038910" stroke-width="3"/>
<path d="M1069.5 28L1058.06 39.5605" stroke="#038910" stroke-width="3"/>
<path d="M1628.06 28L1639.5 39.5605" stroke="#038910" stroke-width="3"/>
<path d="M1639.5 28L1628.06 39.5605" stroke="#038910" stroke-width="3"/>
<path d="M474.061 28L485.5 39.5605" stroke="#038910" stroke-width="3"/>
<path d="M485.5 28L474.061 39.5605" stroke="#038910" stroke-width="3"/>
<path d="M1822.06 28L1833.5 39.5605" stroke="#038910" stroke-width="3"/>
<path d="M1833.5 28L1822.06 39.5605" stroke="#038910" stroke-width="3"/>
<path d="M669.061 28L680.5 39.5605" stroke="#038910" stroke-width="3"/>
<path d="M680.5 28L669.061 39.5605" stroke="#038910" stroke-width="3"/>
<path d="M1239.06 28L1250.5 39.5605" stroke="#038910" stroke-width="3"/>
<path d="M1250.5 28L1239.06 39.5605" stroke="#038910" stroke-width="3"/>
<path d="M85.0605 28L96.5 39.5605" stroke="#038910" stroke-width="3"/>
<path d="M96.5 28L85.0605 39.5605" stroke="#038910" stroke-width="3"/>
<path d="M1725.06 28L1736.5 39.5605" stroke="#038910" stroke-width="3"/>
<path d="M1736.5 28L1725.06 39.5605" stroke="#038910" stroke-width="3"/>
<path d="M572.061 28L583.5 39.5605" stroke="#038910" stroke-width="3"/>
<path d="M583.5 28L572.061 39.5605" stroke="#038910" stroke-width="3"/>
<path d="M1142.06 28L1153.5 39.5605" stroke="#038910" stroke-width="3"/>
<path d="M1153.5 28L1142.06 39.5605" stroke="#038910" stroke-width="3"/>
<path d="M780.061 28L791.5 39.5605" stroke="#038910" stroke-width="3"/>
<path d="M791.5 28L780.061 39.5605" stroke="#038910" stroke-width="3"/>
<path d="M1350.06 28L1361.5 39.5605" stroke="#038910" stroke-width="3"/>
<path d="M1361.5 28L1350.06 39.5605" stroke="#038910" stroke-width="3"/>
<path d="M196.061 28L207.5 39.5605" stroke="#038910" stroke-width="3"/>
<path d="M207.5 28L196.061 39.5605" stroke="#038910" stroke-width="3"/>
<path d="M878.061 28L889.5 39.5605" stroke="#038910" stroke-width="3"/>
<path d="M889.5 28L878.061 39.5605" stroke="#038910" stroke-width="3"/>
<path d="M1448.06 28L1459.5 39.5605" stroke="#038910" stroke-width="3"/>
<path d="M1459.5 28L1448.06 39.5605" stroke="#038910" stroke-width="3"/>
<path d="M294.061 28L305.5 39.5605" stroke="#038910" stroke-width="3"/>
<path d="M305.5 28L294.061 39.5605" stroke="#038910" stroke-width="3"/>
<path d="M975.061 28L986.5 39.5605" stroke="#038910" stroke-width="3"/>
<path d="M986.5 28L975.061 39.5605" stroke="#038910" stroke-width="3"/>
<path d="M1545.06 28L1556.5 39.5605" stroke="#038910" stroke-width="3"/>
<path d="M1556.5 28L1545.06 39.5605" stroke="#038910" stroke-width="3"/>
<path d="M391.061 28L402.5 39.5605" stroke="#038910" stroke-width="3"/>
<path d="M402.5 28L391.061 39.5605" stroke="#038910" stroke-width="3"/>
<path d="M1072.06 28L1083.5 39.5605" stroke="#038910" stroke-width="3"/>
<path d="M1083.5 28L1072.06 39.5605" stroke="#038910" stroke-width="3"/>
<path d="M1642.06 28L1653.5 39.5605" stroke="#038910" stroke-width="3"/>
<path d="M1653.5 28L1642.06 39.5605" stroke="#038910" stroke-width="3"/>
<path d="M488.061 28L499.5 39.5605" stroke="#038910" stroke-width="3"/>
<path d="M499.5 28L488.061 39.5605" stroke="#038910" stroke-width="3"/>
<path d="M1836.06 28L1847.5 39.5605" stroke="#038910" stroke-width="3"/>
<path d="M1847.5 28L1836.06 39.5605" stroke="#038910" stroke-width="3"/>
<path d="M683.061 28L694.5 39.5605" stroke="#038910" stroke-width="3"/>
<path d="M694.5 28L683.061 39.5605" stroke="#038910" stroke-width="3"/>
<path d="M1253.06 28L1264.5 39.5605" stroke="#038910" stroke-width="3"/>
<path d="M1264.5 28L1253.06 39.5605" stroke="#038910" stroke-width="3"/>
<path d="M99.0605 28L110.5 39.5605" stroke="#038910" stroke-width="3"/>
<path d="M110.5 28L99.0605 39.5605" stroke="#038910" stroke-width="3"/>
<path d="M1739.06 28L1750.5 39.5605" stroke="#038910" stroke-width="3"/>
<path d="M1750.5 28L1739.06 39.5605" stroke="#038910" stroke-width="3"/>
<path d="M586.061 28L597.5 39.5605" stroke="#038910" stroke-width="3"/>
<path d="M597.5 28L586.061 39.5605" stroke="#038910" stroke-width="3"/>
<path d="M1156.06 28L1167.5 39.5605" stroke="#038910" stroke-width="3"/>
<path d="M1167.5 28L1156.06 39.5605" stroke="#038910" stroke-width="3"/>
<path d="M794.061 28L805.5 39.5605" stroke="#038910" stroke-width="3"/>
<path d="M805.5 28L794.061 39.5605" stroke="#038910" stroke-width="3"/>
<path d="M1364.06 28L1375.5 39.5605" stroke="#038910" stroke-width="3"/>
<path d="M1375.5 28L1364.06 39.5605" stroke="#038910" stroke-width="3"/>
<path d="M210.061 28L221.5 39.5605" stroke="#038910" stroke-width="3"/>
<path d="M221.5 28L210.061 39.5605" stroke="#038910" stroke-width="3"/>
<path d="M892.061 28L903.5 39.5605" stroke="#038910" stroke-width="3"/>
<path d="M903.5 28L892.061 39.5605" stroke="#038910" stroke-width="3"/>
<path d="M1462.06 28L1473.5 39.5605" stroke="#038910" stroke-width="3"/>
<path d="M1473.5 28L1462.06 39.5605" stroke="#038910" stroke-width="3"/>
<path d="M308.061 28L319.5 39.5605" stroke="#038910" stroke-width="3"/>
<path d="M319.5 28L308.061 39.5605" stroke="#038910" stroke-width="3"/>
<path d="M989.061 28L1000.5 39.5605" stroke="#038910" stroke-width="3"/>
<path d="M1000.5 28L989.061 39.5605" stroke="#038910" stroke-width="3"/>
<path d="M1559.06 28L1570.5 39.5605" stroke="#038910" stroke-width="3"/>
<path d="M1570.5 28L1559.06 39.5605" stroke="#038910" stroke-width="3"/>
<path d="M405.061 28L416.5 39.5605" stroke="#038910" stroke-width="3"/>
<path d="M416.5 28L405.061 39.5605" stroke="#038910" stroke-width="3"/>
<path d="M1086.06 28L1097.5 39.5605" stroke="#038910" stroke-width="3"/>
<path d="M1097.5 28L1086.06 39.5605" stroke="#038910" stroke-width="3"/>
<path d="M1656.06 28L1667.5 39.5605" stroke="#038910" stroke-width="3"/>
<path d="M1667.5 28L1656.06 39.5605" stroke="#038910" stroke-width="3"/>
<path d="M502.061 28L513.5 39.5605" stroke="#038910" stroke-width="3"/>
<path d="M513.5 28L502.061 39.5605" stroke="#038910" stroke-width="3"/>
<path d="M1850.06 28L1861.5 39.5605" stroke="#038910" stroke-width="3"/>
<path d="M1861.5 28L1850.06 39.5605" stroke="#038910" stroke-width="3"/>
<path d="M697.061 28L708.5 39.5605" stroke="#038910" stroke-width="3"/>
<path d="M708.5 28L697.061 39.5605" stroke="#038910" stroke-width="3"/>
<path d="M1267.06 28L1278.5 39.5605" stroke="#038910" stroke-width="3"/>
<path d="M1278.5 28L1267.06 39.5605" stroke="#038910" stroke-width="3"/>
<path d="M113.061 28L124.5 39.5605" stroke="#038910" stroke-width="3"/>
<path d="M124.5 28L113.061 39.5605" stroke="#038910" stroke-width="3"/>
<path d="M1753.06 28L1764.5 39.5605" stroke="#038910" stroke-width="3"/>
<path d="M1764.5 28L1753.06 39.5605" stroke="#038910" stroke-width="3"/>
<path d="M600.061 28L611.5 39.5605" stroke="#038910" stroke-width="3"/>
<path d="M611.5 28L600.061 39.5605" stroke="#038910" stroke-width="3"/>
<path d="M1170.06 28L1181.5 39.5605" stroke="#038910" stroke-width="3"/>
<path d="M1181.5 28L1170.06 39.5605" stroke="#038910" stroke-width="3"/>
<path d="M16.0605 28L27.5 39.5605" stroke="#038910" stroke-width="3"/>
<path d="M27.5 28L16.0605 39.5605" stroke="#038910" stroke-width="3"/>
<path d="M808.061 28L819.5 39.5605" stroke="#038910" stroke-width="3"/>
<path d="M819.5 28L808.061 39.5605" stroke="#038910" stroke-width="3"/>
<path d="M1378.06 28L1389.5 39.5605" stroke="#038910" stroke-width="3"/>
<path d="M1389.5 28L1378.06 39.5605" stroke="#038910" stroke-width="3"/>
<path d="M224.061 28L235.5 39.5605" stroke="#038910" stroke-width="3"/>
<path d="M235.5 28L224.061 39.5605" stroke="#038910" stroke-width="3"/>
<path d="M906.061 28L917.5 39.5605" stroke="#038910" stroke-width="3"/>
<path d="M917.5 28L906.061 39.5605" stroke="#038910" stroke-width="3"/>
<path d="M1476.06 28L1487.5 39.5605" stroke="#038910" stroke-width="3"/>
<path d="M1487.5 28L1476.06 39.5605" stroke="#038910" stroke-width="3"/>
<path d="M322.061 28L333.5 39.5605" stroke="#038910" stroke-width="3"/>
<path d="M333.5 28L322.061 39.5605" stroke="#038910" stroke-width="3"/>
<path d="M1003.06 28L1014.5 39.5605" stroke="#038910" stroke-width="3"/>
<path d="M1014.5 28L1003.06 39.5605" stroke="#038910" stroke-width="3"/>
<path d="M1573.06 28L1584.5 39.5605" stroke="#038910" stroke-width="3"/>
<path d="M1584.5 28L1573.06 39.5605" stroke="#038910" stroke-width="3"/>
<path d="M419.061 28L430.5 39.5605" stroke="#038910" stroke-width="3"/>
<path d="M430.5 28L419.061 39.5605" stroke="#038910" stroke-width="3"/>
<path d="M1100.06 28L1111.5 39.5605" stroke="#038910" stroke-width="3"/>
<path d="M1111.5 28L1100.06 39.5605" stroke="#038910" stroke-width="3"/>
<path d="M1670.06 28L1681.5 39.5605" stroke="#038910" stroke-width="3"/>
<path d="M1681.5 28L1670.06 39.5605" stroke="#038910" stroke-width="3"/>
<path d="M516.061 28L527.5 39.5605" stroke="#038910" stroke-width="3"/>
<path d="M527.5 28L516.061 39.5605" stroke="#038910" stroke-width="3"/>
<path d="M711.061 28L722.5 39.5605" stroke="#038910" stroke-width="3"/>
<path d="M722.5 28L711.061 39.5605" stroke="#038910" stroke-width="3"/>
<path d="M1281.06 28L1292.5 39.5605" stroke="#038910" stroke-width="3"/>
<path d="M1292.5 28L1281.06 39.5605" stroke="#038910" stroke-width="3"/>
<path d="M127.061 28L138.5 39.5605" stroke="#038910" stroke-width="3"/>
<path d="M138.5 28L127.061 39.5605" stroke="#038910" stroke-width="3"/>
<path d="M1767.06 28L1778.5 39.5605" stroke="#038910" stroke-width="3"/>
<path d="M1778.5 28L1767.06 39.5605" stroke="#038910" stroke-width="3"/>
<path d="M614.061 28L625.5 39.5605" stroke="#038910" stroke-width="3"/>
<path d="M625.5 28L614.061 39.5605" stroke="#038910" stroke-width="3"/>
<path d="M1184.06 28L1195.5 39.5605" stroke="#038910" stroke-width="3"/>
<path d="M1195.5 28L1184.06 39.5605" stroke="#038910" stroke-width="3"/>
<path d="M30.0605 28L41.5 39.5605" stroke="#038910" stroke-width="3"/>
<path d="M41.5 28L30.0605 39.5605" stroke="#038910" stroke-width="3"/>
<path d="M822.061 28L833.5 39.5605" stroke="#038910" stroke-width="3"/>
<path d="M833.5 28L822.061 39.5605" stroke="#038910" stroke-width="3"/>
<path d="M1392.06 28L1403.5 39.5605" stroke="#038910" stroke-width="3"/>
<path d="M1403.5 28L1392.06 39.5605" stroke="#038910" stroke-width="3"/>
<path d="M238.061 28L249.5 39.5605" stroke="#038910" stroke-width="3"/>
<path d="M249.5 28L238.061 39.5605" stroke="#038910" stroke-width="3"/>
<path d="M920.061 28L931.5 39.5605" stroke="#038910" stroke-width="3"/>
<path d="M931.5 28L920.061 39.5605" stroke="#038910" stroke-width="3"/>
<path d="M1490.06 28L1501.5 39.5605" stroke="#038910" stroke-width="3"/>
<path d="M1501.5 28L1490.06 39.5605" stroke="#038910" stroke-width="3"/>
<path d="M336.061 28L347.5 39.5605" stroke="#038910" stroke-width="3"/>
<path d="M347.5 28L336.061 39.5605" stroke="#038910" stroke-width="3"/>
<path d="M1017.06 28L1028.5 39.5605" stroke="#038910" stroke-width="3"/>
<path d="M1028.5 28L1017.06 39.5605" stroke="#038910" stroke-width="3"/>
<path d="M1587.06 28L1598.5 39.5605" stroke="#038910" stroke-width="3"/>
<path d="M1598.5 28L1587.06 39.5605" stroke="#038910" stroke-width="3"/>
<path d="M433.061 28L444.5 39.5605" stroke="#038910" stroke-width="3"/>
<path d="M444.5 28L433.061 39.5605" stroke="#038910" stroke-width="3"/>
<path d="M1114.06 28L1125.5 39.5605" stroke="#038910" stroke-width="3"/>
<path d="M1125.5 28L1114.06 39.5605" stroke="#038910" stroke-width="3"/>
<path d="M1684.06 28L1695.5 39.5605" stroke="#038910" stroke-width="3"/>
<path d="M1695.5 28L1684.06 39.5605" stroke="#038910" stroke-width="3"/>
<path d="M530.061 28L541.5 39.5605" stroke="#038910" stroke-width="3"/>
<path d="M541.5 28L530.061 39.5605" stroke="#038910" stroke-width="3"/>
<path d="M725.061 28L736.5 39.5605" stroke="#038910" stroke-width="3"/>
<path d="M736.5 28L725.061 39.5605" stroke="#038910" stroke-width="3"/>
<path d="M1295.06 28L1306.5 39.5605" stroke="#038910" stroke-width="3"/>
<path d="M1306.5 28L1295.06 39.5605" stroke="#038910" stroke-width="3"/>
<path d="M141.061 28L152.5 39.5605" stroke="#038910" stroke-width="3"/>
<path d="M152.5 28L141.061 39.5605" stroke="#038910" stroke-width="3"/>
<path d="M1781.06 28L1792.5 39.5605" stroke="#038910" stroke-width="3"/>
<path d="M1792.5 28L1781.06 39.5605" stroke="#038910" stroke-width="3"/>
<path d="M628.061 28L639.5 39.5605" stroke="#038910" stroke-width="3"/>
<path d="M639.5 28L628.061 39.5605" stroke="#038910" stroke-width="3"/>
<path d="M1198.06 28L1209.5 39.5605" stroke="#038910" stroke-width="3"/>
<path d="M1209.5 28L1198.06 39.5605" stroke="#038910" stroke-width="3"/>
<path d="M44.0605 28L55.5 39.5605" stroke="#038910" stroke-width="3"/>
<path d="M55.5 28L44.0605 39.5605" stroke="#038910" stroke-width="3"/>
<path d="M836.061 28L847.5 39.5605" stroke="#038910" stroke-width="3"/>
<path d="M847.5 28L836.061 39.5605" stroke="#038910" stroke-width="3"/>
<path d="M1406.06 28L1417.5 39.5605" stroke="#038910" stroke-width="3"/>
<path d="M1417.5 28L1406.06 39.5605" stroke="#038910" stroke-width="3"/>
<path d="M252.061 28L263.5 39.5605" stroke="#038910" stroke-width="3"/>
<path d="M263.5 28L252.061 39.5605" stroke="#038910" stroke-width="3"/>
<path d="M933.061 28L944.5 39.5605" stroke="#038910" stroke-width="3"/>
<path d="M944.5 28L933.061 39.5605" stroke="#038910" stroke-width="3"/>
<path d="M1503.06 28L1514.5 39.5605" stroke="#038910" stroke-width="3"/>
<path d="M1514.5 28L1503.06 39.5605" stroke="#038910" stroke-width="3"/>
<path d="M349.061 28L360.5 39.5605" stroke="#038910" stroke-width="3"/>
<path d="M360.5 28L349.061 39.5605" stroke="#038910" stroke-width="3"/>
<path d="M1030.06 28L1041.5 39.5605" stroke="#038910" stroke-width="3"/>
<path d="M1041.5 28L1030.06 39.5605" stroke="#038910" stroke-width="3"/>
<path d="M1600.06 28L1611.5 39.5605" stroke="#038910" stroke-width="3"/>
<path d="M1611.5 28L1600.06 39.5605" stroke="#038910" stroke-width="3"/>
<path d="M447.061 28L458.5 39.5605" stroke="#038910" stroke-width="3"/>
<path d="M458.5 28L447.061 39.5605" stroke="#038910" stroke-width="3"/>
<path d="M1697.06 28L1708.5 39.5605" stroke="#038910" stroke-width="3"/>
<path d="M1708.5 28L1697.06 39.5605" stroke="#038910" stroke-width="3"/>
<path d="M544.061 28L555.5 39.5605" stroke="#038910" stroke-width="3"/>
<path d="M555.5 28L544.061 39.5605" stroke="#038910" stroke-width="3"/>
<path d="M738.061 28L749.5 39.5605" stroke="#038910" stroke-width="3"/>
<path d="M749.5 28L738.061 39.5605" stroke="#038910" stroke-width="3"/>
<path d="M1308.06 28L1319.5 39.5605" stroke="#038910" stroke-width="3"/>
<path d="M1319.5 28L1308.06 39.5605" stroke="#038910" stroke-width="3"/>
<path d="M154.061 28L165.5 39.5605" stroke="#038910" stroke-width="3"/>
<path d="M165.5 28L154.061 39.5605" stroke="#038910" stroke-width="3"/>
<path d="M1794.06 28L1805.5 39.5605" stroke="#038910" stroke-width="3"/>
<path d="M1805.5 28L1794.06 39.5605" stroke="#038910" stroke-width="3"/>
<path d="M641.061 28L652.5 39.5605" stroke="#038910" stroke-width="3"/>
<path d="M652.5 28L641.061 39.5605" stroke="#038910" stroke-width="3"/>
<path d="M1211.06 28L1222.5 39.5605" stroke="#038910" stroke-width="3"/>
<path d="M1222.5 28L1211.06 39.5605" stroke="#038910" stroke-width="3"/>
<path d="M57.0605 28L68.5 39.5605" stroke="#038910" stroke-width="3"/>
<path d="M68.5 28L57.0605 39.5605" stroke="#038910" stroke-width="3"/>
<path d="M85.0605 14L96.5 25.5605" stroke="#038910" stroke-width="3"/>
<path d="M96.5 14L85.0605 25.5605" stroke="#038910" stroke-width="3"/>
<path d="M73.0605 2L84.5 13.5605" stroke="#038910" stroke-width="3"/>
<path d="M84.5 2L73.0605 13.5605" stroke="#038910" stroke-width="3"/>
<path d="M85.0605 42L96.5 53.5605" stroke="#038910" stroke-width="3"/>
<path d="M96.5 42L85.0605 53.5605" stroke="#038910" stroke-width="3"/>
<path d="M73.0605 54L84.5 65.5605" stroke="#038910" stroke-width="3"/>
<path d="M84.5 54L73.0605 65.5605" stroke="#038910" stroke-width="3"/>
<path d="M154.061 14L165.5 25.5605" stroke="#038910" stroke-width="3"/>
<path d="M165.5 14L154.061 25.5605" stroke="#038910" stroke-width="3"/>
<path d="M142.061 2L153.5 13.5605" stroke="#038910" stroke-width="3"/>
<path d="M153.5 2L142.061 13.5605" stroke="#038910" stroke-width="3"/>
<path d="M154.061 42L165.5 53.5605" stroke="#038910" stroke-width="3"/>
<path d="M165.5 42L154.061 53.5605" stroke="#038910" stroke-width="3"/>
<path d="M142.061 54L153.5 65.5605" stroke="#038910" stroke-width="3"/>
<path d="M153.5 54L142.061 65.5605" stroke="#038910" stroke-width="3"/>
<path d="M711.061 14L722.5 25.5605" stroke="#038910" stroke-width="3"/>
<path d="M722.5 14L711.061 25.5605" stroke="#038910" stroke-width="3"/>
<path d="M699.061 2L710.5 13.5605" stroke="#038910" stroke-width="3"/>
<path d="M710.5 2L699.061 13.5605" stroke="#038910" stroke-width="3"/>
<path d="M711.061 42L722.5 53.5605" stroke="#038910" stroke-width="3"/>
<path d="M722.5 42L711.061 53.5605" stroke="#038910" stroke-width="3"/>
<path d="M699.061 54L710.5 65.5605" stroke="#038910" stroke-width="3"/>
<path d="M710.5 54L699.061 65.5605" stroke="#038910" stroke-width="3"/>
<path d="M433.061 14L444.5 25.5605" stroke="#038910" stroke-width="3"/>
<path d="M444.5 14L433.061 25.5605" stroke="#038910" stroke-width="3"/>
<path d="M421.061 2L432.5 13.5605" stroke="#038910" stroke-width="3"/>
<path d="M432.5 2L421.061 13.5605" stroke="#038910" stroke-width="3"/>
<path d="M433.061 42L444.5 53.5605" stroke="#038910" stroke-width="3"/>
<path d="M444.5 42L433.061 53.5605" stroke="#038910" stroke-width="3"/>
<path d="M421.061 54L432.5 65.5605" stroke="#038910" stroke-width="3"/>
<path d="M432.5 54L421.061 65.5605" stroke="#038910" stroke-width="3"/>
<path d="M1722.5 14L1711.06 25.5605" stroke="#038910" stroke-width="3"/>
<path d="M1711.06 14L1722.5 25.5605" stroke="#038910" stroke-width="3"/>
<path d="M1734.5 2L1723.06 13.5605" stroke="#038910" stroke-width="3"/>
<path d="M1723.06 2L1734.5 13.5605" stroke="#038910" stroke-width="3"/>
<path d="M1722.5 42L1711.06 53.5605" stroke="#038910" stroke-width="3"/>
<path d="M1711.06 42L1722.5 53.5605" stroke="#038910" stroke-width="3"/>
<path d="M1734.5 54L1723.06 65.5605" stroke="#038910" stroke-width="3"/>
<path d="M1723.06 54L1734.5 65.5605" stroke="#038910" stroke-width="3"/>
<path d="M1236.5 14L1225.06 25.5605" stroke="#038910" stroke-width="3"/>
<path d="M1225.06 14L1236.5 25.5605" stroke="#038910" stroke-width="3"/>
<path d="M1248.5 2L1237.06 13.5605" stroke="#038910" stroke-width="3"/>
<path d="M1237.06 2L1248.5 13.5605" stroke="#038910" stroke-width="3"/>
<path d="M1236.5 42L1225.06 53.5605" stroke="#038910" stroke-width="3"/>
<path d="M1225.06 42L1236.5 53.5605" stroke="#038910" stroke-width="3"/>
<path d="M1248.5 54L1237.06 65.5605" stroke="#038910" stroke-width="3"/>
<path d="M1237.06 54L1248.5 65.5605" stroke="#038910" stroke-width="3"/>
<path d="M294.061 14L305.5 25.5605" stroke="#038910" stroke-width="3"/>
<path d="M305.5 14L294.061 25.5605" stroke="#038910" stroke-width="3"/>
<path d="M282.061 2L293.5 13.5605" stroke="#038910" stroke-width="3"/>
<path d="M293.5 2L282.061 13.5605" stroke="#038910" stroke-width="3"/>
<path d="M294.061 42L305.5 53.5605" stroke="#038910" stroke-width="3"/>
<path d="M305.5 42L294.061 53.5605" stroke="#038910" stroke-width="3"/>
<path d="M282.061 54L293.5 65.5605" stroke="#038910" stroke-width="3"/>
<path d="M293.5 54L282.061 65.5605" stroke="#038910" stroke-width="3"/>
<path d="M850.061 14L861.5 25.5605" stroke="#038910" stroke-width="3"/>
<path d="M861.5 14L850.061 25.5605" stroke="#038910" stroke-width="3"/>
<path d="M838.061 2L849.5 13.5605" stroke="#038910" stroke-width="3"/>
<path d="M849.5 2L838.061 13.5605" stroke="#038910" stroke-width="3"/>
<path d="M850.061 42L861.5 53.5605" stroke="#038910" stroke-width="3"/>
<path d="M861.5 42L850.061 53.5605" stroke="#038910" stroke-width="3"/>
<path d="M838.061 54L849.5 65.5605" stroke="#038910" stroke-width="3"/>
<path d="M849.5 54L838.061 65.5605" stroke="#038910" stroke-width="3"/>
<path d="M1375.5 14L1364.06 25.5605" stroke="#038910" stroke-width="3"/>
<path d="M1364.06 14L1375.5 25.5605" stroke="#038910" stroke-width="3"/>
<path d="M1387.5 2L1376.06 13.5605" stroke="#038910" stroke-width="3"/>
<path d="M1376.06 2L1387.5 13.5605" stroke="#038910" stroke-width="3"/>
<path d="M1375.5 42L1364.06 53.5605" stroke="#038910" stroke-width="3"/>
<path d="M1364.06 42L1375.5 53.5605" stroke="#038910" stroke-width="3"/>
<path d="M1387.5 54L1376.06 65.5605" stroke="#038910" stroke-width="3"/>
<path d="M1376.06 54L1387.5 65.5605" stroke="#038910" stroke-width="3"/>
<path d="M572.061 14L583.5 25.5605" stroke="#038910" stroke-width="3"/>
<path d="M583.5 14L572.061 25.5605" stroke="#038910" stroke-width="3"/>
<path d="M560.061 2L571.5 13.5605" stroke="#038910" stroke-width="3"/>
<path d="M571.5 2L560.061 13.5605" stroke="#038910" stroke-width="3"/>
<path d="M572.061 42L583.5 53.5605" stroke="#038910" stroke-width="3"/>
<path d="M583.5 42L572.061 53.5605" stroke="#038910" stroke-width="3"/>
<path d="M560.061 54L571.5 65.5605" stroke="#038910" stroke-width="3"/>
<path d="M571.5 54L560.061 65.5605" stroke="#038910" stroke-width="3"/>
<path d="M1584.5 14L1573.06 25.5605" stroke="#038910" stroke-width="3"/>
<path d="M1573.06 14L1584.5 25.5605" stroke="#038910" stroke-width="3"/>
<path d="M1596.5 2L1585.06 13.5605" stroke="#038910" stroke-width="3"/>
<path d="M1585.06 2L1596.5 13.5605" stroke="#038910" stroke-width="3"/>
<path d="M1584.5 42L1573.06 53.5605" stroke="#038910" stroke-width="3"/>
<path d="M1573.06 42L1584.5 53.5605" stroke="#038910" stroke-width="3"/>
<path d="M1596.5 54L1585.06 65.5605" stroke="#038910" stroke-width="3"/>
<path d="M1585.06 54L1596.5 65.5605" stroke="#038910" stroke-width="3"/>
<path d="M1097.5 14L1086.06 25.5605" stroke="#038910" stroke-width="3"/>
<path d="M1086.06 14L1097.5 25.5605" stroke="#038910" stroke-width="3"/>
<path d="M1109.5 2L1098.06 13.5605" stroke="#038910" stroke-width="3"/>
<path d="M1098.06 2L1109.5 13.5605" stroke="#038910" stroke-width="3"/>
<path d="M1097.5 42L1086.06 53.5605" stroke="#038910" stroke-width="3"/>
<path d="M1086.06 42L1097.5 53.5605" stroke="#038910" stroke-width="3"/>
<path d="M1109.5 54L1098.06 65.5605" stroke="#038910" stroke-width="3"/>
<path d="M1098.06 54L1109.5 65.5605" stroke="#038910" stroke-width="3"/>
<path d="M958.5 14L947.061 25.5605" stroke="#038910" stroke-width="3"/>
<path d="M947.061 14L958.5 25.5605" stroke="#038910" stroke-width="3"/>
<path d="M970.5 2L959.061 13.5605" stroke="#038910" stroke-width="3"/>
<path d="M959.061 2L970.5 13.5605" stroke="#038910" stroke-width="3"/>
<path d="M958.5 42L947.061 53.5605" stroke="#038910" stroke-width="3"/>
<path d="M947.061 42L958.5 53.5605" stroke="#038910" stroke-width="3"/>
<path d="M970.5 54L959.061 65.5605" stroke="#038910" stroke-width="3"/>
<path d="M959.061 54L970.5 65.5605" stroke="#038910" stroke-width="3"/>
<path d="M224.061 14L235.5 25.5605" stroke="#038910" stroke-width="3"/>
<path d="M235.5 14L224.061 25.5605" stroke="#038910" stroke-width="3"/>
<path d="M212.061 2L223.5 13.5605" stroke="#038910" stroke-width="3"/>
<path d="M223.5 2L212.061 13.5605" stroke="#038910" stroke-width="3"/>
<path d="M224.061 42L235.5 53.5605" stroke="#038910" stroke-width="3"/>
<path d="M235.5 42L224.061 53.5605" stroke="#038910" stroke-width="3"/>
<path d="M212.061 54L223.5 65.5605" stroke="#038910" stroke-width="3"/>
<path d="M223.5 54L212.061 65.5605" stroke="#038910" stroke-width="3"/>
<path d="M780.061 14L791.5 25.5605" stroke="#038910" stroke-width="3"/>
<path d="M791.5 14L780.061 25.5605" stroke="#038910" stroke-width="3"/>
<path d="M768.061 2L779.5 13.5605" stroke="#038910" stroke-width="3"/>
<path d="M779.5 2L768.061 13.5605" stroke="#038910" stroke-width="3"/>
<path d="M780.061 42L791.5 53.5605" stroke="#038910" stroke-width="3"/>
<path d="M791.5 42L780.061 53.5605" stroke="#038910" stroke-width="3"/>
<path d="M768.061 54L779.5 65.5605" stroke="#038910" stroke-width="3"/>
<path d="M779.5 54L768.061 65.5605" stroke="#038910" stroke-width="3"/>
<path d="M1445.5 14L1434.06 25.5605" stroke="#038910" stroke-width="3"/>
<path d="M1434.06 14L1445.5 25.5605" stroke="#038910" stroke-width="3"/>
<path d="M1457.5 2L1446.06 13.5605" stroke="#038910" stroke-width="3"/>
<path d="M1446.06 2L1457.5 13.5605" stroke="#038910" stroke-width="3"/>
<path d="M1445.5 42L1434.06 53.5605" stroke="#038910" stroke-width="3"/>
<path d="M1434.06 42L1445.5 53.5605" stroke="#038910" stroke-width="3"/>
<path d="M1457.5 54L1446.06 65.5605" stroke="#038910" stroke-width="3"/>
<path d="M1446.06 54L1457.5 65.5605" stroke="#038910" stroke-width="3"/>
<path d="M502.061 14L513.5 25.5605" stroke="#038910" stroke-width="3"/>
<path d="M513.5 14L502.061 25.5605" stroke="#038910" stroke-width="3"/>
<path d="M490.061 2L501.5 13.5605" stroke="#038910" stroke-width="3"/>
<path d="M501.5 2L490.061 13.5605" stroke="#038910" stroke-width="3"/>
<path d="M502.061 42L513.5 53.5605" stroke="#038910" stroke-width="3"/>
<path d="M513.5 42L502.061 53.5605" stroke="#038910" stroke-width="3"/>
<path d="M490.061 54L501.5 65.5605" stroke="#038910" stroke-width="3"/>
<path d="M501.5 54L490.061 65.5605" stroke="#038910" stroke-width="3"/>
<path d="M1653.5 14L1642.06 25.5605" stroke="#038910" stroke-width="3"/>
<path d="M1642.06 14L1653.5 25.5605" stroke="#038910" stroke-width="3"/>
<path d="M1665.5 2L1654.06 13.5605" stroke="#038910" stroke-width="3"/>
<path d="M1654.06 2L1665.5 13.5605" stroke="#038910" stroke-width="3"/>
<path d="M1653.5 42L1642.06 53.5605" stroke="#038910" stroke-width="3"/>
<path d="M1642.06 42L1653.5 53.5605" stroke="#038910" stroke-width="3"/>
<path d="M1665.5 54L1654.06 65.5605" stroke="#038910" stroke-width="3"/>
<path d="M1654.06 54L1665.5 65.5605" stroke="#038910" stroke-width="3"/>
<path d="M1167.5 14L1156.06 25.5605" stroke="#038910" stroke-width="3"/>
<path d="M1156.06 14L1167.5 25.5605" stroke="#038910" stroke-width="3"/>
<path d="M1179.5 2L1168.06 13.5605" stroke="#038910" stroke-width="3"/>
<path d="M1168.06 2L1179.5 13.5605" stroke="#038910" stroke-width="3"/>
<path d="M1167.5 42L1156.06 53.5605" stroke="#038910" stroke-width="3"/>
<path d="M1156.06 42L1167.5 53.5605" stroke="#038910" stroke-width="3"/>
<path d="M1179.5 54L1168.06 65.5605" stroke="#038910" stroke-width="3"/>
<path d="M1168.06 54L1179.5 65.5605" stroke="#038910" stroke-width="3"/>
<path d="M363.061 14L374.5 25.5605" stroke="#038910" stroke-width="3"/>
<path d="M374.5 14L363.061 25.5605" stroke="#038910" stroke-width="3"/>
<path d="M351.061 2L362.5 13.5605" stroke="#038910" stroke-width="3"/>
<path d="M362.5 2L351.061 13.5605" stroke="#038910" stroke-width="3"/>
<path d="M363.061 42L374.5 53.5605" stroke="#038910" stroke-width="3"/>
<path d="M374.5 42L363.061 53.5605" stroke="#038910" stroke-width="3"/>
<path d="M351.061 54L362.5 65.5605" stroke="#038910" stroke-width="3"/>
<path d="M362.5 54L351.061 65.5605" stroke="#038910" stroke-width="3"/>
<path d="M1792.5 14L1781.06 25.5605" stroke="#038910" stroke-width="3"/>
<path d="M1781.06 14L1792.5 25.5605" stroke="#038910" stroke-width="3"/>
<path d="M1804.5 2L1793.06 13.5605" stroke="#038910" stroke-width="3"/>
<path d="M1793.06 2L1804.5 13.5605" stroke="#038910" stroke-width="3"/>
<path d="M1792.5 42L1781.06 53.5605" stroke="#038910" stroke-width="3"/>
<path d="M1781.06 42L1792.5 53.5605" stroke="#038910" stroke-width="3"/>
<path d="M1804.5 54L1793.06 65.5605" stroke="#038910" stroke-width="3"/>
<path d="M1793.06 54L1804.5 65.5605" stroke="#038910" stroke-width="3"/>
<path d="M1306.5 14L1295.06 25.5605" stroke="#038910" stroke-width="3"/>
<path d="M1295.06 14L1306.5 25.5605" stroke="#038910" stroke-width="3"/>
<path d="M1318.5 2L1307.06 13.5605" stroke="#038910" stroke-width="3"/>
<path d="M1307.06 2L1318.5 13.5605" stroke="#038910" stroke-width="3"/>
<path d="M1306.5 42L1295.06 53.5605" stroke="#038910" stroke-width="3"/>
<path d="M1295.06 42L1306.5 53.5605" stroke="#038910" stroke-width="3"/>
<path d="M1318.5 54L1307.06 65.5605" stroke="#038910" stroke-width="3"/>
<path d="M1307.06 54L1318.5 65.5605" stroke="#038910" stroke-width="3"/>
<path d="M641.061 14L652.5 25.5605" stroke="#038910" stroke-width="3"/>
<path d="M652.5 14L641.061 25.5605" stroke="#038910" stroke-width="3"/>
<path d="M629.061 2L640.5 13.5605" stroke="#038910" stroke-width="3"/>
<path d="M640.5 2L629.061 13.5605" stroke="#038910" stroke-width="3"/>
<path d="M641.061 42L652.5 53.5605" stroke="#038910" stroke-width="3"/>
<path d="M652.5 42L641.061 53.5605" stroke="#038910" stroke-width="3"/>
<path d="M629.061 54L640.5 65.5605" stroke="#038910" stroke-width="3"/>
<path d="M640.5 54L629.061 65.5605" stroke="#038910" stroke-width="3"/>
<path d="M1514.5 14L1503.06 25.5605" stroke="#038910" stroke-width="3"/>
<path d="M1503.06 14L1514.5 25.5605" stroke="#038910" stroke-width="3"/>
<path d="M1526.5 2L1515.06 13.5605" stroke="#038910" stroke-width="3"/>
<path d="M1515.06 2L1526.5 13.5605" stroke="#038910" stroke-width="3"/>
<path d="M1514.5 42L1503.06 53.5605" stroke="#038910" stroke-width="3"/>
<path d="M1503.06 42L1514.5 53.5605" stroke="#038910" stroke-width="3"/>
<path d="M1526.5 54L1515.06 65.5605" stroke="#038910" stroke-width="3"/>
<path d="M1515.06 54L1526.5 65.5605" stroke="#038910" stroke-width="3"/>
<path d="M1028.5 14L1017.06 25.5605" stroke="#038910" stroke-width="3"/>
<path d="M1017.06 14L1028.5 25.5605" stroke="#038910" stroke-width="3"/>
<path d="M1040.5 2L1029.06 13.5605" stroke="#038910" stroke-width="3"/>
<path d="M1029.06 2L1040.5 13.5605" stroke="#038910" stroke-width="3"/>
<path d="M1028.5 42L1017.06 53.5605" stroke="#038910" stroke-width="3"/>
<path d="M1017.06 42L1028.5 53.5605" stroke="#038910" stroke-width="3"/>
<path d="M1040.5 54L1029.06 65.5605" stroke="#038910" stroke-width="3"/>
<path d="M1029.06 54L1040.5 65.5605" stroke="#038910" stroke-width="3"/>
<path d="M920.061 14L931.5 25.5605" stroke="#038910" stroke-width="3"/>
<path d="M931.5 14L920.061 25.5605" stroke="#038910" stroke-width="3"/>
<path d="M908.061 2L919.5 13.5605" stroke="#038910" stroke-width="3"/>
<path d="M919.5 2L908.061 13.5605" stroke="#038910" stroke-width="3"/>
<path d="M920.061 42L931.5 53.5605" stroke="#038910" stroke-width="3"/>
<path d="M931.5 42L920.061 53.5605" stroke="#038910" stroke-width="3"/>
<path d="M908.061 54L919.5 65.5605" stroke="#038910" stroke-width="3"/>
<path d="M919.5 54L908.061 65.5605" stroke="#038910" stroke-width="3"/>
</svg>
