<svg width="3837" height="43" viewBox="0 0 3837 43" fill="none" xmlns="http://www.w3.org/2000/svg">
<path d="M16.156 30L27.6733 41.5605" stroke="#FF0000" stroke-width="3"/>
<path d="M27.6733 30L16.1561 41.5605" stroke="#FF0000" stroke-width="3"/>
<path d="M16.156 16L27.6733 27.5605" stroke="#FF0000" stroke-width="3"/>
<path d="M27.6733 16L16.1561 27.5605" stroke="#FF0000" stroke-width="3"/>
<path d="M2.06104 16L13.5783 27.5605" stroke="#FF0000" stroke-width="3"/>
<path d="M13.5781 16L2.06087 27.5605" stroke="#FF0000" stroke-width="3"/>
<path d="M2.06104 2L13.5783 13.5605" stroke="#FF0000" stroke-width="3"/>
<path d="M13.5781 2L2.06087 13.5605" stroke="#FF0000" stroke-width="3"/>
<path d="M30.2515 2L41.7687 13.5605" stroke="#FF0000" stroke-width="3"/>
<path d="M41.7688 2L30.2515 13.5605" stroke="#FF0000" stroke-width="3"/>
<path d="M30.2515 16L41.7687 27.5605" stroke="#FF0000" stroke-width="3"/>
<path d="M41.7688 16L30.2515 27.5605" stroke="#FF0000" stroke-width="3"/>
<path d="M805.491 30L817.008 41.5605" stroke="#FF0000" stroke-width="3"/>
<path d="M817.008 30L805.491 41.5605" stroke="#FF0000" stroke-width="3"/>
<path d="M805.491 16L817.008 27.5605" stroke="#FF0000" stroke-width="3"/>
<path d="M817.008 16L805.491 27.5605" stroke="#FF0000" stroke-width="3"/>
<path d="M791.395 16L802.912 27.5605" stroke="#FF0000" stroke-width="3"/>
<path d="M802.912 16L791.395 27.5605" stroke="#FF0000" stroke-width="3"/>
<path d="M791.395 2L802.912 13.5605" stroke="#FF0000" stroke-width="3"/>
<path d="M802.912 2L791.395 13.5605" stroke="#FF0000" stroke-width="3"/>
<path d="M819.586 2L831.103 13.5605" stroke="#FF0000" stroke-width="3"/>
<path d="M831.103 2L819.586 13.5605" stroke="#FF0000" stroke-width="3"/>
<path d="M819.586 16L831.103 27.5605" stroke="#FF0000" stroke-width="3"/>
<path d="M831.103 16L819.586 27.5605" stroke="#FF0000" stroke-width="3"/>
<path d="M1595.83 30L1607.35 41.5605" stroke="#FF0000" stroke-width="3"/>
<path d="M1607.35 30L1595.83 41.5605" stroke="#FF0000" stroke-width="3"/>
<path d="M1595.83 16L1607.35 27.5605" stroke="#FF0000" stroke-width="3"/>
<path d="M1607.35 16L1595.83 27.5605" stroke="#FF0000" stroke-width="3"/>
<path d="M1581.73 16L1593.25 27.5605" stroke="#FF0000" stroke-width="3"/>
<path d="M1593.25 16L1581.73 27.5605" stroke="#FF0000" stroke-width="3"/>
<path d="M1581.73 2L1593.25 13.5605" stroke="#FF0000" stroke-width="3"/>
<path d="M1593.25 2L1581.73 13.5605" stroke="#FF0000" stroke-width="3"/>
<path d="M1609.92 2L1621.44 13.5605" stroke="#FF0000" stroke-width="3"/>
<path d="M1621.44 2L1609.92 13.5605" stroke="#FF0000" stroke-width="3"/>
<path d="M1609.92 16L1621.44 27.5605" stroke="#FF0000" stroke-width="3"/>
<path d="M1621.44 16L1609.92 27.5605" stroke="#FF0000" stroke-width="3"/>
<path d="M410.822 30L422.34 41.5605" stroke="#FF0000" stroke-width="3"/>
<path d="M422.34 30L410.822 41.5605" stroke="#FF0000" stroke-width="3"/>
<path d="M410.822 16L422.34 27.5605" stroke="#FF0000" stroke-width="3"/>
<path d="M422.34 16L410.822 27.5605" stroke="#FF0000" stroke-width="3"/>
<path d="M396.727 16L408.241 27.5636" stroke="#FF0000" stroke-width="3"/>
<path d="M408.244 16L396.727 27.5605" stroke="#FF0000" stroke-width="3"/>
<path d="M396.727 2L408.241 13.5636" stroke="#FF0000" stroke-width="3"/>
<path d="M408.244 2L396.727 13.5605" stroke="#FF0000" stroke-width="3"/>
<path d="M424.917 2L436.435 13.5605" stroke="#FF0000" stroke-width="3"/>
<path d="M436.435 2L424.918 13.5605" stroke="#FF0000" stroke-width="3"/>
<path d="M424.917 16L436.435 27.5605" stroke="#FF0000" stroke-width="3"/>
<path d="M436.435 16L424.918 27.5605" stroke="#FF0000" stroke-width="3"/>
<path d="M1200.16 30L1211.67 41.5605" stroke="#FF0000" stroke-width="3"/>
<path d="M1211.67 30L1200.16 41.5605" stroke="#FF0000" stroke-width="3"/>
<path d="M1200.16 16L1211.67 27.5605" stroke="#FF0000" stroke-width="3"/>
<path d="M1211.67 16L1200.16 27.5605" stroke="#FF0000" stroke-width="3"/>
<path d="M1186.06 16L1197.58 27.5636" stroke="#FF0000" stroke-width="3"/>
<path d="M1197.58 16L1186.06 27.5605" stroke="#FF0000" stroke-width="3"/>
<path d="M1186.06 2L1197.58 13.5636" stroke="#FF0000" stroke-width="3"/>
<path d="M1197.58 2L1186.06 13.5605" stroke="#FF0000" stroke-width="3"/>
<path d="M1214.25 2L1225.77 13.5605" stroke="#FF0000" stroke-width="3"/>
<path d="M1225.77 2L1214.25 13.5605" stroke="#FF0000" stroke-width="3"/>
<path d="M1214.25 16L1225.77 27.5605" stroke="#FF0000" stroke-width="3"/>
<path d="M1225.77 16L1214.25 27.5605" stroke="#FF0000" stroke-width="3"/>
<path d="M213.489 30L225.007 41.5605" stroke="#FF0000" stroke-width="3"/>
<path d="M225.007 30L213.489 41.5605" stroke="#FF0000" stroke-width="3"/>
<path d="M213.489 16L225.007 27.5605" stroke="#FF0000" stroke-width="3"/>
<path d="M225.007 16L213.489 27.5605" stroke="#FF0000" stroke-width="3"/>
<path d="M199.394 16L210.911 27.5605" stroke="#FF0000" stroke-width="3"/>
<path d="M210.911 16L199.394 27.5605" stroke="#FF0000" stroke-width="3"/>
<path d="M199.394 2L210.911 13.5605" stroke="#FF0000" stroke-width="3"/>
<path d="M210.911 2L199.394 13.5605" stroke="#FF0000" stroke-width="3"/>
<path d="M227.584 2L239.102 13.5605" stroke="#FF0000" stroke-width="3"/>
<path d="M239.102 2L227.585 13.5605" stroke="#FF0000" stroke-width="3"/>
<path d="M227.584 16L239.102 27.5605" stroke="#FF0000" stroke-width="3"/>
<path d="M239.102 16L227.585 27.5605" stroke="#FF0000" stroke-width="3"/>
<path d="M1002.82 30L1014.34 41.5605" stroke="#FF0000" stroke-width="3"/>
<path d="M1014.34 30L1002.82 41.5605" stroke="#FF0000" stroke-width="3"/>
<path d="M1002.82 16L1014.34 27.5605" stroke="#FF0000" stroke-width="3"/>
<path d="M1014.34 16L1002.82 27.5605" stroke="#FF0000" stroke-width="3"/>
<path d="M988.728 16L1000.25 27.5605" stroke="#FF0000" stroke-width="3"/>
<path d="M1000.25 16L988.728 27.5605" stroke="#FF0000" stroke-width="3"/>
<path d="M988.728 2L1000.25 13.5605" stroke="#FF0000" stroke-width="3"/>
<path d="M1000.25 2L988.728 13.5605" stroke="#FF0000" stroke-width="3"/>
<path d="M1016.92 2L1028.43 13.5636" stroke="#FF0000" stroke-width="3"/>
<path d="M1028.44 2L1016.92 13.5605" stroke="#FF0000" stroke-width="3"/>
<path d="M1016.92 16L1028.43 27.5636" stroke="#FF0000" stroke-width="3"/>
<path d="M1028.44 16L1016.92 27.5605" stroke="#FF0000" stroke-width="3"/>
<path d="M1793.16 30L1804.68 41.5605" stroke="#FF0000" stroke-width="3"/>
<path d="M1804.68 30L1793.16 41.5605" stroke="#FF0000" stroke-width="3"/>
<path d="M1793.16 16L1804.68 27.5605" stroke="#FF0000" stroke-width="3"/>
<path d="M1804.68 16L1793.16 27.5605" stroke="#FF0000" stroke-width="3"/>
<path d="M1779.07 16L1790.58 27.5636" stroke="#FF0000" stroke-width="3"/>
<path d="M1790.58 16L1779.07 27.5605" stroke="#FF0000" stroke-width="3"/>
<path d="M1779.07 2L1790.58 13.5636" stroke="#FF0000" stroke-width="3"/>
<path d="M1790.58 2L1779.07 13.5605" stroke="#FF0000" stroke-width="3"/>
<path d="M1807.26 2L1818.77 13.5636" stroke="#FF0000" stroke-width="3"/>
<path d="M1818.77 2L1807.26 13.5605" stroke="#FF0000" stroke-width="3"/>
<path d="M1807.26 16L1818.77 27.5636" stroke="#FF0000" stroke-width="3"/>
<path d="M1818.77 16L1807.26 27.5605" stroke="#FF0000" stroke-width="3"/>
<path d="M608.157 30L619.675 41.5605" stroke="#FF0000" stroke-width="3"/>
<path d="M619.675 30L608.157 41.5605" stroke="#FF0000" stroke-width="3"/>
<path d="M608.157 16L619.675 27.5605" stroke="#FF0000" stroke-width="3"/>
<path d="M619.675 16L608.157 27.5605" stroke="#FF0000" stroke-width="3"/>
<path d="M594.062 16L605.579 27.5605" stroke="#FF0000" stroke-width="3"/>
<path d="M605.58 16L594.062 27.5605" stroke="#FF0000" stroke-width="3"/>
<path d="M594.062 2L605.579 13.5605" stroke="#FF0000" stroke-width="3"/>
<path d="M605.58 2L594.062 13.5605" stroke="#FF0000" stroke-width="3"/>
<path d="M622.253 2L633.77 13.5605" stroke="#FF0000" stroke-width="3"/>
<path d="M633.77 2L622.253 13.5605" stroke="#FF0000" stroke-width="3"/>
<path d="M622.253 16L633.77 27.5605" stroke="#FF0000" stroke-width="3"/>
<path d="M633.77 16L622.253 27.5605" stroke="#FF0000" stroke-width="3"/>
<path d="M1397.49 30L1409.01 41.5605" stroke="#FF0000" stroke-width="3"/>
<path d="M1409.01 30L1397.49 41.5605" stroke="#FF0000" stroke-width="3"/>
<path d="M1397.49 16L1409.01 27.5605" stroke="#FF0000" stroke-width="3"/>
<path d="M1409.01 16L1397.49 27.5605" stroke="#FF0000" stroke-width="3"/>
<path d="M1383.39 16L1394.91 27.5636" stroke="#FF0000" stroke-width="3"/>
<path d="M1394.91 16L1383.39 27.5605" stroke="#FF0000" stroke-width="3"/>
<path d="M1383.39 2L1394.91 13.5636" stroke="#FF0000" stroke-width="3"/>
<path d="M1394.91 2L1383.39 13.5605" stroke="#FF0000" stroke-width="3"/>
<path d="M1411.58 2L1423.1 13.5636" stroke="#FF0000" stroke-width="3"/>
<path d="M1423.1 2L1411.58 13.5605" stroke="#FF0000" stroke-width="3"/>
<path d="M1411.58 16L1423.1 27.5636" stroke="#FF0000" stroke-width="3"/>
<path d="M1423.1 16L1411.58 27.5605" stroke="#FF0000" stroke-width="3"/>
<path d="M114.823 30L126.34 41.5605" stroke="#FF0000" stroke-width="3"/>
<path d="M126.34 30L114.823 41.5605" stroke="#FF0000" stroke-width="3"/>
<path d="M114.823 16L126.34 27.5605" stroke="#FF0000" stroke-width="3"/>
<path d="M126.34 16L114.823 27.5605" stroke="#FF0000" stroke-width="3"/>
<path d="M100.728 16L112.245 27.5605" stroke="#FF0000" stroke-width="3"/>
<path d="M112.245 16L100.727 27.5605" stroke="#FF0000" stroke-width="3"/>
<path d="M100.728 2L112.245 13.5605" stroke="#FF0000" stroke-width="3"/>
<path d="M112.245 2L100.727 13.5605" stroke="#FF0000" stroke-width="3"/>
<path d="M128.918 2L140.435 13.5605" stroke="#FF0000" stroke-width="3"/>
<path d="M140.435 2L128.918 13.5605" stroke="#FF0000" stroke-width="3"/>
<path d="M128.918 16L140.435 27.5605" stroke="#FF0000" stroke-width="3"/>
<path d="M140.435 16L128.918 27.5605" stroke="#FF0000" stroke-width="3"/>
<path d="M904.157 30L915.674 41.5605" stroke="#FF0000" stroke-width="3"/>
<path d="M915.674 30L904.157 41.5605" stroke="#FF0000" stroke-width="3"/>
<path d="M904.157 16L915.674 27.5605" stroke="#FF0000" stroke-width="3"/>
<path d="M915.674 16L904.157 27.5605" stroke="#FF0000" stroke-width="3"/>
<path d="M890.062 16L901.579 27.5605" stroke="#FF0000" stroke-width="3"/>
<path d="M901.579 16L890.062 27.5605" stroke="#FF0000" stroke-width="3"/>
<path d="M890.062 2L901.579 13.5605" stroke="#FF0000" stroke-width="3"/>
<path d="M901.579 2L890.062 13.5605" stroke="#FF0000" stroke-width="3"/>
<path d="M918.252 2L929.766 13.5636" stroke="#FF0000" stroke-width="3"/>
<path d="M929.77 2L918.252 13.5605" stroke="#FF0000" stroke-width="3"/>
<path d="M918.252 16L929.766 27.5636" stroke="#FF0000" stroke-width="3"/>
<path d="M929.77 16L918.252 27.5605" stroke="#FF0000" stroke-width="3"/>
<path d="M1694.5 30L1706.01 41.5605" stroke="#FF0000" stroke-width="3"/>
<path d="M1706.01 30L1694.5 41.5605" stroke="#FF0000" stroke-width="3"/>
<path d="M1694.5 16L1706.01 27.5605" stroke="#FF0000" stroke-width="3"/>
<path d="M1706.01 16L1694.5 27.5605" stroke="#FF0000" stroke-width="3"/>
<path d="M1680.4 16L1691.92 27.5605" stroke="#FF0000" stroke-width="3"/>
<path d="M1691.92 16L1680.4 27.5605" stroke="#FF0000" stroke-width="3"/>
<path d="M1680.4 2L1691.92 13.5605" stroke="#FF0000" stroke-width="3"/>
<path d="M1691.92 2L1680.4 13.5605" stroke="#FF0000" stroke-width="3"/>
<path d="M1708.59 2L1720.11 13.5636" stroke="#FF0000" stroke-width="3"/>
<path d="M1720.11 2L1708.59 13.5605" stroke="#FF0000" stroke-width="3"/>
<path d="M1708.59 16L1720.11 27.5636" stroke="#FF0000" stroke-width="3"/>
<path d="M1720.11 16L1708.59 27.5605" stroke="#FF0000" stroke-width="3"/>
<path d="M509.491 30L521.008 41.5605" stroke="#FF0000" stroke-width="3"/>
<path d="M521.008 30L509.491 41.5605" stroke="#FF0000" stroke-width="3"/>
<path d="M509.491 16L521.008 27.5605" stroke="#FF0000" stroke-width="3"/>
<path d="M521.008 16L509.491 27.5605" stroke="#FF0000" stroke-width="3"/>
<path d="M495.396 16L506.91 27.5636" stroke="#FF0000" stroke-width="3"/>
<path d="M506.913 16L495.396 27.5605" stroke="#FF0000" stroke-width="3"/>
<path d="M495.396 2L506.91 13.5636" stroke="#FF0000" stroke-width="3"/>
<path d="M506.913 2L495.396 13.5605" stroke="#FF0000" stroke-width="3"/>
<path d="M523.586 2L535.103 13.5605" stroke="#FF0000" stroke-width="3"/>
<path d="M535.103 2L523.586 13.5605" stroke="#FF0000" stroke-width="3"/>
<path d="M523.586 16L535.103 27.5605" stroke="#FF0000" stroke-width="3"/>
<path d="M535.103 16L523.586 27.5605" stroke="#FF0000" stroke-width="3"/>
<path d="M1298.82 30L1310.34 41.5605" stroke="#FF0000" stroke-width="3"/>
<path d="M1310.34 30L1298.82 41.5605" stroke="#FF0000" stroke-width="3"/>
<path d="M1298.82 16L1310.34 27.5605" stroke="#FF0000" stroke-width="3"/>
<path d="M1310.34 16L1298.82 27.5605" stroke="#FF0000" stroke-width="3"/>
<path d="M1284.73 16L1296.25 27.5605" stroke="#FF0000" stroke-width="3"/>
<path d="M1296.25 16L1284.73 27.5605" stroke="#FF0000" stroke-width="3"/>
<path d="M1284.73 2L1296.25 13.5605" stroke="#FF0000" stroke-width="3"/>
<path d="M1296.25 2L1284.73 13.5605" stroke="#FF0000" stroke-width="3"/>
<path d="M1312.92 2L1324.44 13.5605" stroke="#FF0000" stroke-width="3"/>
<path d="M1324.44 2L1312.92 13.5605" stroke="#FF0000" stroke-width="3"/>
<path d="M1312.92 16L1324.44 27.5605" stroke="#FF0000" stroke-width="3"/>
<path d="M1324.44 16L1312.92 27.5605" stroke="#FF0000" stroke-width="3"/>
<path d="M312.156 30L323.673 41.5605" stroke="#FF0000" stroke-width="3"/>
<path d="M323.673 30L312.156 41.5605" stroke="#FF0000" stroke-width="3"/>
<path d="M312.156 16L323.673 27.5605" stroke="#FF0000" stroke-width="3"/>
<path d="M323.673 16L312.156 27.5605" stroke="#FF0000" stroke-width="3"/>
<path d="M298.061 16L309.575 27.5636" stroke="#FF0000" stroke-width="3"/>
<path d="M309.578 16L298.06 27.5605" stroke="#FF0000" stroke-width="3"/>
<path d="M298.061 2L309.575 13.5636" stroke="#FF0000" stroke-width="3"/>
<path d="M309.578 2L298.06 13.5605" stroke="#FF0000" stroke-width="3"/>
<path d="M326.251 2L337.768 13.5605" stroke="#FF0000" stroke-width="3"/>
<path d="M337.768 2L326.251 13.5605" stroke="#FF0000" stroke-width="3"/>
<path d="M326.251 16L337.768 27.5605" stroke="#FF0000" stroke-width="3"/>
<path d="M337.768 16L326.251 27.5605" stroke="#FF0000" stroke-width="3"/>
<path d="M1101.49 30L1113.01 41.5605" stroke="#FF0000" stroke-width="3"/>
<path d="M1113.01 30L1101.49 41.5605" stroke="#FF0000" stroke-width="3"/>
<path d="M1101.49 16L1113.01 27.5605" stroke="#FF0000" stroke-width="3"/>
<path d="M1113.01 16L1101.49 27.5605" stroke="#FF0000" stroke-width="3"/>
<path d="M1087.4 16L1098.91 27.5605" stroke="#FF0000" stroke-width="3"/>
<path d="M1098.91 16L1087.39 27.5605" stroke="#FF0000" stroke-width="3"/>
<path d="M1087.4 2L1098.91 13.5605" stroke="#FF0000" stroke-width="3"/>
<path d="M1098.91 2L1087.39 13.5605" stroke="#FF0000" stroke-width="3"/>
<path d="M1115.59 2L1127.1 13.5605" stroke="#FF0000" stroke-width="3"/>
<path d="M1127.1 2L1115.59 13.5605" stroke="#FF0000" stroke-width="3"/>
<path d="M1115.59 16L1127.1 27.5605" stroke="#FF0000" stroke-width="3"/>
<path d="M1127.1 16L1115.59 27.5605" stroke="#FF0000" stroke-width="3"/>
<path d="M1891.83 30L1903.35 41.5605" stroke="#FF0000" stroke-width="3"/>
<path d="M1903.35 30L1891.83 41.5605" stroke="#FF0000" stroke-width="3"/>
<path d="M1891.83 16L1903.35 27.5605" stroke="#FF0000" stroke-width="3"/>
<path d="M1903.35 16L1891.83 27.5605" stroke="#FF0000" stroke-width="3"/>
<path d="M1877.73 16L1889.25 27.5605" stroke="#FF0000" stroke-width="3"/>
<path d="M1889.25 16L1877.73 27.5605" stroke="#FF0000" stroke-width="3"/>
<path d="M1877.73 2L1889.25 13.5605" stroke="#FF0000" stroke-width="3"/>
<path d="M1889.25 2L1877.73 13.5605" stroke="#FF0000" stroke-width="3"/>
<path d="M1905.92 2L1917.44 13.5636" stroke="#FF0000" stroke-width="3"/>
<path d="M1917.44 2L1905.92 13.5605" stroke="#FF0000" stroke-width="3"/>
<path d="M1905.92 16L1917.44 27.5636" stroke="#FF0000" stroke-width="3"/>
<path d="M1917.44 16L1905.92 27.5605" stroke="#FF0000" stroke-width="3"/>
<path d="M706.824 30L718.341 41.5605" stroke="#FF0000" stroke-width="3"/>
<path d="M718.341 30L706.824 41.5605" stroke="#FF0000" stroke-width="3"/>
<path d="M706.824 16L718.341 27.5605" stroke="#FF0000" stroke-width="3"/>
<path d="M718.341 16L706.824 27.5605" stroke="#FF0000" stroke-width="3"/>
<path d="M692.729 16L704.243 27.5636" stroke="#FF0000" stroke-width="3"/>
<path d="M704.246 16L692.729 27.5605" stroke="#FF0000" stroke-width="3"/>
<path d="M692.729 2L704.243 13.5636" stroke="#FF0000" stroke-width="3"/>
<path d="M704.246 2L692.729 13.5605" stroke="#FF0000" stroke-width="3"/>
<path d="M720.919 2L732.436 13.5605" stroke="#FF0000" stroke-width="3"/>
<path d="M732.436 2L720.919 13.5605" stroke="#FF0000" stroke-width="3"/>
<path d="M720.919 16L732.436 27.5605" stroke="#FF0000" stroke-width="3"/>
<path d="M732.436 16L720.919 27.5605" stroke="#FF0000" stroke-width="3"/>
<path d="M1496.16 30L1507.67 41.5636" stroke="#FF0000" stroke-width="3"/>
<path d="M1507.67 30L1496.16 41.5605" stroke="#FF0000" stroke-width="3"/>
<path d="M1496.16 16L1507.67 27.5636" stroke="#FF0000" stroke-width="3"/>
<path d="M1507.67 16L1496.16 27.5605" stroke="#FF0000" stroke-width="3"/>
<path d="M1482.06 16L1493.58 27.5636" stroke="#FF0000" stroke-width="3"/>
<path d="M1493.58 16L1482.06 27.5605" stroke="#FF0000" stroke-width="3"/>
<path d="M1482.06 2L1493.58 13.5636" stroke="#FF0000" stroke-width="3"/>
<path d="M1493.58 2L1482.06 13.5605" stroke="#FF0000" stroke-width="3"/>
<path d="M1510.25 2L1521.77 13.5605" stroke="#FF0000" stroke-width="3"/>
<path d="M1521.77 2L1510.25 13.5605" stroke="#FF0000" stroke-width="3"/>
<path d="M1510.25 16L1521.77 27.5605" stroke="#FF0000" stroke-width="3"/>
<path d="M1521.77 16L1510.25 27.5605" stroke="#FF0000" stroke-width="3"/>
<path d="M1891.71 30L1903.23 41.5605" stroke="#FF0000" stroke-width="3"/>
<path d="M1903.23 30L1891.71 41.5605" stroke="#FF0000" stroke-width="3"/>
<path d="M1891.71 16L1903.23 27.5605" stroke="#FF0000" stroke-width="3"/>
<path d="M1903.23 16L1891.71 27.5605" stroke="#FF0000" stroke-width="3"/>
<path d="M1877.62 16L1889.13 27.5605" stroke="#FF0000" stroke-width="3"/>
<path d="M1889.13 16L1877.62 27.5605" stroke="#FF0000" stroke-width="3"/>
<path d="M1877.62 2L1889.13 13.5605" stroke="#FF0000" stroke-width="3"/>
<path d="M1889.13 2L1877.62 13.5605" stroke="#FF0000" stroke-width="3"/>
<path d="M1905.81 2L1917.32 13.5605" stroke="#FF0000" stroke-width="3"/>
<path d="M1917.32 2L1905.81 13.5605" stroke="#FF0000" stroke-width="3"/>
<path d="M1905.81 16L1917.32 27.5605" stroke="#FF0000" stroke-width="3"/>
<path d="M1917.32 16L1905.81 27.5605" stroke="#FF0000" stroke-width="3"/>
<path d="M2681.05 30L2692.56 41.5605" stroke="#FF0000" stroke-width="3"/>
<path d="M2692.56 30L2681.05 41.5605" stroke="#FF0000" stroke-width="3"/>
<path d="M2681.05 16L2692.56 27.5605" stroke="#FF0000" stroke-width="3"/>
<path d="M2692.56 16L2681.05 27.5605" stroke="#FF0000" stroke-width="3"/>
<path d="M2666.95 16L2678.47 27.5605" stroke="#FF0000" stroke-width="3"/>
<path d="M2678.47 16L2666.95 27.5605" stroke="#FF0000" stroke-width="3"/>
<path d="M2666.95 2L2678.47 13.5605" stroke="#FF0000" stroke-width="3"/>
<path d="M2678.47 2L2666.95 13.5605" stroke="#FF0000" stroke-width="3"/>
<path d="M2695.14 2L2706.66 13.5605" stroke="#FF0000" stroke-width="3"/>
<path d="M2706.66 2L2695.14 13.5605" stroke="#FF0000" stroke-width="3"/>
<path d="M2695.14 16L2706.66 27.5605" stroke="#FF0000" stroke-width="3"/>
<path d="M2706.66 16L2695.14 27.5605" stroke="#FF0000" stroke-width="3"/>
<path d="M3471.38 30L3482.9 41.5605" stroke="#FF0000" stroke-width="3"/>
<path d="M3482.9 30L3471.38 41.5605" stroke="#FF0000" stroke-width="3"/>
<path d="M3471.38 16L3482.9 27.5605" stroke="#FF0000" stroke-width="3"/>
<path d="M3482.9 16L3471.38 27.5605" stroke="#FF0000" stroke-width="3"/>
<path d="M3457.29 16L3468.81 27.5605" stroke="#FF0000" stroke-width="3"/>
<path d="M3468.81 16L3457.29 27.5605" stroke="#FF0000" stroke-width="3"/>
<path d="M3457.29 2L3468.81 13.5605" stroke="#FF0000" stroke-width="3"/>
<path d="M3468.81 2L3457.29 13.5605" stroke="#FF0000" stroke-width="3"/>
<path d="M3485.48 2L3497 13.5605" stroke="#FF0000" stroke-width="3"/>
<path d="M3497 2L3485.48 13.5605" stroke="#FF0000" stroke-width="3"/>
<path d="M3485.48 16L3497 27.5605" stroke="#FF0000" stroke-width="3"/>
<path d="M3497 16L3485.48 27.5605" stroke="#FF0000" stroke-width="3"/>
<path d="M2286.38 30L2297.89 41.5605" stroke="#FF0000" stroke-width="3"/>
<path d="M2297.89 30L2286.38 41.5605" stroke="#FF0000" stroke-width="3"/>
<path d="M2286.38 16L2297.89 27.5605" stroke="#FF0000" stroke-width="3"/>
<path d="M2297.89 16L2286.38 27.5605" stroke="#FF0000" stroke-width="3"/>
<path d="M2272.28 16L2283.8 27.5636" stroke="#FF0000" stroke-width="3"/>
<path d="M2283.8 16L2272.28 27.5605" stroke="#FF0000" stroke-width="3"/>
<path d="M2272.28 2L2283.8 13.5636" stroke="#FF0000" stroke-width="3"/>
<path d="M2283.8 2L2272.28 13.5605" stroke="#FF0000" stroke-width="3"/>
<path d="M2300.47 2L2311.99 13.5605" stroke="#FF0000" stroke-width="3"/>
<path d="M2311.99 2L2300.47 13.5605" stroke="#FF0000" stroke-width="3"/>
<path d="M2300.47 16L2311.99 27.5605" stroke="#FF0000" stroke-width="3"/>
<path d="M2311.99 16L2300.47 27.5605" stroke="#FF0000" stroke-width="3"/>
<path d="M3075.71 30L3087.23 41.5605" stroke="#FF0000" stroke-width="3"/>
<path d="M3087.23 30L3075.71 41.5605" stroke="#FF0000" stroke-width="3"/>
<path d="M3075.71 16L3087.23 27.5605" stroke="#FF0000" stroke-width="3"/>
<path d="M3087.23 16L3075.71 27.5605" stroke="#FF0000" stroke-width="3"/>
<path d="M3061.62 16L3073.13 27.5636" stroke="#FF0000" stroke-width="3"/>
<path d="M3073.13 16L3061.62 27.5605" stroke="#FF0000" stroke-width="3"/>
<path d="M3061.62 2L3073.13 13.5636" stroke="#FF0000" stroke-width="3"/>
<path d="M3073.13 2L3061.62 13.5605" stroke="#FF0000" stroke-width="3"/>
<path d="M3089.81 2L3101.32 13.5605" stroke="#FF0000" stroke-width="3"/>
<path d="M3101.32 2L3089.81 13.5605" stroke="#FF0000" stroke-width="3"/>
<path d="M3089.81 16L3101.32 27.5605" stroke="#FF0000" stroke-width="3"/>
<path d="M3101.32 16L3089.81 27.5605" stroke="#FF0000" stroke-width="3"/>
<path d="M2089.04 30L2100.56 41.5605" stroke="#FF0000" stroke-width="3"/>
<path d="M2100.56 30L2089.04 41.5605" stroke="#FF0000" stroke-width="3"/>
<path d="M2089.04 16L2100.56 27.5605" stroke="#FF0000" stroke-width="3"/>
<path d="M2100.56 16L2089.04 27.5605" stroke="#FF0000" stroke-width="3"/>
<path d="M2074.95 16L2086.47 27.5605" stroke="#FF0000" stroke-width="3"/>
<path d="M2086.47 16L2074.95 27.5605" stroke="#FF0000" stroke-width="3"/>
<path d="M2074.95 2L2086.47 13.5605" stroke="#FF0000" stroke-width="3"/>
<path d="M2086.47 2L2074.95 13.5605" stroke="#FF0000" stroke-width="3"/>
<path d="M2103.14 2L2114.66 13.5605" stroke="#FF0000" stroke-width="3"/>
<path d="M2114.66 2L2103.14 13.5605" stroke="#FF0000" stroke-width="3"/>
<path d="M2103.14 16L2114.66 27.5605" stroke="#FF0000" stroke-width="3"/>
<path d="M2114.66 16L2103.14 27.5605" stroke="#FF0000" stroke-width="3"/>
<path d="M2878.38 30L2889.9 41.5605" stroke="#FF0000" stroke-width="3"/>
<path d="M2889.9 30L2878.38 41.5605" stroke="#FF0000" stroke-width="3"/>
<path d="M2878.38 16L2889.9 27.5605" stroke="#FF0000" stroke-width="3"/>
<path d="M2889.9 16L2878.38 27.5605" stroke="#FF0000" stroke-width="3"/>
<path d="M2864.28 16L2875.8 27.5605" stroke="#FF0000" stroke-width="3"/>
<path d="M2875.8 16L2864.28 27.5605" stroke="#FF0000" stroke-width="3"/>
<path d="M2864.28 2L2875.8 13.5605" stroke="#FF0000" stroke-width="3"/>
<path d="M2875.8 2L2864.28 13.5605" stroke="#FF0000" stroke-width="3"/>
<path d="M2892.47 2L2903.99 13.5636" stroke="#FF0000" stroke-width="3"/>
<path d="M2903.99 2L2892.47 13.5605" stroke="#FF0000" stroke-width="3"/>
<path d="M2892.47 16L2903.99 27.5636" stroke="#FF0000" stroke-width="3"/>
<path d="M2903.99 16L2892.47 27.5605" stroke="#FF0000" stroke-width="3"/>
<path d="M3668.72 30L3680.23 41.5605" stroke="#FF0000" stroke-width="3"/>
<path d="M3680.23 30L3668.72 41.5605" stroke="#FF0000" stroke-width="3"/>
<path d="M3668.72 16L3680.23 27.5605" stroke="#FF0000" stroke-width="3"/>
<path d="M3680.23 16L3668.72 27.5605" stroke="#FF0000" stroke-width="3"/>
<path d="M3654.62 16L3666.14 27.5636" stroke="#FF0000" stroke-width="3"/>
<path d="M3666.14 16L3654.62 27.5605" stroke="#FF0000" stroke-width="3"/>
<path d="M3654.62 2L3666.14 13.5636" stroke="#FF0000" stroke-width="3"/>
<path d="M3666.14 2L3654.62 13.5605" stroke="#FF0000" stroke-width="3"/>
<path d="M3682.81 2L3694.33 13.5636" stroke="#FF0000" stroke-width="3"/>
<path d="M3694.33 2L3682.81 13.5605" stroke="#FF0000" stroke-width="3"/>
<path d="M3682.81 16L3694.33 27.5636" stroke="#FF0000" stroke-width="3"/>
<path d="M3694.33 16L3682.81 27.5605" stroke="#FF0000" stroke-width="3"/>
<path d="M2483.71 30L2495.23 41.5605" stroke="#FF0000" stroke-width="3"/>
<path d="M2495.23 30L2483.71 41.5605" stroke="#FF0000" stroke-width="3"/>
<path d="M2483.71 16L2495.23 27.5605" stroke="#FF0000" stroke-width="3"/>
<path d="M2495.23 16L2483.71 27.5605" stroke="#FF0000" stroke-width="3"/>
<path d="M2469.62 16L2481.13 27.5605" stroke="#FF0000" stroke-width="3"/>
<path d="M2481.13 16L2469.62 27.5605" stroke="#FF0000" stroke-width="3"/>
<path d="M2469.62 2L2481.13 13.5605" stroke="#FF0000" stroke-width="3"/>
<path d="M2481.13 2L2469.62 13.5605" stroke="#FF0000" stroke-width="3"/>
<path d="M2497.81 2L2509.32 13.5605" stroke="#FF0000" stroke-width="3"/>
<path d="M2509.32 2L2497.81 13.5605" stroke="#FF0000" stroke-width="3"/>
<path d="M2497.81 16L2509.32 27.5605" stroke="#FF0000" stroke-width="3"/>
<path d="M2509.32 16L2497.81 27.5605" stroke="#FF0000" stroke-width="3"/>
<path d="M3273.04 30L3284.56 41.5605" stroke="#FF0000" stroke-width="3"/>
<path d="M3284.56 30L3273.04 41.5605" stroke="#FF0000" stroke-width="3"/>
<path d="M3273.04 16L3284.56 27.5605" stroke="#FF0000" stroke-width="3"/>
<path d="M3284.56 16L3273.04 27.5605" stroke="#FF0000" stroke-width="3"/>
<path d="M3258.95 16L3270.46 27.5636" stroke="#FF0000" stroke-width="3"/>
<path d="M3270.47 16L3258.95 27.5605" stroke="#FF0000" stroke-width="3"/>
<path d="M3258.95 2L3270.46 13.5636" stroke="#FF0000" stroke-width="3"/>
<path d="M3270.47 2L3258.95 13.5605" stroke="#FF0000" stroke-width="3"/>
<path d="M3287.14 2L3298.65 13.5636" stroke="#FF0000" stroke-width="3"/>
<path d="M3298.66 2L3287.14 13.5605" stroke="#FF0000" stroke-width="3"/>
<path d="M3287.14 16L3298.65 27.5636" stroke="#FF0000" stroke-width="3"/>
<path d="M3298.66 16L3287.14 27.5605" stroke="#FF0000" stroke-width="3"/>
<path d="M1990.38 30L2001.89 41.5605" stroke="#FF0000" stroke-width="3"/>
<path d="M2001.89 30L1990.38 41.5605" stroke="#FF0000" stroke-width="3"/>
<path d="M1990.38 16L2001.89 27.5605" stroke="#FF0000" stroke-width="3"/>
<path d="M2001.89 16L1990.38 27.5605" stroke="#FF0000" stroke-width="3"/>
<path d="M1976.28 16L1987.8 27.5605" stroke="#FF0000" stroke-width="3"/>
<path d="M1987.8 16L1976.28 27.5605" stroke="#FF0000" stroke-width="3"/>
<path d="M1976.28 2L1987.8 13.5605" stroke="#FF0000" stroke-width="3"/>
<path d="M1987.8 2L1976.28 13.5605" stroke="#FF0000" stroke-width="3"/>
<path d="M2004.47 2L2015.99 13.5605" stroke="#FF0000" stroke-width="3"/>
<path d="M2015.99 2L2004.47 13.5605" stroke="#FF0000" stroke-width="3"/>
<path d="M2004.47 16L2015.99 27.5605" stroke="#FF0000" stroke-width="3"/>
<path d="M2015.99 16L2004.47 27.5605" stroke="#FF0000" stroke-width="3"/>
<path d="M2779.71 30L2791.23 41.5605" stroke="#FF0000" stroke-width="3"/>
<path d="M2791.23 30L2779.71 41.5605" stroke="#FF0000" stroke-width="3"/>
<path d="M2779.71 16L2791.23 27.5605" stroke="#FF0000" stroke-width="3"/>
<path d="M2791.23 16L2779.71 27.5605" stroke="#FF0000" stroke-width="3"/>
<path d="M2765.62 16L2777.13 27.5605" stroke="#FF0000" stroke-width="3"/>
<path d="M2777.13 16L2765.62 27.5605" stroke="#FF0000" stroke-width="3"/>
<path d="M2765.62 2L2777.13 13.5605" stroke="#FF0000" stroke-width="3"/>
<path d="M2777.13 2L2765.62 13.5605" stroke="#FF0000" stroke-width="3"/>
<path d="M2793.81 2L2805.32 13.5636" stroke="#FF0000" stroke-width="3"/>
<path d="M2805.32 2L2793.81 13.5605" stroke="#FF0000" stroke-width="3"/>
<path d="M2793.81 16L2805.32 27.5636" stroke="#FF0000" stroke-width="3"/>
<path d="M2805.32 16L2793.81 27.5605" stroke="#FF0000" stroke-width="3"/>
<path d="M3570.05 30L3581.57 41.5605" stroke="#FF0000" stroke-width="3"/>
<path d="M3581.57 30L3570.05 41.5605" stroke="#FF0000" stroke-width="3"/>
<path d="M3570.05 16L3581.57 27.5605" stroke="#FF0000" stroke-width="3"/>
<path d="M3581.57 16L3570.05 27.5605" stroke="#FF0000" stroke-width="3"/>
<path d="M3555.96 16L3567.47 27.5605" stroke="#FF0000" stroke-width="3"/>
<path d="M3567.47 16L3555.96 27.5605" stroke="#FF0000" stroke-width="3"/>
<path d="M3555.96 2L3567.47 13.5605" stroke="#FF0000" stroke-width="3"/>
<path d="M3567.47 2L3555.96 13.5605" stroke="#FF0000" stroke-width="3"/>
<path d="M3584.15 2L3595.66 13.5636" stroke="#FF0000" stroke-width="3"/>
<path d="M3595.66 2L3584.15 13.5605" stroke="#FF0000" stroke-width="3"/>
<path d="M3584.15 16L3595.66 27.5636" stroke="#FF0000" stroke-width="3"/>
<path d="M3595.66 16L3584.15 27.5605" stroke="#FF0000" stroke-width="3"/>
<path d="M2385.05 30L2396.56 41.5605" stroke="#FF0000" stroke-width="3"/>
<path d="M2396.56 30L2385.05 41.5605" stroke="#FF0000" stroke-width="3"/>
<path d="M2385.05 16L2396.56 27.5605" stroke="#FF0000" stroke-width="3"/>
<path d="M2396.56 16L2385.05 27.5605" stroke="#FF0000" stroke-width="3"/>
<path d="M2370.95 16L2382.46 27.5636" stroke="#FF0000" stroke-width="3"/>
<path d="M2382.47 16L2370.95 27.5605" stroke="#FF0000" stroke-width="3"/>
<path d="M2370.95 2L2382.46 13.5636" stroke="#FF0000" stroke-width="3"/>
<path d="M2382.47 2L2370.95 13.5605" stroke="#FF0000" stroke-width="3"/>
<path d="M2399.14 2L2410.66 13.5605" stroke="#FF0000" stroke-width="3"/>
<path d="M2410.66 2L2399.14 13.5605" stroke="#FF0000" stroke-width="3"/>
<path d="M2399.14 16L2410.66 27.5605" stroke="#FF0000" stroke-width="3"/>
<path d="M2410.66 16L2399.14 27.5605" stroke="#FF0000" stroke-width="3"/>
<path d="M3174.38 30L3185.89 41.5605" stroke="#FF0000" stroke-width="3"/>
<path d="M3185.9 30L3174.38 41.5605" stroke="#FF0000" stroke-width="3"/>
<path d="M3174.38 16L3185.89 27.5605" stroke="#FF0000" stroke-width="3"/>
<path d="M3185.9 16L3174.38 27.5605" stroke="#FF0000" stroke-width="3"/>
<path d="M3160.28 16L3171.8 27.5605" stroke="#FF0000" stroke-width="3"/>
<path d="M3171.8 16L3160.28 27.5605" stroke="#FF0000" stroke-width="3"/>
<path d="M3160.28 2L3171.8 13.5605" stroke="#FF0000" stroke-width="3"/>
<path d="M3171.8 2L3160.28 13.5605" stroke="#FF0000" stroke-width="3"/>
<path d="M3188.47 2L3199.99 13.5605" stroke="#FF0000" stroke-width="3"/>
<path d="M3199.99 2L3188.47 13.5605" stroke="#FF0000" stroke-width="3"/>
<path d="M3188.47 16L3199.99 27.5605" stroke="#FF0000" stroke-width="3"/>
<path d="M3199.99 16L3188.47 27.5605" stroke="#FF0000" stroke-width="3"/>
<path d="M2187.71 30L2199.23 41.5605" stroke="#FF0000" stroke-width="3"/>
<path d="M2199.23 30L2187.71 41.5605" stroke="#FF0000" stroke-width="3"/>
<path d="M2187.71 16L2199.23 27.5605" stroke="#FF0000" stroke-width="3"/>
<path d="M2199.23 16L2187.71 27.5605" stroke="#FF0000" stroke-width="3"/>
<path d="M2173.62 16L2185.13 27.5636" stroke="#FF0000" stroke-width="3"/>
<path d="M2185.13 16L2173.62 27.5605" stroke="#FF0000" stroke-width="3"/>
<path d="M2173.62 2L2185.13 13.5636" stroke="#FF0000" stroke-width="3"/>
<path d="M2185.13 2L2173.62 13.5605" stroke="#FF0000" stroke-width="3"/>
<path d="M2201.81 2L2213.32 13.5605" stroke="#FF0000" stroke-width="3"/>
<path d="M2213.32 2L2201.81 13.5605" stroke="#FF0000" stroke-width="3"/>
<path d="M2201.81 16L2213.32 27.5605" stroke="#FF0000" stroke-width="3"/>
<path d="M2213.32 16L2201.81 27.5605" stroke="#FF0000" stroke-width="3"/>
<path d="M2977.04 30L2988.56 41.5605" stroke="#FF0000" stroke-width="3"/>
<path d="M2988.56 30L2977.04 41.5605" stroke="#FF0000" stroke-width="3"/>
<path d="M2977.04 16L2988.56 27.5605" stroke="#FF0000" stroke-width="3"/>
<path d="M2988.56 16L2977.04 27.5605" stroke="#FF0000" stroke-width="3"/>
<path d="M2962.95 16L2974.47 27.5605" stroke="#FF0000" stroke-width="3"/>
<path d="M2974.47 16L2962.95 27.5605" stroke="#FF0000" stroke-width="3"/>
<path d="M2962.95 2L2974.47 13.5605" stroke="#FF0000" stroke-width="3"/>
<path d="M2974.47 2L2962.95 13.5605" stroke="#FF0000" stroke-width="3"/>
<path d="M2991.14 2L3002.66 13.5605" stroke="#FF0000" stroke-width="3"/>
<path d="M3002.66 2L2991.14 13.5605" stroke="#FF0000" stroke-width="3"/>
<path d="M2991.14 16L3002.66 27.5605" stroke="#FF0000" stroke-width="3"/>
<path d="M3002.66 16L2991.14 27.5605" stroke="#FF0000" stroke-width="3"/>
<path d="M3767.38 30L3778.9 41.5605" stroke="#FF0000" stroke-width="3"/>
<path d="M3778.9 30L3767.38 41.5605" stroke="#FF0000" stroke-width="3"/>
<path d="M3767.38 16L3778.9 27.5605" stroke="#FF0000" stroke-width="3"/>
<path d="M3778.9 16L3767.38 27.5605" stroke="#FF0000" stroke-width="3"/>
<path d="M3753.29 16L3764.81 27.5605" stroke="#FF0000" stroke-width="3"/>
<path d="M3764.81 16L3753.29 27.5605" stroke="#FF0000" stroke-width="3"/>
<path d="M3753.29 2L3764.81 13.5605" stroke="#FF0000" stroke-width="3"/>
<path d="M3764.81 2L3753.29 13.5605" stroke="#FF0000" stroke-width="3"/>
<path d="M3781.48 2L3792.99 13.5636" stroke="#FF0000" stroke-width="3"/>
<path d="M3793 2L3781.48 13.5605" stroke="#FF0000" stroke-width="3"/>
<path d="M3781.48 16L3792.99 27.5636" stroke="#FF0000" stroke-width="3"/>
<path d="M3793 16L3781.48 27.5605" stroke="#FF0000" stroke-width="3"/>
<path d="M2582.38 30L2593.9 41.5605" stroke="#FF0000" stroke-width="3"/>
<path d="M2593.9 30L2582.38 41.5605" stroke="#FF0000" stroke-width="3"/>
<path d="M2582.38 16L2593.9 27.5605" stroke="#FF0000" stroke-width="3"/>
<path d="M2593.9 16L2582.38 27.5605" stroke="#FF0000" stroke-width="3"/>
<path d="M2568.28 16L2579.8 27.5636" stroke="#FF0000" stroke-width="3"/>
<path d="M2579.8 16L2568.28 27.5605" stroke="#FF0000" stroke-width="3"/>
<path d="M2568.28 2L2579.8 13.5636" stroke="#FF0000" stroke-width="3"/>
<path d="M2579.8 2L2568.28 13.5605" stroke="#FF0000" stroke-width="3"/>
<path d="M2596.47 2L2607.99 13.5605" stroke="#FF0000" stroke-width="3"/>
<path d="M2607.99 2L2596.47 13.5605" stroke="#FF0000" stroke-width="3"/>
<path d="M2596.47 16L2607.99 27.5605" stroke="#FF0000" stroke-width="3"/>
<path d="M2607.99 16L2596.47 27.5605" stroke="#FF0000" stroke-width="3"/>
<path d="M3371.71 30L3383.23 41.5636" stroke="#FF0000" stroke-width="3"/>
<path d="M3383.23 30L3371.71 41.5605" stroke="#FF0000" stroke-width="3"/>
<path d="M3371.71 16L3383.23 27.5636" stroke="#FF0000" stroke-width="3"/>
<path d="M3383.23 16L3371.71 27.5605" stroke="#FF0000" stroke-width="3"/>
<path d="M3357.62 16L3369.13 27.5636" stroke="#FF0000" stroke-width="3"/>
<path d="M3369.13 16L3357.62 27.5605" stroke="#FF0000" stroke-width="3"/>
<path d="M3357.62 2L3369.13 13.5636" stroke="#FF0000" stroke-width="3"/>
<path d="M3369.13 2L3357.62 13.5605" stroke="#FF0000" stroke-width="3"/>
<path d="M3385.81 2L3397.32 13.5605" stroke="#FF0000" stroke-width="3"/>
<path d="M3397.32 2L3385.81 13.5605" stroke="#FF0000" stroke-width="3"/>
<path d="M3385.81 16L3397.32 27.5605" stroke="#FF0000" stroke-width="3"/>
<path d="M3397.32 16L3385.81 27.5605" stroke="#FF0000" stroke-width="3"/>
</svg>
