<svg width="321" height="139" viewBox="0 0 321 139" fill="none" xmlns="http://www.w3.org/2000/svg">
<path d="M153.5 64L142.061 75.5605" stroke="#038910" stroke-width="3"/>
<path d="M142.061 64L153.5 75.5605" stroke="#038910" stroke-width="3"/>
<path d="M55.5 64L44.0605 75.5605" stroke="#038910" stroke-width="3"/>
<path d="M44.0605 64L55.5 75.5605" stroke="#038910" stroke-width="3"/>
<path d="M250.5 64L239.061 75.5605" stroke="#038910" stroke-width="3"/>
<path d="M239.061 64L250.5 75.5605" stroke="#038910" stroke-width="3"/>
<path d="M139.5 64L128.061 75.5605" stroke="#038910" stroke-width="3"/>
<path d="M128.061 64L139.5 75.5605" stroke="#038910" stroke-width="3"/>
<path d="M41.5 64L30.0605 75.5605" stroke="#038910" stroke-width="3"/>
<path d="M30.0605 64L41.5 75.5605" stroke="#038910" stroke-width="3"/>
<path d="M236.5 64L225.061 75.5605" stroke="#038910" stroke-width="3"/>
<path d="M225.061 64L236.5 75.5605" stroke="#038910" stroke-width="3"/>
<path d="M125.5 64L114.061 75.5605" stroke="#038910" stroke-width="3"/>
<path d="M114.061 64L125.5 75.5605" stroke="#038910" stroke-width="3"/>
<path d="M27.5 64L16.0605 75.5605" stroke="#038910" stroke-width="3"/>
<path d="M16.0605 64L27.5 75.5605" stroke="#038910" stroke-width="3"/>
<path d="M222.5 64L211.061 75.5605" stroke="#038910" stroke-width="3"/>
<path d="M211.061 64L222.5 75.5605" stroke="#038910" stroke-width="3"/>
<path d="M319.5 64L308.061 75.5605" stroke="#038910" stroke-width="3"/>
<path d="M308.061 64L319.5 75.5605" stroke="#038910" stroke-width="3"/>
<path d="M111.5 64L100.061 75.5605" stroke="#038910" stroke-width="3"/>
<path d="M100.061 64L111.5 75.5605" stroke="#038910" stroke-width="3"/>
<path d="M13.5 64L2.06055 75.5605" stroke="#038910" stroke-width="3"/>
<path d="M2.06055 64L13.5 75.5605" stroke="#038910" stroke-width="3"/>
<path d="M208.5 64L197.061 75.5605" stroke="#038910" stroke-width="3"/>
<path d="M197.061 64L208.5 75.5605" stroke="#038910" stroke-width="3"/>
<path d="M305.5 64L294.061 75.5605" stroke="#038910" stroke-width="3"/>
<path d="M294.061 64L305.5 75.5605" stroke="#038910" stroke-width="3"/>
<path d="M97.5 64L86.0605 75.5605" stroke="#038910" stroke-width="3"/>
<path d="M86.0605 64L97.5 75.5605" stroke="#038910" stroke-width="3"/>
<path d="M194.5 64L183.061 75.5605" stroke="#038910" stroke-width="3"/>
<path d="M183.061 64L194.5 75.5605" stroke="#038910" stroke-width="3"/>
<path d="M291.5 64L280.061 75.5605" stroke="#038910" stroke-width="3"/>
<path d="M280.061 64L291.5 75.5605" stroke="#038910" stroke-width="3"/>
<path d="M83.5 64L72.0605 75.5605" stroke="#038910" stroke-width="3"/>
<path d="M72.0605 64L83.5 75.5605" stroke="#038910" stroke-width="3"/>
<path d="M180.5 64L169.061 75.5605" stroke="#038910" stroke-width="3"/>
<path d="M169.061 64L180.5 75.5605" stroke="#038910" stroke-width="3"/>
<path d="M277.5 64L266.061 75.5605" stroke="#038910" stroke-width="3"/>
<path d="M266.061 64L277.5 75.5605" stroke="#038910" stroke-width="3"/>
<path d="M69.5 64L58.0605 75.5605" stroke="#038910" stroke-width="3"/>
<path d="M58.0605 64L69.5 75.5605" stroke="#038910" stroke-width="3"/>
<path d="M167.5 64L156.061 75.5605" stroke="#038910" stroke-width="3"/>
<path d="M156.061 64L167.5 75.5605" stroke="#038910" stroke-width="3"/>
<path d="M264.5 64L253.061 75.5605" stroke="#038910" stroke-width="3"/>
<path d="M253.061 64L264.5 75.5605" stroke="#038910" stroke-width="3"/>
<path d="M260.5 102L249.061 113.561" stroke="#FFC700" stroke-width="3"/>
<path d="M249.061 102L260.5 113.561" stroke="#FFC700" stroke-width="3"/>
<path d="M266.061 50L277.5 61.5605" stroke="#038910" stroke-width="3"/>
<path d="M277.5 50L266.061 61.5605" stroke="#038910" stroke-width="3"/>
<path d="M254.061 38L265.5 49.5605" stroke="#038910" stroke-width="3"/>
<path d="M265.5 38L254.061 49.5605" stroke="#038910" stroke-width="3"/>
<path d="M242.061 26L253.5 37.5605" stroke="#FFC700" stroke-width="3"/>
<path d="M253.5 26L242.061 37.5605" stroke="#FFC700" stroke-width="3"/>
<path d="M230.061 14L241.5 25.5605" stroke="#FFC700" stroke-width="3"/>
<path d="M241.5 14L230.061 25.5605" stroke="#FFC700" stroke-width="3"/>
<path d="M242.061 2L253.5 13.5605" stroke="#FFC700" stroke-width="3"/>
<path d="M253.5 2L242.061 13.5605" stroke="#FFC700" stroke-width="3"/>
<path d="M218.061 26L229.5 37.5605" stroke="#FFC700" stroke-width="3"/>
<path d="M229.5 26L218.061 37.5605" stroke="#FFC700" stroke-width="3"/>
<path d="M218.061 2L229.5 13.5605" stroke="#FFC700" stroke-width="3"/>
<path d="M229.5 2L218.061 13.5605" stroke="#FFC700" stroke-width="3"/>
<path d="M266.061 78L277.5 89.5605" stroke="#038910" stroke-width="3"/>
<path d="M277.5 78L266.061 89.5605" stroke="#038910" stroke-width="3"/>
<path d="M254.061 90L265.5 101.561" stroke="#038910" stroke-width="3"/>
<path d="M265.5 90L254.061 101.561" stroke="#038910" stroke-width="3"/>
<path d="M230.061 114L241.5 125.561" stroke="#FFC700" stroke-width="3"/>
<path d="M241.5 114L230.061 125.561" stroke="#FFC700" stroke-width="3"/>
<path d="M242.061 126L253.5 137.561" stroke="#FFC700" stroke-width="3"/>
<path d="M253.5 126L242.061 137.561" stroke="#FFC700" stroke-width="3"/>
<path d="M218.061 126L229.5 137.561" stroke="#FFC700" stroke-width="3"/>
<path d="M229.5 126L218.061 137.561" stroke="#FFC700" stroke-width="3"/>
<path d="M218.061 102L229.5 113.561" stroke="#FFC700" stroke-width="3"/>
<path d="M229.5 102L218.061 113.561" stroke="#FFC700" stroke-width="3"/>
<path d="M197.061 50L208.5 61.5605" stroke="#038910" stroke-width="3"/>
<path d="M208.5 50L197.061 61.5605" stroke="#038910" stroke-width="3"/>
<path d="M185.061 38L196.5 49.5605" stroke="#038910" stroke-width="3"/>
<path d="M196.5 38L185.061 49.5605" stroke="#038910" stroke-width="3"/>
<path d="M173.061 26L184.5 37.5605" stroke="#FFC700" stroke-width="3"/>
<path d="M184.5 26L173.061 37.5605" stroke="#FFC700" stroke-width="3"/>
<path d="M161.061 14L172.5 25.5605" stroke="#FFC700" stroke-width="3"/>
<path d="M172.5 14L161.061 25.5605" stroke="#FFC700" stroke-width="3"/>
<path d="M173.061 2L184.5 13.5605" stroke="#FFC700" stroke-width="3"/>
<path d="M184.5 2L173.061 13.5605" stroke="#FFC700" stroke-width="3"/>
<path d="M149.061 26L160.5 37.5605" stroke="#FFC700" stroke-width="3"/>
<path d="M160.5 26L149.061 37.5605" stroke="#FFC700" stroke-width="3"/>
<path d="M149.061 2L160.5 13.5605" stroke="#FFC700" stroke-width="3"/>
<path d="M160.5 2L149.061 13.5605" stroke="#FFC700" stroke-width="3"/>
<path d="M197.061 78L208.5 89.5605" stroke="#038910" stroke-width="3"/>
<path d="M208.5 78L197.061 89.5605" stroke="#038910" stroke-width="3"/>
<path d="M185.061 90L196.5 101.561" stroke="#038910" stroke-width="3"/>
<path d="M196.5 90L185.061 101.561" stroke="#038910" stroke-width="3"/>
<path d="M173.061 102L184.5 113.561" stroke="#FFC700" stroke-width="3"/>
<path d="M184.5 102L173.061 113.561" stroke="#FFC700" stroke-width="3"/>
<path d="M161.061 114L172.5 125.561" stroke="#FFC700" stroke-width="3"/>
<path d="M172.5 114L161.061 125.561" stroke="#FFC700" stroke-width="3"/>
<path d="M173.061 126L184.5 137.561" stroke="#FFC700" stroke-width="3"/>
<path d="M184.5 126L173.061 137.561" stroke="#FFC700" stroke-width="3"/>
<path d="M149.061 126L160.5 137.561" stroke="#FFC700" stroke-width="3"/>
<path d="M160.5 126L149.061 137.561" stroke="#FFC700" stroke-width="3"/>
<path d="M149.061 102L160.5 113.561" stroke="#FFC700" stroke-width="3"/>
<path d="M160.5 102L149.061 113.561" stroke="#FFC700" stroke-width="3"/>
<path d="M58.0605 50L69.5 61.5605" stroke="#038910" stroke-width="3"/>
<path d="M69.5 50L58.0605 61.5605" stroke="#038910" stroke-width="3"/>
<path d="M46.0605 38L57.5 49.5605" stroke="#038910" stroke-width="3"/>
<path d="M57.5 38L46.0605 49.5605" stroke="#038910" stroke-width="3"/>
<path d="M34.0605 26L45.5 37.5605" stroke="#FFC700" stroke-width="3"/>
<path d="M45.5 26L34.0605 37.5605" stroke="#FFC700" stroke-width="3"/>
<path d="M22.0605 14L33.5 25.5605" stroke="#FFC700" stroke-width="3"/>
<path d="M33.5 14L22.0605 25.5605" stroke="#FFC700" stroke-width="3"/>
<path d="M34.0605 2L45.5 13.5605" stroke="#FFC700" stroke-width="3"/>
<path d="M45.5 2L34.0605 13.5605" stroke="#FFC700" stroke-width="3"/>
<path d="M10.0605 26L21.5 37.5605" stroke="#FFC700" stroke-width="3"/>
<path d="M21.5 26L10.0605 37.5605" stroke="#FFC700" stroke-width="3"/>
<path d="M10.0605 2L21.5 13.5605" stroke="#FFC700" stroke-width="3"/>
<path d="M21.5 2L10.0605 13.5605" stroke="#FFC700" stroke-width="3"/>
<path d="M58.0605 78L69.5 89.5605" stroke="#038910" stroke-width="3"/>
<path d="M69.5 78L58.0605 89.5605" stroke="#038910" stroke-width="3"/>
<path d="M46.0605 90L57.5 101.561" stroke="#038910" stroke-width="3"/>
<path d="M57.5 90L46.0605 101.561" stroke="#038910" stroke-width="3"/>
<path d="M34.0605 102L45.5 113.561" stroke="#FFC700" stroke-width="3"/>
<path d="M45.5 102L34.0605 113.561" stroke="#FFC700" stroke-width="3"/>
<path d="M22.0605 114L33.5 125.561" stroke="#FFC700" stroke-width="3"/>
<path d="M33.5 114L22.0605 125.561" stroke="#FFC700" stroke-width="3"/>
<path d="M34.0605 126L45.5 137.561" stroke="#FFC700" stroke-width="3"/>
<path d="M45.5 126L34.0605 137.561" stroke="#FFC700" stroke-width="3"/>
<path d="M10.0605 126L21.5 137.561" stroke="#FFC700" stroke-width="3"/>
<path d="M21.5 126L10.0605 137.561" stroke="#FFC700" stroke-width="3"/>
<path d="M10.0605 102L21.5 113.561" stroke="#FFC700" stroke-width="3"/>
<path d="M21.5 102L10.0605 113.561" stroke="#FFC700" stroke-width="3"/>
<path d="M128.061 50L139.5 61.5605" stroke="#038910" stroke-width="3"/>
<path d="M139.5 50L128.061 61.5605" stroke="#038910" stroke-width="3"/>
<path d="M116.061 38L127.5 49.5605" stroke="#038910" stroke-width="3"/>
<path d="M127.5 38L116.061 49.5605" stroke="#038910" stroke-width="3"/>
<path d="M104.061 26L115.5 37.5605" stroke="#FFC700" stroke-width="3"/>
<path d="M115.5 26L104.061 37.5605" stroke="#FFC700" stroke-width="3"/>
<path d="M92.0605 14L103.5 25.5605" stroke="#FFC700" stroke-width="3"/>
<path d="M103.5 14L92.0605 25.5605" stroke="#FFC700" stroke-width="3"/>
<path d="M104.061 2L115.5 13.5605" stroke="#FFC700" stroke-width="3"/>
<path d="M115.5 2L104.061 13.5605" stroke="#FFC700" stroke-width="3"/>
<path d="M80.0605 26L91.5 37.5605" stroke="#FFC700" stroke-width="3"/>
<path d="M91.5 26L80.0605 37.5605" stroke="#FFC700" stroke-width="3"/>
<path d="M80.0605 2L91.5 13.5605" stroke="#FFC700" stroke-width="3"/>
<path d="M91.5 2L80.0605 13.5605" stroke="#FFC700" stroke-width="3"/>
<path d="M128.061 78L139.5 89.5605" stroke="#038910" stroke-width="3"/>
<path d="M139.5 78L128.061 89.5605" stroke="#038910" stroke-width="3"/>
<path d="M116.061 90L127.5 101.561" stroke="#038910" stroke-width="3"/>
<path d="M127.5 90L116.061 101.561" stroke="#038910" stroke-width="3"/>
<path d="M104.061 102L115.5 113.561" stroke="#FFC700" stroke-width="3"/>
<path d="M115.5 102L104.061 113.561" stroke="#FFC700" stroke-width="3"/>
<path d="M92.0605 114L103.5 125.561" stroke="#FFC700" stroke-width="3"/>
<path d="M103.5 114L92.0605 125.561" stroke="#FFC700" stroke-width="3"/>
<path d="M104.061 126L115.5 137.561" stroke="#FFC700" stroke-width="3"/>
<path d="M115.5 126L104.061 137.561" stroke="#FFC700" stroke-width="3"/>
<path d="M80.0605 126L91.5 137.561" stroke="#FFC700" stroke-width="3"/>
<path d="M91.5 126L80.0605 137.561" stroke="#FFC700" stroke-width="3"/>
<path d="M80.0605 102L91.5 113.561" stroke="#FFC700" stroke-width="3"/>
<path d="M91.5 102L80.0605 113.561" stroke="#FFC700" stroke-width="3"/>
</svg>
